<svg viewBox="0 0 1000 1000" xmlns="http://www.w3.org/2000/svg"><path d="m707 584.7c-49.52 25.94-115 17-155.78-21.3-2.25-2.11-4.52-4.47-5.22-7.47-1.29-5.58 3.89-11.17 9.58-11.79s11.21 2.61 15 6.88c-6.13 1.76-12.74-4.39-12.26-10.75s6.88-11.33 13.25-11.2 12.17 4.61 14.93 10.37c-7.23 1.11-12.75-8.24-10.12-15.05s10.39-10.41 17.69-10.84 14.49 1.57 21.73 2.55 15.17.78 21.11-3.47" fill="#1a1c1c"/><path d="m706.31 583.55a128.56 128.56 0 0 1 -37.37 12.56 140.13 140.13 0 0 1 -39.49 1.14 141.6 141.6 0 0 1 -38.29-9.82 129.62 129.62 0 0 1 -33.65-20.23 72.18 72.18 0 0 1 -7.51-6.91c-2.34-2.59-3.76-5.88-2.13-9.24a10.22 10.22 0 0 1 7.52-5.54c3.59-.54 7.21.82 10.14 2.81a23.36 23.36 0 0 1 4.11 3.65l.59-2.24c-3.18.84-6.32-.66-8.38-3.08a8.75 8.75 0 0 1 -1.55-9c2.63-6.5 10.68-8.79 16.74-5.91a17.92 17.92 0 0 1 8.3 8.39l1.16-2c-4.61.61-8.07-3.22-9.12-7.39-1.21-4.82 1.36-9.33 5.28-12.05 10.78-7.47 24.22-1.9 36-.91 6.52.56 13.45-.13 19-4 1.4-1 .07-3.3-1.35-2.31-12.1 8.44-27.55.45-40.75.69-5.67.1-11.45 1.74-15.83 5.46-4.12 3.5-6.26 8.79-4.78 14.1 1.41 5.08 6 9.81 11.62 9a1.35 1.35 0 0 0 1.15-2c-3.67-7.48-12.46-13.16-20.88-10.27a14.83 14.83 0 0 0 -8.79 7.8 11.33 11.33 0 0 0 1.24 11.32c2.67 3.66 7.2 5.89 11.72 4.7a1.35 1.35 0 0 0 .59-2.23c-4.87-5.37-12.75-9.45-19.91-6.18a12.62 12.62 0 0 0 -6.66 7.24c-1.19 3.49-.07 7 2.13 9.83a52.63 52.63 0 0 0 7.83 7.53q4 3.43 8.36 6.53a131.86 131.86 0 0 0 17.85 10.75 141.92 141.92 0 0 0 39.78 13 143.61 143.61 0 0 0 41.86 1 133 133 0 0 0 40.29-11.56c1.55-.73 3.09-1.5 4.61-2.29s.17-3.11-1.36-2.31z" fill="#1a1c1c"/><path d="m664.8 527.43a2198.94 2198.94 0 0 0 -19.8 285.29 57.24 57.24 0 0 0 -22.58 17.64c2.43 6 10.09 7.48 16.53 8a774.35 774.35 0 0 0 87.37 2.47c5-.14 10.26-.41 14.48-3.09 8.46-5.39 8.82-17.39 8.31-27.42a1956.43 1956.43 0 0 1 5.72-279.92" fill="#ff7f00"/><g fill="#1a1c1c"><path d="m662.8 542.68q-.88 6.93-1.72 13.85a36.28 36.28 0 0 0 3.58 1.66c27.53 11.4 56.84 17.66 86.11 23.43q1.68-25.62 4-51.19l-34.3-1.14z"/><path d="m661.46 542.68q-.88 6.93-1.72 13.85a1.32 1.32 0 0 0 .66 1.16c5.27 2.77 11.1 4.71 16.69 6.69 5.79 2 11.64 3.91 17.53 5.63 11.67 3.39 23.49 6.19 35.36 8.73 6.8 1.46 13.61 2.82 20.43 4.17a1.36 1.36 0 0 0 1.69-1.29q1.7-25.62 4-51.19a1.35 1.35 0 0 0 -1.34-1.34l-18.9-.63-11.86-.39a17.74 17.74 0 0 0 -4.12 0c-5.22 1.06-10.39 2.41-15.57 3.61l-25.9 6c-5.24 1.22-10.59 2.21-15.77 3.66a2.27 2.27 0 0 1 -.25.06c-1.67.39-1 3 .71 2.58l13-3 25.62-6 18.09-4.2.72-.16c.29-.09.37 0-.1 0 .57.06 1.16 0 1.73.06l10.49.35 13.22.44c2.78.09 5.66.42 8.44.28h.42l-1.34-1.34q-2.36 25.56-4 51.19l1.69-1.29c-23.73-4.68-47.5-9.67-70.42-17.52q-4.8-1.65-9.54-3.46a88.35 88.35 0 0 1 -9.41-4l.66 1.15q.86-6.91 1.73-13.85c.26-1.63-2.42-1.63-2.64.05z"/><path d="m663.51 527.07q-7.51 55.39-12.18 111.11t-6.53 111.82q-1 31.34-1.15 62.69l.66-1.16a59.2 59.2 0 0 0 -23.06 18.13 1.33 1.33 0 0 0 0 1.35c2 4.76 7 6.92 11.84 7.9 6.34 1.28 13 1.39 19.45 1.82q22.58 1.51 45.23 1.72 11.47.09 23-.14c6.24-.13 13.13.26 18.93-2.44 10.11-4.69 11.19-17.2 10.89-27-.45-14.76-1.36-29.5-1.8-44.26q-.68-22.73-.83-45.45-.3-45.47 1.51-90.9t5.73-90.73q.48-5.58 1-11.16c.16-1.71-2.52-1.7-2.68 0q-4.05 44-6.13 88.2t-2.2 88.43q-.08 44.37 1.87 88.71c.29 6.6.84 13.22.84 19.82 0 5.05-.36 10.45-2.62 15.05-2.61 5.33-7.49 7.91-13.25 8.57-6.89.79-14 .56-20.92.62q-22 .19-44-.87-11-.54-22-1.38c-5.51-.42-11.72-.39-16.77-3a9.79 9.79 0 0 1 -4.78-4.9v1.38a56.63 56.63 0 0 1 22.1-17.17 1.3 1.3 0 0 0 .66-1.15q.24-55.87 3.31-111.68 3.06-55.49 8.92-110.75 3.33-31.31 7.54-62.51c.23-1.68-2.35-2.41-2.58-.71z"/></g><path d="m770.77 529.26a888.84 888.84 0 0 0 16.46 261.74c.84 3.92 1.69 8.08.32 11.84-2.24 6.1-9.19 8.69-15 11.52s-12 8.37-10.3 14.63c1.83 6.78 10.82 8 17.84 7.72a1070.1 1070.1 0 0 0 123.29-11.53c3.58-.55 7.44-1.25 9.91-3.89 3.39-3.61 2.87-9.26 2.13-14.14q-22.38-147.43-55.27-293" fill="#ff7f00"/><g fill="#1a1c1c"><path d="m861.25 519.25-2.49.07q-19.43.7-38.83 1.63l-49.16 8.31q-2.38 27.78-3 55.68l68.91 13.45c13.72 2.68 29.23 4.92 41.4-.71q-8.08-39.3-16.83-78.43z"/><path d="m861.25 517.91c-12.28.3-24.57.92-36.84 1.49a50.68 50.68 0 0 0 -6 .47l-4.72.79-33.73 5.7-9.55 1.64a1.35 1.35 0 0 0 -1 1.29q-2.37 27.78-3 55.68a1.34 1.34 0 0 0 1 1.29l46.42 9.06q11.65 2.28 23.31 4.55a131.41 131.41 0 0 0 20 2.62c7.39.28 14.86-.54 21.65-3.63a1.35 1.35 0 0 0 .61-1.51q-6.24-30.55-13-61-1.92-8.7-3.87-17.4c-.38-1.68-3-1-2.58.71q6.84 30.45 13.21 61 1.83 8.71 3.61 17.45l.62-1.51c-12 5.47-26.23 3.27-38.72.9-15.07-2.86-30.1-5.87-45.15-8.81l-25.41-5 1 1.29q.64-27.88 3-55.68l-1 1.29 24.46-4.13 16.84-2.85c2.59-.44 5.24-1.09 7.86-1.33 3.34-.3 6.75-.28 10.1-.43s7-.31 10.46-.45c6.8-.29 13.6-.61 20.41-.77 1.76-.09 1.76-2.76.01-2.72z"/><path d="m769.43 529.26q-3.4 39.87-3.22 79.94t4 79.92q3.78 39.71 11.08 79 1.85 9.84 3.89 19.63c1.17 5.56 3.49 12.29-.32 17.34-2.89 3.82-7.8 5.71-12 7.69-4.42 2.09-9.05 5.12-11.2 9.71a9.81 9.81 0 0 0 2.26 11.67c3.22 2.78 7.69 3.62 11.81 3.89 5.95.39 12-.23 18-.51q10.15-.5 20.3-1.17 40.43-2.72 80.58-8.49c3.29-.47 6.58-.94 9.85-1.47a21.72 21.72 0 0 0 7.2-2.14c4.65-2.58 5.88-7.72 5.59-12.68-.36-6.2-1.72-12.43-2.67-18.57q-1.56-10.05-3.17-20.1-6.45-40.18-13.67-80.24t-15.25-79.98q-8-39.91-16.79-79.65-2.12-9.63-4.29-19.24c-.38-1.68-3-1-2.59.71q8.79 38.93 16.84 78t15.34 78.33q7.26 39.07 13.79 78.28 3.29 19.75 6.38 39.55c1 6.44 2.05 12.88 3 19.33.72 5 1.11 11.29-4.1 14-2.35 1.24-5.11 1.58-7.7 2q-5 .76-10.06 1.48-9.88 1.41-19.8 2.62-19.86 2.45-39.81 4.13-19.79 1.68-39.63 2.62c-5.8.28-11.75.88-17.56.47-3.83-.27-8.73-1.14-11.06-4.58-3.12-4.62.55-9.65 4.27-12.49 3.94-3 8.79-4.42 13-7 4-2.48 7.17-6 7.79-10.77a26.2 26.2 0 0 0 -.71-8.68c-.64-3.13-1.33-6.25-2-9.39q-7.87-38.56-12.31-77.74-4.38-38.83-5.34-78t1.54-78.44q.62-9.51 1.43-19c.14-1.72-2.53-1.71-2.68 0z"/><path d="m559.6 479.54.09-55.77c0-2.22 0-4.58-1.21-6.46-1.79-2.85-5.53-3.63-8.86-4.16l-163-25.69c-7.56-1.2-16.21-2.1-22 2.9-5.63 4.86-6.16 13.25-6.27 20.69l-.72 49.78c-.05 3-.06 6.15 1.27 8.84 2.62 5.32 9.26 7 15.08 8.08q54.17 10.37 107.26 25.59c2.95.84 6.33 2.11 7.2 5.05.65 2.15-.33 4.41-.81 6.6-1.64 7.56 3 15.41 9.38 19.71s14.31 5.74 22 6.63c10.34 1.19 21.57 1.39 30.26-4.33s9.73-36.36 10.33-57.46"/><path d="m560.94 479.54.06-35.36v-17.92c0-4.71.24-9.87-4.47-12.47a18.68 18.68 0 0 0 -5.89-1.82c-2.85-.48-5.71-.9-8.57-1.35l-17.48-2.76-35-5.51-70.17-11.06c-11.47-1.81-22.92-3.77-34.41-5.41-8.63-1.24-18.81-1.41-24.18 6.75-2.38 3.62-3.23 8-3.61 12.26-.46 5.18-.33 10.43-.41 15.62l-.51 35.34c-.07 5-.91 10.93 1.88 15.38 2.16 3.47 6 5.35 9.75 6.49 4.79 1.45 9.84 2.13 14.73 3.1q8.5 1.69 17 3.5 34 7.28 67.56 16.48c2.75.75 5.49 1.52 8.23 2.29 2.47.69 5 1.29 7.4 2.18 1.84.67 4 1.78 4.38 3.91a9.17 9.17 0 0 1 -.53 3.91 22 22 0 0 0 -.72 3.77c-.81 9.39 6.39 17.55 14.42 21.29a52.26 52.26 0 0 0 14.58 4 98.85 98.85 0 0 0 14.78 1.19 42.13 42.13 0 0 0 14.24-2.25c3.19-1.17 6.47-2.71 8.54-5.5a24.92 24.92 0 0 0 3.52-7.68 75.1 75.1 0 0 0 2.26-10.47 237.06 237.06 0 0 0 2.19-25.8q.26-6 .41-12.1c0-1.72-2.63-1.72-2.68 0-.23 8.29-.5 16.58-1.15 24.85-.59 7.55-1.36 15.26-3.53 22.54a22.88 22.88 0 0 1 -3.21 7.16c-2 2.64-5.54 4-8.59 4.93-9 2.79-19.23 1.76-28.4.17s-18.9-5.28-23.17-14.31a16.11 16.11 0 0 1 -1.56-6.16c-.09-2.51.79-4.7 1.19-7.13a7 7 0 0 0 -1.47-6 11.69 11.69 0 0 0 -5.1-3c-5-1.74-10.21-2.95-15.29-4.35q-8.13-2.22-16.27-4.34-16.18-4.2-32.48-8t-32.91-7.11c-5.07-1-10.19-1.83-15.22-3-3.67-.87-7.82-2.17-10.17-5.35a11.48 11.48 0 0 1 -1.94-6.57c-.11-2.66 0-5.34.06-8l.25-17.17.25-17.18c.07-5.15 0-10.34.33-15.48.29-4.15 1-8.5 3.33-12s6.4-5.49 10.62-6c4.57-.5 9.17.21 13.68.92l17 2.68 67.7 10.67 67.72 10.69 8.37 1.32a23.91 23.91 0 0 1 6.31 1.5 5.93 5.93 0 0 1 3.62 4.8 57 57 0 0 1 .14 8.16l-.06 34.11v16.68a1.34 1.34 0 0 0 2.68 0z"/><path d="m655.27 371.33c20.62-53.45 66.51-96.51 121.17-113.68 11.36-3.56 23.38-6.08 35.14-4.24s23.27 8.74 28 19.66c4.63 10.67 2.1 23.41-3.94 33.35s-15.17 17.59-24.39 24.7c-22.58 17.42-46.91 32.82-73.25 43.88"/><path d="m656.57 371.68a189 189 0 0 1 37.58-59.89 194.63 194.63 0 0 1 56.61-42.39 168 168 0 0 1 35.12-13c13.16-3.15 27.58-3.73 39.63 3.31a31.17 31.17 0 0 1 12 12 29.83 29.83 0 0 1 2.69 18.91c-2.27 13.54-11.41 24.14-21.53 32.79a325.39 325.39 0 0 1 -34.13 25 308.38 308.38 0 0 1 -37.29 20.92c-3.16 1.48-6.35 2.91-9.56 4.26-1.56.66-.88 3.25.71 2.58 27.21-11.46 52.29-27.39 75.52-45.52 10.77-8.41 21.43-18 26.53-31a38.84 38.84 0 0 0 2.55-19.52 30.11 30.11 0 0 0 -8.06-16.43c-9.09-9.54-22.64-12.93-35.45-12.12-13.72.88-27.24 5.53-39.84 10.84a195.59 195.59 0 0 0 -60.65 40.5 193.34 193.34 0 0 0 -41.63 59.78q-1.77 4.1-3.37 8.3c-.62 1.61 2 2.31 2.59.71z"/></g><path d="m884.33 383.82c-11-30.07-39.48-37.88-69.13-42.42-26.26-4-52.92-3.94-79.42-4.52a957.6 957.6 0 0 0 -116.72 4.52c-7.62.76-15.81 1.88-21.35 7.17-4.31 4.12-6.25 10.09-7.86 15.83a312.43 312.43 0 0 0 -10.66 60.31c-1 12.62-1.11 25.65 3.32 37.5s14.29 22.39 26.79 24.34c3.73.59 7.67.44 11.06 2.11 15.68 7.73-2.5 34.1 6.81 48.9 5.21 8.28 16.71 9.2 26.5 9.16q97.53-.44 194.74-9.93c9.43-.92 19.27-2 27.15-7.3 14.1-9.37 17.43-28.44 18.22-45.35 1.52-32.75 1.63-67.15-8.85-98.59-.19-.55-.4-1.16-.6-1.73z" fill="#fff"/><path d="m884.33 383.82c-11-30.07-39.48-37.88-69.13-42.42-26.26-4-52.92-3.94-79.42-4.52l-6.47-.12a141.24 141.24 0 0 0 86.55 147.24c22.46 9.25 46.87 12.55 71 15.08l5.28.53a120.82 120.82 0 0 0 1.62-15.48c1.52-32.75 1.63-67.15-8.85-98.59-.17-.54-.38-1.15-.58-1.72z" fill="#ff7f00"/><g fill="#1a1c1c"><path d="m799.14 402.88c4.15 16.31 13.73 30.63 23.28 44.49 6.13 8.9 12.31 17.75 18.68 26.48 12 16.5 25.38 33.09 43.79 41.92a83.22 83.22 0 0 0 3-63.47"/><path d="m797.85 403.23c4.85 18.85 16.53 34.93 27.46 50.67 5.83 8.39 11.7 16.75 17.82 24.94a191 191 0 0 0 17.25 20.52 87.84 87.84 0 0 0 23.83 17.57 1.37 1.37 0 0 0 1.84-.48 85.16 85.16 0 0 0 6.83-50.45 81.37 81.37 0 0 0 -3.73-14.08c-.58-1.61-3.17-.91-2.58.71a82.27 82.27 0 0 1 2 49.09 79 79 0 0 1 -4.89 13.35l1.84-.48c-15.86-7.66-27.89-21-38.39-34.81-6-7.92-11.76-16.06-17.45-24.22-5.58-8-11.23-16-16.34-24.28-5.53-9-10.32-18.5-13-28.78a1.34 1.34 0 0 0 -2.58.71z"/><path d="m885.62 383.47a56.52 56.52 0 0 0 -22.22-28.13c-10.07-6.58-21.81-10.18-33.48-12.66-32.9-7-66.91-6.74-100.39-7.25a958.78 958.78 0 0 0 -108 4.38c-7.06.69-14.59 1.24-20.86 4.88s-9.4 10.2-11.43 17a293.9 293.9 0 0 0 -10.15 50.31c-1.93 16.36-3.79 34.17 1.93 50 4.33 12 14 23.16 27 25.66 5.72 1.1 12.9.36 16.14 6.29 2.22 4.07 1.59 9.33 1 13.74-1.26 9.71-4.84 21.51.81 30.51 7.45 11.83 25.13 9.87 37 9.77q26.88-.24 53.75-1.17 54-1.87 108-6.52c8.77-.76 17.54-1.53 26.29-2.45 7.45-.78 15-1.88 21.8-5.26 11.93-5.94 17.79-18.4 20.29-30.91a130.77 130.77 0 0 0 2.09-19.84c.37-8.37.63-16.74.64-25.12 0-16.65-.94-33.36-4-49.75a153.81 153.81 0 0 0 -6.2-23.51c-.58-1.61-3.17-.92-2.58.71 11.07 30.85 10.95 64.85 9.52 97.13-.55 12.64-1.66 26.19-8.43 37.25a31.17 31.17 0 0 1 -14.3 12.53c-6.93 3-14.61 3.73-22.05 4.45q-52.27 5.1-104.75 7.57-26.24 1.24-52.49 1.82-13.12.29-26.25.41c-7.29.07-14.81.58-22-.65-5.8-1-11.65-3.34-14.54-8.81-2.36-4.47-2.25-9.82-1.76-14.71.52-5.21 1.64-10.35 2.16-15.56.43-4.31.5-9-1.63-12.95-2.84-5.21-8.5-6.48-14-7a30.58 30.58 0 0 1 -17.87-7.68c-11.29-10.14-14.61-25.37-14.66-39.95a209.41 209.41 0 0 1 1.65-24.77q1.46-12.8 4-25.43c1.65-8.23 3.59-16.42 5.93-24.47 2-6.87 4.86-13.48 11.54-16.89s14.41-3.57 21.57-4.24q13.07-1.23 26.16-2.1 26.35-1.75 52.77-2c17.52-.2 35 .2 52.55.56 17.27.36 34.57 1 51.72 3.11 12.78 1.6 25.73 3.79 37.91 8.07 10.82 3.81 21 9.68 28.38 18.62a54.22 54.22 0 0 1 8.82 15.72c.63 1.6 3.22.91 2.62-.71z"/></g><path d="m785.35 383.12c18.06 36.82 45.64 68.81 78.92 92.77 14.15 10.19 29.73 19.11 46.87 22.22s36.2-.36 48.89-12.32c17.28-16.3 18.55-44.62 8.44-66.12s-29.26-37.29-49.07-50.4a139.81 139.81 0 0 0 -22.4-12.6c-26.14-11.08-55.76-8.69-84-6.1" fill="#ff7f00"/><path d="m784.19 383.8a245.2 245.2 0 0 0 25.32 40.77 255.75 255.75 0 0 0 32.43 35.06c12.15 10.9 25.36 21.1 39.71 29 14.1 7.72 30 13 46.19 11.77 14.74-1.07 29.09-7.29 38.16-19.27 8.28-10.94 11.13-25.28 9.92-38.76-1.34-14.81-7.57-28.31-16.62-40-9.63-12.41-22-22.43-34.85-31.29a177 177 0 0 0 -22.19-13.44 98 98 0 0 0 -24.66-8.15c-17.07-3.27-34.6-2.69-51.84-1.34-4.27.33-8.54.71-12.8 1.1-1.7.16-1.72 2.84 0 2.68 16.88-1.55 33.91-3 50.86-1.62a112.55 112.55 0 0 1 24.87 4.69 105.75 105.75 0 0 1 23.31 11.08c13.28 8.17 26.19 17.44 37.12 28.62 10.21 10.46 18.76 23 22.39 37.31 3.27 12.89 2.89 27.22-2.78 39.39a43.61 43.61 0 0 1 -12.22 15.72 48.82 48.82 0 0 1 -19.74 9.23c-15.25 3.5-31 .5-45.14-5.8-14.71-6.57-28.06-16.21-40.4-26.47a255.87 255.87 0 0 1 -33-32.91 245.1 245.1 0 0 1 -26.44-38.66q-2.73-5-5.24-10.07c-.76-1.54-3.07-.19-2.31 1.36z" fill="#1a1c1c"/><path d="m761.19 460.14a1678.93 1678.93 0 0 0 -281-25.75c-8.36-.06-18.66 1.18-21.73 9-3.42 8.67 9.65 17.88 16.67 11.75-8.48-1.52-17.1 7.12-15.55 15.6s12.67 13.51 20.06 9.08c-2.91-4.2-10.42-2.32-12.25 2.45s.89 10.33 5 13.36 9.32 4.09 14.34 5.05a1460.84 1460.84 0 0 0 201.36 24.44" fill="#fff"/><g fill="#1a1c1c"><path d="m761.55 458.85q-36.27-6.44-72.8-11.27t-73.15-8.08q-36.66-3.22-73.45-4.86-18.45-.81-36.93-1.22-9.23-.21-18.47-.31a97.87 97.87 0 0 0 -14.63.41c-7 1-16.43 5.09-15.5 13.71.73 6.77 8.25 12.2 14.9 11a9.66 9.66 0 0 0 4.55-2.21 1.35 1.35 0 0 0 -.59-2.24c-7.82-1.25-15.76 4.61-17.18 12.4-1.3 7.36 3.8 13.82 10.7 15.9a14.37 14.37 0 0 0 11.37-1.14 1.35 1.35 0 0 0 .48-1.83c-3.27-4.42-10.05-3.57-13.35.43-4.2 5.1-1.19 12.68 3.32 16.45 6.14 5.14 15.08 5.86 22.64 7.28q13.3 2.49 26.67 4.74 53.29 9 107.17 14 30.39 2.84 60.86 4.41c1.72.08 1.72-2.59 0-2.68q-50.54-2.61-100.81-8.69t-99.9-15.64c-7.26-1.4-16.71-3.36-18.94-11.64-.84-3.13 0-6.44 3-8.07 2.17-1.21 5.44-1.46 7.08.76l.48-1.83c-6.17 3.55-15.19.16-17.63-6.52-2.9-8 5.25-17 13.43-15.72l-.59-2.23c-5.22 4.37-14-.85-14.89-7-.48-3.52 2-6.71 4.88-8.42 3.39-2 7.5-2.66 11.38-2.92 5.1-.34 10.26-.08 15.37 0q8.64.12 17.28.32 17.58.42 35.15 1.21 35 1.58 69.87 4.6t69.62 7.51q34.85 4.5 69.48 10.46l8.52 1.49c1.68.3 2.4-2.28.71-2.58z"/><path d="m166.79 276h49.29v251.43h-49.29z"/><path d="m216.08 526.09h-49.29l1.34 1.34v-241.22c0-3.24.21-6.55 0-9.78 0-.14 0-.29 0-.43l-1.34 1.34h49.29l-1.34-1.34v241.22c0 3.26-.06 6.52 0 9.78v.43a1.34 1.34 0 0 0 2.68 0v-241.22c0-3.26.06-6.53 0-9.78 0-.15 0-.29 0-.43a1.37 1.37 0 0 0 -1.34-1.34h-49.29a1.35 1.35 0 0 0 -1.34 1.34v241.22c0 3.26-.06 6.52 0 9.78v.43a1.36 1.36 0 0 0 1.34 1.34h49.29a1.34 1.34 0 0 0 0-2.68z"/><path d="m240.23 276h21.41v251.43h-21.41z"/><path d="m261.64 526.09h-21.41l1.34 1.34v-241.22c0-3.24.22-6.55 0-9.78 0-.14 0-.29 0-.43l-1.34 1.34h21.41l-1.33-1.34v241.22c0 3.26-.07 6.52 0 9.78v.43a1.34 1.34 0 0 0 2.67 0v-241.22c0-3.26.06-6.53 0-9.78v-.43a1.36 1.36 0 0 0 -1.34-1.34h-21.41a1.35 1.35 0 0 0 -1.33 1.34v241.22c0 3.26-.07 6.52 0 9.78v.43a1.36 1.36 0 0 0 1.33 1.34h21.41a1.34 1.34 0 0 0 0-2.68z"/><path d="m100.18 276h8.03v251.43h-8.03z"/><path d="m108.21 526.09h-8l1.34 1.34v-241.22c0-3.24.21-6.55 0-9.78 0-.14 0-.29 0-.43l-1.34 1.34h8l-1.34-1.34v241.22c0 3.26-.06 6.52 0 9.78v.43a1.34 1.34 0 0 0 2.67 0v-241.22c0-3.26.07-6.53 0-9.78v-.43a1.36 1.36 0 0 0 -1.33-1.34h-8a1.35 1.35 0 0 0 -1.37 1.34v241.22c0 3.26-.06 6.52 0 9.78v.43a1.36 1.36 0 0 0 1.34 1.34h8a1.34 1.34 0 0 0 .03-2.68z"/><path d="m118.91 276h8.03v251.43h-8.03z"/><path d="m126.94 526.09h-8l1.34 1.34v-241.22c0-3.24.21-6.55 0-9.78 0-.14 0-.29 0-.43l-1.34 1.34h8l-1.34-1.34v241.22c0 3.26-.06 6.52 0 9.78v.43a1.34 1.34 0 0 0 2.68 0v-241.22c0-3.26.06-6.53 0-9.78v-.43a1.36 1.36 0 0 0 -1.34-1.34h-8a1.36 1.36 0 0 0 -1.34 1.34v241.22c0 3.26-.06 6.52 0 9.78v.43a1.37 1.37 0 0 0 1.34 1.34h8a1.34 1.34 0 0 0 0-2.68z"/><path d="m286.62 276h8.03v251.43h-8.03z"/><path d="m294.65 526.09h-8l1.34 1.34v-241.22c0-3.24.22-6.55 0-9.78 0-.14 0-.29 0-.43l-1.34 1.34h8l-1.34-1.34v241.22c0 3.26-.06 6.52 0 9.78v.43a1.34 1.34 0 0 0 2.68 0v-241.22c0-3.26.06-6.53 0-9.78v-.43a1.36 1.36 0 0 0 -1.34-1.34h-8a1.36 1.36 0 0 0 -1.34 1.34v241.22c0 3.26-.06 6.52 0 9.78v.43a1.37 1.37 0 0 0 1.34 1.34h8a1.34 1.34 0 0 0 0-2.68z"/><path d="m316.06 276h8.03v251.43h-8.03z"/><path d="m324.09 526.09h-8l1.34 1.34v-241.22c0-3.24.21-6.55 0-9.78 0-.14 0-.29 0-.43l-1.34 1.34h8l-1.34-1.34v241.22c0 3.26-.06 6.52 0 9.78v.43a1.34 1.34 0 0 0 2.68 0v-241.22c0-3.26.06-6.53 0-9.78v-.43a1.36 1.36 0 0 0 -1.34-1.34h-8a1.36 1.36 0 0 0 -1.34 1.34v241.22c0 3.26-.06 6.52 0 9.78v.43a1.37 1.37 0 0 0 1.34 1.34h8a1.34 1.34 0 0 0 0-2.68z"/><path d="m139.43 276h.89v251.43h-.89z"/><path d="m140.32 526.09h-.89l1.34 1.34v-241.22c0-3.24.21-6.55 0-9.78 0-.14 0-.29 0-.43l-1.34 1.34h.89l-1.32-1.34v241.22c0 3.26-.06 6.52 0 9.78v.43a1.34 1.34 0 0 0 2.68 0v-241.22c0-3.26.06-6.53 0-9.78v-.43a1.36 1.36 0 0 0 -1.34-1.34h-.89a1.36 1.36 0 0 0 -1.34 1.34v241.22c0 3.26-.06 6.52 0 9.78v.43a1.36 1.36 0 0 0 1.34 1.34h.89a1.34 1.34 0 0 0 -.02-2.68z"/><path d="m149.24 276h.89v251.43h-.89z"/><path d="m150.13 526.09h-.89l1.34 1.34v-241.22c0-3.24.22-6.55 0-9.78 0-.14 0-.29 0-.43l-1.34 1.34h.89l-1.33-1.34v241.22c0 3.26-.07 6.52 0 9.78v.43a1.34 1.34 0 0 0 2.67 0v-241.22c0-3.26.07-6.53 0-9.78v-.43a1.36 1.36 0 0 0 -1.34-1.34h-.89a1.36 1.36 0 0 0 -1.34 1.34v241.22c0 3.26-.06 6.52 0 9.78v.43a1.37 1.37 0 0 0 1.34 1.34h.89a1.34 1.34 0 0 0 0-2.68z"/><path d="m82.34 276h.89v251.43h-.89z"/><path d="m83.23 526.09h-.89l1.33 1.34v-241.22c0-3.24.22-6.55 0-9.78v-.43l-1.33 1.34h.89l-1.34-1.34v241.22c0 3.26-.06 6.52 0 9.78v.43a1.34 1.34 0 0 0 2.68 0v-241.22c0-3.26.06-6.53 0-9.78 0-.15 0-.29 0-.43a1.37 1.37 0 0 0 -1.34-1.34h-.89a1.35 1.35 0 0 0 -1.34 1.34v241.22c0 3.26-.06 6.52 0 9.78v.43a1.36 1.36 0 0 0 1.34 1.34h.89a1.34 1.34 0 0 0 0-2.68z"/><path d="m62.71 276h.89v251.43h-.89z"/><path d="m63.6 526.09h-.89l1.34 1.34v-241.22c0-3.24.21-6.55 0-9.78 0-.14 0-.29 0-.43l-1.34 1.34h.89l-1.34-1.34v241.22c0 3.26-.06 6.52 0 9.78v.43a1.34 1.34 0 0 0 2.68 0v-241.22c0-3.26.06-6.53 0-9.78v-.43a1.36 1.36 0 0 0 -1.34-1.34h-.89a1.36 1.36 0 0 0 -1.34 1.34v241.22c0 3.26-.06 6.52 0 9.78v.43a1.37 1.37 0 0 0 1.34 1.34h.89a1.34 1.34 0 0 0 0-2.68z"/><path d="m51.11 276h.89v251.43h-.89z"/><path d="m52 526.09h-.9l1.34 1.34v-241.22c0-3.24.22-6.55 0-9.78 0-.14 0-.29 0-.43l-1.34 1.34h.9l-1.33-1.34v241.22c0 3.26-.06 6.52 0 9.78v.43a1.34 1.34 0 0 0 2.67 0v-241.22c0-3.26.07-6.53 0-9.78v-.43a1.36 1.36 0 0 0 -1.34-1.34h-.9a1.35 1.35 0 0 0 -1.32 1.34v241.22c0 3.26-.07 6.52 0 9.78v.43a1.36 1.36 0 0 0 1.33 1.34h.89a1.34 1.34 0 0 0 0-2.68z"/><path d="m272.35 276h.89v251.43h-.89z"/><path d="m273.24 526.09h-.89l1.34 1.34v-241.22c0-3.24.21-6.55 0-9.78 0-.14 0-.29 0-.43l-1.34 1.34h.89l-1.34-1.34v241.22c0 3.26-.06 6.52 0 9.78v.43a1.34 1.34 0 0 0 2.68 0v-241.22c0-3.26.06-6.53 0-9.78v-.43a1.36 1.36 0 0 0 -1.34-1.34h-.89a1.36 1.36 0 0 0 -1.35 1.34v241.22c0 3.26-.06 6.52 0 9.78v.43a1.36 1.36 0 0 0 1.34 1.34h.89a1.34 1.34 0 0 0 .01-2.68z"/><path d="m745.19 379.55c.57-2.94 1.21-6 3.21-8.27s5.85-3.09 8-1a7.61 7.61 0 0 1 1.74 4 40.5 40.5 0 0 1 -5 28.59 4.29 4.29 0 0 1 -2.49 2.27 3 3 0 0 1 -2.92-1.41 8.78 8.78 0 0 1 -1.16-3.21c-1-4.47-2-9-1.5-13.58a1.61 1.61 0 0 1 .31-.91 1.53 1.53 0 0 1 .88-.38l5.84-1.22a10.34 10.34 0 0 0 -6.84-4.23"/><path d="m746.48 379.91c.72-3.7 1.95-9.6 6.84-9.47 2.56.07 3.19 2.54 3.59 4.64a37.31 37.31 0 0 1 .63 7.23 39.81 39.81 0 0 1 -2.79 14.34 24.08 24.08 0 0 1 -3.36 6.46 1.47 1.47 0 0 1 -2.51 0c-.81-1-1-2.62-1.23-3.86a47.51 47.51 0 0 1 -1.35-9.33c0-.82.06-1.63.07-2.44 0 .16.16-.67-.08-.42a4.86 4.86 0 0 1 1.3-.27l4.87-1a1.34 1.34 0 0 0 .8-2 12 12 0 0 0 -7.64-4.85c-1.69-.29-2.41 2.29-.71 2.58a9.35 9.35 0 0 1 6 3.62l.8-2c-1.79.37-3.58.73-5.36 1.12-1.6.34-2.47 1-2.65 2.68a35.46 35.46 0 0 0 .87 10.81c.58 2.87.9 6.91 3.9 8.36s5.11-1.32 6.42-3.66a42.08 42.08 0 0 0 5.22-18 41.35 41.35 0 0 0 -.52-9.23c-.46-2.81-1.28-5.95-4.24-7.06a7.57 7.57 0 0 0 -7.7 2c-2.41 2.39-3.17 5.89-3.79 9.1-.33 1.68 2.25 2.4 2.58.71z"/><path d="m708.81 376.74c.57-2.94 1.21-6 3.22-8.27s5.84-3.09 8-1a7.55 7.55 0 0 1 1.75 4 40.51 40.51 0 0 1 -5 28.59 4.23 4.23 0 0 1 -2.49 2.27 3 3 0 0 1 -2.92-1.41 9 9 0 0 1 -1.16-3.21c-1-4.47-2-9-1.49-13.58a1.17 1.17 0 0 1 1.18-1.29l5.85-1.22a10.39 10.39 0 0 0 -6.84-4.23"/><path d="m710.1 377.1c.72-3.7 1.95-9.6 6.85-9.47 2.55.07 3.18 2.54 3.58 4.64a37.31 37.31 0 0 1 .63 7.23 39.8 39.8 0 0 1 -2.78 14.34 24.4 24.4 0 0 1 -3.38 6.46 1.46 1.46 0 0 1 -2.51 0c-.81-1-1-2.61-1.23-3.85a49.06 49.06 0 0 1 -1.35-9.33c0-.82.06-1.63.07-2.44 0 .16.16-.67-.07-.42a4.71 4.71 0 0 1 1.29-.27l4.87-1a1.34 1.34 0 0 0 .8-2 12 12 0 0 0 -7.64-4.85c-1.68-.29-2.41 2.29-.71 2.58a9.31 9.31 0 0 1 6 3.62l.8-2c-1.78.37-3.57.73-5.36 1.12-1.6.34-2.46 1-2.65 2.68a35.16 35.16 0 0 0 .88 10.81c.57 2.87.89 6.91 3.89 8.36s5.12-1.32 6.43-3.66a42.21 42.21 0 0 0 5.21-18 41.34 41.34 0 0 0 -.51-9.23c-.47-2.81-1.29-5.95-4.24-7.06a7.59 7.59 0 0 0 -7.71 2c-2.41 2.39-3.17 5.89-3.79 9.1-.33 1.68 2.25 2.4 2.58.71z"/><path d="m586.35 388a105.6 105.6 0 0 0 56.31-32.23 103 103 0 0 0 11.22-14.84c.92-1.46-1.4-2.81-2.31-1.35a102.7 102.7 0 0 1 -48.63 40.63 101.36 101.36 0 0 1 -17.3 5.21c-1.68.34-1 2.92.71 2.58z"/><path d="m706.31 403.23a13.63 13.63 0 0 1 5.19.6l5.7 1.34c1.68.39 2.39-2.19.71-2.58l-6.14-1.44a15.7 15.7 0 0 0 -6.17-.5 1.35 1.35 0 0 0 -.93 1.65 1.37 1.37 0 0 0 1.64.93z"/><path d="m743.51 408.93a38 38 0 0 1 13.24-2.07 1.34 1.34 0 0 0 0-2.68 40.42 40.42 0 0 0 -14 2.17 1.34 1.34 0 0 0 .72 2.58z"/><path d="m713.14 355.68c.68-.18 1.36-.35 2.06-.5a13.92 13.92 0 0 1 1.88-.29 10.23 10.23 0 0 1 2.07 0c-.2 0 .23 0 .22 0l.57.13.42.13.28.1c-.09-.05-.06 0 .09 0a1.38 1.38 0 0 0 1.83-.48 1.36 1.36 0 0 0 -.48-1.84c-3.13-1.4-6.46-.74-9.66.07a1.36 1.36 0 0 0 -.93 1.65 1.38 1.38 0 0 0 1.65.94z"/><path d="m748 359.3a10 10 0 0 1 8.9.53 1.34 1.34 0 0 0 1.35-2.31 12.58 12.58 0 0 0 -11-.8 1.39 1.39 0 0 0 -.94 1.65 1.34 1.34 0 0 0 1.65.93z"/><path d="m731.87 426.94a40.74 40.74 0 0 0 16.58-8.19 1.34 1.34 0 0 0 0-1.89 1.36 1.36 0 0 0 -1.89 0 37.75 37.75 0 0 1 -15.4 7.5c-1.68.38-1 3 .71 2.58z"/></g><g fill="#ff7f00"><path d="m395.56 416.74-1 10.46a1.34 1.34 0 0 0 1.33 1.34 1.37 1.37 0 0 0 1.34-1.34l1-10.46a1.34 1.34 0 0 0 -1.33-1.34 1.37 1.37 0 0 0 -1.34 1.34z"/><path d="m406.78 416.42-1.61 11.43a1.39 1.39 0 0 0 .94 1.65 1.34 1.34 0 0 0 1.64-.94l1.61-11.43a1.38 1.38 0 0 0 -.93-1.65 1.35 1.35 0 0 0 -1.65.94z"/><path d="m417.15 418.26-1.69 12.92a1.35 1.35 0 0 0 1.34 1.34 1.38 1.38 0 0 0 1.34-1.34l1.69-12.92a1.35 1.35 0 0 0 -1.34-1.34 1.37 1.37 0 0 0 -1.34 1.34z"/><path d="m430.53 420.74a35.24 35.24 0 0 1 -2.53 10.08 1.33 1.33 0 0 0 .93 1.64 1.38 1.38 0 0 0 1.65-.93 37.91 37.91 0 0 0 2.65-10.79 1.34 1.34 0 1 0 -2.68 0z"/><path d="m413.81 457 .5-.5a1.11 1.11 0 0 0 .28-.43 1 1 0 0 0 .11-.52 1 1 0 0 0 -.11-.51 1 1 0 0 0 -.28-.43l-.27-.21a1.34 1.34 0 0 0 -.68-.19l-.35.05a1.28 1.28 0 0 0 -.59.35l-.5.49a1.11 1.11 0 0 0 -.28.43 1.28 1.28 0 0 0 0 1 1.18 1.18 0 0 0 .28.43l.27.21a1.36 1.36 0 0 0 .68.18l.35-.05a1.29 1.29 0 0 0 .59-.34z"/><path d="m423.32 453.93a1.34 1.34 0 0 0 0-2.67 1.34 1.34 0 0 0 0 2.67z"/><path d="m421.33 462.4a1.34 1.34 0 0 0 0-2.68 1.34 1.34 0 0 0 0 2.68z"/><path d="m516.93 417.59a1.34 1.34 0 0 0 0-2.68 1.34 1.34 0 0 0 0 2.68z"/><path d="m530.87 420.07a1.34 1.34 0 0 0 0-2.67 1.34 1.34 0 0 0 0 2.67z"/><path d="m524.9 427.54a1.34 1.34 0 0 0 0-2.67 1.34 1.34 0 0 0 0 2.67z"/><path d="m718.86 501.05a37.32 37.32 0 0 1 -7.86 17.19 1.38 1.38 0 0 0 0 1.89 1.35 1.35 0 0 0 1.9 0 40 40 0 0 0 8.54-18.37c.3-1.69-2.28-2.41-2.58-.71z"/><path d="m730.72 503a43 43 0 0 1 -6.81 17.12c-1 1.43 1.35 2.77 2.31 1.35a44.88 44.88 0 0 0 7.08-17.76 1.38 1.38 0 0 0 -.94-1.64 1.33 1.33 0 0 0 -1.64.93z"/><path d="m743.47 515.67a1.34 1.34 0 0 0 0-2.67 1.34 1.34 0 0 0 0 2.67z"/></g><g fill="#fff"><path d="m801.1 384.21c4.09 12.81 8.62 26.6 19.42 35.42a36 36 0 0 0 3.48 2.54c1.22.77 2.73 1.72 4.21 1.13 2.43-1 1.89-5 1.5-7.07-.48-2.53-1.92-5.06-4.4-6.06a3.09 3.09 0 0 0 -3.48.49c-1 1.09-.86 2.74-.54 4.08 1.69 7.33 9 11 15.33 13.53 1.6.63 2.3-2 .71-2.59-4.71-1.86-9.74-4.19-12.34-8.79a10.45 10.45 0 0 1 -1.16-3.05c-.05-.2-.3-1.14-.06-1.32s1.13.42 1.34.58c1.59 1.22 2.11 3.45 2.18 5.34a13 13 0 0 1 0 1.53c0 .19-.07.44-.06.63 0 .51-.19.3.07.21-.37.13-1.14-.48-1.41-.64q-.93-.57-1.83-1.2a34.34 34.34 0 0 1 -5.38-4.77 50.56 50.56 0 0 1 -8.26-12.54 140.77 140.77 0 0 1 -6.71-18.17c-.52-1.63-3.1-.93-2.58.72z"/><path d="m843.75 433.38c.12-.19.25-.37.39-.55l-.21.27a7.84 7.84 0 0 1 1.38-1.38l-.27.21a7.52 7.52 0 0 1 1.69-1l-.32.13.46-.17a1.46 1.46 0 0 0 .8-.62 1.33 1.33 0 0 0 -1.51-2 9.11 9.11 0 0 0 -4.72 3.7 1.35 1.35 0 0 0 .48 1.83 1.37 1.37 0 0 0 1.83-.48z"/><path d="m849.82 441c.09-.28.2-.56.31-.84l-.13.32a10 10 0 0 1 1.22-2.1l-.21.27c.15-.18.3-.37.46-.54a1.42 1.42 0 0 0 .39-.95 1.36 1.36 0 0 0 -.39-1 1.38 1.38 0 0 0 -1-.39 1.36 1.36 0 0 0 -.94.39 11.32 11.32 0 0 0 -2.34 4.08 1.34 1.34 0 0 0 .94 1.64 1.36 1.36 0 0 0 1.64-.93z"/><path d="m858.2 452.81 1-.51a1 1 0 0 0 .38-.34 1.05 1.05 0 0 0 .23-.46 1 1 0 0 0 0-.53 1 1 0 0 0 -.16-.5l-.21-.27a1.35 1.35 0 0 0 -.59-.34l-.36-.05a1.32 1.32 0 0 0 -.67.18l-1 .51a1 1 0 0 0 -.38.34 1 1 0 0 0 -.24.46 1.06 1.06 0 0 0 0 .53 1 1 0 0 0 .16.5l.21.27a1.21 1.21 0 0 0 .59.34l.35.05a1.36 1.36 0 0 0 .68-.18z"/><path d="m864.31 456.75.49 1a1.07 1.07 0 0 0 .35.38 1.22 1.22 0 0 0 .45.24 1.1 1.1 0 0 0 .54 0 1 1 0 0 0 .49-.16l.28-.21a1.35 1.35 0 0 0 .34-.59v-.35a1.25 1.25 0 0 0 -.19-.68l-.49-1a1 1 0 0 0 -.35-.37 1.17 1.17 0 0 0 -1-.26 1 1 0 0 0 -.49.15l-.27.21a1.33 1.33 0 0 0 -.35.59v.36a1.21 1.21 0 0 0 .19.67z"/><path d="m870.44 464.39a1.34 1.34 0 0 0 0-2.68 1.34 1.34 0 0 0 0 2.68z"/><path d="m802.57 664 12.43-3.52a1.34 1.34 0 0 0 -.71-2.58l-12.45 3.47a1.34 1.34 0 0 0 .71 2.58z"/><path d="m804.89 678.3a54 54 0 0 1 15.62-5.83c1.69-.34 1-2.92-.71-2.58a56.34 56.34 0 0 0 -16.26 6.11 1.34 1.34 0 0 0 1.35 2.32z"/><path d="m809.87 691.75a31.35 31.35 0 0 1 4-2.53 27.66 27.66 0 0 1 4.13-1.82 1.34 1.34 0 0 0 -.71-2.58 33 33 0 0 0 -8.79 4.62 1.34 1.34 0 1 0 1.35 2.31z"/><path d="m817 701.9a3.22 3.22 0 0 0 -1 1.12 3.88 3.88 0 0 0 -.43 1.49 4.05 4.05 0 0 0 .64 2.49 3.65 3.65 0 0 0 2.32 1.64 4.48 4.48 0 0 0 3.12-.55 5 5 0 0 0 2.22-2.76 1.33 1.33 0 0 0 -.93-1.64 1.37 1.37 0 0 0 -1.65.93c0 .11-.18.37 0 0a2 2 0 0 0 -.1.21 4.3 4.3 0 0 1 -.29.45c-.09.13.2-.23.09-.11l-.07.07c0 .07-.12.13-.18.2l-.2.18-.07.06c-.12.1.27-.19.08-.07a4.28 4.28 0 0 1 -.42.26l-.21.1c.39-.2.11 0 0 0s-.37.15-.47.11.38 0 .16 0h-.51s.38.07.16 0h-.22l-.22-.07.17.07s-.1 0-.12-.06l-.16-.1-.09-.06s.27.23.14.11l-.13-.13s-.14-.18-.17-.18.21.29.11.14v-.07l-.12-.19-.09-.17c0-.08-.06-.21.07.17a.61.61 0 0 0 -.05-.12 2.92 2.92 0 0 1 -.1-.4c-.06-.27 0 .2 0 .12a2.29 2.29 0 0 1 0-.25v-.21s0-.07 0-.11c0-.2-.06.33 0 .18a3 3 0 0 1 .12-.43c-.13.42-.09.19 0 .07s.25-.28 0 0a1 1 0 0 1 .14-.15l.07-.08c.15-.14-.28.21-.1.08a1.49 1.49 0 0 0 .62-.8 1.33 1.33 0 0 0 -.14-1 1.35 1.35 0 0 0 -1.83-.48z"/><path d="m696.45 637.1a31.5 31.5 0 0 0 -6.14 16.45c-.19 2.44-.61 6.3 1.56 8s5 .44 6.82-.92a11.94 11.94 0 0 0 4.46-6.38c.66-2.42-.58-4.85-3.37-4.23-2.54.56-4.43 3.09-5.9 5.06a27 27 0 0 0 -3.92 7.46c-.93 2.71-2 6.41.09 8.84 1.84 2.1 5 2.21 7.59 2 1.71-.11 1.72-2.78 0-2.67s-3.5.22-4.93-.62c-1.82-1.07-1.14-3.45-.7-5.13a24.31 24.31 0 0 1 6.09-10.76 5.35 5.35 0 0 1 2-1.53c1.1-.37.56.65.32 1.34a9.14 9.14 0 0 1 -3.36 4.48 5.88 5.88 0 0 1 -2.27 1.08c-1.2.21-1.63-.42-1.78-1.53a23.37 23.37 0 0 1 .18-6.25 29.35 29.35 0 0 1 5.59-13.39c1-1.38-1.29-2.72-2.31-1.35z"/><path d="m685.75 686.3a33.82 33.82 0 0 0 15.48-5.65c1.42-1 .08-3.28-1.35-2.31a31.2 31.2 0 0 1 -14.13 5.29 1.36 1.36 0 0 0 -1.33 1.33 1.34 1.34 0 0 0 1.33 1.34z"/><path d="m690.7 696.45a20 20 0 0 0 10.12-2.74 1.34 1.34 0 1 0 -1.36-2.31 17.15 17.15 0 0 1 -8.76 2.37 1.34 1.34 0 1 0 0 2.68z"/><path d="m649.86 765.42q15.2-.46 30.39-.36 7.71.06 15.44.27 3.73.1 7.47.24c1.81.06 5.08-.41 6.39 1.17a7 7 0 0 1 1.09 3c.29 1.33.56 2.68.84 4l1.74 8.27a1.35 1.35 0 0 0 2.45.32 17.24 17.24 0 0 1 14.33-8.44c1.71 0 1.72-2.72 0-2.68a20 20 0 0 0 -16.64 9.79l2.44.32-1.64-7.79a40.71 40.71 0 0 0 -1.57-6.76 5.54 5.54 0 0 0 -4.47-3.62 61.76 61.76 0 0 0 -7.45-.38q-16.18-.54-32.38-.41-9.21.08-18.43.36c-1.71 0-1.72 2.73 0 2.67z"/><path d="m791.31 764.42q15-1.8 30-2.65 7.63-.42 15.3-.6 3.71-.09 7.41-.12a50.25 50.25 0 0 1 7.05.05c2.56.36 3.44 3.26 4.46 5.26l3.9 7.65a1.36 1.36 0 0 0 2.31 0 39 39 0 0 1 25.48-14.79c1.7-.24 1-2.81-.71-2.58a41.57 41.57 0 0 0 -27.08 16h2.31l-3.56-7c-1-1.88-1.8-4.16-3.37-5.65s-3.73-1.64-5.85-1.65q-4.08 0-8.15 0-15.81.23-31.58 1.52-9 .74-17.94 1.81c-1.69.21-1.71 2.89 0 2.68z"/></g><g fill="#ff7f00"><path d="m959.46 213.86a56.33 56.33 0 0 1 10.82 41.67 55.19 55.19 0 0 1 -20.56 35.15 53.12 53.12 0 0 1 -18.11 9.45c-2.41.69-7 1.47-7.86-1.84s2.47-6.88 4.65-8.92a23.9 23.9 0 0 1 18.05-6.26 21.35 21.35 0 0 1 16.06 10.07 20.56 20.56 0 0 1 2 18.68 21.67 21.67 0 0 1 -14 12.5 18.53 18.53 0 0 1 -4.8.67l1.29 1.7c.93-3.21 4-5 7.22-5.35a10.31 10.31 0 0 1 9.27 3.76c5.49 6.64 3.87 17.25-.53 24a17.13 17.13 0 0 1 -11.22 7.86c-1.69.29-1 2.87.71 2.58 10.09-1.74 16.36-12.1 17.11-21.68.39-5-.66-10.26-3.79-14.24a12.93 12.93 0 0 0 -11.06-5c-4.54.29-8.92 2.8-10.24 7.36a1.35 1.35 0 0 0 1.3 1.69 23.63 23.63 0 0 0 18.42-9.81 22.45 22.45 0 0 0 3.26-20.49 25.23 25.23 0 0 0 -14.45-15.51c-6.79-2.67-14.68-1.74-21 1.67a25.4 25.4 0 0 0 -8.26 7.06c-2.23 2.95-4.13 7.47-1.28 10.68 2.33 2.62 6.37 2.34 9.44 1.53a50.25 50.25 0 0 0 10.35-4.13 57.53 57.53 0 0 0 23-81.11 56.93 56.93 0 0 0 -3.46-5.09c-1-1.35-3.35 0-2.31 1.35z"/><path d="m475.8 216.82a76.4 76.4 0 0 0 -10.51 28.31c-1.47 9.41-1.44 19.42 1.89 28.45 3.12 8.42 9.16 15.38 17.66 18.6 7.47 2.84 16.3 2 22.12-3.84s8.11-15.18 3.44-22.19a1.36 1.36 0 0 0 -1.51-.61c-9.78 4-15.74 14.79-14.5 25.23a29.58 29.58 0 0 0 20.15 24 15.55 15.55 0 0 0 15.7-3.52 20.3 20.3 0 0 0 4.52-6.48c1-2.13 2.17-5.11.22-7.05-1.48-1.46-3.81-1.15-5.56-.44a11.59 11.59 0 0 0 -5.08 4.55 30.33 30.33 0 0 0 -5.29 16.08c-.49 12.62 7.59 24.26 19.29 28.77 1.6.62 2.3-2 .71-2.58a27 27 0 0 1 -15.52-35 26.89 26.89 0 0 1 3.46-6.39 7.46 7.46 0 0 1 4.38-3.25 2.16 2.16 0 0 1 1.64.09c.88.66 0 2.4-.28 3.19a18.33 18.33 0 0 1 -3.5 5.73 12.81 12.81 0 0 1 -13.12 4c-9-2.36-16.56-10.45-18.65-19.48-2.24-9.71 2.7-20.93 12.14-24.82l-1.51-.62c3.68 5.53 2.16 12.91-2 17.79-4.87 5.76-12.58 7-19.55 4.68-7.83-2.59-13.66-9-16.6-16.53-3.19-8.22-3.47-17.33-2.34-26a74.15 74.15 0 0 1 10.47-29.27c.91-1.47-1.4-2.81-2.31-1.35z"/><path d="m606.45 188.36q10.54 23.74 19 48.33 2.43 7 4.67 14.12c.52 1.64 3.1.94 2.58-.71q-8-25.15-18.11-49.55-2.83-6.81-5.82-13.54c-.7-1.57-3-.21-2.32 1.35z"/><path d="m718.61 164.81 2 49.79c.07 1.72 2.75 1.73 2.68 0l-2-49.79c-.07-1.72-2.75-1.72-2.68 0z"/><path d="m868.15 158.48q-3.9 27.56-9.95 54.76c-.38 1.68 2.2 2.4 2.58.72q6-27.18 10-54.77c.24-1.69-2.33-2.42-2.58-.71z"/><path d="m934.6 624.09 10.61 54.4 3 15.37c.32 1.69 2.9 1 2.58-.71l-10.61-54.4-3-15.37c-.33-1.69-2.91-1-2.58.71z"/><path d="m969.73 634.19 4 27.88c.24 1.7 2.82 1 2.58-.71l-4-27.88c-.25-1.7-2.82-1-2.58.71z"/><path d="m575.19 655.72-5.06 52.74-1.44 14.93c-.16 1.71 2.52 1.7 2.68 0l5.06-52.74 1.43-14.93c.17-1.71-2.51-1.7-2.67 0z"/><path d="m537.55 655.38a205.15 205.15 0 0 0 -6 44.17 1.34 1.34 0 0 0 2.68 0 201.69 201.69 0 0 1 5.93-43.46c.41-1.67-2.17-2.38-2.58-.71z"/><path d="m25 431.71h324.63c5.17 0 5.18-8 0-8h-324.63c-5.17 0-5.17 8 0 8z"/></g></svg>