<svg viewBox="0 0 1000 1000" xmlns="http://www.w3.org/2000/svg"><path d="m99 508.53c-11.25-34.07-23.75-67.71-35.9-101.47-12.23-33.95-24.39-68-34.55-102.64-1.08-3.67-3.88-9.42-.78-12.7 1.43-1.52 3.49-2.35 5.34-3.21l7.56-3.5q14.1-6.51 28.26-12.87 28.33-12.72 56.89-24.89 57.67-24.57 116.29-46.81 29-11 58.27-21.47 7.49-2.68 15-5.32c4.78-1.68 9.77-3.92 14.88-4.25 9.46-.62 15.24 7.65 19.75 14.74 20 31.37 33.44 66.33 43.26 102.06 10 36.27 16.34 73.39 22.54 110.45.79 4.69 2 9.82-1.25 13.87-2.74 3.44-7.08 5.58-10.79 7.81-8.11 4.87-16.42 9.42-24.86 13.71a569.39 569.39 0 0 1 -52.91 23.25c-35.56 13.71-72 24.87-108 37.37q-28.59 9.93-56.56 21.4c-9.73 4-19.43 8-29.14 12.05q-7.14 2.94-14.3 5.89a46.72 46.72 0 0 1 -6.69 2.55c-3 .7-4.25-1.53-5.31-4-3.13-7.19-4-15.18-7.18-22.35-.72-1.59-3.07-.21-2.35 1.38 3.45 7.64 4 16.38 7.89 23.84 2.07 3.93 5.5 4.61 9.49 3.11 5-1.87 9.91-4 14.83-6 20-8.25 39.95-16.73 60.18-24.42 36.83-14 74.57-25.43 111.7-38.55 36.67-13 73-27.68 106.31-47.92 3.51-2.14 7.33-4.25 9.88-7.56 2.75-3.57 2.89-7.79 2.28-12.08-1.36-9.45-3.14-18.85-4.77-28.25-3.33-19.11-6.89-38.18-11.17-57.1-8.39-37.1-19.59-73.83-37-107.77q-6.46-12.68-14.09-24.68c-4.27-6.68-9.69-14.18-18.14-15.39-4.87-.69-9.65.88-14.19 2.47q-7.51 2.61-15 5.29-15 5.33-29.92 10.8-60.28 22.11-119.61 46.63-59.14 24.48-117.22 51.3c-2.29 1.06-4.59 2.11-6.87 3.18a16.65 16.65 0 0 0 -5.21 3.32c-3.09 3.24-2.2 7.46-1.09 11.35 2.37 8.24 4.88 16.43 7.47 24.59 5.65 17.8 11.72 35.47 17.92 53.09 12.55 35.63 25.78 71 38.18 106.71q4.11 11.83 8.05 23.71c.55 1.65 3.17.95 2.62-.72z" fill="#ff7f00"/><path d="m438 466.1q21.72-7.32 42.86-16.18c2.71-1.13 5.65-2.53 6.77-5.23.87-2.1.42-4.48 0-6.7-7.31-35.14-14.7-70.92-26.59-104.86-4.5-12.84-17.35-10.71-28.3-8.09a98.12 98.12 0 0 0 -26 10.53c-4.25 2.46-8.17 5.86-10.12 10.37-3.59 8.31-.41 19.13 1.33 27.58a262.05 262.05 0 0 0 8 29.24c6.39 19.3 14.47 38 22.06 56.83.87 2.16 1.84 4.4 3.62 5.91s4.61 2.06 6.43.6" fill="#ff7f00"/><g fill="#1a1c1c"><path d="m601.54 491.26a124.73 124.73 0 0 1 -22.22 21.46q-3 2.28-6.23 4.37a33.81 33.81 0 0 1 -6.69 3.75c-4.37 1.58-8.49.16-11.88-2.79s-6-6.95-8.58-10.73c-2.93-4.31-5.85-8.63-8.7-13a259.77 259.77 0 0 1 -15.46-26.58 130.7 130.7 0 0 1 -10.56-29.05c-1.9-8.43-2.54-17.83-8.22-24.78s-15.07-8.11-23.26-5.73a32.2 32.2 0 0 0 -11.62 6.07 7.11 7.11 0 0 0 -2.83 5.56 8.22 8.22 0 0 0 2.19 5.11c3.17 3.58 8 3.86 12.31 2.43a28.65 28.65 0 0 0 3.2-1.31 17.57 17.57 0 0 0 3.68-2 1.83 1.83 0 0 0 -.91-3.25 3.85 3.85 0 0 0 -4.06 2.07 25.1 25.1 0 0 0 -2.24 6.29 28 28 0 0 0 .52 13.86 26.81 26.81 0 0 0 2.81 6.28 1.36 1.36 0 0 0 2.34-1.38 24.55 24.55 0 0 1 -3.59-12.49 25.39 25.39 0 0 1 .72-6.32 24.59 24.59 0 0 1 .95-3 6.64 6.64 0 0 1 1.16-2.37c.18-.15.44-.11.62-.25s.16 0 .22 0l-.42-1.32v-.1c-.35 0-1.25.67-1.57.84-.59.31-1.19.61-1.8.89a15 15 0 0 1 -7.09 1.69c-3.09-.18-7.25-3.28-6.17-6.81.62-2 2.91-3.34 4.6-4.39a30.72 30.72 0 0 1 5.57-2.76 25.72 25.72 0 0 1 11.74-1.66 16.39 16.39 0 0 1 10.19 5c2.72 2.9 4.25 6.66 5.32 10.43 1.11 3.93 1.75 8 2.57 12a113.38 113.38 0 0 0 3.7 13.66 159.6 159.6 0 0 0 11.54 25.74c4.6 8.37 9.74 16.42 15 24.35 2.59 3.88 5.17 7.77 7.87 11.58a35.91 35.91 0 0 0 8.29 8.92 13.58 13.58 0 0 0 10.9 2.41c4.55-1 8.65-4.19 12.4-6.83a127 127 0 0 0 21.06-18.64c1.56-1.72 3.06-3.48 4.52-5.29 1.09-1.35-.82-3.28-1.92-1.92z"/><path d="m461 460.31c3.61 13.58 18.64 17.67 28.91 24.77 5.83 4 9.5 9.65 12.61 15.91 3.42 6.87 6.73 13.77 10.42 20.5s7.64 13.41 11.8 19.9c3.35 5.24 7.11 10.44 11.95 14.42 4.62 3.79 10.29 6.33 16.37 5.82 7.39-.62 14-4.86 20.28-8.53a266.33 266.33 0 0 0 40.8-29.59c1.32-1.16-.61-3.07-1.92-1.92a262.8 262.8 0 0 1 -35.22 26.1q-4.65 2.88-9.42 5.56a53.84 53.84 0 0 1 -9.76 4.64 19.33 19.33 0 0 1 -17.49-2.68c-5-3.42-8.76-8.37-12.07-13.32-4.07-6.11-7.81-12.47-11.41-18.88s-7.11-13.22-10.36-20c-2.89-6-5.87-12.14-10.8-16.76-5.46-5.11-12.43-8-18.77-11.77-5.79-3.45-11.53-8.13-13.34-14.91a1.36 1.36 0 0 0 -2.62.72z"/><path d="m628.09 556.61a811 811 0 0 0 10.91 248.46c.44 2.16.87 4.44.19 6.53-2.79 8.6-20.77 7.48-19.19 16.38a234.24 234.24 0 0 0 80.32 1.07 12.48 12.48 0 0 0 5.89-2c2.89-2.28 3.26-6.43 3.4-10.11q4.85-127.64 9.7-255.29"/><path d="m626.73 556.61q-3.39 30.76-4.44 61.72-1 30.79.27 61.61t5 61.42q3.65 30.64 9.59 61c.7 3.52 2.29 7.93-.39 11-1.62 1.85-4 2.94-6.23 3.9-4 1.7-10.05 3.16-11.59 7.77a7 7 0 0 0 -.17 3.37 1.32 1.32 0 0 0 .95.95 236.27 236.27 0 0 0 68.6 2.65q4.24-.45 8.48-1.07a36.1 36.1 0 0 0 7.86-1.54c4.41-1.7 5.84-5.94 6.21-10.3.48-5.61.47-11.28.69-16.9l.68-18q1.35-35.65 2.71-71.3l2.71-71.31 2.71-71.31.33-8.71c.06-1.74-2.65-1.74-2.72 0l-2.66 69.95-2.64 69.67q-1.33 35-2.66 69.95l-1.32 34.87-.34 8.71a36.44 36.44 0 0 1 -.6 7 6.78 6.78 0 0 1 -3.73 5c-2.35 1-5.19 1.18-7.7 1.55a232.1 232.1 0 0 1 -67.61-.22c-2.79-.42-5.56-.89-8.33-1.41l1 1c-.71-4.49 6.1-6.24 9.17-7.51 5.14-2.13 10.73-5.08 10.41-11.51a48.76 48.76 0 0 0 -1.2-7q-.74-3.76-1.44-7.53-1.41-7.55-2.68-15.11-2.54-15.21-4.5-30.51-3.92-30.57-5.49-61.37-1.56-30.65-.82-61.35t3.85-61.49c.26-2.54.53-5.09.81-7.63.19-1.73-2.53-1.72-2.72 0z"/><path d="m745.57 539.46c-9.16 82.72 2.7 184 19.09 265.61.44 2.16.88 4.44.2 6.53-2.79 8.6-20.77 7.48-19.19 16.38a234.17 234.17 0 0 0 80.33 1.07 12.48 12.48 0 0 0 5.89-2c2.89-2.28 3.26-6.43 3.4-10.11 3.23-85.09 12.14-197.48 15.37-282.57"/><path d="m744.21 539.46a567.54 567.54 0 0 0 -3.19 62c0 21.76 1 43.52 2.66 65.21s4.14 43.5 7.15 65.14q4.32 31.15 10.25 62.06.7 3.69 1.43 7.36c.51 2.58 1.33 5.28 1.34 7.92 0 3.37-2.38 5.38-5.13 6.84s-5.54 2.34-8.27 3.62c-2.29 1.07-4.74 2.51-5.76 4.95a6.79 6.79 0 0 0 -.33 3.81 1.3 1.3 0 0 0 .94.95 237.65 237.65 0 0 0 41.9 4.07c7.1 0 14.21-.22 21.29-.82q5.1-.42 10.18-1.08a85.33 85.33 0 0 0 10.07-1.56 9.22 9.22 0 0 0 6.23-4.59 18.3 18.3 0 0 0 1.62-7.55c.29-5.57.45-11.15.69-16.71q.78-17.73 1.74-35.45c1.33-25 2.85-50 4.38-75 1.56-25.46 3.15-50.92 4.62-76.38 1.38-23.92 2.67-47.84 3.66-71.78.11-2.69.22-5.39.32-8.08.07-1.75-2.65-1.75-2.71 0-.89 23.12-2.08 46.23-3.39 69.33q-2.1 37.27-4.46 74.53c-1.52 24.79-3 49.57-4.42 74.36q-1 17.7-1.85 35.42-.4 8.49-.77 17c-.12 2.79-.24 5.59-.35 8.38a49 49 0 0 1 -.56 7.95c-.6 2.91-2 5-5 5.87a67.4 67.4 0 0 1 -10.11 1.63q-10.29 1.32-20.67 1.7a232.37 232.37 0 0 1 -41.59-2.14q-5.07-.72-10.09-1.67l1 1c-.39-2.42 1.49-3.91 3.4-5 2.64-1.45 5.55-2.37 8.29-3.64 2.55-1.19 5.15-2.74 6.66-5.2 2.41-3.95.67-8.92-.15-13.09q-6-30.59-10.56-61.45-4.74-32.38-7.59-65c-1.87-21.66-3-43.38-3.26-65.12a596.9 596.9 0 0 1 2.4-62.29q.35-3.71.76-7.4c.19-1.74-2.53-1.72-2.72 0z"/></g><path d="m916.66 477.18c2.64-16.18-4.66-32.28-12.35-46.82-7.21-13.68-14.51-31.1-23.27-48.26-22.9 27-52.79 47.87-85.11 62.53-33.78 15.37-70.19 24.17-106.93 29.37a9.58 9.58 0 0 0 -8 7.62 116.5 116.5 0 0 1 -7.52 23.91 91 91 0 0 1 -15.2-24.39c-1-2.49-2.12-5.19-4.37-6.67-1.84-1.2-4.13-1.38-6.32-1.59a95.91 95.91 0 0 1 -35.64-10.83 416.19 416.19 0 0 0 -23.35 63.69c-1.62 5.84-3.11 12-1.9 17.9 2.4 11.78 14.3 18.86 25.39 23.51 88.46 37.09 194 10.85 271.15-46.22 15.11-11.21 30.39-25.15 33.42-43.75z" fill="#ff7f00"/><g fill="#1a1c1c"><path d="m905.48 429.67c-8-15.19-14.6-31.08-22.33-46.42-8.15-16.25-17.5-32.44-30.15-45.73-12.09-12.71-27.42-21.89-45.07-23.87-10.55-1.18-20.82.46-31.07 2.9q-22.95 5.47-45.52 12.37a756.69 756.69 0 0 0 -88 33.05q-5.39 2.41-10.72 4.91a1.37 1.37 0 0 0 0 2.35l16.13 9.77c2.09 1.27 4.72 2.33 5.59 4.82s-.3 4.3-1.68 6.19q-9.85 13.49-18.6 27.74a422.09 422.09 0 0 0 -30.2 59.29q-6.39 15.43-11.53 31.35-2.54 7.88-4.77 15.86c-1.58 5.67-3.21 11.6-2.55 17.54 1 9.09 7.41 15.9 14.84 20.64 8 5.13 17.33 8.45 26.32 11.48a229.42 229.42 0 0 0 58.35 11.3 266.32 266.32 0 0 0 59.69-3.13 306.79 306.79 0 0 0 58.43-15.73 334.8 334.8 0 0 0 54.85-26.6q13-7.86 25.33-16.87c8-5.87 15.81-12.16 22.28-19.71 6.23-7.28 11.21-15.84 12.83-25.39 1.9-11.28-.87-22.58-5.2-33-2.14-5.17-4.64-10.18-7.25-15.14-.81-1.54-3.16-.17-2.35 1.38 5.31 10.09 10.45 20.64 12.17 32a44.15 44.15 0 0 1 -6 29.81c-5.08 8.41-12.28 15.35-19.84 21.52a275.11 275.11 0 0 1 -24.3 17.38 333.2 333.2 0 0 1 -53.31 28 311.76 311.76 0 0 1 -57.19 17.6 270.17 270.17 0 0 1 -59 5.54 232.08 232.08 0 0 1 -57.82-8.29 194.24 194.24 0 0 1 -27.72-9.83c-7.92-3.58-16.37-8.47-20.43-16.51-2.55-5-2.47-10.68-1.36-16.1s2.81-10.84 4.43-16.18q4.77-15.7 10.77-31a417.94 417.94 0 0 1 28.81-59.19q8.32-14.14 17.74-27.62c1.56-2.22 3.13-4.43 4.73-6.62 1.3-1.77 2.4-3.42 2.51-5.69.27-5.24-4.2-7.43-8.06-9.77l-15.26-9.19v2.35a751.59 751.59 0 0 1 86.85-34.15q22.15-7.15 44.72-12.93c11.54-3 23.18-6.28 35.2-6.2 17.66.11 33.69 7.59 46.43 19.59 13.11 12.34 22.67 28 31 43.86 8 15.31 14.74 31.23 22.46 46.68q1.24 2.49 2.54 5c.8 1.51 3.09.14 2.28-1.41z"/><path d="m706.05 376.76-3.22-2.14a1.54 1.54 0 0 1 -.69-.75 2.61 2.61 0 0 1 -.06-1 47.32 47.32 0 0 1 1.14-7.37 6.62 6.62 0 0 1 1.38-3.14c1.12-1.1 2.77-.59 3.79.69a12.45 12.45 0 0 1 1.93 4.94 62.4 62.4 0 0 1 .88 21.43 12.81 12.81 0 0 1 -.9 3.68 3 3 0 0 1 -2.3 2c-1.37 0-2.42-1.62-3.15-3.22a35.65 35.65 0 0 1 -2.67-9.24l5.29-6.51"/><path d="m706.74 375.59-2.62-1.74c-.4-.26-.6-.34-.69-.78a6.56 6.56 0 0 1 .16-1.81 38.81 38.81 0 0 1 1.09-6c.16-.6.43-1.87 1.13-2.11s1.49.65 1.84 1.2a16.65 16.65 0 0 1 1.69 5.58 62.13 62.13 0 0 1 .59 18.79 19.84 19.84 0 0 1 -.46 2.65c-.17.62-.57 2.14-1.36 2.31-1.41.32-2.65-3.83-3-4.76a37.13 37.13 0 0 1 -1.64-6.65l-.35 1.32 5.29-6.51c1.09-1.35-.82-3.28-1.92-1.93l-3.1 3.85c-.9 1.11-2.63 2.48-2.52 4a28.54 28.54 0 0 0 2.4 8.62c.87 2.07 2.31 5.12 5 4.8 2.88-.33 3.8-3.84 4.14-6.21a63.23 63.23 0 0 0 -.14-18.93c-.44-2.85-.86-6.17-2.53-8.61-1.28-1.89-3.86-3.13-5.87-1.5a7 7 0 0 0 -2 4 48 48 0 0 0 -.9 4.93c-.18 1.42-.74 3.48.14 4.78a6.06 6.06 0 0 0 1.8 1.45l2.42 1.61c1.46 1 2.82-1.38 1.37-2.35z"/><path d="m739.88 375.4-3.22-2.14a1.54 1.54 0 0 1 -.69-.75 2.43 2.43 0 0 1 -.06-1 46.29 46.29 0 0 1 1.14-7.38 6.53 6.53 0 0 1 1.38-3.13c1.12-1.1 2.77-.59 3.78.68a12.3 12.3 0 0 1 1.94 5 62.39 62.39 0 0 1 .88 21.43 12.89 12.89 0 0 1 -.9 3.68 3 3 0 0 1 -2.31 2c-1.36 0-2.42-1.63-3.14-3.23a34.81 34.81 0 0 1 -2.67-9.23l5.28-6.52"/><path d="m740.57 374.23-2.57-1.74c-.4-.27-.6-.34-.69-.79a6.49 6.49 0 0 1 .16-1.8 38.94 38.94 0 0 1 1.09-6c.16-.59.43-1.87 1.13-2.11s1.49.65 1.83 1.21a16.14 16.14 0 0 1 1.69 5.58 61.73 61.73 0 0 1 .6 18.78 20 20 0 0 1 -.46 2.66c-.17.62-.58 2.13-1.37 2.31-1.4.31-2.65-3.84-3-4.76a37.24 37.24 0 0 1 -1.64-6.66l-.35 1.33 5.28-6.52c1.1-1.34-.82-3.28-1.92-1.92l-3.11 3.83c-.9 1.12-2.63 2.49-2.53 4a28.55 28.55 0 0 0 2.41 8.62c.87 2.07 2.31 5.11 5 4.8s3.79-3.85 4.14-6.21a63.62 63.62 0 0 0 -.14-18.94c-.44-2.84-.87-6.17-2.53-8.61-1.28-1.89-3.87-3.13-5.87-1.49a7 7 0 0 0 -2 4 46.37 46.37 0 0 0 -.9 4.93c-.19 1.43-.74 3.48.13 4.78a6 6 0 0 0 1.81 1.46l2.41 1.6c1.47 1 2.83-1.38 1.38-2.34z"/><path d="m918 477.54c2.09-13.47-2.18-26.57-7.85-38.64-2.77-5.89-5.94-11.59-8.79-17.44s-5.67-12-8.46-17.95c-3.45-7.41-6.94-14.81-10.65-22.09a1.37 1.37 0 0 0 -2.14-.28c-20.8 24.48-47.12 43.77-75.81 58-31.2 15.51-65.08 25-99.31 31q-7.25 1.25-14.51 2.3c-3.83.55-7.08 1.76-9.29 5.13a15.68 15.68 0 0 0 -1.88 5.5q-.78 3.58-1.78 7.13a115.54 115.54 0 0 1 -5.23 14.65l2.13-.27a90.8 90.8 0 0 1 -9.43-13.06c-1.37-2.31-2.64-4.69-3.8-7.12s-2-4.73-3.15-7a10 10 0 0 0 -4.44-4.64c-2.25-1.06-4.81-1.11-7.23-1.38a92.66 92.66 0 0 1 -16.24-3.32 95 95 0 0 1 -17.54-7.19 1.37 1.37 0 0 0 -1.86.49 424 424 0 0 0 -19.43 50.27q-1.95 6.24-3.72 12.54a62.72 62.72 0 0 0 -2.67 13.27 24.75 24.75 0 0 0 7.31 18.92c4.74 4.86 10.83 8.27 17 11a195 195 0 0 0 20.7 7.75 226.55 226.55 0 0 0 43.51 9.11c29.93 3.33 60.38.91 89.67-5.88a332.26 332.26 0 0 0 123.07-58c11.6-8.8 23.11-19.15 28.89-32.84a45.52 45.52 0 0 0 2.93-10c.29-1.71-2.33-2.45-2.62-.73-2.5 14.62-12.38 26.13-23.38 35.45-11.22 9.6-23.73 17.88-36.37 25.47a327 327 0 0 1 -81.51 35.07c-28.28 7.75-57.73 11.46-87 9.89a230 230 0 0 1 -43-6.33 215 215 0 0 1 -21-6.31 121.09 121.09 0 0 1 -19.5-8.43c-5.66-3.23-11.15-7.47-14.08-13.45-3.86-7.84-1.31-16.52.93-24.43a412.57 412.57 0 0 1 17.24-49q2.57-6 5.3-12l-1.86.49a98.1 98.1 0 0 0 30.37 10.23c2.53.41 5.07.62 7.61 1a7.65 7.65 0 0 1 6.38 4.15c1.16 2.14 2 4.48 3 6.69s2.31 4.65 3.62 6.9a94.81 94.81 0 0 0 10.27 14.34 1.36 1.36 0 0 0 2.13-.28 120.87 120.87 0 0 0 4.64-12.36c1.26-4.07 2.08-8.21 3.13-12.32.94-3.72 3.94-5.77 7.58-6.31 4.24-.63 8.47-1.25 12.7-2a430.26 430.26 0 0 0 51.28-11.65c31.67-9.38 62.2-23.13 89-42.6a223.57 223.57 0 0 0 39.14-35.92l-2.13-.27c6.15 12.08 11.66 24.48 17.51 36.71 5.55 11.61 12.33 22.75 16 35.15a50.91 50.91 0 0 1 2 22.16c-.3 1.72 2.32 2.45 2.62.73z"/></g><path d="m708.41 417a56 56 0 0 0 21.1-9.48c1.4-1 0-3.38-1.37-2.35a54 54 0 0 1 -20.45 9.21c-1.71.37-1 3 .72 2.62z" fill="#ff7f00"/><g fill="#1a1c1c"><path d="m722.73 318.42a512.33 512.33 0 0 0 65.78 28.23 509.16 509.16 0 0 0 68.73 18.71q19.68 3.92 39.62 6.26c1.73.21 1.72-2.51 0-2.72a506.62 506.62 0 0 1 -69.62-13.25 512.16 512.16 0 0 1 -67-22.73q-18.37-7.69-36.11-16.84c-1.56-.8-2.93 1.54-1.38 2.34z"/><path d="m741.33 325.71c10.56-10.8 14.06-28.14 27.07-35.82a35.77 35.77 0 0 1 14.79-4.31 62.21 62.21 0 0 1 21.06 1.55 108.46 108.46 0 0 1 18.47 6.93 427 427 0 0 1 38 19.68c4.23 2.46 8.55 5.13 11.28 9.19s3.55 9.09 3.86 14a79.26 79.26 0 0 1 -2.7 26.1 3.31 3.31 0 0 1 -.66 1.42c-1.18 1.25-3.19.1-4.7-.7-2.5-1.33-5.41-1.57-8.23-1.85-38.86-3.87-74.94-21-112.09-33-2.18-.7-4.49-1.47-5.93-3.24"/><path d="m742.3 326.67c6.14-6.34 9.81-14.45 14.33-21.92a47.53 47.53 0 0 1 7.62-10 27.56 27.56 0 0 1 12.75-6.75c11.34-2.76 23.48-1.18 34.32 2.77 5.59 2 11 4.56 16.35 7.1s10.53 5.13 15.73 7.83 10.33 5.55 15.41 8.49c4.43 2.56 9.27 5.21 12.14 9.6 3 4.55 3.51 10.2 3.68 15.5a77.73 77.73 0 0 1 -1.44 17.71q-.42 2.11-1 4.2a10.5 10.5 0 0 1 -.48 1.77c-.36.73-.71.66-1.44.4-1.08-.37-2-1-3.1-1.46a16.67 16.67 0 0 0 -3.88-1c-5.5-.84-11.05-1.24-16.54-2.2a260.5 260.5 0 0 1 -33.27-8.3c-21.85-6.83-43-15.55-64.8-22.64-2.23-.73-4.6-1.35-6.2-3.18-1.15-1.32-3.07.61-1.92 1.92 1.7 1.95 4.13 2.81 6.53 3.59q4.15 1.37 8.28 2.77c5.67 1.94 11.31 4 17 6 11.26 4.09 22.5 8.27 33.88 12a297.07 297.07 0 0 0 34.44 9.4q8.7 1.75 17.53 2.73c2.77.3 5.72.37 8.31 1.51 2 .86 4.28 2.61 6.43 1.21a5 5 0 0 0 1.72-3.14c.41-1.54.77-3.1 1.09-4.67a82.27 82.27 0 0 0 1.32-9.13 66.52 66.52 0 0 0 -.53-17.77 22.32 22.32 0 0 0 -7.7-13.56c-4.36-3.6-9.54-6.23-14.46-9-10.79-6-21.84-11.6-33.13-16.64a100 100 0 0 0 -17.11-6.21 63.3 63.3 0 0 0 -18.16-1.6c-5.74.29-11.57 1.27-16.74 3.87a31.38 31.38 0 0 0 -10.33 8.7c-5.66 7.15-9.13 15.68-14.38 23.1a43.21 43.21 0 0 1 -4.19 5.07c-1.21 1.26.71 3.18 1.93 1.92z"/><path d="m687.45 487.39c5.1 2.54 8.69 7 11.66 11.72 1.51 2.4 2.86 4.9 4.26 7.37s3.16 4.71 6.09 5.3 5.77-.29 8.51-1.11 5.78-1.74 8.67-2.63q8.5-2.62 17-5.46c22.76-7.71 45.23-16.94 65.56-29.87a173.37 173.37 0 0 0 31.18-25c1.22-1.25-.7-3.17-1.92-1.92-16.46 16.73-36.46 29.35-57.63 39.21-10.71 5-21.72 9.3-32.86 13.2q-8.41 2.94-16.92 5.62-4.14 1.31-8.29 2.57c-2.85.87-5.71 1.87-8.63 2.52a8.85 8.85 0 0 1 -4.68.07 6.59 6.59 0 0 1 -3.35-3.19c-1.58-2.67-3-5.43-4.64-8.05-3.21-5.12-7.14-9.95-12.64-12.7-1.56-.78-2.93 1.56-1.37 2.35z"/><path d="m648.31 482.06c-2.62 2.95-3.67 6.67-4.42 10.46-.19 1-.36 1.91-.55 2.86s-.21 2.35-1 2.79a7.41 7.41 0 0 1 -2.58.32c-1 .06-2 .09-3 .08a39.82 39.82 0 0 1 -21.6-6.91 37.57 37.57 0 0 1 -9.44-9.17c-1-1.41-3.37-.06-2.35 1.37a42.05 42.05 0 0 0 19.77 14.9 41.57 41.57 0 0 0 12.12 2.47 36.66 36.66 0 0 0 6.2-.18c2.27-.26 3.69-1.12 4.24-3.44 1.08-4.62 1.27-9.91 4.58-13.63 1.16-1.3-.75-3.23-1.92-1.92z"/><path d="m671.94 516.21a11.32 11.32 0 0 0 -1.27 2.56 3.66 3.66 0 0 0 .4 3 2.83 2.83 0 0 0 2.93 1.23 2.34 2.34 0 0 0 1.36-.87 2.2 2.2 0 0 0 .37-1.81 2.37 2.37 0 0 0 -.89-1.38 2 2 0 0 0 -1.87-.35 1.5 1.5 0 0 0 -.81.63 1.36 1.36 0 0 0 .49 1.86 1.31 1.31 0 0 0 1 .13h.19-.36.13-.36.17l-.32-.13a1 1 0 0 1 .2.11l-.28-.21a1.29 1.29 0 0 1 .17.16l-.21-.27a1.28 1.28 0 0 1 .15.25l-.14-.32a1.31 1.31 0 0 1 .09.28l-.05-.36a1 1 0 0 1 0 .24l.05-.36a1.16 1.16 0 0 1 0 .18l.13-.32a.7.7 0 0 1 -.09.17l.21-.28a1.07 1.07 0 0 1 -.18.19l.27-.21a.94.94 0 0 1 -.22.12l.33-.13a1.67 1.67 0 0 1 -.3.08l.36-.05h-.37l.36.05a1.55 1.55 0 0 1 -.42-.12l.33.14-.28-.16.27.21a1.44 1.44 0 0 1 -.27-.28l.21.28a2.27 2.27 0 0 1 -.19-.34l.13.33a2.26 2.26 0 0 1 -.14-.57v.36a2.91 2.91 0 0 1 0-.66v.36a3.77 3.77 0 0 1 .25-.87l-.14.32a18.5 18.5 0 0 1 1-1.75 1.36 1.36 0 1 0 -2.34-1.38z"/><path d="m673.22 533.64c-.43.83-1.11 1.51-1.51 2.37a3.83 3.83 0 0 0 -.08 3.47 2.64 2.64 0 0 0 2.53 1.32 2.46 2.46 0 0 0 1.55-.65 2.2 2.2 0 0 0 .66-1.62 2.36 2.36 0 0 0 -1.15-1.88 2.29 2.29 0 0 0 -2.24-.08 1.38 1.38 0 0 0 -.49 1.86 1.4 1.4 0 0 0 1.86.49c-.38.18-.19.07-.05.05h-.36.16-.36c.08 0 .35.1.11 0s-.06 0 0 0-.21-.2-.12-.09l.08.09c.12.1-.19-.3-.09-.12s-.07-.16-.07-.17a.85.85 0 0 1 0 .17v-.37a1.77 1.77 0 0 1 0 .23l.05-.36a.83.83 0 0 0 0 .15s.15-.34.07-.2.24-.28.1-.13-.17.15 0 0 .07-.06 0 0 .32-.11.18-.07l-.26.07h.36-.4.36-.19c-.13 0-.21-.12.13.07l-.15-.08c-.23-.12.24.23.1.08s0 .11.08.12a.7.7 0 0 1 -.15-.23l.09.2s0-.09 0-.13a2.56 2.56 0 0 1 -.05-.27v.36a2.66 2.66 0 0 1 0-.63l-.05.37a2.59 2.59 0 0 1 .09-.42l.06-.21v-.07c0-.13 0-.09-.05.13.07-.11.12-.25.19-.37s.17-.27.26-.41a16.89 16.89 0 0 0 1.06-1.59 1.36 1.36 0 0 0 -2.35-1.37z"/><path d="m673.63 548a8.22 8.22 0 0 0 -2.46 7.5 3.44 3.44 0 0 0 2.86 2.86 2.72 2.72 0 0 0 3-2.18c.24-1.79-1.41-2.79-2.93-3.11a1.4 1.4 0 0 0 -1.67.95 1.36 1.36 0 0 0 1 1.67l.71.19c.15.06.14.05 0 0l.18.1c.08 0 .29.23.06 0l.14.13c-.11-.15-.13-.17 0-.05l-.06-.15c0 .15 0 .13 0-.08 0 .16 0 .12 0-.1 0 .11 0 .11 0 0s0-.11 0 0c.13-.16.15-.19 0-.08s.22-.13 0 0 .27-.1-.09 0 .26 0 0 0 .16 0-.09 0 .31.07 0 0c-.13-.09-.12-.08 0 0l-.11-.12c-.07-.07-.05 0 0 .07a.76.76 0 0 1 -.12-.19l-.11-.19v.06c-.07-.24-.14-.47-.19-.72.07.34 0-.14 0-.21v-.35c0-.17 0-.34 0-.5s.07-.42 0-.14a8.64 8.64 0 0 1 .19-.85c0-.12.07-.24.11-.36l.09-.23c-.06.13 0 .12 0 0s.26-.53.41-.78.13-.21.21-.31a1.43 1.43 0 0 1 .14-.2c-.08.1-.08.1 0 0s.39-.44.6-.64a1.37 1.37 0 0 0 0-1.92 1.39 1.39 0 0 0 -1.92 0z"/><path d="m864.51 490.08a354.47 354.47 0 0 1 27.49 44.55 395 395 0 0 1 21.21 48.52q4.44 12.32 8.11 24.9 1.85 6.38 3.5 12.79c1.05 4.06 2.17 8.15 2.87 12.29 2.68 15.94-1.53 33.4-9.52 47.3-2.08 3.61-4.74 6.86-6.78 10.5-1.51 2.69-3 5.77-1.82 8.86a7.55 7.55 0 0 0 12.91 1.89 44.41 44.41 0 0 1 4.48-5.11l-2.27-1.32a72.5 72.5 0 0 0 -1.32 16c.07 2.84.28 5.67.61 8.48.25 2.13.35 4.47 1.23 6.46 2.41 5.5 10.36 6.22 13.93 1.48a9 9 0 0 0 1.66-5 80.89 80.89 0 0 0 0-10 1.37 1.37 0 0 0 -2.67-.36 42.31 42.31 0 0 0 -2.22 15.26 41.64 41.64 0 0 0 1 7.62c.47 2.1 1.28 4.24 3.61 4.8 4.45 1 6.79-5 8-8.08a83.45 83.45 0 0 0 4.36-15.37 86.35 86.35 0 0 0 1.34-17.8 1.36 1.36 0 0 0 -2.72 0q-1 9.28-1.14 18.63-.06 4.53.1 9.06c0 1.42.11 2.84.19 4.26a16.57 16.57 0 0 0 .43 4.16 5.36 5.36 0 0 0 9.52 1.75 17.61 17.61 0 0 0 2.36-5.9c.76-2.81 1.53-5.62 2.28-8.44 2.75-10.41 5.14-21 5.4-31.82.27-11.57-2.09-22.89-5.6-33.86-3.42-10.66-8.1-20.88-11.38-31.58-2.92-9.52-5-19.26-7.69-28.85-2.97-10.55-6.73-20.93-10.56-31.15q-6-16-12.94-31.66a543.63 543.63 0 0 0 -31.84-60.84c-1.46-2.41-3-4.81-4.45-7.2-.92-1.48-3.28-.12-2.34 1.37a547.9 547.9 0 0 1 31.73 58.08 541.69 541.69 0 0 1 24.43 61.37c3 9.14 5.31 18.44 7.72 27.75 1.18 4.55 2.39 9.1 3.83 13.59 1.56 4.84 3.5 9.56 5.31 14.31 4.09 10.77 8.06 21.73 9.94 33.14a90.12 90.12 0 0 1 -.64 31.29c-1 5.16-2.23 10.27-3.57 15.34-.72 2.73-1.47 5.46-2.22 8.18-.52 1.91-.93 4.23-2.35 5.72-1.6 1.67-4 .31-4.45-1.68a22.77 22.77 0 0 1 -.29-4.13q-.12-2.26-.18-4.53-.22-8.8.33-17.59c.18-2.93.44-5.85.76-8.77h-2.72a82.12 82.12 0 0 1 -3.62 26.79c-.64 2.07-1.37 4.11-2.17 6.13-.71 1.78-1.42 3.71-2.92 5a1.94 1.94 0 0 1 -1.87.63c-1-.42-1.19-1.86-1.4-2.81a37.3 37.3 0 0 1 -.89-6.65 40.14 40.14 0 0 1 2.06-14.83l-2.67-.36c.14 2.44.22 4.88.16 7.32 0 1.67.06 3.53-.66 5.09a5.46 5.46 0 0 1 -5.13 3 5.22 5.22 0 0 1 -4.87-3.39 26.7 26.7 0 0 1 -1-6.05c-.25-2.39-.42-4.79-.49-7.19a69.52 69.52 0 0 1 1.26-15.42 1.37 1.37 0 0 0 -2.27-1.32 39.76 39.76 0 0 0 -4.18 4.71 5.49 5.49 0 0 1 -3.36 2.48 5 5 0 0 1 -5.41-3 4.82 4.82 0 0 1 .19-3.52 30.13 30.13 0 0 1 3-5.55c2.21-3.41 4.6-6.66 6.48-10.27 7.23-13.85 11-30.19 8.73-45.77a116.54 116.54 0 0 0 -2.65-12q-1.56-6.18-3.32-12.32-3.47-12.38-7.79-24.44a403 403 0 0 0 -20.06-47.14 359.41 359.41 0 0 0 -26.15-44q-1.79-2.55-3.62-5.07c-1-1.4-3.37 0-2.34 1.37z"/><path d="m438.31 467.41q20.1-6.78 39.71-14.87c5-2.08 11.49-4.17 11.42-10.73 0-3.25-1.09-6.59-1.75-9.76l-2-9.78c-5.72-27.16-11.82-54.3-20.42-80.71-1-3.16-2-6.37-3.22-9.47a17 17 0 0 0 -3.72-5.94c-3-3-7.09-4.22-11.22-4.42a49.69 49.69 0 0 0 -13.28 1.65 98.83 98.83 0 0 0 -18.18 6.09c-5.54 2.48-11.44 5.26-15.82 9.55a21.26 21.26 0 0 0 -6.23 15.27c-.11 6 1.35 11.9 2.61 17.72 1.46 6.75 3 13.44 4.93 20.08 3.9 13.46 8.82 26.61 14 39.62 2.57 6.44 5.21 12.85 7.84 19.28 1.32 3.22 2.6 6.46 3.94 9.68 1 2.53 2.35 5.18 4.81 6.62a6.38 6.38 0 0 0 6.93 0c1.4-1 .05-3.38-1.37-2.35-2.3 1.69-5-.09-6.32-2.15-1.57-2.44-2.46-5.35-3.55-8-2.52-6.2-5.07-12.39-7.59-18.59-5-12.33-9.81-24.74-13.84-37.42-2-6.26-3.79-12.6-5.31-19-1.36-5.72-2.7-11.51-3.67-17.3-.91-5.37-1.41-11.47 1.06-16.52s7.29-8.15 12.11-10.74c9.72-5.23 20.65-9.27 31.67-10.52 3.78-.43 8-.5 11.46 1.22 4.4 2.17 6 6.38 7.45 10.76 8.46 24.78 14.55 50.29 20.06 75.86q2.06 9.54 4 19.11a83 83 0 0 1 1.84 9.35c.28 3-1.07 5-3.63 6.41a69.92 69.92 0 0 1 -8 3.48q-4.74 1.93-9.51 3.79-9.32 3.63-18.74 7-4.59 1.62-9.21 3.18c-1.65.55-.94 3.18.72 2.62z"/><path d="m418.75 339.88a110.5 110.5 0 0 1 16.17-5.81 1.36 1.36 0 0 0 -.72-2.62 114.09 114.09 0 0 0 -16.82 6.09 1.36 1.36 0 0 0 -.49 1.85 1.38 1.38 0 0 0 1.86.49z"/></g><g fill="#fff"><path d="m428.56 407.67a262.63 262.63 0 0 0 18.93-44.38q2.08-6.51 3.83-13.12a1.36 1.36 0 0 0 -2.62-.72 258.54 258.54 0 0 1 -16.3 44.66q-2.94 6.18-6.19 12.19c-.83 1.54 1.52 2.91 2.35 1.37z"/><path d="m440.71 420.33a65.18 65.18 0 0 0 9.13-18.08c.54-1.67-2.08-2.38-2.62-.72a62.87 62.87 0 0 1 -8.86 17.47 1.37 1.37 0 0 0 .49 1.86 1.39 1.39 0 0 0 1.86-.49z"/><path d="m454.12 389.61a1.36 1.36 0 0 0 0-2.72 1.36 1.36 0 0 0 0 2.72z"/><path d="m424.3 388.09a1.36 1.36 0 0 0 0-2.72 1.36 1.36 0 0 0 0 2.72z"/><path d="m427.33 379.5a1.36 1.36 0 0 0 0-2.72 1.36 1.36 0 0 0 0 2.72z"/><path d="m730.14 522.89a9.82 9.82 0 0 0 -3.85.36 1.37 1.37 0 0 0 .36 2.67 129.15 129.15 0 0 0 45.9-2.54c1.7-.41 1-3-.72-2.62a127 127 0 0 1 -45.18 2.44l.37 2.67a7.63 7.63 0 0 1 3.12-.26c1.73.19 1.72-2.53 0-2.72z"/><path d="m757.88 308.44c5.44 4.65 12 7.5 18.68 9.87 7.52 2.65 15.13 5 22.73 7.41q23.43 7.32 47.19 13.51 13.39 3.48 26.89 6.61c1.71.39 2.43-2.23.73-2.62q-47.1-10.91-92.99-26.22c-7.51-2.51-15.2-5.25-21.31-10.47-1.32-1.13-3.25.78-1.92 1.92z"/></g><g fill="#ff7f00"><path d="m580.1 302.15c-7.25 8.86-11.93 20.19-11.88 31.73a35.84 35.84 0 0 0 3.78 16.12c1.31 2.57 2.94 5.21 5.38 6.84a8.83 8.83 0 0 0 7.63.94c6.83-2.2 8.78-9.64 7.78-16.06-.13-.79-1-1-1.67-.95-4.46.6-7.48 4.38-9.14 8.28a33.42 33.42 0 0 0 -2.29 13.85c.28 9.62 4 18.93 9.47 26.74a62 62 0 0 0 11.35 12.25c1.34 1.1 3.27-.81 1.92-1.92-13.41-11-23.71-29.49-18.87-47.21 1.12-4.13 3.62-8.74 8.28-9.37l-1.67-.95c.76 4.89-.59 11-5.88 12.72-5.47 1.76-8.67-3.6-10.58-7.86-4-9-3.3-19.42 0-28.51a50.12 50.12 0 0 1 8.29-14.72c1.1-1.34-.81-3.27-1.92-1.92z"/><path d="m542.76 397a113 113 0 0 0 20.58 26.13c1.27 1.2 3.2-.72 1.92-1.92a110.41 110.41 0 0 1 -20.15-25.58 1.36 1.36 0 0 0 -2.35 1.37z"/><path d="m641.82 281.08a123.65 123.65 0 0 0 6.89 32.2c.59 1.64 3.22.93 2.62-.72a120.76 120.76 0 0 1 -6.79-31.48c-.14-1.73-2.86-1.75-2.72 0z"/><path d="m945 266.68c6.9.49 12.74 5.22 16.16 11 4.16 7.06 4.66 15.64 4 23.63-.59 7-1.94 14.19-5.22 20.44-2.62 5-7.5 11.14-13.76 10.8-2.28-.12-4.91-1.49-3.59-4.15s4.5-4.06 7.21-4.41c5.67-.72 11.83 2.36 15 7 4.4 6.47 3.9 15.07 2 22.29a70.82 70.82 0 0 1 -9.25 20.05 95 95 0 0 1 -31.34 29.55q-2.32 1.38-4.73 2.65c-1.55.82-.18 3.16 1.37 2.35a100 100 0 0 0 36.09-31.73 74.52 74.52 0 0 0 10.48-22.14c2.11-7.92 2.55-17.47-2.35-24.52-3.69-5.31-10.43-8.89-17-8.28a13.16 13.16 0 0 0 -8.6 4.06c-2.25 2.5-2.87 6.33.11 8.51 2.32 1.7 5.68 1.77 8.36 1 3.31-.91 6.26-3.47 8.46-6 5-5.75 7.37-13.27 8.6-20.64 1.48-8.87 1.93-18.47-1.24-27.05-2.63-7.14-8-13.45-15.32-16.08a20.17 20.17 0 0 0 -5.44-1.01c-1.74-.12-1.74 2.59 0 2.72z"/><path d="m946.21 460.88a53.66 53.66 0 0 0 30-25.35c.83-1.55-1.52-2.92-2.34-1.37a50.91 50.91 0 0 1 -28.34 24.1c-1.65.56-.94 3.19.72 2.62z"/><path d="m947.27 521.49a26.32 26.32 0 0 0 22.26-13.08 1.36 1.36 0 0 0 -2.35-1.37 23.59 23.59 0 0 1 -19.91 11.74 1.36 1.36 0 0 0 0 2.71z"/><path d="m647.37 688.13 15.17 3c1.71.34 2.44-2.28.72-2.62l-15.17-3c-1.71-.33-2.44 2.28-.72 2.62z"/><path d="m650.78 699.43 8.37 4.5a1.36 1.36 0 1 0 1.37-2.34l-8.37-4.51a1.36 1.36 0 0 0 -1.37 2.35z"/><path d="m653.73 711.44 1.52-.75a1.07 1.07 0 0 0 .38-.35 1.05 1.05 0 0 0 .24-.47 1.47 1.47 0 0 0 -.13-1 1.41 1.41 0 0 0 -.81-.63l-.37-.05a1.48 1.48 0 0 0 -.68.19l-1.52.76a1 1 0 0 0 -.38.35 1 1 0 0 0 -.24.46 1 1 0 0 0 0 .54 1.17 1.17 0 0 0 .16.51 1.38 1.38 0 0 0 .82.62h.36a1.27 1.27 0 0 0 .68-.19z"/><path d="m781.2 676.77a48.66 48.66 0 0 0 18.1-5.56c1.54-.83.17-3.18-1.37-2.35a45.27 45.27 0 0 1 -16.73 5.19 1.4 1.4 0 0 0 -1.36 1.36 1.37 1.37 0 0 0 1.36 1.36z"/><path d="m783.11 689a60.11 60.11 0 0 0 11.31-3.31 1.4 1.4 0 0 0 1-1.67 1.38 1.38 0 0 0 -1.67-.95 60.11 60.11 0 0 1 -11.31 3.31 1.36 1.36 0 0 0 .72 2.62z"/><path d="m794.29 696.82.76-.75a1 1 0 0 0 .28-.44 1 1 0 0 0 .12-.52 1 1 0 0 0 -.12-.53 1 1 0 0 0 -.28-.44l-.27-.21a1.39 1.39 0 0 0 -.69-.18h-.36a1.38 1.38 0 0 0 -.6.34l-.76.76a1 1 0 0 0 -.28.44 1.21 1.21 0 0 0 0 1 1 1 0 0 0 .28.43l.28.22a1.36 1.36 0 0 0 .68.18l.36-.05a1.31 1.31 0 0 0 .6-.35z"/><path d="m87.31 467.35a750.71 750.71 0 0 1 48.81-79q6.66-9.4 13.62-18.62c4-5.25 7.93-11.38 13.7-14.82a13.79 13.79 0 0 1 9.69-1.86c3.82.68 7.5 2.26 11.14 3.55l23.2 8.23 23.2 8.22 11.6 4.11a87.29 87.29 0 0 0 11.12 3.48c6.07 1.28 12.3.75 17.35-3.09 3.85-2.94 6.52-7.09 8.89-11.25 5.19-9.12 9.92-20.12 21.69-21.58 14.41-1.79 27.05 8.3 40.56 11.35 6.76 1.53 13.94 1.41 20.05-2.18 5.8-3.41 9.87-9 13.55-14.52a156.78 156.78 0 0 0 19-39.22c1.12-3.48 2.12-7 3-10.56a1.36 1.36 0 0 0 -2.62-.72 155.28 155.28 0 0 1 -16.51 40.76c-3.54 6.07-7.36 12.37-12.28 17.44a23.73 23.73 0 0 1 -8.46 5.88 23.38 23.38 0 0 1 -10.59 1.24c-14.37-1.36-26.3-11.38-40.82-12.3a23.32 23.32 0 0 0 -16.8 5.19c-3.75 3.18-6.39 7.48-8.77 11.72-4.85 8.65-9.75 19.8-21.32 19.81a36.14 36.14 0 0 1 -11.31-2.27c-3.83-1.28-7.61-2.68-11.41-4l-23.2-8.22-23.2-8.23c-3.82-1.35-7.63-2.75-11.46-4.05-3.36-1.14-6.87-2-10.44-1.51-6.2.9-11 5.53-14.8 10.16-4.68 5.69-9 11.71-13.34 17.65a748.07 748.07 0 0 0 -49.68 77.72q-2.78 5.04-5.47 10.14c-.82 1.55 1.52 2.92 2.35 1.38z"/><path d="m296.05 233.87c-11.48 1.7-19.89 11.42-23.8 21.81-2.22 5.9-3.46 12.73 0 18.4a35.38 35.38 0 0 0 6.36 7.14 51.15 51.15 0 0 0 7.83 6.08 27.3 27.3 0 0 0 16.56 4.1 30.13 30.13 0 0 0 15.49-5.82c9.63-7.18 13.5-19.53 11.45-31.15a29.87 29.87 0 0 0 -9.08-17.07c-4.75-4.28-11.17-6.86-17.54-5a1.36 1.36 0 0 0 .73 2.62c10.76-3.08 19.82 7.57 22.49 16.83 2.95 10.24.66 22.15-7.23 29.61-7.32 6.91-18.72 9.57-28.06 5.36-5.37-2.42-10.07-6.5-14-10.79a15.21 15.21 0 0 1 -4.2-7.53 20.41 20.41 0 0 1 1-9.26c3.16-10.67 11.28-21 22.83-22.67 1.72-.26 1-2.88-.72-2.62z"/><path d="m118.25 337.31 20.29-6.94 10.37-3.54 4.72-1.62a12 12 0 0 0 3.87-1.69 4.32 4.32 0 0 0 1.43-3.68c0-1.59-.23-3.15-.17-4.75a22.74 22.74 0 0 1 2-8.94c2.22-4.77 6.84-8.9 12.31-9.07a12.66 12.66 0 0 1 12.41 9.77c.3 1.38 2.22 1.2 2.62 0a10.57 10.57 0 0 1 20.27.37 1.37 1.37 0 0 0 2.48.32c1.47-2.91 3.59-7.13 7.29-7.45s7.38 2.56 10.76-.3c1.34-1.12-.59-3-1.92-1.92s-3.78.25-5.37-.1a9.78 9.78 0 0 0 -5.77.1c-3.58 1.4-5.69 5-7.33 8.3l2.48.33a13.29 13.29 0 0 0 -25.51-.37h2.62a15.41 15.41 0 0 0 -10.57-11.13c-5.34-1.64-10.95.22-14.94 4-4.52 4.26-6.45 10.48-6.56 16.57 0 1.57.29 3.17.2 4.73-.11 1.75-2.44 2-3.79 2.5l-10.85 3.7-24.06 8.23c-1.64.56-.94 3.19.72 2.62z"/><path d="m256.3 339a47.53 47.53 0 0 0 9-3.11 1.39 1.39 0 0 0 .48-1.86c-1.18-2.66.76-5.66 2.65-7.43 1.06-1 2.52-2.11 4.07-1.86s1.72 1.74 2.17 3c.93 2.56 3.86 4.17 5.87 1.68s4.14-3.94 7.28-4c1.74-.05 1.75-2.76 0-2.72a11.62 11.62 0 0 0 -8.75 4.21c-.45.56-.73 1.48-1.42.75a7.17 7.17 0 0 1 -.93-2.42 4.72 4.72 0 0 0 -3.16-3c-3.35-.94-6.51 1.54-8.45 4-2.08 2.66-3.09 6-1.67 9.18l.49-1.86a44.29 44.29 0 0 1 -8.31 2.84c-1.7.41-1 3 .72 2.62z"/><path d="m331.28 313.27a1.36 1.36 0 0 0 0-2.71 1.36 1.36 0 0 0 0 2.71z"/><path d="m88.13 468.94c3.5-5.06 8.1-11.54 14.85-11.95 7.18-.44 12.61 5.81 14.93 12a65.3 65.3 0 0 1 3 12.74 1.37 1.37 0 0 0 2.48.33c5.83-13.52 12.19-28.18 25.18-36.31 5.38-3.37 12.67-6.12 19-4.09 3.43 1.09 5.37 3.82 6.39 7.15a38.36 38.36 0 0 1 1.49 12.1c-.22 9.43-3.07 18.58-5.88 27.51l2.62.72a20.3 20.3 0 0 1 4.11-7.37c1.84-2.1 4.29-4.24 7-5s5.24.9 6.56 3.32c1.54 2.83 1.34 6.31 1.25 9.42a1.37 1.37 0 0 0 2.53.69c.68-1.34 2.61-1.33 3.67-.41 1.65 1.45.93 4.16 0 5.76s1.43 2.86 2.34 1.37c1.75-2.86 2.14-7.25-.87-9.44-2.31-1.69-6.06-1.36-7.45 1.35l2.54.68c.11-3.74.17-7.78-1.8-11.11-1.72-2.89-4.78-4.94-8.23-4.49s-6.72 3-9.06 5.51a23.59 23.59 0 0 0 -5.2 9c-.53 1.67 2.09 2.39 2.62.72 2.68-8.51 5.32-17.18 5.89-26.14a44.35 44.35 0 0 0 -1-13c-.86-3.65-2.35-7.21-5.56-9.39-6-4.06-14.36-2.11-20.41.71-6.76 3.14-12.38 8.37-16.81 14.29-5.72 7.62-9.52 16.43-13.27 25.12l2.49.33c-1.31-8.06-2.92-16.92-9.44-22.53a16.38 16.38 0 0 0 -10-4.19 15.42 15.42 0 0 0 -10 3.65c-3.36 2.65-5.92 6.17-8.34 9.67-1 1.44 1.36 2.8 2.35 1.37z"/><path d="m376.12 429.17c-6.2-3-10.24-10.25-9-17.16.62-3.42 2.59-7 6-8.36 2.8-1.08 6.44-.38 8.1 2.27l2.13-1.65a8.79 8.79 0 0 1 8.58-15.27c1.49.57 2.28-1.68 1.05-2.48a11.46 11.46 0 0 1 -.49-19.09c1.41-1 .05-3.36-1.38-2.34a14.18 14.18 0 0 0 .49 23.78l1-2.49a11.48 11.48 0 0 0 -11.2 19.77c1.12.88 3-.22 2.14-1.64a9 9 0 0 0 -7.63-4.09 10.59 10.59 0 0 0 -8.39 4.12c-4.37 5.44-4.18 13.25-.91 19.16a18.81 18.81 0 0 0 8.09 7.78c1.57.76 2.95-1.58 1.37-2.35z"/></g></svg>