<svg viewBox="0 0 1000 1000" xmlns="http://www.w3.org/2000/svg"><path d="m451.07 623.2-18 2.26a73.59 73.59 0 0 0 -5.12-5.67 75.62 75.62 0 0 0 -6.31-5.63q.85-12.51 1.1-25.07c.08-3.87-.15-8.31-3.18-10.73a12.71 12.71 0 0 0 -5.21-2.06q-13.59-3.07-27.44-4.78c-2.68-.33-5.49-.61-8 .37-4.22 1.64-6.38 6.22-8.14 10.4q-3.53 8.36-7 16.7a74.13 74.13 0 0 0 -15.51 4.23q-10.41-7-21.15-13.47c-3.32-2-7.28-4-10.88-2.61a12.51 12.51 0 0 0 -4.39 3.48 277.94 277.94 0 0 0 -17.84 21.38c-1.63 2.16-3.27 4.45-3.69 7.12-.69 4.48 2.2 8.64 4.94 12.26l10.93 14.42a74.37 74.37 0 0 0 -4.06 15.55q-11.26 5.52-22.26 11.59c-3.39 1.87-7.12 4.29-7.7 8.12a12.75 12.75 0 0 0 .82 5.54q4.14 13.3 9.58 26.16c1.06 2.48 2.22 5 4.32 6.74 3.54 2.84 8.59 2.42 13.08 1.86l18-2.26c1.6 1.95 3.3 3.84 5.12 5.66a75.62 75.62 0 0 0 6.31 5.63q-.85 12.52-1.1 25.07c-.07 3.87.16 8.32 3.19 10.73a12.57 12.57 0 0 0 5.21 2.06 277.11 277.11 0 0 0 27.38 4.75c2.68.33 5.48.61 8-.37 4.23-1.63 6.39-6.22 8.15-10.4q3.51-8.34 7-16.7a74.3 74.3 0 0 0 15.51-4.23q10.39 7 21.14 13.48c3.32 2 7.28 4 10.89 2.61a12.51 12.51 0 0 0 4.38-3.49 276.17 276.17 0 0 0 17.86-21.35c1.62-2.15 3.27-4.45 3.68-7.12.69-4.47-2.2-8.64-4.93-12.25q-5.48-7.21-10.94-14.42a73.68 73.68 0 0 0 4.06-15.56q11.28-5.52 22.26-11.58c3.39-1.87 7.13-4.29 7.71-8.12a12.59 12.59 0 0 0 -.83-5.54 276.46 276.46 0 0 0 -9.58-26.16c-1.05-2.49-2.21-5.06-4.32-6.75-3.49-2.84-8.54-2.42-13.04-1.85z" fill="#ff7f00"/><g fill="#1a1c1c"><path d="m465.42 408.09-24-18.64c.42-4.21.65-8.48.65-12.8a125.15 125.15 0 0 0 -.81-14.18q15.87-13.85 31.06-28.45c4.68-4.51 9.69-10 9-16.52-.35-3.14-2-5.94-3.74-8.62a466.12 466.12 0 0 0 -26.9-38.25c-2.78-3.57-5.79-7.23-9.93-9.06-7-3.07-15-.2-22 2.67l-28.16 11.48a125.22 125.22 0 0 0 -23.44-13.38q-4.05-20.65-9.1-41.1c-1.57-6.31-3.86-13.42-9.83-16-2.89-1.26-6.18-1.19-9.33-1.07a465.48 465.48 0 0 0 -46.58 4.17c-4.49.62-9.16 1.4-12.82 4.07-6.14 4.49-7.65 12.87-8.69 20.41l-4.14 30.1a123.58 123.58 0 0 0 -23.28 13.64q-19.94-6.82-40.17-12.68c-6.25-1.8-13.55-3.36-18.78.5-2.55 1.88-4.13 4.76-5.6 7.55a467 467 0 0 0 -19.68 42.42c-1.7 4.2-3.37 8.63-2.88 13.14.82 7.56 7.32 13.06 13.33 17.73l24 18.64a125.39 125.39 0 0 0 .16 27q-15.88 13.85-31.06 28.45c-4.69 4.51-9.7 10.05-9 16.52.36 3.14 2.06 5.94 3.75 8.62a463.58 463.58 0 0 0 26.89 38.25c2.79 3.57 5.79 7.23 9.94 9.06 7 3.07 15 .2 22-2.67l28.16-11.48a124.82 124.82 0 0 0 23.42 13.39q4 20.66 9.11 41.1c1.56 6.31 3.86 13.42 9.82 16 2.9 1.26 6.18 1.19 9.34 1.07q23.37-.92 46.57-4.16c4.49-.63 9.16-1.4 12.82-4.08 6.14-4.49 7.66-12.87 8.69-20.41l4.14-30.09a124.56 124.56 0 0 0 23.29-13.65q19.92 6.83 40.16 12.68c6.25 1.8 13.56 3.36 18.79-.5 2.54-1.88 4.12-4.76 5.6-7.55q10.89-20.7 19.68-42.42c1.7-4.2 3.36-8.63 2.87-13.14-.82-7.59-7.31-13.09-13.32-17.76z"/><path d="m466.46 407.05-24-18.65.43 1.05a129.42 129.42 0 0 0 -.16-27l-.43 1q15-13.08 29.37-26.83c3.87-3.7 8-7.56 10.07-12.63 2.19-5.41.48-10.42-2.45-15.16-6.86-11.07-14.34-21.79-22.16-32.21-3.43-4.55-6.76-9.64-11.1-13.38a18.6 18.6 0 0 0 -15.13-4.24c-6.91.92-13.41 4.14-19.81 6.75l-21 8.54 1.14.15a127.32 127.32 0 0 0 -23.44-13.38l.68.88q-4-20.32-8.94-40.44c-1.16-4.72-2.51-9.61-5.56-13.49-3.5-4.45-8.57-5.53-14-5.39-13.67.38-27.41 1.62-40.97 3.38-5.85.73-12.2 1.08-17.62 3.61-4.66 2.18-7.66 6.32-9.43 11-2.23 6-2.7 12.57-3.56 18.84l-3.18 23.07.68-.88a127 127 0 0 0 -23.29 13.65l1.14-.15q-19.29-6.6-38.86-12.3c-5.1-1.48-10.51-3-15.85-2-5.64 1-8.84 5.32-11.37 10.1-6.11 11.53-11.69 23.35-16.79 35.36-2.42 5.72-5.54 11.72-6.11 18-.49 5.26 1.67 10 5 14 4.12 4.92 9.61 8.63 14.64 12.54l18.15 14.09-.43-1.05a128.73 128.73 0 0 0 .15 27l.43-1q-15 13.08-29.37 26.83c-3.87 3.7-8 7.56-10.07 12.63-2.18 5.42-.47 10.42 2.46 15.16 6.86 11.07 14.33 21.8 22.16 32.21 3.42 4.55 6.75 9.64 11.09 13.38a18.62 18.62 0 0 0 15.03 4.19c6.92-.92 13.41-4.14 19.81-6.74l21-8.55-1.13-.15a127.23 127.23 0 0 0 23.43 13.38l-.68-.88q4 20.32 8.94 40.44c1.17 4.72 2.52 9.61 5.57 13.49 3.5 4.45 8.56 5.53 14 5.39 13.71-.37 27.44-1.61 41-3.32 5.86-.73 12.21-1.07 17.62-3.61 4.66-2.18 7.67-6.32 9.43-11 2.24-6 2.71-12.57 3.57-18.84q1.59-11.53 3.17-23.07l-.68.88a126.71 126.71 0 0 0 23.33-13.7l-1.13.15q16.38 5.61 33 10.57c8.23 2.46 19.59 7.23 27.39 1.23 3.82-2.94 5.81-7.77 8-11.94q3.84-7.47 7.4-15.08t6.87-15.34c2.12-5 4.61-10.05 5.84-15.34a18.38 18.38 0 0 0 -2.53-14.68c-2.8-4.22-6.76-7.46-10.71-10.54-1.48-1.15-3.58.92-2.08 2.08 3.47 2.71 7 5.53 9.66 9.1a15.74 15.74 0 0 1 2.74 13.57c-1.25 5.14-3.66 10.08-5.73 14.93q-3.24 7.57-6.74 15-3.36 7.15-7 14.19c-2.14 4.18-4.17 9.76-8.39 12.3-4 2.4-9 1.69-13.28.68-5.12-1.22-10.17-2.87-15.2-4.4q-8.13-2.47-16.2-5.11-3.56-1.16-7.09-2.34l-3.86-1.31c-1.63-.55-2.05-.56-3.44.45a123.23 123.23 0 0 1 -13.24 8.4c-2.21 1.22-4.45 2.37-6.74 3.44a9.1 9.1 0 0 0 -2.59 1.29c-.82.87-.69 2.87-.84 4-1.44 10.47-2.51 21.09-4.42 31.49-.74 4-1.79 8.1-4.13 11.49-2.75 4-7.07 5.71-11.66 6.59-10.67 2.06-21.72 2.89-32.53 3.72q-8.12.63-16.25 1c-4.77.2-9.8.49-13.4-3.21-2.83-2.92-4.17-7-5.21-10.88-1.35-5-2.48-10-3.64-15.07q-1.91-8.26-3.65-16.58-.76-3.64-1.5-7.31a23 23 0 0 0 -.79-4c-.48-1.15-1.94-1.43-3-1.91a123 123 0 0 1 -13.85-7.46q-3.19-2-6.26-4.16c-.89-.64-1.38-1.1-2.47-.75-1.38.43-2.72 1.11-4.06 1.65l-15.67 6.4c-5 2-9.9 4.29-15 5.85-4.65 1.42-9.91 2.26-14.47.06-4.23-2-7.15-6-10-9.64q-10-12.87-19-26.42c-2.86-4.27-5.85-8.55-8.37-13.05a11.6 11.6 0 0 1 .26-13.57c2.65-4.2 6.58-7.54 10.14-10.93q5.82-5.52 11.74-10.94 6.16-5.64 12.44-11.16a23.2 23.2 0 0 0 3-2.65c.58-.75.38-1.48.29-2.37q-.45-4.37-.6-8.75c-.09-2.72-.09-5.45 0-8.17 0-1.35.11-2.7.19-4.05a27.46 27.46 0 0 0 .39-4.68c-.13-1.13-1.19-1.63-2-2.28l-3.2-2.49q-3.21-2.47-6.4-5c-4.41-3.42-8.83-6.83-13.22-10.26-3.46-2.71-7-5.57-9.55-9.2a15.62 15.62 0 0 1 -2.45-13.15c1.31-5.34 3.83-10.5 6-15.54q6.38-14.83 13.75-29.2c2.07-4 4-9.26 8.09-11.71s9.2-1.66 13.56-.61c10.5 2.54 20.86 6.09 31.12 9.44q3.89 1.26 7.74 2.56c1.29.43 2.56.93 3.86 1.31 1.53.45 2-.14 3.3-1a125.53 125.53 0 0 1 12.73-8q3.31-1.83 6.74-3.44c.87-.41 2.3-.74 2.83-1.59.65-1.05.53-3.15.7-4.37q1.1-8 2.2-16c.69-5 1.24-10.05 2.17-15 .76-4.06 1.87-8.26 4.37-11.63 2.75-3.73 7-5.35 11.38-6.2 5.38-1 10.89-1.58 16.33-2.19q16.5-1.86 33.12-2.53c4.57-.18 9.31-.27 12.72 3.24 2.84 2.92 4.17 7 5.21 10.88 2.83 10.43 5.07 21.07 7.29 31.65q.84 4 1.64 8c.21 1.06.22 2.77.81 3.68s2.41 1.36 3.41 1.83a124.14 124.14 0 0 1 13.28 7.19c2.12 1.32 4.21 2.71 6.25 4.16 1.11.79 1.49 1.08 2.78.63 1.49-.52 2.93-1.2 4.38-1.79l15-6.12c5-2 9.9-4.28 15-5.85 4.84-1.48 10.28-2.29 15 .18 4 2.11 6.77 5.92 9.47 9.4q5.14 6.62 10 13.42 4.62 6.42 9 13c3 4.43 6.13 8.87 8.65 13.57a12.18 12.18 0 0 1 -.54 13.05c-2.65 4.2-6.58 7.54-10.15 10.93q-11.84 11.19-24.16 21.98a21.72 21.72 0 0 0 -3 2.64c-.7.9-.33 2-.22 3 .28 2.91.46 5.84.54 8.76.08 2.72.07 5.45 0 8.17 0 1.12-.1 2.25-.17 3.37a28.6 28.6 0 0 0 -.39 4.68c.14 1.13 1.2 1.63 2 2.28l3.21 2.49 6.4 5 12.81 9.94c1.46 1.16 3.6-.91 2.06-2.07z"/><path d="m619.49 743.05a465 465 0 0 0 -41 148.48 14 14 0 0 0 -10.86 9.15 264 264 0 0 0 91-2.86c5.27-47.26 24.63-91.64 43.77-135.18"/><path d="m618.21 742.3a465.91 465.91 0 0 0 -36.47 115.45q-3 16.8-4.74 33.78l1.09-1.42a15.51 15.51 0 0 0 -11.89 10.18 1.47 1.47 0 0 0 1 1.81 266 266 0 0 0 72 .48q10-1.3 19.86-3.34a1.5 1.5 0 0 0 1.08-1.42 291.42 291.42 0 0 1 11.72-53.82c5.49-17.64 12.23-34.86 19.4-51.88 4-9.61 8.24-19.17 12.44-28.72.76-1.72-1.78-3.22-2.55-1.49-7.52 17.11-15 34.25-21.75 51.69a402.81 402.81 0 0 0 -16.85 53.28 270.19 270.19 0 0 0 -5.36 31l1.08-1.42a263.65 263.65 0 0 1 -70.27 4.86q-10-.66-20-2.06l1 1.81a12.61 12.61 0 0 1 9.83-8.12 1.49 1.49 0 0 0 1.08-1.42 464.28 464.28 0 0 1 27.68-116.6q6-15.81 13.13-31.14c.8-1.71-1.74-3.21-2.55-1.49z"/><path d="m731.27 765.94a254.92 254.92 0 0 0 6.6 55c5.36 23 17.22 48.39 40.22 53.89 12.81 3.07 26.19-.92 38.43-5.78a266.17 266.17 0 0 0 51.37-27.22c2.63-1.79 5.59-3.72 8.74-3.24 5.4.81 8.16 8.14 13.61 8.51 3.77.26 7-3.28 7.67-7s-.38-7.52-1.47-11.15l-7.14-23.83c-1.65-5.5-3.51-11.33-7.93-15-7.72-6.44-19.26-3.51-28.78-.25l-36.69 12.58c-2 .69-4.5 1.28-6-.2a5.73 5.73 0 0 1 -1.32-3.14 488.24 488.24 0 0 1 -7.53-53"/><path d="m729.8 765.94a258.05 258.05 0 0 0 5.49 50.19c2.63 12.51 6.37 24.93 12.88 36 5.9 10 14.31 18.89 25.46 22.93 14.88 5.38 30.77.5 44.77-5.16a269.08 269.08 0 0 0 42.6-21.74c3.29-2.08 6.46-4.4 9.8-6.41a9.47 9.47 0 0 1 5.06-1.73 6.56 6.56 0 0 1 3.53 1.36c4.15 2.94 7.66 9 13.65 6.83a10.24 10.24 0 0 0 6.07-6.65c1.2-3.78.27-7.92-.8-11.61-2.39-8.26-4.94-16.48-7.41-24.72-1.93-6.42-4.11-13.28-9.93-17.25-5.45-3.72-12.42-3.56-18.63-2.34-7.55 1.48-14.83 4.46-22.09 6.94-8.16 2.79-16.3 5.6-24.46 8.37-1.27.43-3.17 1.21-4.46.51s-1.47-3.53-1.74-4.91q-1.21-6.27-2.26-12.58-2.12-12.65-3.55-25.4-.69-6.23-1.23-12.47c-.17-1.88-3.12-1.9-3 0a491.93 491.93 0 0 0 6.83 49.54c.59 3.12.73 7.7 4.4 8.78 3.21 1 7-1.06 10-2.07l24-8.21c6.79-2.33 13.66-5.13 20.82-6.07 6.3-.83 12.92.19 17 5.48a28.86 28.86 0 0 1 4.32 9c1.23 3.76 2.3 7.57 3.44 11.36l3.64 12.09c1.14 3.8 2.69 7.75 2.65 11.77 0 3.05-1.5 6.55-4.61 7.62-2.56.88-4.81-.81-6.59-2.46s-3.67-3.8-6-5c-3-1.48-6.18-1-9.07.57-3.34 1.75-6.38 4.15-9.56 6.17s-6.61 4.13-10 6.08q-10.12 5.85-20.74 10.8a203.86 203.86 0 0 1 -21.78 8.91c-7.33 2.45-15 4.23-22.8 3.88-12.33-.56-22.82-7.3-30.21-16.91s-11.8-20.92-14.87-32.38a235 235 0 0 1 -7.27-47q-.35-6.08-.41-12.17a1.48 1.48 0 0 0 -3 0z"/><path d="m638.72 562.37c-48.21 47.41-137.51 10.9-168.51-43.73-7.21-12.75-12.21-26.64-16.01-40.81-1-3.75-2.07-7.82-5.12-10.21a10.19 10.19 0 0 0 -7.48-1.88c-7.05.88-12 7.95-12.92 15s1.34 14.08 3.55 20.83c18.67 56.95 69.79 101.49 130 108.12 31.5 3.47 64.52-4 90.08-22.69"/><path d="m637.68 561.33a75.64 75.64 0 0 1 -42.48 20.59c-16.24 2.33-33 0-48.48-5.11a143.73 143.73 0 0 1 -44.94-24.31c-13.29-10.61-24.6-23.52-32.49-38.62a172.17 172.17 0 0 1 -13-33.79c-1.32-4.75-2.23-10.41-6.37-13.62s-9.77-2.85-14-.28a19.34 19.34 0 0 0 -8.11 11.17c-1.63 5.64-.77 11.72.7 17.3a152.28 152.28 0 0 0 10.89 28.34 164 164 0 0 0 33.26 45.42 158.9 158.9 0 0 0 46.58 31.26 146.21 146.21 0 0 0 57.2 12.32 132.15 132.15 0 0 0 63.12-15.2 114.45 114.45 0 0 0 13.54-8.52c1.52-1.11 0-3.67-1.48-2.55-17.56 12.82-38.59 20.37-60.16 22.6a140.48 140.48 0 0 1 -59.41-6.86 153 153 0 0 1 -48.25-27.09 161.82 161.82 0 0 1 -36-42 158 158 0 0 1 -12-25.05 118.53 118.53 0 0 1 -4.94-15.73c-1.19-5.36-1.51-11.2.95-16.26 1.95-4 5.52-7.66 10.18-8.13a8.47 8.47 0 0 1 7.13 2.5 15.43 15.43 0 0 1 3.05 6.35c1.62 5.58 3.09 11.17 5 16.67a168.87 168.87 0 0 0 6.58 16.51 123.65 123.65 0 0 0 31.25 41.41 148.64 148.64 0 0 0 43.19 26.21c15.2 6 31.66 9.45 48.05 8.8 15.79-.62 31.42-5.25 44.33-14.51a78.39 78.39 0 0 0 9.22-7.74c1.35-1.33-.73-3.41-2.09-2.08z"/></g><path d="m416.11 525.92a4.64 4.64 0 0 0 .56 2.26c1.87 4 6.33 7.05 10.64 6.08a13.42 13.42 0 0 0 5.2-2.88 49.61 49.61 0 0 0 16.33-24.22l-.48.63a1.83 1.83 0 0 0 -.16-1.41 4 4 0 0 0 -1.86-1.49 20.87 20.87 0 0 0 -12.78-1.8 3.28 3.28 0 0 0 -1.59.6 3.87 3.87 0 0 0 -1 1.75 37.39 37.39 0 0 1 -11.82 16.42c-1.36 1.14-2.94 2.32-3.04 4.06z" fill="#ff7f00"/><g fill="#1a1c1c"><path d="m414.63 525.92c0 3.39 2.81 6.62 5.55 8.34a9.93 9.93 0 0 0 9.87.54c3.27-1.63 6.17-4.5 8.64-7.15a51.31 51.31 0 0 0 11.57-20.1c.52-1.71-1.76-2.38-2.7-1.13l-.47.63 2.69 1.14c.72-3.76-3.63-5.23-6.51-6.05a20.25 20.25 0 0 0 -10.78-.32 4.4 4.4 0 0 0 -2.88 3.07 38.07 38.07 0 0 1 -2.13 4.75 36.35 36.35 0 0 1 -6.09 8.23c-1.29 1.31-2.71 2.44-4.11 3.62a6.66 6.66 0 0 0 -2.65 4.43c-.22 1.88 2.73 1.86 2.95 0 .16-1.42 1.93-2.45 2.93-3.26a37.85 37.85 0 0 0 3.8-3.58 39.15 39.15 0 0 0 6.09-8.67c.79-1.54 1.4-3.14 2.05-4.74a1.56 1.56 0 0 1 1.5-1.16 16.21 16.21 0 0 1 2.87-.26 19.64 19.64 0 0 1 5.66.73c.8.23 4.69 1.22 4.46 2.42a1.48 1.48 0 0 0 2.69 1.14l.48-.63-2.69-1.14a48.41 48.41 0 0 1 -12.21 20.23c-2.59 2.55-6.1 6.25-10.06 6a8.28 8.28 0 0 1 -4.81-2.24c-1.27-1.18-2.75-3-2.76-4.79a1.48 1.48 0 0 0 -2.95-.05z"/><path d="m409.38 500.56a112.22 112.22 0 0 1 -2.45-22.75c0-4.63.28-9.41 2.35-13.56 2.37-4.77 6.89-8.2 11.79-10.29 10.72-4.56 24.19-5.12 35.39-2 6.43 1.76 12.59 5.47 16 11.25 3.18 5.47 3.52 12.1 3.37 18.42a146.61 146.61 0 0 1 -2.15 21.83c-.71 4.07-1.79 8.45-5 11-2.37 1.85-5.48 2.41-8.47 2.77a105.21 105.21 0 0 1 -39.19-2.67c-2.73-.72-5.55-1.62-7.52-3.65s-2.75-4.79-3.4-7.5c-.31-.97-.52-1.91-.72-2.85z"/><path d="m410.8 500.17a108.47 108.47 0 0 1 -2.39-24.1 26.58 26.58 0 0 1 1.95-10.69 18.45 18.45 0 0 1 6.12-7.17c5.47-3.92 12.51-5.73 19.13-6.43a55 55 0 0 1 20.82 1.65c6.16 1.76 12.06 5.41 15.11 11.21 3.32 6.29 3 13.95 2.63 20.84-.21 4.09-.58 8.18-1.13 12.24a55.55 55.55 0 0 1 -2.04 10.48 9.78 9.78 0 0 1 -6.38 6.62c-3.53 1.12-7.44 1.28-11.11 1.48a103.7 103.7 0 0 1 -26.6-1.9c-2.12-.44-4.25-.93-6.34-1.51a15.41 15.41 0 0 1 -5.17-2.25c-3.16-2.37-3.8-6.87-4.57-10.47-.4-1.86-3.24-1.07-2.84.78.78 3.65 1.53 7.59 4 10.53s6.23 3.88 9.71 4.76a106.8 106.8 0 0 0 25.61 3.18 103 103 0 0 0 13-.78c3.6-.45 7.3-1.19 10-3.79 2.51-2.41 3.67-5.87 4.37-9.18a120.68 120.68 0 0 0 1.82-12.4c.45-4.38.72-8.77.76-13.17a44.66 44.66 0 0 0 -1.13-11.53 24.21 24.21 0 0 0 -13.13-15.75c-6.67-3.29-14.48-4.38-21.85-4.3a52.73 52.73 0 0 0 -22 4.72c-6.58 3.15-11.6 8.65-13 15.93a54.05 54.05 0 0 0 -.59 12.06 115.16 115.16 0 0 0 1.26 13.24q.5 3.25 1.18 6.48c.35 1.86 3.19 1.05 2.8-.78z"/></g><path d="m876.41 577.67c-2.85-10.19-6.25-20.62-13.36-28.46-8.23-9.07-20.33-13.48-32.09-16.88a329.16 329.16 0 0 0 -210.73 10c-5.81 2.31-11.76 4.91-16 9.54-5.33 5.86-7.09 14-8.49 21.85-8.54 47.5-13 101.31-10.4 150.67a50.63 50.63 0 0 0 37.34 46.32l.47.12c23.23 6.09 47.53 6.33 71.54 6.41 48.43.14 97.26-.32 144.65-10.33 15.69-3.31 32.27-8.37 42.18-21 9.42-12 10.81-28.28 11-43.52a441 441 0 0 0 -16.11-124.72z" fill="#ff7f00"/><g fill="#1a1c1c"><path d="m877.83 577.28c-2.06-7.35-4.36-14.75-8.18-21.4a44 44 0 0 0 -15.36-15.68c-6.21-3.8-13.14-6.33-20.08-8.44-7.79-2.38-15.71-4.39-23.68-6.12a330.55 330.55 0 0 0 -97.3-6.37 323.61 323.61 0 0 0 -94.8 22.21c-6.93 2.81-13.66 6.29-17.82 12.75-4 6.24-5.33 13.79-6.6 21q-4.34 24.59-7 49.43-2.7 25.44-3.55 51-.4 12.71-.3 25.43c.07 8.19.15 16.44.78 24.61a52.74 52.74 0 0 0 15.61 33.48 51.85 51.85 0 0 0 15.79 10.53c7 3 14.76 4.43 22.27 5.66 17.21 2.82 34.68 3.22 52.09 3.31 17.75.09 35.52.09 53.27-.37s35.32-1.37 52.89-3.22c16.88-1.76 33.86-4.17 50.35-8.25 13.3-3.28 27.2-8.52 36-19.51 9.36-11.63 11.27-27 11.68-41.43a432 432 0 0 0 -10-104q-2.7-12.39-6.11-24.61a1.47 1.47 0 0 0 -2.84.79 440 440 0 0 1 15.84 101.34c.32 8.33.42 16.67.24 25a108.72 108.72 0 0 1 -2.3 22c-1.59 6.91-4.31 13.66-8.85 19.17a47.12 47.12 0 0 1 -16.32 12.22 98 98 0 0 1 -19.53 6.51c-8 1.89-16 3.36-24.1 4.65a513.75 513.75 0 0 1 -51.35 5.34c-17.26 1-34.56 1.33-51.85 1.41-17.12.09-34.28.28-51.39-.54a245 245 0 0 1 -25.22-2.39c-7.66-1.19-15.63-2.55-22.85-5.47a49.22 49.22 0 0 1 -30.46-43c-.46-8-.65-16.09-.71-24.15-.13-16.63.44-33.27 1.6-49.87s2.88-33.09 5.18-49.53q1.68-11.93 3.75-23.78c1.24-7.12 2.35-14.67 6.22-20.93 4-6.46 10.92-9.68 17.74-12.37q11.26-4.47 22.85-8a328.43 328.43 0 0 1 141.88-11.56 317.46 317.46 0 0 1 46.64 10c6.88 2 13.74 4.42 20 8.07a41.28 41.28 0 0 1 15.41 15.57c3.54 6.33 5.68 13.31 7.63 20.26a1.47 1.47 0 0 0 2.84-.75z"/><path d="m881.55 745.93c9.42-12 10.81-28.28 11-43.52a441 441 0 0 0 -16.17-124.74c-2.85-10.19-6.25-20.62-13.36-28.46-8.23-9.07-20.33-13.48-32.09-16.88h-.12a40.91 40.91 0 0 0 -22.59-.06q-15.12 4.32-29.77 10.09c-5.82 2.31-11.77 4.91-16 9.54-5.33 5.86-7.09 14-8.49 21.85-8.53 47.5-13 101.31-10.4 150.67a50.64 50.64 0 0 0 37.44 46.29l.46.12h.14a66.64 66.64 0 0 0 25.2 1.5c10.93-1.4 21.81-3.18 32.61-5.46 15.65-3.27 32.23-8.33 42.14-20.94z"/><path d="m882.59 747c6.35-8.17 9.22-18.08 10.48-28.22 1.37-11 1.17-22.17.9-33.2a443.75 443.75 0 0 0 -7.68-72.16q-3.37-17.75-8.2-35.18c-2.81-10.15-6.07-20.55-12.91-28.79-6.51-7.83-15.86-12.5-25.3-15.82a75.63 75.63 0 0 0 -15-4 43 43 0 0 0 -17.27 1.32 269 269 0 0 0 -33.68 11.73c-4.63 2-9.21 4.54-12.61 8.35a32.81 32.81 0 0 0 -6.75 13.22 150 150 0 0 0 -3.14 15.71q-1.44 8.48-2.67 17-2.47 17.14-4.15 34.41a658.81 658.81 0 0 0 -3.17 70.65q.09 8.63.44 17.23a78.88 78.88 0 0 0 1.53 14.38 52.49 52.49 0 0 0 12 23.08 51.87 51.87 0 0 0 21.41 14.29 62.19 62.19 0 0 0 15.86 3.23 82.25 82.25 0 0 0 17.66-.83 344.79 344.79 0 0 0 35.09-6.32c9.35-2.25 18.76-5.33 26.82-10.69a44.88 44.88 0 0 0 10.34-9.39c1.17-1.47-.9-3.57-2.08-2.09-5.85 7.37-14 12.19-22.76 15.42-9.64 3.58-19.84 5.55-29.92 7.37q-9 1.61-18 2.83a80 80 0 0 1 -17.36.74 53.65 53.65 0 0 1 -26.47-9.11 49.39 49.39 0 0 1 -20-30.77 91.32 91.32 0 0 1 -1.21-14.5 624.89 624.89 0 0 1 1.35-68.29q2.43-33.68 8-67c.85-5 1.62-10.09 2.87-15 1.21-4.78 3-9.59 6.28-13.34s7.79-6.16 12.34-8.12c5.21-2.25 10.58-4.18 16-6q8.34-2.89 16.84-5.32a39.76 39.76 0 0 1 17-1.13 79.54 79.54 0 0 1 14.25 4 70 70 0 0 1 13.38 6.25 40.22 40.22 0 0 1 11 9.78 53 53 0 0 1 7.14 13.38 159.22 159.22 0 0 1 4.72 15.26q2.26 8.37 4.21 16.82a440.68 440.68 0 0 1 10.15 69.61q1.13 17.61.86 35.27c-.17 9.87-.8 19.94-4 29.35a42.85 42.85 0 0 1 -6.59 12.51c-1.23 1.44.84 3.54 2 2.08z"/><circle cx="375.5" cy="672.27" r="37.11"/><path d="m400.7 647.07a35.54 35.54 0 1 1 -4.27-3.66 36 36 0 0 1 4.27 3.66 1.47 1.47 0 0 0 2.08-2.08 38.56 38.56 0 1 0 3.92 4.58 41.73 41.73 0 0 0 -3.92-4.58 1.47 1.47 0 0 0 -2.08 2.08z"/></g><circle cx="317.47" cy="376.65" fill="#ff7f00" r="62.29"/><g fill="#1a1c1c"><path d="m378.29 376.65a60.36 60.36 0 1 1 -.72-9.48 62.55 62.55 0 0 1 .72 9.48 1.48 1.48 0 0 0 2.95 0 63.83 63.83 0 1 0 -.78 9.92 66 66 0 0 0 .78-9.92 1.48 1.48 0 0 0 -2.95 0z"/><path d="m451.07 621.72-18 2.26 1 .44a76.8 76.8 0 0 0 -11.43-11.3l.44 1c.56-8.26.94-16.54 1.09-24.82.06-3 0-6.11-1.26-8.88-1.4-3.13-4.22-4.62-7.42-5.39a243.31 243.31 0 0 0 -24.11-4.43c-3.71-.52-7.68-1.37-11.41-.61a12.15 12.15 0 0 0 -7.38 5.36c-2.11 3.07-3.38 6.71-4.81 10.12q-2.76 6.54-5.51 13.09l1-1a76.42 76.42 0 0 0 -15.51 4.23l1.24.21q-9.81-6.59-19.91-12.73c-2.95-1.79-6.06-3.72-9.59-4s-6.34 1.81-8.7 4.36c-5.14 5.53-10 11.31-14.7 17.25-2.24 2.86-4.87 5.76-6.36 9.11a11.67 11.67 0 0 0 .12 9.59c1.59 3.73 4.33 6.89 6.76 10.09q4.13 5.46 8.27 10.91l-.15-1.13a76.54 76.54 0 0 0 -4.07 15.55l.68-.88q-10.83 5.31-21.42 11.12c-2.65 1.46-5.43 3-7.34 5.42-2.24 2.84-2.31 6.09-1.33 9.46a233.9 233.9 0 0 0 8.1 22.85c1.33 3.28 2.51 6.89 4.67 9.73a11.73 11.73 0 0 0 8.23 4.44c3.92.47 7.92-.3 11.8-.79l13.84-1.74-1-.43a77.21 77.21 0 0 0 11.43 11.29l-.43-1q-.84 12.4-1.1 24.83c-.05 3 0 6.1 1.26 8.88 1.4 3.12 4.23 4.61 7.42 5.39 7.94 1.92 16 3.31 24.12 4.43 3.71.51 7.67 1.37 11.4.6a12.1 12.1 0 0 0 7.38-5.36c2.12-3.07 3.38-6.7 4.82-10.12l5.47-13.12-1 1a76.44 76.44 0 0 0 15.51-4.24l-1.14-.15q9.81 6.58 19.91 12.73c2.95 1.79 6.07 3.73 9.6 4s6.34-1.81 8.7-4.35q7.71-8.31 14.69-17.26c2.25-2.86 4.87-5.76 6.36-9.11a11.7 11.7 0 0 0 -.11-9.59c-1.59-3.73-4.33-6.88-6.76-10.08l-8.31-10.95.15 1.14a76.16 76.16 0 0 0 4.06-15.56l-.67.88q9.31-4.56 18.45-9.5c4.42-2.39 10.65-5 12.05-10.4.81-3.14-.46-6.34-1.41-9.3q-1.61-5-3.41-10-1.72-4.74-3.61-9.42a57.63 57.63 0 0 0 -3.86-8.64 11.49 11.49 0 0 0 -7.23-5.43 26.76 26.76 0 0 0 -9.57-.06c-1.86.23-1.88 3.19 0 2.95a27.45 27.45 0 0 1 8-.21 8.8 8.8 0 0 1 6.32 4.41 59.06 59.06 0 0 1 3.64 8.21q1.79 4.45 3.43 9c1.09 3 2.13 6.05 3.11 9.09.88 2.71 2.53 6.11 1.61 9-.71 2.22-2.74 3.77-4.62 5-2.54 1.61-5.25 3-7.9 4.39q-4.35 2.32-8.76 4.58l-3.88 2-2.16 1.07c-.69.35-1.85.67-2.26 1.39a7.13 7.13 0 0 0 -.45 2.21c-.12.7-.25 1.39-.39 2.09-.33 1.62-.72 3.23-1.16 4.83s-.88 3-1.4 4.54c-.23.67-.53 1.33-.73 2-.27.94.11 1.42.66 2.14 3.92 5.17 8 10.25 11.75 15.55 1.64 2.33 3.33 5 3.43 7.94s-1.64 5.43-3.33 7.7c-3.77 5-7.77 10-11.9 14.73-2.05 2.36-4.12 4.7-6.26 7s-4.24 3.76-7.4 3c-2.95-.7-5.53-2.49-8.08-4q-4.22-2.58-8.39-5.23t-8.08-5.27c-1.1-.73-2.38-2.08-3.77-1.67-1.59.48-3.12 1.16-4.71 1.66a74.52 74.52 0 0 1 -9.18 2.26 3.68 3.68 0 0 0 -2 .61 6.1 6.1 0 0 0 -.95 2c-.64 1.5-1.27 3-1.9 4.51l-3.9 9.25a43 43 0 0 1 -3.46 7.08 9.29 9.29 0 0 1 -5.6 4.26c-3 .68-6.33 0-9.33-.46q-9.69-1.3-19.28-3.3c-1.59-.34-3.18-.68-4.77-1a13.88 13.88 0 0 1 -4-1.35c-2.14-1.25-2.91-3.71-3.16-6.05a62 62 0 0 1 0-8.4c.09-3.28.22-6.55.37-9.83s.34-6.55.56-9.83c.05-.76.18-1.4-.36-2a16.21 16.21 0 0 0 -1.81-1.48c-1.19-1-2.36-2.07-3.49-3.15s-2.17-2.16-3.21-3.29c-.5-.55-1-1.1-1.49-1.67a15.79 15.79 0 0 0 -1.43-1.97c-1.07-.88-3.18-.16-4.45 0l-5.09.64c-3.29.41-6.57.84-9.86 1.24a25.84 25.84 0 0 1 -7.85.13 8.79 8.79 0 0 1 -6.13-4.38 59.41 59.41 0 0 1 -3.63-8.2q-3.63-9-6.62-18.3c-.89-2.73-2.55-6.19-1.43-9.06.85-2.16 2.92-3.66 4.82-4.83 5.25-3.24 10.87-6 16.36-8.78q2.15-1.1 4.31-2.17l2.16-1.07c.62-.31 1.45-.54 1.82-1.17a6.55 6.55 0 0 0 .45-2.22c.14-.77.29-1.55.45-2.32.33-1.62.72-3.23 1.16-4.82s.85-2.89 1.34-4.31a17.24 17.24 0 0 0 .82-2.24c.16-.9-.37-1.43-.89-2.11l-6.06-8c-1.9-2.51-3.87-5-5.67-7.55-1.59-2.28-3.2-4.89-3.3-7.76s1.63-5.43 3.32-7.69c1.89-2.54 3.85-5 5.84-7.49 4-5 8.19-9.89 12.61-14.52 2.06-2.16 4.26-3.45 7.33-2.67s5.52 2.56 8.07 4.12q8.24 5 16.27 10.37c1.26.84 2.42 2.11 4 1.58s3.12-1.14 4.71-1.64a72.54 72.54 0 0 1 9.42-2.26c.64-.12 1.27-.13 1.7-.69a8.36 8.36 0 0 0 .83-1.85l2.09-5 3.8-9c1.8-4.28 3.88-10 9-11.12 3-.68 6.33.06 9.33.46q5 .68 9.91 1.53t9.84 1.88c2.72.57 6.11.85 8.5 2.38 2 1.29 2.75 3.69 3 6a61.82 61.82 0 0 1 0 8.39q-.27 10-.94 19.91a2.17 2.17 0 0 0 .38 1.77 13.63 13.63 0 0 0 1.8 1.48q2 1.68 3.83 3.49c1 1 1.94 1.94 2.87 3 .51.55 1 1.11 1.49 1.67s1.08 1.58 1.74 1.94a3.59 3.59 0 0 0 2.2 0l2.18-.28 4.62-.58 9.71-1.22c1.77-.24 1.84-3.19-.09-2.96z"/><path d="m719 484.25 1.38 36.47c.08 2 .22 4.25 1.58 5.77 1.58 1.77 4.23 2 6.6 2a92.48 92.48 0 0 0 18.7-1.89 4 4 0 0 0 2.26-1 4.16 4.16 0 0 0 .59-3.26 238.92 238.92 0 0 1 0-46.47"/><path d="m717.48 484.25 1 26.23c.15 4.15 0 8.43.56 12.56.45 3.47 2.49 6 6 6.64 3.69.67 7.71.26 11.42-.06 2.13-.18 4.26-.44 6.38-.76a33.5 33.5 0 0 0 5.81-1.12c4.08-1.39 2.78-6.08 2.52-9.36q-.53-6.54-.7-13.1a242.77 242.77 0 0 1 1-29.42c.18-1.89-2.77-1.88-2.95 0q-1.14 11.83-1.12 23.73 0 5.94.31 11.87c.2 3.88.73 7.76.87 11.64 0 .79 0 1.44-.76 1.8a11.12 11.12 0 0 1 -2.48.55c-1.93.36-3.87.67-5.81.9a85.76 85.76 0 0 1 -11.44.65 9.26 9.26 0 0 1 -4.13-.72 4.36 4.36 0 0 1 -2.09-3.63c-.49-3.74-.34-7.66-.49-11.42l-1-27c-.07-1.89-3-1.9-2.95 0z"/></g><path d="m920.56 284.17a37.21 37.21 0 0 0 -7.49-11.87c-9.46-10-23.91-13-37.47-15.12-91.94-14.32-193.84-17.31-286-2.57-26.62 4.26-40.11 19-46.1 45a539 539 0 0 0 -12.92 90.62c-1.22 21.45-7.56 49.5 6.9 68 13.62 17.42 39.43 20.29 59.76 22.86q45.27 5.71 90.84 8.14 51.69 2.67 103.46.92c30.15-1 70.2 2.32 98.06-11 20.57-9.84 27.3-36.68 30.42-57.32 5.19-34.38 5.78-69.28 5.35-104-.09-11.32-.65-23.41-4.81-33.66z" fill="#ff7f00"/><path d="m922 283.78a38.93 38.93 0 0 0 -17-19.55c-7.59-4.25-16.2-6.29-24.7-7.77-19.56-3.39-39.37-5.74-59.12-7.76a994 994 0 0 0 -124.41-5c-20.7.49-41.39 1.68-62 3.69q-15 1.45-29.88 3.49c-8.7 1.2-17.66 2.1-26.08 4.75a49.91 49.91 0 0 0 -29.3 23.53 78.9 78.9 0 0 0 -7.51 20.42q-3.67 15.94-6.36 32.1-2.62 15.76-4.33 31.67c-1.09 10.21-1.66 20.44-2.46 30.68-1.26 16.24-4.23 33.08-.13 49.16 8.93 35.06 50.61 37.29 80.14 40.76a1219.6 1219.6 0 0 0 131 8.29c20.95.19 41.86-.67 62.79-.85 17.74-.16 35.55.21 53.19-1.9a127.92 127.92 0 0 0 25-5.26c7.18-2.4 14-5.55 19.59-10.82 10.78-10.24 15.88-25.28 18.93-39.46 4.11-19.06 5.68-38.8 6.69-58.24 1.11-21.32 1.45-42.84.7-64.19-.33-9.38-1.27-18.94-4.76-27.74-.7-1.74-3.55-1-2.85.78 3.58 9 4.43 18.76 4.71 28.37.29 10.37.26 20.76.17 31.13a600.78 600.78 0 0 1 -3.5 63.19c-1.81 15.77-4 32.13-10.5 46.76a53.28 53.28 0 0 1 -12 17.66c-5.68 5.26-12.89 8.21-20.2 10.44-16.58 5.05-34.2 5.88-51.42 6.16-8.5.14-17 .09-25.51.19-9.62.1-19.23.52-28.85.69a1208.32 1208.32 0 0 1 -128.2-4.55c-19.49-1.74-39-3.73-58.39-6.59-14.81-2.19-31-5.55-42.36-16-12.46-11.46-14-28.56-13.18-44.52.42-8 1.41-16 2-24 .76-10.06 1.35-20.1 2.42-30.13a534.83 534.83 0 0 1 10.41-62.24c3-13.07 8.21-26 19-34.52 12.41-9.8 28.75-11.11 43.85-13.14 19.68-2.63 39.46-4.46 59.28-5.6a954 954 0 0 1 121.34 1q29.91 2.1 59.68 5.91c9.73 1.24 19.46 2.6 29.15 4.17 8.38 1.35 16.93 3.06 24.57 6.89a36.08 36.08 0 0 1 17.54 18.77c.71 1.69 3.56.93 2.85-.82z" fill="#1a1c1c"/><path d="m784.1 180.45a7 7 0 0 0 -1.38-2.18c-1.74-1.83-4.4-2.39-6.89-2.78-16.9-2.63-35.63-3.18-52.56-.47-4.9.78-7.38 3.5-8.48 8.27a99.53 99.53 0 0 0 -2.37 16.65c-.22 3.95-1.39 9.1 1.27 12.5 2.5 3.2 7.25 3.73 11 4.2q8.33 1.05 16.7 1.5 9.5.5 19 .17c5.54-.19 12.9.42 18-2 3.78-1.81 5-6.75 5.59-10.54a117.37 117.37 0 0 0 1-19.11 17.5 17.5 0 0 0 -.88-6.21z" fill="#fff"/><g fill="#1a1c1c"><path d="m785.37 179.71c-1.35-3.13-4.25-4.67-7.45-5.34-3.66-.76-7.43-1.14-11.13-1.54a181.79 181.79 0 0 0 -23.79-1q-5.93.13-11.82.71c-1.95.2-3.9.43-5.84.71a24.23 24.23 0 0 0 -4.71.92 10.38 10.38 0 0 0 -5.73 4.68c-1.65 2.91-2.11 6.48-2.66 9.73-.67 3.95-1 7.91-1.33 11.9-.23 3.14-.78 6.34 0 9.45 1.67 6.75 9 7.62 14.76 8.33a226.78 226.78 0 0 0 25 1.66c3.93 0 7.85-.12 11.77-.16a86.12 86.12 0 0 0 10.16-.39c3-.39 6.32-1.08 8.62-3.2 2.09-1.93 3.16-4.79 3.78-7.5a65.22 65.22 0 0 0 1.32-11c.23-4.09.31-8.22.15-12.31a16.84 16.84 0 0 0 -.91-5.32c-.67-1.76-3.52-1-2.85.78 1.26 3.32.89 7.23.86 10.71a112 112 0 0 1 -.62 11.28 28.7 28.7 0 0 1 -1.77 8.19 7.88 7.88 0 0 1 -5.54 4.75 36 36 0 0 1 -9.48 1c-3.21 0-6.42.11-9.63.16a222.27 222.27 0 0 1 -22.5-.77c-3.64-.31-7.3-.68-10.92-1.2-2.53-.36-5.4-.84-7.4-2.56-2.23-1.93-2.33-5-2.17-7.71.18-3.18.45-6.38.78-9.54a91 91 0 0 1 1.94-11.47 9.41 9.41 0 0 1 3.19-5.65c2.23-1.63 5.26-1.78 7.9-2.12 3.51-.45 7-.76 10.56-1a177.52 177.52 0 0 1 24.3.39q6.11.51 12.15 1.4c3.38.51 7 1 8.5 4.46.71 1.79 3.25.29 2.51-1.43z"/><path d="m785 186.64a17.53 17.53 0 0 0 -.89-6.19 7 7 0 0 0 -1.38-2.18 10.3 10.3 0 0 0 -5.84-2.6c-3.85.29-7.65.72-11.36 1.31-4.89.79-7.37 3.5-8.47 8.27a99.52 99.52 0 0 0 -2.38 16.66c-.22 3.94-1.39 9.1 1.27 12.5 2 2.5 5.28 3.36 8.42 3.85 4.77 0 10.08-.08 14-2 3.78-1.81 5-6.75 5.59-10.54a117.37 117.37 0 0 0 1.04-19.08z"/><path d="m786.46 186.64c-.07-4.38-.78-9.06-5.14-11.16a13.3 13.3 0 0 0 -2.72-.95 10.6 10.6 0 0 0 -3.64-.18c-2.59.23-5.16.53-7.73.89-3.65.52-7.06 1.38-9.37 4.48-2.52 3.38-3 8.2-3.6 12.23-.72 4.68-1.07 9.41-1.42 14.13-.3 4.07.19 8.29 3.68 10.91s8.26 2.86 12.58 2.65c4-.19 9-.62 12.08-3.49s3.91-7.41 4.44-11.37a125 125 0 0 0 .84-18.14 1.48 1.48 0 0 0 -3 0c.06 4.58 0 9.17-.36 13.74-.29 3.53-.6 7.35-2 10.64a8 8 0 0 1 -2.62 3.51 13.25 13.25 0 0 1 -5.12 1.74c-3.71.65-8 1-11.67-.06a8.7 8.7 0 0 1 -4.5-2.55 7.64 7.64 0 0 1 -1.52-4.73 42.22 42.22 0 0 1 .3-5.27c.19-2 .27-4 .48-6.07a71.8 71.8 0 0 1 2.24-12.94 8 8 0 0 1 4.93-5.69 30.59 30.59 0 0 1 6.31-1.13c1.26-.16 2.53-.3 3.79-.42a13.24 13.24 0 0 1 3.49-.17 7.13 7.13 0 0 1 5.09 3c1.12 1.9 1.14 4.29 1.17 6.44.07 1.85 3.02 1.86 2.99-.04z"/><path d="m920.56 284.17a37.21 37.21 0 0 0 -7.49-11.87c-9.46-10-23.91-13-37.47-15.12h-.26a200.63 200.63 0 0 0 -54.18-.9q-14.94 1.75-29.6 4.09c-26.62 4.26-40.11 19-46.1 45a540 540 0 0 0 -12.92 90.62c-1.22 21.45-7.56 49.5 6.91 68 13.62 17.42 39.42 20.28 59.76 22.86q3.91.5 7.84 1a206 206 0 0 0 45.23.66c13.45-1.36 26.36-4 37.37-9.28 20.57-9.84 27.3-36.68 30.42-57.32 5.19-34.38 5.78-69.28 5.35-104-.14-11.4-.7-23.49-4.86-33.74z"/><path d="m922 283.78a38.66 38.66 0 0 0 -10.69-15.16 47.07 47.07 0 0 0 -14.67-8.11 99.89 99.89 0 0 0 -16.79-4.12c-6.65-1.14-13.34-2-20.07-2.5a221.19 221.19 0 0 0 -43.5 1.46q-10.65 1.32-21.25 3a91.41 91.41 0 0 0 -15.69 3.48 49.61 49.61 0 0 0 -21.62 14c-6 6.87-9.86 15.31-12.36 24-1.78 6.19-3 12.56-4.3 18.87q-2.14 10.51-3.85 21.1-3.47 21.38-5.23 43c-.51 6.34-.79 12.7-1.33 19-.47 5.43-1.06 10.84-1.47 16.26-.84 11-1.13 22.43 2.14 33.08a42.92 42.92 0 0 0 18.8 24.09c9 5.56 19.47 8.36 29.79 10.23 5.09.92 10.21 1.6 15.33 2.26 6.55.83 13.09 1.71 19.66 2.27a199.53 199.53 0 0 0 43.15-.81 130.55 130.55 0 0 0 19.57-4 66 66 0 0 0 16.29-6.76c8.33-5.17 14.24-13.34 18.29-22.13 4.21-9.14 6.69-19 8.43-28.85a395.81 395.81 0 0 0 4.69-39.89c1.07-14.55 1.53-29.14 1.66-43.73q.09-10.81 0-21.63c-.07-6.7-.11-13.41-.8-20.08a68.1 68.1 0 0 0 -4.18-18.33c-.7-1.74-3.55-1-2.85.78 4.85 12.15 4.73 25.55 4.85 38.44.13 14.1.06 28.2-.44 42.29s-1.45 28.32-3.08 42.4c-1.27 10.88-2.77 21.82-5.63 32.42-2.51 9.28-6.08 18.56-12 26.24a39.69 39.69 0 0 1 -10.17 9.43 62.42 62.42 0 0 1 -15.86 6.64c-12.86 3.77-26.44 5.19-39.79 5.45-13.71.26-27.23-1.2-40.8-2.91-19.2-2.43-41.93-5.31-55.09-21.22-6.77-8.19-9.08-18.89-9.49-29.28-.43-10.84 1-21.64 1.91-32.42.53-6.15.8-12.33 1.29-18.48q.84-10.45 2.08-20.86 2.49-21 6.66-41.72c2.16-10.8 4.11-22 9-32a46.64 46.64 0 0 1 15.72-18.57c8-5.34 17.16-7.63 26.53-9.09 13.88-2.16 27.89-4.24 41.94-4.82a201.48 201.48 0 0 1 41.12 2.5c10.8 1.79 22.36 4.29 31 11.42a35.57 35.57 0 0 1 10.21 14.1c.74 1.77 3.6 1.02 2.89-.74z"/><path d="m592.71 365.56c-2.63-.11-5 2-6 4.39s-1.06 5.13-1.07 7.77v12.48a5.07 5.07 0 0 0 1.59 3.83c1.61 1.45 3.23.79 4.49-.14 3.76-2.77 5.1-7.71 6-12.29a177.84 177.84 0 0 0 2.24-54.28l-.09-.68a4.28 4.28 0 0 0 -8.3-.86 72.47 72.47 0 0 0 -2.74 12.15c-.68 4.2-1.38 8.47-.92 12.7a23.81 23.81 0 0 0 8.09 15.37"/><path d="m592.71 364.08a8 8 0 0 0 -6.77 4.16c-1.69 2.82-1.75 6.28-1.76 9.48v8.32c0 3.44-.55 7.76 3 9.76 2.62 1.48 5.44-.38 7.19-2.33a18.79 18.79 0 0 0 3.83-7.47c1.89-6.57 2.69-13.61 3.4-20.39a178.42 178.42 0 0 0 .91-21.93c-.07-3.69-.26-7.39-.56-11.08-.15-1.76-.31-3.53-.52-5.28a7.12 7.12 0 0 0 -1.06-3.42 5.81 5.81 0 0 0 -10.12 1.22 55.17 55.17 0 0 0 -2.65 11.29 62.47 62.47 0 0 0 -1.29 12.26 25.54 25.54 0 0 0 8.61 18.33c1.43 1.24 3.52-.84 2.09-2.09a22.74 22.74 0 0 1 -7.54-13.51 31.9 31.9 0 0 1 .15-9.1c.42-3.16 1-6.32 1.59-9.45.28-1.44.61-2.86 1-4.28a8.08 8.08 0 0 1 1.34-3.37 2.9 2.9 0 0 1 3.63-.37c1.73 1.15 1.45 4 1.62 5.84q.45 4.8.64 9.63a176.1 176.1 0 0 1 -2.59 37.81c-.85 4.75-1.57 10.6-5.36 14-.63.57-1.59 1.4-2.52 1.22-1.35-.26-1.85-2-1.89-3.19 0-.72 0-1.45 0-2.18v-9.63a29.12 29.12 0 0 1 .32-5.75c.53-2.64 2.22-5.61 5.26-5.6a1.48 1.48 0 0 0 0-2.95z"/><path d="m643.85 366.24c-2.63-.1-5 2-6 4.39s-1.06 5.14-1.07 7.77v12.49a5.09 5.09 0 0 0 1.59 3.83c1.61 1.45 3.23.78 4.49-.14 3.76-2.77 5.1-7.71 6-12.3a177.82 177.82 0 0 0 2.22-54.28l-.09-.68a4.29 4.29 0 0 0 -8.3-.85 72.47 72.47 0 0 0 -2.69 12.15c-.69 4.2-1.38 8.46-.92 12.69a23.84 23.84 0 0 0 8.08 15.34"/><path d="m643.85 364.77a8 8 0 0 0 -6.77 4.15c-1.7 2.83-1.75 6.29-1.76 9.48v8.33c0 3.44-.55 7.76 3 9.76 2.62 1.48 5.44-.38 7.19-2.33a18.83 18.83 0 0 0 3.83-7.48c1.89-6.56 2.69-13.6 3.39-20.38a176.47 176.47 0 0 0 .92-21.93c-.07-3.7-.26-7.4-.56-11.08-.15-1.77-.31-3.53-.52-5.29a7.08 7.08 0 0 0 -1.06-3.41 5.81 5.81 0 0 0 -10.12 1.22 55.08 55.08 0 0 0 -2.65 11.28 62.57 62.57 0 0 0 -1.29 12.27 25.5 25.5 0 0 0 8.63 18.33c1.43 1.25 3.52-.83 2.09-2.08a22.73 22.73 0 0 1 -7.54-13.52 31.83 31.83 0 0 1 .15-9.09c.42-3.16 1-6.33 1.58-9.45.29-1.44.62-2.87 1-4.28a8.08 8.08 0 0 1 1.34-3.37 2.88 2.88 0 0 1 3.63-.37c1.73 1.15 1.45 4 1.62 5.83q.45 4.81.64 9.63a176.19 176.19 0 0 1 -2.59 37.82c-.85 4.75-1.57 10.6-5.36 14-.63.58-1.59 1.41-2.52 1.23-1.35-.26-1.85-2-1.89-3.19 0-.73 0-1.46 0-2.18v-9.63a29 29 0 0 1 .32-5.75c.53-2.65 2.22-5.61 5.26-5.6a1.48 1.48 0 0 0 0-3z"/><path d="m807.26 602.22c-21.07 26.49-51.1 44-82.24 56.09-49.02 19.08-107.26 30.69-159.72 20.93-7.81-1.45-17.72-3.2-22.11 3.42-3.42 5.17-.55 12.59 4.49 16.19s11.5 4.38 17.66 5c12.07 1.21 24.17 2.27 36.29 2.61a310.2 310.2 0 0 0 186-56.16c13.57-9.58 26.64-20.57 35-34.91"/><path d="m806.21 601.18c-12.14 15.22-27.36 27.61-44 37.57-17 10.13-35.25 17.75-53.91 24.09a358.45 358.45 0 0 1 -61 15.13 262.21 262.21 0 0 1 -62.7 2.42c-5.21-.47-10.41-1.12-15.57-2a116.64 116.64 0 0 0 -13-1.95c-3.73-.2-7.83.14-11 2.31a10.9 10.9 0 0 0 -4.76 9.83 15.77 15.77 0 0 0 5.48 10.59c3.61 3.08 8.33 4.52 12.94 5.29 5.28.89 10.67 1.26 16 1.74 5.85.53 11.72 1 17.59 1.32a312.12 312.12 0 0 0 175.94-42.91 288.65 288.65 0 0 0 25.34-16.79 132.3 132.3 0 0 0 22-20 83.43 83.43 0 0 0 8.44-11.69 1.47 1.47 0 0 0 -2.54-1.49c-10 17-26.4 29.25-42.65 39.93a304.68 304.68 0 0 1 -52.81 27.73 313.45 313.45 0 0 1 -57.29 17.08 303.9 303.9 0 0 1 -59.34 5.72c-11 0-22-.71-33-1.68-5.46-.48-11-.85-16.4-1.7-4.52-.72-9.43-2-12.81-5.26-2.69-2.63-4.62-6.74-3.73-10.55s4.3-5.82 7.94-6.36c3.94-.58 8 .11 11.92.8 4.76.86 9.52 1.65 14.32 2.24a251.27 251.27 0 0 0 61.46-.52 347.51 347.51 0 0 0 60.25-13.2c18.6-5.78 37-12.76 54.21-21.85 16.67-8.8 32.39-19.7 45.56-33.25q4.89-5 9.26-10.51c1.17-1.47-.9-3.56-2.09-2.08z"/></g><path d="m517 727.61a4.76 4.76 0 0 0 .56 2.26c1.88 4 6.34 7 10.64 6.07a13.2 13.2 0 0 0 5.21-2.88 49.45 49.45 0 0 0 16.32-24.21l-.47.63a1.83 1.83 0 0 0 -.16-1.41 4 4 0 0 0 -1.86-1.49 20.91 20.91 0 0 0 -12.79-1.8 3.36 3.36 0 0 0 -1.59.6 3.85 3.85 0 0 0 -1 1.75 37.55 37.55 0 0 1 -11.86 16.42c-1.36 1.09-2.94 2.32-3 4.06z" fill="#ff7f00"/><g fill="#1a1c1c"><path d="m515.49 727.61c0 3.39 2.81 6.62 5.54 8.34a9.93 9.93 0 0 0 9.87.54c3.28-1.63 6.17-4.5 8.64-7.15a51 51 0 0 0 11.57-20.1c.53-1.71-1.75-2.38-2.69-1.13l-.48.63 2.7 1.13c.71-3.75-3.64-5.23-6.52-6a20.21 20.21 0 0 0 -10.77-.32 4.37 4.37 0 0 0 -2.88 3.07 39.65 39.65 0 0 1 -2.14 4.75 36.31 36.31 0 0 1 -6.08 8.23c-1.29 1.31-2.71 2.44-4.12 3.62a6.65 6.65 0 0 0 -2.64 4.43c-.22 1.88 2.73 1.86 2.94 0 .17-1.42 1.93-2.45 2.93-3.27a37.79 37.79 0 0 0 3.81-3.57 38.78 38.78 0 0 0 6.08-8.67c.79-1.54 1.4-3.14 2.06-4.74.34-.84.63-1 1.5-1.16a16.21 16.21 0 0 1 2.87-.26 19.73 19.73 0 0 1 5.66.73c.8.23 4.68 1.22 4.46 2.42a1.48 1.48 0 0 0 2.69 1.14l.47-.64-2.69-1.13a48.31 48.31 0 0 1 -12.21 20.23c-2.58 2.55-6.1 6.25-10 5.95a8.28 8.28 0 0 1 -4.81-2.24c-1.28-1.18-2.75-3-2.77-4.79a1.47 1.47 0 0 0 -2.99-.04z"/><path d="m510.23 702.25a112.22 112.22 0 0 1 -2.45-22.75c0-4.63.28-9.42 2.35-13.56 2.38-4.77 6.89-8.2 11.79-10.29 10.73-4.56 24.19-5.12 35.39-2.06 6.44 1.77 12.6 5.48 16 11.25 3.18 5.47 3.53 12.11 3.38 18.43a146.61 146.61 0 0 1 -2.15 21.83c-.71 4.07-1.8 8.45-5 11-2.36 1.86-5.48 2.41-8.47 2.78a105.23 105.23 0 0 1 -39.19-2.67c-2.72-.72-5.55-1.62-7.51-3.65s-2.75-4.79-3.4-7.5c-.33-.93-.54-1.87-.74-2.81z"/><path d="m511.65 701.86a107.88 107.88 0 0 1 -2.38-24.1 26.54 26.54 0 0 1 1.94-10.69 18.53 18.53 0 0 1 6.12-7.17c5.48-3.92 12.52-5.73 19.13-6.43a55 55 0 0 1 20.83 1.65c6.15 1.76 12.06 5.41 15.11 11.2 3.31 6.3 3 14 2.62 20.85-.2 4.09-.57 8.18-1.13 12.24a54.77 54.77 0 0 1 -2.07 10.48 9.78 9.78 0 0 1 -6.38 6.62c-3.52 1.12-7.44 1.27-11.1 1.48a103.23 103.23 0 0 1 -26.6-1.91c-2.13-.43-4.25-.92-6.34-1.5a15.46 15.46 0 0 1 -5.18-2.25c-3.16-2.37-3.79-6.87-4.57-10.47-.39-1.86-3.24-1.07-2.84.78.79 3.65 1.54 7.59 4 10.52s6.24 3.89 9.72 4.76a106.23 106.23 0 0 0 25.6 3.19 103.22 103.22 0 0 0 13-.78c3.59-.45 7.3-1.19 10-3.8 2.51-2.4 3.67-5.86 4.37-9.18a117.23 117.23 0 0 0 1.82-12.4c.46-4.37.73-8.76.77-13.16a45.56 45.56 0 0 0 -1.09-11.53 24.22 24.22 0 0 0 -13.17-15.75c-6.66-3.29-14.47-4.38-21.84-4.3a52.43 52.43 0 0 0 -22 4.72c-6.58 3.15-11.6 8.65-13 15.93a54 54 0 0 0 -.59 12 117.59 117.59 0 0 0 1.25 13.25c.33 2.17.73 4.33 1.18 6.48.37 1.9 3.17 1.12 2.82-.73z"/></g><path d="m526 638.28a4.68 4.68 0 0 1 .76-2.21c2.22-3.81 6.94-6.46 11.14-5.1a13.55 13.55 0 0 1 4.93 3.33 49.61 49.61 0 0 1 14.1 25.57l-.42-.67a1.88 1.88 0 0 1 -.28 1.4 4.14 4.14 0 0 1 -2 1.32 20.9 20.9 0 0 1 -12.89.65 3.42 3.42 0 0 1 -1.53-.74 3.85 3.85 0 0 1 -.81-1.83 37.42 37.42 0 0 0 -10.31-17.41c-1.28-1.21-2.69-2.59-2.69-4.31z" fill="#ff7f00"/><path d="m496.64 639.36a4.68 4.68 0 0 1 .76-2.2c2.22-3.82 6.94-6.46 11.14-5.1a13.3 13.3 0 0 1 4.93 3.33 49.61 49.61 0 0 1 14.1 25.61l-.42-.67a1.88 1.88 0 0 1 -.28 1.4 4.08 4.08 0 0 1 -2 1.31 20.83 20.83 0 0 1 -12.89.66 3.42 3.42 0 0 1 -1.53-.74 4 4 0 0 1 -.84-1.83 37.45 37.45 0 0 0 -10.31-17.42c-1.25-1.24-2.71-2.6-2.66-4.35z" fill="#ff7f00"/><path d="m527.47 638.28c.17-1.71 1.87-3.42 3.17-4.4a8.38 8.38 0 0 1 4.84-1.79c3.93-.05 7 3.78 9.38 6.5a48.4 48.4 0 0 1 10.65 21.68l2.69-1.14-.42-.67c-.71-1.15-2.89-.79-2.74.74s-3.06 1.94-4.12 2.18a19.83 19.83 0 0 1 -5.7.38c-1.26-.09-4.08-.13-4.63-1.49-.64-1.59-1-3.33-1.61-4.94a39.22 39.22 0 0 0 -5.21-9.22 37.72 37.72 0 0 0 -3.47-4c-1-1-2.78-2.22-2.83-3.84-.06-1.9-3-1.9-3 0 .07 2.14 1.36 3.66 2.83 5.09a38.18 38.18 0 0 1 4.37 4.88 36.38 36.38 0 0 1 5.78 11.76c.58 2.06 1.34 3.37 3.51 4a21.1 21.1 0 0 0 6.89.75 21.8 21.8 0 0 0 6.78-1.4c1.82-.71 3.57-1.94 3.36-4.14l-2.75.75.42.67a1.48 1.48 0 0 0 2.69-1.14 50.94 50.94 0 0 0 -9.26-20.32c-4-5.26-9.85-12.22-17.24-9.29-3.41 1.35-7 4.57-7.33 8.41-.18 1.87 2.77 1.86 2.95-.01z" fill="#1a1c1c"/><path d="m498.11 639.36c.17-1.7 1.87-3.41 3.17-4.39a8.33 8.33 0 0 1 4.84-1.8c3.93 0 7 3.78 9.38 6.5a48.5 48.5 0 0 1 10.65 21.68l2.69-1.13-.41-.67c-.72-1.15-2.9-.8-2.75.74s-3.06 1.94-4.12 2.17a19.49 19.49 0 0 1 -5.7.39c-1.26-.1-4.08-.14-4.63-1.49-.64-1.6-1-3.33-1.61-4.94a39.08 39.08 0 0 0 -5.21-9.23 39.83 39.83 0 0 0 -3.47-4c-1.05-1-2.78-2.22-2.83-3.84-.06-1.89-3-1.9-2.95 0 .07 2.15 1.36 3.67 2.84 5.09a39.67 39.67 0 0 1 4.36 4.89 36.56 36.56 0 0 1 5.74 11.74c.57 2.07 1.33 3.38 3.5 4a22.19 22.19 0 0 0 13.67-.66c1.82-.7 3.57-1.94 3.36-4.13l-2.75.74.42.67a1.48 1.48 0 0 0 2.69-1.13 50.88 50.88 0 0 0 -9.26-20.32c-4-5.26-9.85-12.23-17.24-9.29-3.41 1.35-7 4.57-7.33 8.4-.16 1.9 2.77 1.89 2.95.01z" fill="#1a1c1c"/><path d="m425.14 436.59a4.81 4.81 0 0 1 .77-2.21c2.22-3.81 6.93-6.46 11.13-5.1a13.29 13.29 0 0 1 4.93 3.34 49.43 49.43 0 0 1 14.1 25.57l-.41-.68a1.84 1.84 0 0 1 -.29 1.4 4.11 4.11 0 0 1 -2 1.32 20.93 20.93 0 0 1 -12.9.65 3.32 3.32 0 0 1 -1.53-.74 3.8 3.8 0 0 1 -.83-1.83 37.58 37.58 0 0 0 -10.31-17.41c-1.25-1.21-2.71-2.57-2.66-4.31z" fill="#ff7f00"/><path d="m395.78 437.67a4.81 4.81 0 0 1 .77-2.2c2.22-3.82 6.93-6.46 11.13-5.1a13.38 13.38 0 0 1 4.93 3.33 49.47 49.47 0 0 1 14.1 25.57l-.41-.67a1.84 1.84 0 0 1 -.3 1.4 4.1 4.1 0 0 1 -2 1.31 20.86 20.86 0 0 1 -12.9.66 3.42 3.42 0 0 1 -1.53-.74 3.88 3.88 0 0 1 -.83-1.83 37.67 37.67 0 0 0 -10.28-17.4c-1.27-1.22-2.73-2.58-2.68-4.33z" fill="#ff7f00"/><g fill="#1a1c1c"><path d="m426.62 436.59c.16-1.71 1.86-3.42 3.16-4.4a8.41 8.41 0 0 1 4.84-1.79c3.94 0 7 3.78 9.38 6.5a48.29 48.29 0 0 1 10.65 21.68l2.7-1.14-.42-.67c-.71-1.15-2.9-.79-2.75.74s-3.06 1.94-4.11 2.18a19.83 19.83 0 0 1 -5.7.38c-1.27-.09-4.09-.13-4.63-1.49-.65-1.59-1-3.33-1.61-4.94a39.94 39.94 0 0 0 -5.21-9.22 37.72 37.72 0 0 0 -3.47-4c-1.05-1-2.78-2.22-2.83-3.84-.06-1.89-3-1.9-2.95 0 .06 2.14 1.36 3.66 2.83 5.09a38.1 38.1 0 0 1 4.36 4.88 36.4 36.4 0 0 1 5.74 11.75c.58 2.06 1.34 3.37 3.5 4a21.1 21.1 0 0 0 6.89.75 21.92 21.92 0 0 0 6.79-1.4c1.82-.71 3.57-1.94 3.35-4.14l-2.75.75.42.67a1.48 1.48 0 0 0 2.7-1.14 51.11 51.11 0 0 0 -9.26-20.31c-4-5.27-9.86-12.23-17.25-9.3-3.41 1.36-6.95 4.58-7.32 8.41-.18 1.89 2.77 1.87 2.95 0z"/><path d="m397.26 437.67c.16-1.7 1.86-3.41 3.16-4.39a8.35 8.35 0 0 1 4.84-1.8c3.94 0 7 3.79 9.38 6.5a48.39 48.39 0 0 1 10.65 21.68l2.7-1.13-.42-.67c-.71-1.15-2.9-.8-2.75.74s-3.06 1.94-4.11 2.17a19.49 19.49 0 0 1 -5.7.39c-1.26-.09-4.09-.14-4.63-1.49-.65-1.6-1-3.33-1.61-4.94a39.76 39.76 0 0 0 -8.68-13.22c-1-1-2.78-2.22-2.83-3.84-.06-1.89-3-1.9-2.95 0 .07 2.15 1.36 3.67 2.83 5.1a39 39 0 0 1 4.37 4.88 36.53 36.53 0 0 1 5.73 11.74c.58 2.07 1.34 3.38 3.5 4a21.65 21.65 0 0 0 6.89.75 22.21 22.21 0 0 0 6.79-1.4c1.82-.71 3.57-1.95 3.35-4.14l-2.74.74.41.68a1.49 1.49 0 0 0 2.7-1.14 51.16 51.16 0 0 0 -9.26-20.32c-4-5.26-9.86-12.23-17.25-9.29-3.41 1.35-6.95 4.57-7.32 8.4-.18 1.89 2.77 1.88 2.95 0z"/><path d="m741 218.73-2.37 24.11c-.19 1.89 2.76 1.88 2.94 0l2.38-24.11c.19-1.89-2.76-1.87-2.95 0z"/></g><circle cx="166.61" cy="618.68" fill="#ff7f00" r="87.75"/><path d="m252.89 618.68a85.77 85.77 0 1 1 -1-13.27 88 88 0 0 1 1 13.27 1.48 1.48 0 0 0 3 0 89.11 89.11 0 1 0 -1.08 13.88 92.09 92.09 0 0 0 1.08-13.88 1.48 1.48 0 0 0 -3 0z" fill="#1a1c1c"/><g fill="#fff"><path d="m131.13 630c0-.55.09-1.11.14-1.66l.09-.82c.11-1.07 0 .18-.05.33.25-1.22.38-2.46.64-3.68a53.08 53.08 0 0 1 1.89-6.8 22.25 22.25 0 0 1 1.18-3.1c-.72 1.39.07-.12.24-.5.29-.63.59-1.25.9-1.87a55.34 55.34 0 0 1 3.58-6.08c.31-.46.63-.91 1-1.36.16-.22.33-.44.49-.67s.65-.49-.16.21a31.83 31.83 0 0 0 2.4-2.86 54.9 54.9 0 0 1 4.89-4.76c.41-.35.82-.69 1.24-1 .2-.17.45-.32.63-.5-.11.1-1.07.79-.24.19s1.84-1.34 2.79-2a55.29 55.29 0 0 1 5.93-3.39c.54-.27 1.08-.53 1.63-.78l.92-.4c.67-.31-1.14.45-.11 0s2.37-.91 3.58-1.3a54 54 0 0 1 7.6-1.87c3.05-.53 5-4.43 4.12-7.26-1.06-3.28-4-4.68-7.26-4.11a61.35 61.35 0 0 0 -27.93 13 61 61 0 0 0 -21.88 43c-.22 3.08 2.87 6 5.9 5.89a6 6 0 0 0 5.89-5.89z"/><path d="m158.22 578.09c2.07.64 4.1 1.37 6.1 2.21l-1.41-.6a67.15 67.15 0 0 1 7.11 3.53l-2.11-8.07-6.65 13.84a6.34 6.34 0 0 0 -.59 4.54 6 6 0 0 0 2.71 3.52c2.64 1.4 6.64.86 8.07-2.11l6.64-13.8a6.19 6.19 0 0 0 .59-4.54 6.05 6.05 0 0 0 -2.71-3.52 72.05 72.05 0 0 0 -14.62-6.33 6 6 0 0 0 -7.25 4.11 6 6 0 0 0 4.12 7.26z"/><path d="m202.09 607.39c0 .55-.08 1.11-.14 1.66l-.09.82c-.1 1.07 0-.18.06-.33-.25 1.22-.39 2.46-.65 3.68a55.21 55.21 0 0 1 -1.88 6.8 23.62 23.62 0 0 1 -1.19 3.1c.72-1.39-.06.12-.24.5-.29.63-.59 1.25-.9 1.87a55.34 55.34 0 0 1 -3.58 6.08c-.31.45-.63.91-1 1.36l-.49.66c-.26.37-.64.5.17-.2a30.34 30.34 0 0 0 -2.41 2.86 54.94 54.94 0 0 1 -4.85 4.75c-.41.34-.82.69-1.24 1-.2.17-.44.32-.62.5.1-.1 1.06-.79.23-.19s-1.84 1.34-2.79 2a54.2 54.2 0 0 1 -5.92 3.39c-.55.27-1.09.53-1.64.78l-.92.4c-.67.31 1.14-.45.12 0-1.19.47-2.38.91-3.59 1.3a55.1 55.1 0 0 1 -7.6 1.87c-3 .53-5 4.43-4.12 7.25 1.07 3.29 4 4.69 7.26 4.12a61.45 61.45 0 0 0 27.93-13 61 61 0 0 0 21.88-43c.22-3.08-2.87-6-5.89-5.9a6.05 6.05 0 0 0 -5.9 5.9z"/><path d="m175 659.27c-2.07-.64-4.1-1.37-6.1-2.21l1.41.6a67.15 67.15 0 0 1 -7.11-3.53l2.12 8.07 6.68-13.8a6.3 6.3 0 0 0 .59-4.54 6 6 0 0 0 -2.71-3.53c-2.63-1.39-6.63-.85-8.06 2.12l-6.65 13.8a6.19 6.19 0 0 0 -.59 4.54 6.08 6.08 0 0 0 2.71 3.52 72.29 72.29 0 0 0 14.62 6.33 6 6 0 0 0 7.25-4.12 6 6 0 0 0 -4.12-7.25z"/></g><path d="m840.49 604.05c-2.14-18.28-19.73-29.85-37.54-27.41-14 1.92-25.18 12.16-29.26 25.53-3.85 12.64 1 27.12 10.83 35.94 7.35 6.58 17.7 10.24 27.33 8.09a33.66 33.66 0 0 0 15.15-8.46c9.27-8.51 15-21.22 13.49-33.69z" fill="#ff7f00"/><path d="m842 604.05a32.28 32.28 0 0 0 -8.38-18.21 35 35 0 0 0 -16.87-9.84 36.73 36.73 0 0 0 -37.38 12.47 37.39 37.39 0 0 0 -8.3 19.36 37 37 0 0 0 4.64 21.55c7.52 13.56 24.39 22.83 39.74 17.33 14.89-5.34 25.8-21.12 26.68-36.74a35.24 35.24 0 0 0 -.17-5.9c-.21-1.87-3.16-1.89-3 0 1.63 14.67-6.55 29.65-19.06 37.23a26.64 26.64 0 0 1 -21.46 3 33.66 33.66 0 0 1 -17.44-12.18 35.42 35.42 0 0 1 -7.1-19 32.61 32.61 0 0 1 5-18.95 34.06 34.06 0 0 1 32.3-16.17c12.21 1.23 23.4 9.54 26.86 21.49a28.77 28.77 0 0 1 1 4.59c.18 1.83 3.13 1.85 2.94-.03z" fill="#1a1c1c"/><g fill="#fff"><path d="m546.34 339.16q2.35-14.6 5.36-29.09c1-4.79 2-9.58 3.17-14.33.86-3.56 2.52-8.64 7-8.48l-1-.44c.18.22 0 .46-.17.6l2.31.3c-2.24-3.74.66-8.23 3.3-10.9a28.58 28.58 0 0 1 11.33-7c1.8-.59 1-3.44-.78-2.84a31.11 31.11 0 0 0 -13.45 8.61c-3.22 3.59-5.68 9-2.94 13.6a1.49 1.49 0 0 0 2.31.3 3.35 3.35 0 0 0 .48-4.38c-1.09-1.49-3.53-.72-4.93-.05-3.69 1.75-5.29 5.73-6.21 9.46-2.28 9.19-4.11 18.51-5.85 27.82q-1.49 8-2.78 16c-.3 1.85 2.54 2.65 2.84.78z"/><path d="m585 268 1.47-.73a1.15 1.15 0 0 0 .41-.38 1 1 0 0 0 .26-.5 1.18 1.18 0 0 0 0-.59 1.12 1.12 0 0 0 -.18-.55l-.23-.29a1.39 1.39 0 0 0 -.65-.38l-.39-.06a1.51 1.51 0 0 0 -.74.21l-1.47.73a1.07 1.07 0 0 0 -.41.38 1 1 0 0 0 -.26.5 1.14 1.14 0 0 0 0 .58 1.09 1.09 0 0 0 .18.55l.23.3a1.47 1.47 0 0 0 .65.38h.39a1.4 1.4 0 0 0 .74-.2z"/><path d="m594.85 263.79a1.48 1.48 0 0 0 0-3 1.48 1.48 0 0 0 0 3z"/><path d="m591.56 271.47a1.48 1.48 0 0 0 0-3 1.48 1.48 0 0 0 0 3z"/><path d="m609.13 262.62c9.12-3 19-2.91 28.5-3.51l29.64-1.88c1.89-.12 1.9-3.07 0-3l-30.13 1.92c-9.58.6-19.58.59-28.79 3.57-1.8.58-1 3.43.78 2.85z"/><path d="m542.66 352.92a1.48 1.48 0 0 0 0-2.95 1.48 1.48 0 0 0 0 2.95z"/><path d="m542.66 364.43a1.47 1.47 0 0 0 0-2.94 1.47 1.47 0 0 0 0 2.94z"/><path d="m544.3 375.13a1.48 1.48 0 0 0 0-2.95 1.48 1.48 0 0 0 0 2.95z"/><path d="m634.8 553q38.43 1.13 76.89-.4 10.9-.44 21.81-1.08c1.88-.11 1.89-3.06 0-3q-38.4 2.28-76.88 1.91-10.9-.11-21.82-.43c-1.9 0-1.9 2.89 0 3z"/><path d="m742.57 557a1.48 1.48 0 0 0 0-3 1.48 1.48 0 0 0 0 3z"/><path d="m740.93 547.07a1.47 1.47 0 0 0 0-2.94 1.47 1.47 0 0 0 0 2.94z"/><path d="m752.45 551.19a1.48 1.48 0 0 0 0-3 1.48 1.48 0 0 0 0 3z"/><path d="m803.92 584.62c-9.14 1.71-18.5 7.52-20.33 17.31-.43 2.26-.51 4.8.89 6.76 1.23 1.74 3.67 2.83 5.7 1.79a3.61 3.61 0 1 0 -2.79-6.65c-2.45.77-3.44 3.39-3.71 5.71a23.59 23.59 0 0 0 1.24 9 1.48 1.48 0 0 0 2.85-.79 24 24 0 0 1 -1.23-6.81c0-1.23.31-4.55 2.26-4.32.55.07.76.37.49.85-.44.81-1.45.49-2 0-1.54-1.33-1.07-4-.64-5.68 2.1-8.32 10.18-12.82 18.07-14.3 1.86-.35 1.07-3.19-.79-2.84z"/><path d="m789 627.61a1.48 1.48 0 0 0 0-3 1.48 1.48 0 0 0 0 3z"/><path d="m794.87 631.62v-.37a1.13 1.13 0 0 0 -.12-.57 1 1 0 0 0 -.31-.47 1.53 1.53 0 0 0 -1-.43l-.39.05a1.47 1.47 0 0 0 -.65.38l-.23.3a1.4 1.4 0 0 0 -.2.74v.37a1.13 1.13 0 0 0 .12.57 1 1 0 0 0 .31.47 1 1 0 0 0 .47.3 1 1 0 0 0 .57.13l.39-.05a1.47 1.47 0 0 0 .65-.38l.23-.3a1.4 1.4 0 0 0 .2-.74z"/><path d="m801.44 638.58a1.48 1.48 0 0 0 0-3 1.48 1.48 0 0 0 0 3z"/><path d="m576.35 682.8a46.29 46.29 0 0 1 -3.29 20.35 1.47 1.47 0 0 0 2.84.78 48.3 48.3 0 0 0 3.4-21.13c-.12-1.89-3.07-1.9-2.95 0z"/><path d="m603.17 683.48a24.58 24.58 0 0 1 -.89 19c-.83 1.7 1.71 3.2 2.54 1.49a27.49 27.49 0 0 0 1.18-21.27c-.64-1.77-3.49-1-2.84.78z"/><path d="m631.24 681.32a33.94 33.94 0 0 1 .79 19.43c-.47 1.84 2.37 2.63 2.84.79a36.82 36.82 0 0 0 -.79-21c-.61-1.79-3.46-1-2.84.78z"/><path d="m660.4 678.84a23.05 23.05 0 0 1 -.91 19.73c-.89 1.67 1.65 3.16 2.55 1.49a26.26 26.26 0 0 0 .91-22.71 1.49 1.49 0 0 0 -2-.53 1.52 1.52 0 0 0 -.53 2z"/><path d="m685.56 671.91c2 1 2.59 4 3.1 5.94a29.83 29.83 0 0 1 1 7.76 38.26 38.26 0 0 1 -1.05 7.53c-.22 1 .11 2.35 1.35 2.52a1.64 1.64 0 0 0 1.86-1.74 1.51 1.51 0 0 0 -1.47-1.48h-.11c-1.89-.09-1.89 2.86 0 2.95h.11l-1.48-1.47.15-.47.88-.68h-.14l1.43.38-.19-.15.43 1a13 13 0 0 1 .62-3 35.05 35.05 0 0 0 .43-3.53 32.79 32.79 0 0 0 -.28-6.93 30.77 30.77 0 0 0 -1.66-6.54c-.7-1.86-1.6-3.78-3.49-4.68-1.71-.81-3.21 1.73-1.49 2.55z"/><path d="m713 665.33c2.2 1.58 2.9 4.88 3.17 7.4a20.73 20.73 0 0 1 -1.18 9.46c-.65 1.78 2.2 2.55 2.84.78a23.32 23.32 0 0 0 1.17-11.29c-.48-3.38-1.64-6.83-4.51-8.89a1.48 1.48 0 0 0 -2 .53 1.49 1.49 0 0 0 .53 2z"/><path d="m739.66 653.44a29.72 29.72 0 0 1 4.73 20.92 1.54 1.54 0 0 0 1 1.82 1.5 1.5 0 0 0 1.82-1 32.68 32.68 0 0 0 -5-23.19c-1.05-1.57-3.6-.1-2.54 1.48z"/><path d="m767.08 639.11c3.42 4.78 7.44 11.18 4.81 17.24a1.54 1.54 0 0 0 .53 2 1.48 1.48 0 0 0 2-.53c3.12-7.21-.63-14.36-4.81-20.22a1.54 1.54 0 0 0 -2-.53 1.5 1.5 0 0 0 -.53 2z"/><path d="m740.3 652.42a205.6 205.6 0 0 0 18.81-9.34 83.58 83.58 0 0 0 16.42-12.51c1.35-1.33-.73-3.41-2.09-2.08a80.53 80.53 0 0 1 -16.22 12.28c-5.93 3.43-12.17 6.27-18.41 9.1-1.72.78-.23 3.33 1.49 2.55z"/><path d="m454.89 535.21a60.4 60.4 0 0 0 16.44-11.58 1.48 1.48 0 0 0 -2.09-2.09 57.6 57.6 0 0 1 -15.84 11.12 1.49 1.49 0 0 0 -.53 2 1.52 1.52 0 0 0 2 .53z"/><path d="m472.11 554.09a23.61 23.61 0 0 0 12.22-11.36 1.51 1.51 0 0 0 -.53-2 1.49 1.49 0 0 0 -2 .53 20.62 20.62 0 0 1 -10.45 10 1.53 1.53 0 0 0 -1 1.82 1.49 1.49 0 0 0 1.81 1z"/><path d="m493.76 571.27a24.66 24.66 0 0 0 10.61-12.92 1.48 1.48 0 0 0 -1-1.81 1.5 1.5 0 0 0 -1.81 1 21.52 21.52 0 0 1 -9.26 11.16 1.47 1.47 0 0 0 1.49 2.54z"/><path d="m518.07 590.81a21.37 21.37 0 0 0 9.73-10.16 1.52 1.52 0 0 0 -.53-2 1.48 1.48 0 0 0 -2 .53 18.43 18.43 0 0 1 -3.55 5.31c-.38.39-.77.77-1.18 1.14-.2.18-.41.36-.63.53s-.23.19-.35.28c.16-.12-.06.05-.11.09a19.9 19.9 0 0 1 -2.86 1.75 1.49 1.49 0 0 0 -.53 2 1.51 1.51 0 0 0 2 .53z"/><path d="m550.92 586.09a23.67 23.67 0 0 1 -5.72 9.77 1.47 1.47 0 1 0 2.08 2.08 26.7 26.7 0 0 0 6.49-11.06 1.48 1.48 0 0 0 -2.85-.79z"/><path d="m576.58 589.75a18.4 18.4 0 0 1 -3.08 11.34 1.49 1.49 0 0 0 .53 2 1.51 1.51 0 0 0 2-.53 21.11 21.11 0 0 0 3.48-12.83 1.48 1.48 0 0 0 -2.95 0z"/><path d="m404.32 433.44a6 6 0 0 0 -3.77 2.93 1.53 1.53 0 0 0 -.15 1.13 1.48 1.48 0 0 0 1.81 1 1.47 1.47 0 0 0 .88-.68 4.44 4.44 0 0 1 .41-.62l-.23.3a4.38 4.38 0 0 1 .8-.81l-.3.23a4.72 4.72 0 0 1 1-.6l-.35.15a4.64 4.64 0 0 1 .66-.22 1.45 1.45 0 0 0 .88-.67 1.47 1.47 0 0 0 .15-1.14 1.51 1.51 0 0 0 -1.81-1z"/><path d="m433.24 436.89 3.29-2.19a1.53 1.53 0 0 0 .68-.88 1.46 1.46 0 0 0 -.15-1.14 1.5 1.5 0 0 0 -.88-.68 1.49 1.49 0 0 0 -1.13.15l-3.3 2.19a1.55 1.55 0 0 0 -.67.88 1.5 1.5 0 0 0 .14 1.14 1.56 1.56 0 0 0 .89.68 1.49 1.49 0 0 0 1.13-.15z"/><path d="m421.9 528.52a1.48 1.48 0 0 0 0-2.95 1.48 1.48 0 0 0 0 2.95z"/><path d="m502.73 639.54a4.87 4.87 0 0 1 .32-.47l-.23.3a5.6 5.6 0 0 1 .91-.91l-.3.23a5.6 5.6 0 0 1 1.16-.68l-.36.15a4.94 4.94 0 0 1 1-.31 1.52 1.52 0 0 0 .88-.67 1.57 1.57 0 0 0 .15-1.14 1.5 1.5 0 0 0 -.68-.88 1.66 1.66 0 0 0 -1.14-.15 6.67 6.67 0 0 0 -4.25 3 1.48 1.48 0 1 0 2.55 1.49z"/><path d="m533.25 638.74c-.37.29 0 0 0 0l.28-.19.57-.36a9.59 9.59 0 0 1 1.2-.6l-.35.15a10.61 10.61 0 0 1 2.59-.72 1.47 1.47 0 0 0 .88-.68 1.49 1.49 0 0 0 .15-1.13 1.5 1.5 0 0 0 -.68-.88 1.7 1.7 0 0 0 -1.13-.15 11.92 11.92 0 0 0 -5.63 2.5 1.48 1.48 0 0 0 -.43 1 1.5 1.5 0 0 0 .43 1 1.46 1.46 0 0 0 1 .43 1.72 1.72 0 0 0 1-.43z"/><path d="m613.14 590.68h24.68a1.48 1.48 0 0 0 0-2.95h-24.68a1.48 1.48 0 0 0 0 2.95z"/><path d="m610.34 608.23h24.66a1.48 1.48 0 0 0 0-3h-24.66a1.48 1.48 0 0 0 0 3z"/><path d="m607.54 625.78h24.69a1.48 1.48 0 0 0 0-2.95h-24.69a1.48 1.48 0 0 0 0 2.95z"/></g><g fill="#ff7f00"><path d="m602.48 797.55c9.39 3.2 18.85 6.38 28.75 7.59a143.27 143.27 0 0 0 15.36.67c5.2.08 10.37.49 15.55.86a79.49 79.49 0 0 0 17.24-.25c1.87-.27 1.08-3.11-.78-2.84-10 1.46-20.06-.46-30-.68-5.07-.11-10.15 0-15.2-.48a84.64 84.64 0 0 1 -14.4-2.73c-5.31-1.43-10.52-3.21-15.72-5-1.8-.62-2.57 2.23-.78 2.84z"/><path d="m595.66 835.87c18.39 4.67 37.32 9.34 56.39 6.48a62.86 62.86 0 0 0 14.82-4.06c1.73-.72 1-3.57-.78-2.85-17.16 7.12-36.14 5.3-53.84 1.42-5.29-1.16-10.55-2.5-15.8-3.83-1.84-.47-2.63 2.37-.79 2.84z"/><path d="m589.13 872.79q14.72 2.07 29.48 3.72c9.65 1.07 19.53 2.66 29.21 1.29a114.39 114.39 0 0 0 15.59-3.72 1.48 1.48 0 0 0 -.79-2.85 130.44 130.44 0 0 1 -13.49 3.39 58 58 0 0 1 -14.17.58c-9.55-.67-19.09-1.9-28.58-3.08q-8.25-1-16.47-2.18c-1.85-.26-2.66 2.58-.78 2.85z"/><path d="m740.94 802.91a101.5 101.5 0 0 0 29.35-3.1c4.82-1.24 9.38-3 14.08-4.65a32.74 32.74 0 0 1 7.12-1.52 24.77 24.77 0 0 0 6.83-1.39c1.73-.71 1-3.57-.78-2.85a25.62 25.62 0 0 1 -6.93 1.39 32.56 32.56 0 0 0 -7 1.53c-4.54 1.56-9 3.31-13.62 4.53a98.6 98.6 0 0 1 -29 3.11c-1.9-.07-1.9 2.88 0 2.95z"/><path d="m811.36 805.85a82.72 82.72 0 0 1 -27.77 41.89 80 80 0 0 1 -12.07 8c-1.67.9-.18 3.45 1.49 2.55a85.39 85.39 0 0 0 35.99-37.77 83 83 0 0 0 5.25-13.88 1.47 1.47 0 0 0 -2.84-.79z"/><path d="m839.12 798.27a55.82 55.82 0 0 1 3 42 53.4 53.4 0 0 1 -5.11 11.1 1.48 1.48 0 0 0 2.55 1.48 58.86 58.86 0 0 0 6.6-43.85 56.72 56.72 0 0 0 -4.49-12.18c-.85-1.7-3.4-.21-2.55 1.49z"/><path d="m831.43 399h32.08a1.48 1.48 0 0 0 0-2.95h-32.08a1.48 1.48 0 0 0 0 2.95z"/><path d="m827.82 416.26h32.09a1.47 1.47 0 0 0 0-2.94h-32.09a1.47 1.47 0 0 0 0 2.94z"/><path d="m824.22 433.54h32.08a1.48 1.48 0 0 0 0-3h-32.08a1.48 1.48 0 0 0 0 3z"/></g><g fill="#fff"><path d="m406 466.49a18.21 18.21 0 0 0 -.5 10.66 1.47 1.47 0 0 0 2.84-.78 15.28 15.28 0 0 1 .51-9.09 1.49 1.49 0 0 0 -1-1.82 1.53 1.53 0 0 0 -1.82 1z"/><path d="m283.93 381.75 35.1-34c1.37-1.32-.72-3.41-2.08-2.08l-35.1 34c-1.37 1.32.72 3.41 2.08 2.08z"/><path d="m287.31 401.59 33-33.91c1.32-1.36-.76-3.45-2.09-2.08l-33 33.9c-1.32 1.36.76 3.45 2.09 2.09z"/><path d="m327.93 347.16a1.48 1.48 0 0 0 0-3 1.48 1.48 0 0 0 0 3z"/><path d="m345.48 361.42a1.48 1.48 0 0 0 0-2.95 1.48 1.48 0 0 0 0 2.95z"/><path d="m325.74 404.2a1.48 1.48 0 0 0 0-2.95 1.48 1.48 0 0 0 0 2.95z"/><path d="m347.85 389.21 1.15-2.21a1.09 1.09 0 0 0 .18-.54 1.18 1.18 0 0 0 0-.59 1.48 1.48 0 0 0 -1.81-1 1.43 1.43 0 0 0 -.88.68l-1.1 2.19a1.09 1.09 0 0 0 -.18.55 1.19 1.19 0 0 0 0 .59 1.48 1.48 0 0 0 1.81 1 1.47 1.47 0 0 0 .88-.68z"/></g><g fill="#ff7f00"><path d="m28 313.43a119.39 119.39 0 0 0 9.09 87.43 112.28 112.28 0 0 0 7.84 12.79c2.73 3.85 5.92 7.78 10.53 9.38 4.95 1.72 10.31-.23 14.52-2.93a31.75 31.75 0 0 0 9.26-9.21c4.68-7.05 7.05-16.7 4.72-25-1-3.68-4.36-8.54-8.81-7.51-2.47.57-4 2.88-5.3 4.85a45.66 45.66 0 0 0 -3.5 6.12 50.51 50.51 0 0 0 -4.35 28.29c2.53 18.57 16.41 34.2 34.25 39.66a47.9 47.9 0 0 0 6.46 1.47c1.86.28 2.66-2.56.79-2.85-16.62-2.56-31.44-14.6-36.74-30.67a46.8 46.8 0 0 1 -.76-26.25 45.94 45.94 0 0 1 5.14-12.27c.58-.95 1.19-1.88 1.84-2.78a6.94 6.94 0 0 1 2.41-2.52c1.69-.74 3.3.79 4.2 2.06 2.31 3.26 2.47 7.77 2.17 11.61a30.42 30.42 0 0 1 -10.83 20.76c-3.41 2.8-8.15 5.45-12.7 4.86s-7.77-4.4-10.28-7.86a110 110 0 0 1 -7.33-11.65 116.61 116.61 0 0 1 -11.46-80.27q.75-3.36 1.71-6.68a1.48 1.48 0 0 0 -2.85-.78z"/><path d="m81.9 203.89q13.16 30.38 29.28 59.32 4.57 8.19 9.36 16.24a1.48 1.48 0 0 0 2.55-1.49q-16.92-28.44-31-58.47-4-8.49-7.69-17.09c-.75-1.73-3.29-.23-2.54 1.49z"/><path d="m167.51 135.45q11.73 35.64 21.78 71.82 2.82 10.15 5.51 20.36a1.47 1.47 0 0 0 2.84-.79q-9.57-36.28-20.83-72.1-3.17-10.05-6.46-20.08c-.59-1.79-3.44-1-2.84.79z"/><path d="m271.74 96.67q3.24 28.9 4 58 .19 8.28.2 16.58a1.47 1.47 0 0 0 2.94 0q0-29.09-2.51-58.1-.72-8.26-1.65-16.5c-.21-1.87-3.16-1.89-2.95 0z"/><path d="m419.49 111.45c15.32-6.39 38.89-14.21 50.08 3.28 5.13 8 5.91 18.14 5.31 27.4a76.34 76.34 0 0 1 -8.33 30c-3.89 7.51-10.34 18.78-20.39 17.46a8.1 8.1 0 0 1 -7.31-8.26c0-4.76 3.06-8.68 6.78-11.34a41.06 41.06 0 0 1 13.37-6.27c4.56-1.18 9.65-1.33 13.68 1.43 3.82 2.61 5.7 7.24 6.85 11.55a48.08 48.08 0 0 1 1.59 13.08 53 53 0 0 1 -7 25.44 50.07 50.07 0 0 1 -8.12 10.64c-2.68 2.66-5.85 5.62-9.83 5.89-1.58.11-2.85-.3-3.52-1.8v1.49c4.61-7.29 10.5-16.24 20.28-15.77 4.16.2 7.89 2.53 9.05 6.67 1.3 4.61-.3 9.6-1.75 14a129.2 129.2 0 0 1 -53.32 68c-1.6 1-.12 3.56 1.49 2.54a132.14 132.14 0 0 0 34.36-31.48 126.9 126.9 0 0 0 21.24-41.31c2-7 2.41-16.12-5.18-19.88-6.54-3.24-14.12-.93-19.35 3.65a44.64 44.64 0 0 0 -7.55 9.22c-.51.79-1 1.58-1.52 2.37a2.15 2.15 0 0 0 0 2.62 5.51 5.51 0 0 0 3.19 2.38c2.93.85 6.31-.3 8.83-1.81a35 35 0 0 0 7.91-7.11 55.55 55.55 0 0 0 13.53-40.89c-.62-7.13-2.4-15.61-7.93-20.64-6.11-5.54-14.87-4.53-22-1.72s-15 7.18-17.38 14.88a12.67 12.67 0 0 0 1.12 10.48 11.45 11.45 0 0 0 8.67 4.91c8 .82 14.13-5.25 18.28-11.36a78.21 78.21 0 0 0 10.6-23.27 76.48 76.48 0 0 0 2.62-25.32c-.53-7.44-2.4-15.13-7-21.16a26.57 26.57 0 0 0 -18.76-10.19c-7.67-.8-15.49 1-22.73 3.34-3.61 1.18-7.15 2.55-10.65 4-1.73.72-1 3.58.78 2.85z"/><path d="m579 155.56a399.41 399.41 0 0 1 -14.71 59.12c-.6 1.8 2.25 2.58 2.84.78a398.2 398.2 0 0 0 14.72-59.12c.31-1.85-2.53-2.65-2.85-.78z"/><path d="m650.51 167.36-18 36c-.84 1.69 1.7 3.18 2.55 1.48l18-36c.85-1.69-1.69-3.19-2.54-1.49z"/><path d="m691 216.19 1.1-1.1a1.49 1.49 0 0 0 0-2.08l-.3-.23a1.49 1.49 0 0 0 -.74-.2h-.39a1.47 1.47 0 0 0 -.65.38l-1.1 1.1a1.49 1.49 0 0 0 0 2.08l.3.23a1.49 1.49 0 0 0 .74.2l.39-.05a1.47 1.47 0 0 0 .65-.38z"/><path d="m958.32 410a139.41 139.41 0 0 1 -6.16 41.21 142.5 142.5 0 0 1 -18 37.81 136.57 136.57 0 0 1 -14.82 18.33c-1.32 1.37.77 3.45 2.08 2.08a141.54 141.54 0 0 0 24.58-34.89 145 145 0 0 0 13.26-40.54 141.43 141.43 0 0 0 2-24.05 1.48 1.48 0 0 0 -2.95 0z"/><path d="m973.58 470.71a79.68 79.68 0 0 1 -18.79 36.29c-1.27 1.4.81 3.49 2.09 2.08a82.76 82.76 0 0 0 19.54-37.58c.41-1.85-2.43-2.63-2.84-.78z"/><path d="m359.42 676.63 26.32-26.33a1.47 1.47 0 0 0 -2.08-2.08l-26.33 26.32a1.48 1.48 0 0 0 2.09 2.09z"/><path d="m366 684a186.36 186.36 0 0 0 22.25-22.17c1.22-1.44-.85-3.54-2.08-2.09a186.53 186.53 0 0 1 -22.26 22.18c-1.45 1.22.65 3.3 2.09 2.08z"/><path d="m385.74 687.32 6.58-6.58a1.47 1.47 0 0 0 -2.08-2.08l-6.58 6.58a1.47 1.47 0 0 0 2.08 2.08z"/><path d="m183.71 286.64a286 286 0 0 0 -18.53 38.88c-.68 1.77 2.17 2.53 2.85.78a280.48 280.48 0 0 1 18.22-38.17 1.47 1.47 0 0 0 -2.54-1.49z"/><path d="m190.1 303.62 1-2.27-2.69-1.13-10 23.68a1.47 1.47 0 0 0 1 1.81 1.5 1.5 0 0 0 1.81-1l10-23.69c.64-1.53-2-2.67-2.69-1.14l-1 2.27c-.76 1.72 1.78 3.22 2.54 1.49z"/><path d="m194.05 319.58 1.65-1.65a1.12 1.12 0 0 0 .3-.47 1.31 1.31 0 0 0 0-1.14 1.12 1.12 0 0 0 -.3-.47 1.46 1.46 0 0 0 -1-.43 1.5 1.5 0 0 0 -1 .43l-1.7 1.64a1.17 1.17 0 0 0 -.31.48 1.07 1.07 0 0 0 -.12.56 1.09 1.09 0 0 0 .12.57 1.17 1.17 0 0 0 .31.48 1.5 1.5 0 0 0 1 .43 1.55 1.55 0 0 0 1-.43z"/><path d="m282.55 226.74a16.55 16.55 0 0 1 1.56-.83l.32-.15.22-.09c-.17.07-.18.07 0 0l.78-.29c.52-.19 1.05-.34 1.58-.48l.81-.17.47-.09c.07 0 .59-.08.19 0a1.65 1.65 0 0 0 1-.43 1.48 1.48 0 0 0 .43-1.05c0-.71-.65-1.58-1.47-1.47a19.23 19.23 0 0 0 -7.39 2.53 1.47 1.47 0 1 0 1.49 2.54z"/><path d="m281.81 239.23c.07 0 .49-.27.15-.07a1.42 1.42 0 0 1 .36-.14c.25-.09.52-.16.79-.23l.32-.06h.21-.06a2.42 2.42 0 0 1 .76 0 6.54 6.54 0 0 1 .77 0h.22-.07a1.28 1.28 0 0 1 .33.06 6.17 6.17 0 0 1 .74.19l.42.13.2.08h-.05a1.51 1.51 0 0 0 2-.52 1.49 1.49 0 0 0 -.53-2 9.39 9.39 0 0 0 -8.07.11 1.48 1.48 0 0 0 -.53 2 1.51 1.51 0 0 0 2 .53z"/><path d="m281.12 251.52 3.29 1.65a1.56 1.56 0 0 0 1.14.15 1.53 1.53 0 0 0 .88-.68 1.5 1.5 0 0 0 -.53-2l-3.29-1.64a1.57 1.57 0 0 0 -1.14-.15 1.47 1.47 0 0 0 -.35 2.69z"/><path d="m411.8 281.19a25.85 25.85 0 0 1 9.09-2.4 1.52 1.52 0 0 0 1.48-1.48 1.49 1.49 0 0 0 -1.48-1.47 29.1 29.1 0 0 0 -10.58 2.81 1.48 1.48 0 0 0 -.53 2 1.5 1.5 0 0 0 2 .53z"/><path d="m416.79 291.21a1.47 1.47 0 0 0 0-2.94 1.47 1.47 0 0 0 0 2.94z"/><path d="m178.07 421.39a39.33 39.33 0 0 0 -8.92 7.65c-1.22 1.43-2.38 3.1-2.39 5a4.5 4.5 0 0 0 2.84 4.32 1.48 1.48 0 0 0 1.81-1 1.5 1.5 0 0 0 -1-1.81c-.8-.32-.74-1.66-.5-2.33a10.45 10.45 0 0 1 2.5-3.4 37.25 37.25 0 0 1 7.17-5.9c1.6-1 .13-3.57-1.48-2.55z"/><path d="m181.71 433.93.83-.82a1.12 1.12 0 0 0 .3-.47 1.14 1.14 0 0 0 .13-.57 1.09 1.09 0 0 0 -.13-.57 1.22 1.22 0 0 0 -.3-.48l-.3-.23a1.5 1.5 0 0 0 -.75-.2l-.39.06a1.46 1.46 0 0 0 -.65.37l-.82.83a1 1 0 0 0 -.31.47 1.41 1.41 0 0 0 0 1.14 1 1 0 0 0 .31.47l.3.23a1.37 1.37 0 0 0 .74.2l.39-.05a1.47 1.47 0 0 0 .65-.38z"/><path d="m183.14 453.29a1.48 1.48 0 0 0 0-3 1.48 1.48 0 0 0 0 3z"/></g><g fill="#fff"><path d="m305.12 618.22 11.52-12.34c1.29-1.39-.79-3.48-2.09-2.09l-11.55 12.34c-1.29 1.39.79 3.48 2.09 2.09z"/><path d="m311.44 624.26 3.29-2.47a1.61 1.61 0 0 0 .68-.88 1.57 1.57 0 0 0 -.15-1.14 1.53 1.53 0 0 0 -.88-.68 1.46 1.46 0 0 0 -1.14.15l-3.24 2.47a1.61 1.61 0 0 0 -.68.88 1.48 1.48 0 0 0 1 1.82 1.46 1.46 0 0 0 1.14-.15z"/><path d="m375.86 595.17a29.81 29.81 0 0 0 6.85-9.32 1.51 1.51 0 0 0 -.53-2 1.49 1.49 0 0 0 -2 .53 28.66 28.66 0 0 1 -2.81 4.78l-.41.55c.09-.12 0 0-.05.06l-.24.29c-.29.36-.59.71-.89 1.05-.63.69-1.29 1.36-2 2a1.49 1.49 0 0 0 0 2.09 1.52 1.52 0 0 0 2.09 0z"/><path d="m387 593.74a.79.79 0 0 1 0-.22v.39a1.6 1.6 0 0 1 0-.31v.4a1.31 1.31 0 0 1 .09-.34l-.15.35a1.92 1.92 0 0 1 .18-.31l-.23.3a1.52 1.52 0 0 1 .22-.22l-.3.23a1.17 1.17 0 0 1 .27-.15l-.36.15h.12a1.16 1.16 0 0 0 .5-.27 1.07 1.07 0 0 0 .38-.41 1.09 1.09 0 0 0 .18-.55 1.18 1.18 0 0 0 0-.59 1.5 1.5 0 0 0 -.68-.88 1.53 1.53 0 0 0 -1.13-.15 3 3 0 0 0 -1.08.61 1.54 1.54 0 0 0 -.17.19 2.78 2.78 0 0 0 -.37.51c-.07.14-.13.29-.19.44a.69.69 0 0 0 -.05.13 3.47 3.47 0 0 0 -.1.62 1.22 1.22 0 0 0 0 .27 2.86 2.86 0 0 0 .11.64 1.1 1.1 0 0 0 .26.5 1.15 1.15 0 0 0 .41.38 1.18 1.18 0 0 0 .55.17 1.08 1.08 0 0 0 .59 0 1.5 1.5 0 0 0 .88-.68 1.47 1.47 0 0 0 .15-1.14z"/><path d="m445.58 632.63a1.47 1.47 0 0 0 0-2.94 1.47 1.47 0 0 0 0 2.94z"/><path d="m290.91 675.69a8.7 8.7 0 0 0 -7 4.12 1.47 1.47 0 0 0 .53 2 1.49 1.49 0 0 0 2-.53l.24-.36.1-.14c.17-.24-.16.19-.05.06s.36-.41.55-.61l.29-.26.16-.14s.25-.2.05-.05 0 0 .06 0l.15-.1.36-.23c.22-.13.45-.24.69-.36s-.24.1-.08 0l.21-.08.36-.12a7.19 7.19 0 0 1 .8-.2h.21-.09.43a1.47 1.47 0 1 0 0-2.94z"/><path d="m293.6 689.79.82-.82a1 1 0 0 0 .31-.48 1.07 1.07 0 0 0 .12-.56 1.09 1.09 0 0 0 -.12-.57 1.14 1.14 0 0 0 -.31-.48l-.3-.23a1.47 1.47 0 0 0 -.74-.2l-.39.06a1.46 1.46 0 0 0 -.65.37l-.82.83a1 1 0 0 0 -.31.47 1.31 1.31 0 0 0 0 1.14 1 1 0 0 0 .31.47l.29.23a1.41 1.41 0 0 0 .75.2l.39-.05a1.47 1.47 0 0 0 .65-.38z"/><path d="m358.37 741.23a1.48 1.48 0 0 0 0-3 1.48 1.48 0 0 0 0 3z"/><path d="m595.81 426.21a110.29 110.29 0 0 0 75.76-15.28 106 106 0 0 0 17.43-13.54c1.37-1.32-.71-3.41-2.08-2.09a107.12 107.12 0 0 1 -68.65 29.3 102.37 102.37 0 0 1 -21.63-1.23c-1.86-.31-2.66 2.53-.79 2.84z"/><path d="m687.62 387.59a14.8 14.8 0 0 0 1.78 12.27 1.47 1.47 0 1 0 2.54-1.49 11.83 11.83 0 0 1 -1.47-10 1.48 1.48 0 0 0 -2.85-.79z"/><path d="m632.86 402.16 17.92-5.16a1.47 1.47 0 0 0 -.79-2.84l-17.91 5.12a1.48 1.48 0 0 0 .78 2.85z"/><path d="m581.68 398.62a40.06 40.06 0 0 1 12.4.83 1.51 1.51 0 0 0 1.82-1 1.49 1.49 0 0 0 -1-1.81 42.38 42.38 0 0 0 -13.19-.93 1.51 1.51 0 0 0 -1.47 1.47 1.49 1.49 0 0 0 1.47 1.47z"/><path d="m587.91 300.54a191.18 191.18 0 0 0 21.94.55c1.89-.07 1.9-3 0-2.95a188.94 188.94 0 0 1 -21.94-.55c-1.89-.16-1.88 2.79 0 3z"/><path d="m637.27 298.9a123.14 123.14 0 0 1 25.94 1.58c1.85.31 2.65-2.53.78-2.85a127.18 127.18 0 0 0 -26.72-1.63c-1.89.09-1.9 3 0 2.95z"/></g></svg>