<svg viewBox="0 0 1000 1000" xmlns="http://www.w3.org/2000/svg"><path d="m598.47 554.89c-2-4.21-7.44-5.45-12.1-5.28s-9.5 1.21-13.88-.38c5.72-.8 11.69-1.68 16.41-5s7.68-9.93 5-15.06c-2.78-5.39-9.81-6.59-15.85-7.09-67.66-5.57-137.65-2.59-201-27l-.51 1.25c4.15 15.65 11 36.27 11.91 39.55q.91 3.17 1.66 6.27c15.43 2.63 31.08 4.41 46.57 6.24 27.25 3.2 54.46 6.67 81.67 10.13 5.27.67 12 2.76 12.16 8.08.13 3.31-2.55 6-5.11 8.12a117.7 117.7 0 0 1 -24.55 15.66 69.39 69.39 0 0 1 20.76 11.62 11.76 11.76 0 0 1 3.84 4.55c1.84 4.7-2.38 9.72-7 11.77s-9.92 2.53-14.15 5.29a5.94 5.94 0 0 1 4 1.67 537 537 0 0 0 58.45-11.21c5.16-1.29 10.43-2.72 14.75-5.83s7.55-8.28 6.86-13.55c-1-8.07-10.83-12.56-18.78-10.87a42.82 42.82 0 0 0 26.09-16.54c2.64-3.59 4.74-8.37 2.8-12.39z" fill="#1a1c1c"/><path d="m599.73 554.16c-2-4-6.45-5.57-10.64-5.94-5.42-.48-10.92 1.43-16.22-.39v2.8c7.55-1 15.92-2.49 20.7-9.08a13.71 13.71 0 0 0 2.67-9.84 11.19 11.19 0 0 0 -5.3-7.77 23.79 23.79 0 0 0 -9.59-3c-4-.54-8.12-.75-12.18-1-8.94-.64-17.89-1.16-26.84-1.65-18-1-36-1.78-54-3.1-17.8-1.3-35.58-3.1-53.18-6.11a309 309 0 0 1 -51.48-13.08q-3.12-1.11-6.22-2.3a1.47 1.47 0 0 0 -1.78 1c-.15.38-.36.76-.47 1.15a4.68 4.68 0 0 0 .35 2.32q.78 2.91 1.62 5.8c1.1 3.88 2.26 7.75 3.43 11.6 1.84 6 3.74 12 5.63 18 .94 3 1.76 6 2.5 9a1.43 1.43 0 0 0 1 1c24.9 4.23 50.11 6.6 75.18 9.69q19.09 2.35 38.09 4.74l9.65 1.23c2.71.34 5.46.56 8.13 1.15 3.17.7 8.08 2.25 8.26 6.2.14 2.88-2.37 5.15-4.38 6.85-2.4 2-4.92 3.93-7.5 5.73a117.94 117.94 0 0 1 -17.05 9.94c-1.22.59-.73 2.28.35 2.66a67.23 67.23 0 0 1 20.4 11.5 9.67 9.67 0 0 1 3.29 4 5.71 5.71 0 0 1 -.5 4.48c-1.68 3.2-4.84 5-8.17 6.14-4 1.35-8.28 2.15-11.93 4.46a1.46 1.46 0 0 0 .73 2.7 4.54 4.54 0 0 1 2.39.79 6.92 6.92 0 0 0 1 .76 3.87 3.87 0 0 0 1.91-.06q3.51-.48 7-1 7.13-1.06 14.21-2.33 14.18-2.52 28.2-5.79c4.38-1 8.79-2 13.09-3.3a32.62 32.62 0 0 0 11.15-5.44c5.57-4.48 8.83-12.63 4.7-19.14-3.87-6.1-12-8.5-18.82-7.12-1.83.37-1.05 3.16.77 2.8a44.54 44.54 0 0 0 20.92-10.41c5.4-4.82 12.38-12.93 8.93-20.64-.77-1.71-3.27-.23-2.51 1.46 1.55 3.46-.36 7.41-2.33 10.27a38.52 38.52 0 0 1 -7 7.62 41.51 41.51 0 0 1 -18.67 8.92l.77 2.8c5.16-1 11.18.58 14.69 4.63 4.47 5.16 1.83 12.23-2.79 16.27a26.69 26.69 0 0 1 -9.64 4.94c-3.79 1.2-7.68 2.08-11.54 3q-12.23 2.92-24.58 5.25-14 2.65-28.19 4.57l1.42.38a7.91 7.91 0 0 0 -5-2.1l.74 2.71c3.67-2.33 8-3 12-4.45 3.66-1.32 7.1-3.54 9-7a8.63 8.63 0 0 0 -1.1-10.21 30.91 30.91 0 0 0 -4.89-4.16q-2.6-1.95-5.39-3.65a72.08 72.08 0 0 0 -13.46-6.41l.34 2.65a118.48 118.48 0 0 0 15.77-9q3.76-2.57 7.34-5.42a26 26 0 0 0 5.74-5.63 7.94 7.94 0 0 0 -2.33-11.34c-4-2.72-9.08-3-13.71-3.63-26.54-3.37-53.08-6.73-79.64-9.85-14.78-1.74-29.57-3.47-44.25-6l1 1c-1.24-5.08-2.83-10-4.41-15-2.21-7-4.39-14-6.44-21.06q-.93-3.21-1.83-6.44l-.4-1.48a5.35 5.35 0 0 0 -.39-1.45c.24.33-.21.49 0 .25a2.34 2.34 0 0 0 .19-.46l.25-.63-1.79 1a293.74 293.74 0 0 0 49.41 13.87 495.92 495.92 0 0 0 51.24 6.84c17.27 1.5 34.58 2.39 51.89 3.29 8.66.45 17.32.89 26 1.42 8.41.5 16.9.84 25.27 1.84 5.86.7 13.71 3.18 13 10.56-.8 7.86-8.82 11.29-15.58 12.61-1.9.37-3.83.64-5.75.91-1.54.21-1.2 2.38 0 2.8 5 1.72 10.14.37 15.28.41 3.7 0 8 1 9.84 4.58.77 1.65 3.27.18 2.43-1.48z" fill="#1a1c1c"/><path d="m895.3 539.26c-1.68-10-7.27-19.87-16.5-24-7.21-3.25-15.48-2.62-23.35-1.93l-115.45 10.12c-4.15.37-8.38.75-12.2 2.43-10.52 4.64-14.5 17.13-20.76 26.78-10.81 16.63-31.53 26.25-51.21 23.75s-37.35-17-43.67-35.79c-1.91-5.71-3.44-12.5-8.87-15.13-2.46-1.19-5.3-1.25-8-1.28-39.81-.5-98.72.52-138.53 0-4.17-.06-8.83.08-11.78 3-2.51 2.5-3 6.33-3.36 9.86-2 20.69-7.07 55.79-8.34 83.3a21.61 21.61 0 0 0 21.65 22.63l400.31-1.35a31.67 31.67 0 0 0 31.15-26.61q3.68-22.82 7.37-45.64c1.61-9.95 3.24-20.16 1.54-30.14z" fill="#ff7f00"/><path d="m896.7 538.88c-2.31-13-10.78-24.88-24.49-27.06-7.8-1.23-15.83 0-23.63.65l-26.58 2.33-52.66 4.63-26.57 2.33c-7.07.62-14.26 1-20.1 5.53-10.07 7.72-13.09 21.31-21.42 30.56a53.59 53.59 0 0 1 -35.19 17.35 51.09 51.09 0 0 1 -36.55-12 53.46 53.46 0 0 1 -12.45-15.06c-3.07-5.58-4.15-11.88-7-17.51a14.4 14.4 0 0 0 -5.19-5.93c-3.07-1.85-6.72-1.89-10.19-1.93-6.43-.08-12.86-.11-19.29-.13-14.27 0-28.54 0-42.8.11q-21.86.12-43.71.18-10.23 0-20.44 0c-3.16 0-6.32 0-9.48-.08s-6.47-.2-9.6.56c-7 1.72-8.61 7.92-9.23 14.3-.58 5.9-1.26 11.79-1.95 17.68-1.69 14.45-3.45 28.89-4.78 43.37-.66 7.22-1.32 14.47-1.56 21.71a23.07 23.07 0 0 0 23.49 24.07h12.36l27.13-.09 38.76-.13 46.94-.16 51.53-.17 53.2-.18 51.08-.17 46-.16 37.27-.12 25.46-.09h10.11a33.48 33.48 0 0 0 26.1-12.84c3.94-5.08 5.83-10.8 6.85-17.07q2.05-12.75 4.12-25.51c1.34-8.32 2.8-16.63 4-25 1.13-7.94 1.72-15.9.45-23.86-.29-1.84-3.09-1.06-2.8.77 1.39 8.76.32 17.62-1 26.31-1.31 8.35-2.69 16.68-4 25s-2.39 16.74-4.07 25a30.22 30.22 0 0 1 -29.82 24.17h-3.8l-19.11.06-32 .11-41.64.14-48.17.16-51.55.18-51.77.17-48.64.17-42.78.14-33.56.11-21.18.08c-6.28 0-12.15.2-17.68-3.71a20.24 20.24 0 0 1 -8.44-15.51c-.29-6.77.7-13.81 1.28-20.55 1.25-14.36 3-28.66 4.65-43 .72-6.13 1.45-12.25 2.08-18.38.32-3.08.36-6.35 1.47-9.27 1.49-3.91 5.11-5.21 9-5.45 6.15-.38 12.43 0 18.6.07q10.19 0 20.36 0c28.31-.06 56.63-.36 84.94-.28 6.19 0 12.39 0 18.58.14 4.06.06 7.85.62 10.42 4.05 1.82 2.42 2.77 5.42 3.7 8.27 3.85 11.9 10.43 22 20.57 29.54a53.4 53.4 0 0 0 35 10.62 55.45 55.45 0 0 0 45.43-28.92c3.06-5.39 5.71-11.19 9.77-15.94a22.81 22.81 0 0 1 6.83-5.61c3.65-1.86 7.76-2.34 11.78-2.7 8.67-.8 17.35-1.53 26-2.29l51.86-4.5 25.64-2.25c8-.71 16.25-1.92 24.34-1.65 7.34.24 14.06 2.59 19 8.13a34.63 34.63 0 0 1 7.9 17.28c.35 1.84 3.12 1.06 2.82-.77z" fill="#1a1c1c"/><path d="m676.88 333.53a269.91 269.91 0 0 1 -12.38 51.31q-4.41 12.63-10 24.77-2.79 6-5.88 11.84c-.83 1.57-1.71 3.36-3.19 4.41-1.7 1.21-3.87.91-5.8.59-10.67-1.74-21.33-3.56-32-5.35a1.48 1.48 0 0 0 -1.79 1.79c.57 4 2.37 7.56 4 11.14l5.62 12 11.12 23.78 11.23 24c3.63 7.75 7 15.67 10.92 23.3 1.56 3.07 3.86 5.56 7.48 5.84s7.32-1.86 10.5-3.56q11.09-5.94 22-12.08 22.15-12.4 43.81-25.64t42.61-27.15l5.18-3.46a1.46 1.46 0 0 0 0-2.5 84.72 84.72 0 0 0 -43.84-10.28l1 2.48a208.09 208.09 0 0 0 25.68-39 207.87 207.87 0 0 0 21.31-69.76c.23-1.85-2.68-1.83-2.9 0a205.26 205.26 0 0 1 -10.62 44.67 207.62 207.62 0 0 1 -20.13 41.06 204.23 204.23 0 0 1 -15.31 21 1.47 1.47 0 0 0 1 2.48 81.67 81.67 0 0 1 42.37 9.87v-2.5q-20.48 13.72-41.46 26.71t-42.21 25.06q-10.71 6.09-21.54 12c-3.61 2-7.2 4-10.86 5.84-2.92 1.49-6.94 3.15-9.65.4a14.24 14.24 0 0 1 -2.5-4.1c-.88-1.86-1.75-3.73-2.63-5.6l-5.5-11.77-10.91-23.32-10.91-23.32-5.4-11.55c-1.74-3.72-3.65-7.41-5.17-11.22a24.52 24.52 0 0 1 -1.55-5.57l-1.79 1.78 29.6 5c4.12.69 8.59 1.73 11.84-1.67a20.59 20.59 0 0 0 3.14-4.87q1.59-3 3.1-6.09a270.6 270.6 0 0 0 19.15-51.54 266.21 266.21 0 0 0 6-30.38c.26-1.83-2.54-2.62-2.79-.77z" fill="#1a1c1c"/><path d="m928.45 289.85s15.76-31.51-10-49.41-50.13 2.86-50.13 2.86 8.6-62.3-42.24-63-47.27 44.39-47.27 44.39-12.17-79.48-83.68-63-30.47 98.72-30.47 98.72h-19.7a43 43 0 0 0 -43 43 43 43 0 0 0 43 43h301.75a28.29 28.29 0 0 0 28.29-28.28 28.28 28.28 0 0 0 -28.29-28.28z" fill="#ff7f00"/><g fill="#1a1c1c"><path d="m328.07 525.47a215.43 215.43 0 0 0 45.52 15c15.69 3.44 31.61 5.62 47.54 7.56 17.07 2.08 34.16 4 51.22 6.17l26.23 3.29 13.36 1.7a67.77 67.77 0 0 1 10.61 1.7c2.31.68 5.19 1.85 6.2 4.25 1.33 3.16-1.43 6.06-3.61 8a107.53 107.53 0 0 1 -19.79 13.42c-1.72.92-3.45 1.79-5.21 2.63-1.22.59-.73 2.28.35 2.66a67.23 67.23 0 0 1 20.4 11.5 9.67 9.67 0 0 1 3.29 4 5.71 5.71 0 0 1 -.5 4.48c-1.68 3.2-4.84 5-8.17 6.14-4 1.35-8.28 2.15-11.93 4.46a1.46 1.46 0 0 0 .73 2.7c3.15.13 5.13 3.39 5.3 6.27.22 3.67-2.31 6.85-4.9 9.16-5.73 5.1-13.27 8.38-20.59 10.42-15.4 4.29-31.77 3.42-47.52 2.08-19.08-1.61-38.14-3.48-57.2-5.22l-29-2.66c-7.78-.72-15.57-1.45-23.29-2.67-14.69-2.33-29.84-6.43-41.62-16-1.45-1.17-2.83-2.41-4.16-3.71s-3.38.74-2.05 2.05c11.41 11.2 26.77 16.66 42.2 19.57 7.94 1.49 16 2.39 24 3.16 9.9.94 19.8 1.81 29.69 2.72 20.07 1.84 40.12 3.76 60.2 5.51 16.53 1.44 33.74 2.41 49.9-2.19 7.62-2.17 15.33-5.65 21.33-10.93 2.91-2.54 5.44-5.93 5.86-9.89a10.32 10.32 0 0 0 -3.7-9 7.58 7.58 0 0 0 -4.46-1.62l.74 2.71c3.67-2.33 8-3 12-4.45 3.66-1.32 7.1-3.54 9-7a8.63 8.63 0 0 0 -1.1-10.21 30.91 30.91 0 0 0 -4.89-4.16q-2.6-1.95-5.39-3.65a72.08 72.08 0 0 0 -13.4-6.42l.34 2.65a118.5 118.5 0 0 0 21-12.86c4.62-3.54 12.73-9.6 8-16.2-3.82-5.3-11.88-5.46-17.69-6.2l-27.22-3.44q-26.85-3.37-53.74-6.55c-16.52-1.94-33.05-3.92-49.39-7.06s-32.26-7.34-47.45-13.87c-1.88-.8-3.73-1.64-5.58-2.5-1.68-.79-3.16 1.71-1.46 2.5z"/><path d="m389.87 535.51c-5.36-18.46-12.43-36.55-15-55.65 0-.28.25-.84 0-.44.08-.11 2.35-1.18 3-1.5l4.14-2.15 15.99-8.32 31.59-16.37 63.71-33 31.59-16.37 15.95-8.27a68.34 68.34 0 0 0 11.73-7.2c16.07-13 9.33-34.2 6.84-51.52-2.88-20-2.19-41.82-14.09-59.23-9-13.12-25.67-21-41-13.92a22.78 22.78 0 0 0 -8.56 6.85c-2.62 3.47-4 7.66-6.37 11.27-3 4.54-7.61 6.09-12.74 7-5.79 1-11.61 1.88-17.42 2.81l-71 11.42-17.31 2.79 1.83 1.4c1.38-18.46-14-34.56-31.43-38.13-18.48-3.78-35.54 8.07-42.87 24.64a45.72 45.72 0 0 0 -2.74 29.76l1-1.79-23.31 5.52c-5.5 1.31-15 5.71-18.29-1.13-2-4.22-2.58-8.7-5.31-12.65a29.66 29.66 0 0 0 -9.64-8.77c-8.09-4.66-17.91-5.93-27-4.44-10.19 1.68-18.91 7.32-25.46 15.21-14.29 17.22-15.67 41-17.17 62.38-2.16 30.66-4.39 61.28-5.89 92-1.2 24.55-2.72 49-3.31 73.61-.44 18.31-.91 39-10 55.37-4.45 8-11.54 14.31-20.77 16-7.65 1.37-15.52-.39-22.91-2.31-7.78-2-15.51-4.19-23.27-6.28l-23.6-6.39c-5.57-1.51-11-3.27-16.87-3.34-7.11-.08-17.6 2.35-17.06 11.42.15 2.58 1.61 5.33 2.83 7.58q2.27 4.14 4.66 8.22 4.88 8.3 10.3 16.26a233.42 233.42 0 0 0 24.14 30c18 18.7 39.41 33.19 64.28 40.88a187.35 187.35 0 0 0 21.85 5.27l-1.07-1.4c-1.36 38.58-2.36 77.18-1.7 115.78.12 6.59 0 14.28 5.06 19.25 5.37 5.24 14.68 6.65 21.7 8.18 17 3.72 34.54 4.55 51.91 3.74 19.74-.92 39.32-3.89 58.78-7.2a1.44 1.44 0 0 0 1-1 7.15 7.15 0 0 1 5.78-5.18 1.41 1.41 0 0 0 1-1c.52-3.3-.68-5.62-2.94-8a27.16 27.16 0 0 1 -6.62-10c-2.88-8.21-2.5-17.19-2.53-25.76q-.1-32-.22-64.06l-.12-36.1-1.06 1.4q10.69-3.77 21-8.44l-2.18-1.25q4.53 53.74 11.3 107.34c1.05 8.32 1.55 17.07 3.51 25.23 1.55 6.46 5.53 10.72 12 12.35 7.75 2 16.2 2.15 24.15 2.6 8.8.51 17.62.64 26.43.5 18.07-.28 36.1-1.69 54.08-3.38l12.63-1.22a78.2 78.2 0 0 0 11-1.39c2.31-.58 6.15-1.84 7.47-4.08.75-1.26.13-2.67.58-4.1s1.83-2.19 1.76-3.73c-.24-5.18-7.11-6.91-11-7.65-6.23-1.16-11.69-2.13-15.48-7.77-3.54-5.28-4.84-11.76-6-17.9q-2.34-12.12-4.54-24.26c-6.91-37.76-13.21-75.63-20.47-113.33-.36-1.83-3.16-1-2.8.77 5.32 27.61 10.12 55.31 15 83 2.49 14 5 28 7.61 42 1.94 10.39 2.81 22.89 9.14 31.78 3.09 4.34 7.3 6.66 12.46 7.7 4.53.92 11.94.9 13.32 6.4l.38-1.41a9.24 9.24 0 0 0 -2.23 3.59c-.6 2.06.09 3.27-2 4.55-3.52 2.17-8 2.27-12 2.66-9.76 1-19.52 1.92-29.29 2.72-19.32 1.59-38.72 2.61-58.1 2a222.38 222.38 0 0 1 -28.61-2.3c-4.39-.73-8.74-2.18-11-6.3-2.05-3.68-2.34-8.24-2.89-12.33q-3.87-29.07-7.07-58.22-3.6-32.91-6.35-65.9a1.48 1.48 0 0 0 -2.19-1.26q-10 4.53-20.33 8.15a1.5 1.5 0 0 0 -1.06 1.4l.21 62.89q.06 15.72.11 31.45c0 8.63-.41 17.46 1.05 26a33.5 33.5 0 0 0 4.3 12.08 26.62 26.62 0 0 0 3.64 4.55c1.73 1.78 3.66 3.42 3.22 6.16l1-1a10 10 0 0 0 -7.8 7.21l1-1c-33.42 5.68-68 10.61-101.76 4.89-7.83-1.32-16.4-2.78-23.65-6.15-8.16-3.78-8.23-12-8.37-19.91-.31-18.32-.25-36.65.05-55 .32-20.27.94-40.54 1.66-60.81a1.48 1.48 0 0 0 -1.07-1.4c-14-2.54-27.91-6.39-40.77-12.55a143.7 143.7 0 0 1 -31.73-21.05c-19.42-16.78-35-37.66-47.79-59.83a79.54 79.54 0 0 1 -4.14-7.44c-1.07-2.42-2.27-5.27-1.06-7.85 1.85-3.94 7.38-4.91 11.23-5.15 5.67-.34 10.84 1.11 16.25 2.57l23 6.23 23 6.24c6.69 1.8 13.51 3.57 20.48 3.67a31.52 31.52 0 0 0 24.83-11.07c11.36-13.34 13.47-32.89 14.54-49.69.56-8.92.64-17.85.81-26.78.23-11.77 1.17-23.5 1.79-35.25 1.67-31.7 2.89-63.43 5.37-95.08 1-12 1.73-24.09 2.88-36.1 1.05-11 2.73-22.21 6.94-32.53 4.12-10.08 11.21-19.61 21-24.8a39.38 39.38 0 0 1 28.67-2.83c9.36 2.64 16.91 9 19.78 18.38 1.12 3.69 2.26 7.86 6.06 9.63 2.27 1 4.58.82 7 .46 3.85-.57 7.7-1.78 11.49-2.68l22.19-5.26a1.48 1.48 0 0 0 1-1.79c-4.11-16.09 2.28-34.38 15.53-44.45 14-10.67 33-8.32 45.5 3.69 6.88 6.63 11 15.63 10.32 25.27a1.48 1.48 0 0 0 1.84 1.4l69.26-11.14c11.69-1.89 23.39-3.73 35.08-5.65 4.28-.7 8.7-1.6 12.17-4.38 3.18-2.55 4.94-6.27 6.74-9.83 4-7.91 10.26-12.85 19.28-13.55a29.89 29.89 0 0 1 23.14 8.55c15.38 14.75 16.1 37.64 18.28 57.4 1.1 9.92 3.56 19.69 4.34 29.64.77 9.79-.93 19.41-8.76 26.06-3.67 3.11-8 5.33-12.26 7.54l-15.54 8.05-31.08 16.11-62.67 32.48-31.07 16.1-15.62 8.05-7.77 4c-1 .51-2.21.88-2.84 1.84-1.42 2.18-.14 6.37.3 8.65 1 5.27 2.46 10.47 3.91 15.63 2.91 10.38 6.18 20.66 9.43 30.93.34 1.09.69 2.18 1 3.28a1.45 1.45 0 0 0 2.8-.77z"/><path d="m929.71 290.58c4.89-9.84 6.61-22.51 3.34-33.05-3.11-10-10.87-17.61-20.19-22a40.41 40.41 0 0 0 -30-1.64 47.08 47.08 0 0 0 -15.62 8.39l2.42 1.41a83.88 83.88 0 0 0 .18-19.33c-1.15-11.84-4.63-24.07-12.84-33-11.18-12.19-28.88-14.21-44.42-11.49-13.54 2.36-25.38 10.12-31.09 22.86a49 49 0 0 0 -3.81 13.8c-.31 2.4-.85 5.36-.4 7.78v.39l2.85-.38a97.73 97.73 0 0 0 -8.94-27.15c-7.92-16.33-20.75-30.54-38.39-36.27-11.51-3.75-23.9-3.54-35.67-1.15-11.59 2.36-23.12 6.93-31.68 15.33-13.54 13.31-15.66 33-13 50.9a123.86 123.86 0 0 0 5.69 22.52c1.39 4 2.75 8.43 4.9 12.1.1.17.17.37.26.55l1.26-2.19h-11.56a111.44 111.44 0 0 0 -13.18.31 44.46 44.46 0 0 0 2.56 88.54c7.93.47 16 .08 23.9.08h280.39a29.74 29.74 0 0 0 7.55-58.52c-4.61-1.2-9.36-1-14.08-1h-11.69a1.45 1.45 0 0 0 0 2.9h11.69c4.62 0 9.29-.27 13.79 1a26.84 26.84 0 0 1 3.63 50.41 29.17 29.17 0 0 1 -12.09 2.32h-298.47c-6.79 0-13.43-1-19.65-3.89a41.58 41.58 0 0 1 -6.13-71.81 41.41 41.41 0 0 1 20.6-7.31c3.93-.29 7.92-.11 11.86-.11h11a1.47 1.47 0 0 0 1.25-2.19 119 119 0 0 1 -9.28-27.49c-3.57-16.54-3.87-35.42 6.39-49.76 6.27-8.75 15.87-14.35 26-17.57 11.63-3.7 24.46-5.24 36.51-2.87 18.33 3.59 32.26 16.39 41 32.4 5.22 9.52 8.42 19.65 10.76 30.18 0 .17.06.35.09.52.24 1.61 3 1.24 2.85-.39a43.64 43.64 0 0 1 2.34-16.71 36.62 36.62 0 0 1 24.69-23.87 60 60 0 0 1 26.53-1.69 36.91 36.91 0 0 1 18.43 8.31c8.81 7.74 12.86 19.38 14.39 30.71a88.38 88.38 0 0 1 .27 21.5c0 .19-.1.76 0 0a1.46 1.46 0 0 0 2.42 1.41 44.76 44.76 0 0 1 11.19-6.48c8.69-3.56 18.31-4.36 27.27-1.28 9.49 3.27 18.23 10.37 21.84 19.93 2.55 6.77 2.64 14.21 1.22 21.25a47.43 47.43 0 0 1 -3.65 11.37c-.82 1.62 1.68 3.09 2.52 1.42z"/></g><g fill="#fff"><path d="m684.83 179.72c-10.23 6.75-15.32 19-15.61 31-.14 5.83.93 13.88 7.7 15.58a6.94 6.94 0 0 0 7.62-3.06c1.35-2.3.91-6.09-2.1-6.79-3.62-.85-5.56 3.65-6 6.46a12.83 12.83 0 0 0 2.8 9.88c1.18 1.45 3.22-.61 2.05-2a9.78 9.78 0 0 1 -2.07-6.5 8.87 8.87 0 0 1 .66-3.1c.27-.64 1.36-2.52 2.21-1.63.59.62.21 1.81-.19 2.41a4 4 0 0 1 -2.6 1.65c-2.17.4-4.26-1.18-5.38-2.91-1.46-2.28-1.76-5.08-1.83-7.73a42.28 42.28 0 0 1 .33-6.65 38.78 38.78 0 0 1 4-12.82 29.81 29.81 0 0 1 9.87-11.21c1.55-1 .1-3.54-1.46-2.5z"/><path d="m683.47 246.73 1.81-1.07a1.54 1.54 0 0 0 .67-.87 1.68 1.68 0 0 0 -.15-1.11 1.46 1.46 0 0 0 -.87-.67 1.51 1.51 0 0 0 -1.12.14l-1.8 1.08a1.48 1.48 0 0 0 -.67.86 1 1 0 0 0 0 .58.94.94 0 0 0 .17.54 1.5 1.5 0 0 0 .87.67 1.44 1.44 0 0 0 1.11-.15z"/><path d="m687.72 257.65.72-.72a1.18 1.18 0 0 0 .3-.47 1.37 1.37 0 0 0 0-1.12 1.12 1.12 0 0 0 -.3-.47l-.3-.22a1.34 1.34 0 0 0 -.73-.2l-.39.05a1.48 1.48 0 0 0 -.64.37l-.72.72a1.12 1.12 0 0 0 -.3.47 1.37 1.37 0 0 0 0 1.12 1.18 1.18 0 0 0 .3.47l.3.22a1.43 1.43 0 0 0 .73.2l.39-.05a1.54 1.54 0 0 0 .64-.37z"/><path d="m701.81 250.15a1.45 1.45 0 0 0 0-2.9 1.45 1.45 0 0 0 0 2.9z"/><path d="m637 270.2c-7.25 3.59-14.86 8.53-17.06 16.85-.92 3.49-1 8.35 2.56 10.45a4.54 4.54 0 0 0 5.13-.16 4 4 0 0 0 1.37-4.47 1.47 1.47 0 0 0 -2.13-.87c-5.41 3.94-5.61 10.72-5.35 16.82.08 1.86 3 1.87 2.9 0-.21-4.84-.49-11.1 3.92-14.31l-2.14-.87c.45 1.14-.66 1.93-1.73 1.58-1.42-.45-2-2-2.13-3.36a13.67 13.67 0 0 1 2.17-8.16c3.15-5.23 8.63-8.36 14-11 1.68-.83.21-3.33-1.46-2.51z"/><path d="m793.7 226.76a30.28 30.28 0 0 1 14.91-31.76 1.45 1.45 0 0 0 -1.46-2.51 33.27 33.27 0 0 0 -16.25 35c.35 1.83 3.14 1.06 2.8-.77z"/><path d="m803.35 225.63a18.82 18.82 0 0 1 5.8-11.78c1.36-1.28-.7-3.33-2-2a21.88 21.88 0 0 0 -6.66 13.83 1.46 1.46 0 0 0 1.45 1.45 1.49 1.49 0 0 0 1.46-1.45z"/><path d="m874 254.79a23.2 23.2 0 0 1 14.34-10.41c1.81-.43 1-3.23-.77-2.8a26.17 26.17 0 0 0 -16.08 11.74c-1 1.6 1.54 3.06 2.51 1.47z"/><path d="m888.29 259 2.16-1.44a1.5 1.5 0 0 0 .67-.87 1.11 1.11 0 0 0 0-.57 1 1 0 0 0 -.18-.54 1.44 1.44 0 0 0 -.86-.67 1.46 1.46 0 0 0 -1.08.09l-2.16 1.44a1.51 1.51 0 0 0 -.67.86 1 1 0 0 0 0 .58 1 1 0 0 0 .17.54 1.5 1.5 0 0 0 .87.67 1.44 1.44 0 0 0 1.11-.15z"/><path d="m934 303.05a11.49 11.49 0 0 1 3.87-2.76q.32-.15.9-.36c.4-.13.81-.25 1.22-.35l.59-.12h.29.06a10.22 10.22 0 0 1 1.35-.1 1.46 1.46 0 0 0 0-2.91 14.81 14.81 0 0 0 -10.28 4.55 1.45 1.45 0 0 0 2 2.05z"/><path d="m938.27 310.92 1.08-1.08a1.54 1.54 0 0 0 .42-1 1.07 1.07 0 0 0 -.12-.56 1.12 1.12 0 0 0 -.3-.47l-.3-.23a1.42 1.42 0 0 0 -.73-.19l-.39.05a1.48 1.48 0 0 0 -.64.37l-1.08 1.08a1.12 1.12 0 0 0 -.3.47 1.07 1.07 0 0 0 -.12.56 1.54 1.54 0 0 0 .42 1l.3.23a1.43 1.43 0 0 0 .73.2l.38-.05a1.53 1.53 0 0 0 .65-.38z"/></g><g fill="#1a1c1c"><path d="m228.62 333.56a19.28 19.28 0 0 0 -1.1-5.95 6.86 6.86 0 0 0 -4.18-4.14c-2.53-.73-5.31.67-6.86 2.8a14.32 14.32 0 0 0 -2.28 7.45c-.48 6.32.74 12.64 2.14 18.82 1 4.31 2.1 8.73 4.74 12.28 1.85 2.5 5.13 4.58 8 3.3 2.49-1.12 3.34-4.19 3.61-6.9a38.2 38.2 0 0 0 -1.69-15.46 2.65 2.65 0 0 0 -1-1.66 2.84 2.84 0 0 0 -1.64-.14l-6.45.76a11.27 11.27 0 0 1 6.21-9.7"/><path d="m230.07 333.56c-.27-3.53-.75-7.4-3.56-9.91a7.15 7.15 0 0 0 -8.95-.4c-3.13 2.16-4.3 5.81-4.72 9.43a47.53 47.53 0 0 0 .61 12.82 94.88 94.88 0 0 0 2.71 12.22c1 3.47 2.56 7.19 5.3 9.68 2.43 2.2 6.08 3.57 9 1.56 2.8-1.9 3.45-5.52 3.68-8.66a39.76 39.76 0 0 0 -1.37-13.6c-.53-1.89-1.17-4-3.46-4.22a19.08 19.08 0 0 0 -3.53.32l-4 .47 1.45 1.45a9.92 9.92 0 0 1 5.49-8.44c1.67-.85.2-3.35-1.46-2.51a12.82 12.82 0 0 0 -6.93 11 1.45 1.45 0 0 0 1.45 1.45l5.21-.61c.6-.07 1.83-.47 2.31 0s.55 1.6.7 2.15a36.83 36.83 0 0 1 1.32 9.85c0 2.55 0 5.66-1.44 7.89-1.57 2.45-4.4 1.68-6.3.05-2.21-1.9-3.49-4.8-4.38-7.51a84.19 84.19 0 0 1 -2.37-9.64 63.1 63.1 0 0 1 -1.34-10.24c-.11-3-.09-6.45 1.14-9.3 1.08-2.51 4-5.12 6.88-3.67s3.35 5.5 3.58 8.44c.14 1.85 3 1.87 2.9 0z"/><path d="m339.85 304.4a19.33 19.33 0 0 0 -1.1-5.95 6.84 6.84 0 0 0 -4.17-4.14c-2.53-.72-5.31.67-6.86 2.8a14.24 14.24 0 0 0 -2.29 7.45c-.48 6.32.74 12.64 2.14 18.82 1 4.31 2.11 8.73 4.74 12.28 1.86 2.5 5.14 4.58 8 3.3 2.48-1.12 3.34-4.19 3.61-6.9a38.55 38.55 0 0 0 -1.64-15.46 2.73 2.73 0 0 0 -1.07-1.66 2.86 2.86 0 0 0 -1.64-.14l-6.45.76a11.22 11.22 0 0 1 6.21-9.69"/><path d="m341.31 304.4c-.28-3.53-.75-7.4-3.56-9.91a7.16 7.16 0 0 0 -9-.4c-3.12 2.16-4.3 5.82-4.71 9.43a46.73 46.73 0 0 0 .61 12.82 96.17 96.17 0 0 0 2.7 12.22c1 3.47 2.57 7.19 5.31 9.68 2.42 2.2 6.07 3.57 9 1.56 2.81-1.9 3.45-5.52 3.69-8.66a39.78 39.78 0 0 0 -1.37-13.6c-.53-1.89-1.17-4-3.46-4.21a18.24 18.24 0 0 0 -3.53.31l-4 .47 1.45 1.45a9.9 9.9 0 0 1 5.49-8.44c1.67-.85.2-3.35-1.46-2.51a12.85 12.85 0 0 0 -6.94 10.95 1.46 1.46 0 0 0 1.57 1.44l5.21-.61c.6-.07 1.83-.46 2.31 0s.55 1.59.7 2.14a36.87 36.87 0 0 1 1.31 9.85c0 2.55 0 5.66-1.43 7.89-1.58 2.45-4.41 1.68-6.3.05-2.21-1.9-3.49-4.8-4.39-7.51a83.14 83.14 0 0 1 -2.36-9.64 62 62 0 0 1 -1.34-10.24c-.11-3.05-.1-6.44 1.13-9.3 1.08-2.51 4-5.12 6.89-3.67s3.35 5.5 3.57 8.44c.15 1.85 3.05 1.87 2.91 0z"/><path d="m154.79 698.31a93.65 93.65 0 0 0 -1.16 16.21 1.46 1.46 0 0 0 2.91 0 88.73 88.73 0 0 1 1-15.44 1.48 1.48 0 0 0 -1-1.78 1.45 1.45 0 0 0 -1.78 1z"/><path d="m281.5 683.74c.37 8.55.07 17.11.44 25.65.08 1.86 3 1.87 2.9 0-.37-8.54-.06-17.1-.43-25.65-.09-1.86-3-1.87-2.91 0z"/><path d="m303.26 679.4c-.85 6.5.07 13.13 0 19.65a1.45 1.45 0 0 0 2.9 0c.07-6.52-.85-13.15 0-19.65.1-.78-.74-1.44-1.45-1.45a1.48 1.48 0 0 0 -1.45 1.45z"/><path d="m211.87 373.48a177.91 177.91 0 0 1 33.1-4.85c1.86-.1 1.87-3 0-2.9a181.16 181.16 0 0 0 -33.87 5c-1.81.44-1 3.24.77 2.79z"/><path d="m333.38 347.36c2.32-3.36 6.44-4.86 9.76-7 1.91-1.24 3.51-2.83 5.32-4.2a21.21 21.21 0 0 1 6.77-3c1.77-.55 1-3.35-.78-2.8a24.53 24.53 0 0 0 -7.29 3.21c-2 1.44-3.7 3.19-5.77 4.51-3.75 2.37-7.91 4.1-10.52 7.86-1.07 1.54 1.45 3 2.51 1.47z"/></g><path d="m269.45 410.73a53.09 53.09 0 0 0 31 9.22 55.16 55.16 0 0 0 8.4-.89c2.8-.5 5.47-.93 7.87.94 1.94 1.52 3.47 3.46 5.79 4.44a10.9 10.9 0 0 0 7.24.26c6.11-1.78 9.52-7.41 12.44-12.64h-2.51a19.41 19.41 0 0 0 20.2 8.46c7.74-1.73 13.54-8.61 14.55-16.35l-2.48 1a25.15 25.15 0 0 0 40.5-12.4l-2.66.35c3.56 5.52 10.25 7.85 16.62 7.27 7.32-.67 13.41-5 18-10.53a69.17 69.17 0 0 0 7.21-11l-2.28.29c5.1 5.3 13.39 6.1 20 3.55 7.66-2.94 13.06-9.6 17.27-16.38l-2.61-.32c1.1 6.8 9.29 9.5 15.25 7.81 7.84-2.22 11.62-10.84 13.79-17.93l-2.13.87c10.54 5 24.47.24 29.4-10.45.77-1.69-1.73-3.16-2.51-1.47-4.22 9.17-16.21 13.79-25.43 9.41a1.48 1.48 0 0 0 -2.13.87c-1.81 5.9-4.78 13.46-11.15 15.71-4.64 1.64-11.4-.12-12.3-5.59-.21-1.31-2.05-1.32-2.65-.35-3.72 6-8.46 12.12-15.18 14.9-5.75 2.38-13.07 2-17.57-2.66a1.46 1.46 0 0 0 -2.28.3c-4 7.38-9.19 15.5-17.34 18.8-6.48 2.63-15.39 1.78-19.46-4.53a1.47 1.47 0 0 0 -2.65.35 22.26 22.26 0 0 1 -35.66 11.1 1.48 1.48 0 0 0 -2.48 1 15.94 15.94 0 0 1 -29.33 6.43 1.47 1.47 0 0 0 -2.51 0c-2.45 4.38-5.23 9.5-10.31 11.18a7.82 7.82 0 0 1 -6.63-.47c-2-1.21-3.39-3.17-5.38-4.38-2.28-1.4-4.85-1.38-7.41-1s-5.1.88-7.71 1a50.07 50.07 0 0 1 -31.36-8.75c-1.54-1.06-3 1.46-1.46 2.51z" fill="#ff7f00"/><path d="m507.79 292.39a22.7 22.7 0 0 1 13.29 2.93 1.45 1.45 0 0 0 1.46-2.5 25.28 25.28 0 0 0 -14.75-3.33 1.48 1.48 0 0 0 -1.45 1.45 1.46 1.46 0 0 0 1.45 1.45z" fill="#1a1c1c"/><path d="m536.31 280.3a31 31 0 0 0 -4 8.7 1.45 1.45 0 1 0 2.8.77 27.49 27.49 0 0 1 3.68-8 1.46 1.46 0 0 0 -.52-2 1.49 1.49 0 0 0 -2 .52z" fill="#1a1c1c"/><path d="m230.93 849.51c0-2.75-.05-5.8 1.35-8.27 1.05-1.85 3.35-3.58 5.57-2.8 1.79.63 2.8 2.51 3.73 4a16.56 16.56 0 0 0 4 4.85 1.47 1.47 0 0 0 2.19-1.26c-.22-2.59-.5-5.34.37-7.85.68-2 2.56-4 4.79-3.89 2.4.08 3.89 2.82 4.92 4.67a24.78 24.78 0 0 1 2.68 7.57c.3 1.61 2.92 1.24 2.85-.39a29.76 29.76 0 0 1 .19-6.67c.33-1.8 1.11-4.54 3-5.37s3.65 1.59 4.42 3c1 1.86 1.84 3.81 3.48 5.22 1.41 1.21 3.47-.83 2.05-2-2-1.74-2.61-4.48-4.26-6.52s-4.26-3.45-6.82-2.32c-2.37 1-3.74 3.73-4.38 6.11a27.83 27.83 0 0 0 -.55 8.59l2.85-.38a26.92 26.92 0 0 0 -3.75-9.57c-1.57-2.46-3.78-5-7-4.8a8.27 8.27 0 0 0 -6.61 4.57c-1.59 3.12-1.38 6.72-1.1 10.1l2.19-1.25c-2-1.47-2.9-4-4.31-5.89s-3.54-3.68-6.18-3.57a8.49 8.49 0 0 0 -6.77 4.42c-1.67 2.93-1.74 6.45-1.75 9.73a1.45 1.45 0 0 0 2.9 0z" fill="#ff7f00"/><path d="m396.25 831.28a10.57 10.57 0 0 1 .64-6.28c.79-1.83 2.42-4.26 4.61-4.49 1.16-.13 2 .76 2.73 1.53s1.64 1.77 2.39 2.71a36.76 36.76 0 0 1 3.92 6.12 1.47 1.47 0 0 0 2.71-.73c.08-2.74-.64-5.44-.53-8.18.07-2 1.2-4.79 3.5-5.16a3 3 0 0 1 2.61 1.33 29.93 29.93 0 0 1 2.48 3 33.18 33.18 0 0 1 3.82 7 1.45 1.45 0 0 0 2.8-.77 30.54 30.54 0 0 1 -.43-7.21c.11-1.75.7-3.07 2.61-3.21 4-.31 5.57 4.35 6.57 7.38.59 1.76 3.39 1 2.8-.77-1.53-4.6-4.2-10.23-10-9.45-6.47.87-5.15 9.47-4.34 14l2.8-.77a35.83 35.83 0 0 0 -5-8.87c-1.76-2.27-3.9-5.08-7.12-4.6-2.79.42-5 3-5.68 5.6-1 3.46.3 7.1.19 10.61l2.71-.73a40.46 40.46 0 0 0 -5.19-7.7c-1.94-2.26-4.21-4.79-7.5-3.93-2.75.71-4.85 3.25-6 5.75a13.79 13.79 0 0 0 -.93 8.52c.37 1.83 3.17 1.06 2.8-.77z" fill="#ff7f00"/><g fill="#fff"><path d="m700.18 580.75c11.66-2.68 18.27-13.28 23.44-23.15 1.16-2.22 2.58-4.88 5-6a4.43 4.43 0 0 1 5.73 6.28 5.56 5.56 0 0 1 -1.35 1.47c-.28.24-.49.13-.15.29-.29-.14-.52-1.15-.62-1.42a12.24 12.24 0 0 1 7.29-15.61c3.81-1.42 7.89-.63 11.73.23 1.82.4 2.59-2.39.77-2.8-4.1-.92-8.45-1.73-12.57-.46a15.7 15.7 0 0 0 -8.22 6 15.13 15.13 0 0 0 -2.43 10.61 11.7 11.7 0 0 0 1.71 5.14c1.18 1.6 3.16 1.14 4.53.07a7.34 7.34 0 0 0 -6-13c-3.25.64-5.48 3.39-7.07 6.1-1.75 3-3.15 6.15-5 9.08-4.13 6.52-9.79 12.52-17.56 14.31-1.82.42-1 3.22.77 2.8z"/><path d="m764.84 535.79a21.59 21.59 0 0 0 .43 7.43 1.45 1.45 0 0 0 1.78 1 1.48 1.48 0 0 0 1-1.78q-.2-.86-.33-1.71c0 .31 0-.08 0-.14s0-.31-.05-.47 0-.58-.06-.87a20.11 20.11 0 0 1 .12-3.47 1.46 1.46 0 0 0 -1.45-1.45 1.48 1.48 0 0 0 -1.45 1.45z"/><path d="m774.62 532a63.88 63.88 0 0 0 1.38 12.86 1.46 1.46 0 0 0 1.78 1 1.48 1.48 0 0 0 1-1.78 59.84 59.84 0 0 1 -1.26-12.08 1.45 1.45 0 0 0 -2.9 0z"/><path d="m786.22 538.71a145.45 145.45 0 0 0 22.54-2c1.84-.31 1.06-3.11-.77-2.8a140.52 140.52 0 0 1 -21.77 1.89 1.45 1.45 0 0 0 0 2.9z"/></g><g fill="#ff7f00"><path d="m65 629.21a25 25 0 0 1 7.36-17.6 1.45 1.45 0 0 0 -2-2.05 27.87 27.87 0 0 0 -8.21 19.65 1.45 1.45 0 0 0 2.9 0z"/><path d="m82.33 644.59a34.92 34.92 0 0 1 11.89-26.48c1.41-1.23-.65-3.28-2-2.05a37.81 37.81 0 0 0 -12.75 28.53 1.46 1.46 0 0 0 2.91 0z"/><path d="m116 623.44a32.86 32.86 0 0 0 -4.11 29.7c.62 1.74 3.43 1 2.8-.78a30.14 30.14 0 0 1 3.82-27.46c1.08-1.52-1.43-3-2.51-1.46z"/><path d="m139.29 621.48a29.74 29.74 0 0 0 12.27 29.23c1.54 1.06 3-1.45 1.46-2.51a26.71 26.71 0 0 1 -10.93-26c.31-1.82-2.48-2.61-2.8-.77z"/><path d="m161.2 627.41a1.45 1.45 0 0 0 0-2.9 1.45 1.45 0 0 0 0 2.9z"/><path d="m162.23 610.79.77-.79a1.12 1.12 0 0 0 .3-.47 1.07 1.07 0 0 0 .12-.56 1 1 0 0 0 -.12-.55 1.12 1.12 0 0 0 -.3-.47l-.3-.23a1.43 1.43 0 0 0 -.73-.2h-.38a1.44 1.44 0 0 0 -.64.38l-.81.81a1.68 1.68 0 0 0 -.43 1 1 1 0 0 0 .13.56 1 1 0 0 0 .3.47l.29.23a1.57 1.57 0 0 0 .73.2l.39-.06a1.48 1.48 0 0 0 .64-.37z"/><path d="m170.92 622.55a1.45 1.45 0 0 0 0-2.9 1.45 1.45 0 0 0 0 2.9z"/><path d="m175 609.6a1.46 1.46 0 0 0 0-2.91 1.46 1.46 0 0 0 0 2.91z"/><path d="m169.32 585.19a18.44 18.44 0 0 0 10.51 3.28 1.45 1.45 0 1 0 0-2.9 15.63 15.63 0 0 1 -9.05-2.89 1.45 1.45 0 0 0 -2 .52 1.47 1.47 0 0 0 .52 2z"/><path d="m175.05 562.41a23.28 23.28 0 0 0 8.83 2.67 1.46 1.46 0 0 0 1.45-1.45 1.48 1.48 0 0 0 -1.45-1.45l-.58-.07c-.34 0 .13 0-.18 0s-.67-.11-1-.18a18.26 18.26 0 0 1 -2-.51 18.7 18.7 0 0 1 -1.9-.68c-.09 0-.09 0 0 0l-.26-.12-.46-.21-1-.5a1.45 1.45 0 0 0 -1.47 2.51z"/><path d="m175.35 536.76 8.93 3.2a1.45 1.45 0 0 0 1.78-1 1.47 1.47 0 0 0 -1-1.78l-8.92-3.2a1.45 1.45 0 0 0 -.78 2.8z"/><path d="m180.23 510.9 4.86.79a1.55 1.55 0 0 0 1.12-.14 1.44 1.44 0 0 0 .66-.87 1.46 1.46 0 0 0 -.14-1.12 1.4 1.4 0 0 0 -.87-.67l-4.86-.78a1.55 1.55 0 0 0 -1.12.14 1.45 1.45 0 0 0 -.52 2 1.35 1.35 0 0 0 .87.66z"/><path d="m179 487.29a1.45 1.45 0 0 0 0-2.9 1.45 1.45 0 0 0 0 2.9z"/><path d="m84.09 191.39a54.6 54.6 0 0 0 -20.17 32.31 56.08 56.08 0 0 0 -.71 19.3c.89 6.39 2.89 13 6.63 18.36a19.24 19.24 0 0 0 7.26 6.56 14.35 14.35 0 0 0 10.41.63 38.25 38.25 0 0 0 10.24-5.55c2.65-1.84 5.57-4.39 5.24-8-.28-2.93-2.69-5.63-5.83-4.78s-4.37 4.54-5.13 7.33c-2.33 8.46-4.28 17.11-4.62 25.91-.55 14.3 4 29.63 15.83 38.51a30.75 30.75 0 0 0 4.41 2.72c1.66.85 3.13-1.65 1.46-2.5-11.17-5.7-17.32-18-18.55-30.13a76.3 76.3 0 0 1 1.73-23.43c.79-3.77 1.72-7.53 2.79-11.24.41-1.4 2.37-6.32 4.43-3.8s-.81 5.1-2.6 6.41a38.91 38.91 0 0 1 -9.17 5.36 11.81 11.81 0 0 1 -9.17 0 16.28 16.28 0 0 1 -6.33-5.66c-3.31-4.78-5.12-10.6-6-16.3a51.75 51.75 0 0 1 .16-17.07c2.21-12.66 8.87-24.67 19.2-32.47 1.47-1.11 0-3.64-1.46-2.51z"/><path d="m24.27 352.42a291.53 291.53 0 0 0 50.56 26.73q7.58 3.09 15.33 5.76c1.77.61 2.53-2.19.77-2.79a287.84 287.84 0 0 1 -51.49-23.66q-7-4.08-13.71-8.55c-1.56-1-3 1.48-1.46 2.51z"/><path d="m175.58 185.65a495.7 495.7 0 0 0 12.69 48.23c1.43 4.52 2.94 9 4.5 13.49.61 1.75 3.42 1 2.8-.77a494.71 494.71 0 0 1 -14.07-47.85c-1.11-4.61-2.14-9.24-3.12-13.88-.38-1.82-3.18-1.05-2.8.78z"/><path d="m272.53 161.05-1.26 52.89-.36 15.14c0 1.87 2.86 1.87 2.9 0l1.26-52.89.36-15.14c.05-1.87-2.85-1.87-2.9 0z"/><path d="m370.2 145.67c4.46-3.78 11.19-3 15.83 0 5.26 3.42 7.76 9.95 8.36 16a40.81 40.81 0 0 1 -3.13 19.67 43.45 43.45 0 0 1 -4.95 8.73c-1.88 2.58-4.18 5.24-7.28 6.35-2.39.86-5.47.1-5.8-2.8-.28-2.5 1.33-5.13 2.85-7a31.93 31.93 0 0 1 17-9.36 15.17 15.17 0 0 1 14.92 6.82 28.32 28.32 0 0 1 4.39 15.9 44.9 44.9 0 0 1 -19.29 36.1c-1.54 1-.09 3.56 1.46 2.5a48.09 48.09 0 0 0 20.66-36.3c.4-6.46-.78-13.24-4.18-18.82-3.53-5.82-9.55-9.57-16.48-9.22a27.34 27.34 0 0 0 -11.2 3.36 31.63 31.63 0 0 0 -8.85 6.44 15.17 15.17 0 0 0 -4.15 8.4 6.62 6.62 0 0 0 4.5 6.93c3.31 1.14 6.83-.67 9.36-2.71a31.91 31.91 0 0 0 7.12-9 45.38 45.38 0 0 0 6.15-22.11c.06-7.2-1.89-14.86-7.11-20.08-4.54-4.54-12-6.68-18.11-4.31a14 14 0 0 0 -4.1 2.45c-1.43 1.21.64 3.26 2.05 2z"/><path d="m497.56 181.72a339.34 339.34 0 0 1 -17.67 48.28c-.77 1.68 1.73 3.16 2.5 1.46a343.46 343.46 0 0 0 18-48.94 1.45 1.45 0 0 0 -2.8-.77z"/><path d="m550.25 691.55q33.79-.4 67.48-3.52 9.49-.87 19-2c1.83-.22 1.85-3.12 0-2.91q-33.57 3.89-67.38 5.06-9.52.33-19.06.44a1.45 1.45 0 0 0 0 2.9z"/><path d="m576.17 724.61 38.88-4.32c1.84-.2 1.86-3.11 0-2.9l-38.88 4.32c-1.83.2-1.85 3.11 0 2.9z"/></g><g fill="#1a1c1c"><path d="m299.62 636.53c7.73 4.6 21.27 12 29.19 16.28l28.84 15.47c11.24 6 46.45 36.94 58.51 41.11 7.73 2.67-4.76-12.19 1.63-7.08-2.19-10.19-5.85-36.24-11.16-49.34q-17.58-.36-35.08-2.09c-5.94-.58-11.86-1.28-17.79-2l-11.51-1.35c-10.37-1.23-20.8-2.46-30.78-5.53"/><path d="m298.89 637.79c11.78 7 23.89 13.43 36 19.91 7.52 4 15.13 7.92 22.56 12.11a90.29 90.29 0 0 1 9.18 6.23c8.69 6.41 17.11 13.17 25.73 19.66 4.14 3.12 8.31 6.2 12.62 9.08a57 57 0 0 0 9.9 5.65c1.27.52 3 1.16 4.26.38s1.26-2.33.9-3.59a22.37 22.37 0 0 0 -1.75-4c-.27-.53-.55-1.06-.79-1.61-.12-.26.08.22 0 0 0 0-.07-.26-.1-.27-.26-.09.24 0 0 0 .2 0-.53 1-.3.64-.34.58-.46.69-1.09.72-.26 0-.34-.15.06.11s.52.36.77.56a1.47 1.47 0 0 0 2.42-1.42c-2.78-13-4.48-26.16-7.87-39a86.42 86.42 0 0 0 -3.39-10.36 1.53 1.53 0 0 0 -1.4-1.07q-18.94-.4-37.8-2.36c-12.35-1.28-24.74-2.65-37-4.37a131.41 131.41 0 0 1 -19.93-4.17c-1.79-.54-2.56 2.26-.77 2.8 11.67 3.55 23.89 4.72 36 6.14 12.58 1.49 25.17 3 37.82 3.89q10.86.75 21.76 1l-1.4-1.06a120.28 120.28 0 0 1 5.48 19.56c1.49 7 2.74 14 4 21 .54 2.94 1.06 5.88 1.68 8.81l2.43-1.42c-1-.78-2.67-2.28-3.91-1-1 1-.17 2.43.32 3.44s1.34 2.55 1.7 3.51c.11.28.21.56.29.84l.09.36c.08.38 0-.18 0 .16s0 .13.05 0 .34-.41.46-.3c-.14-.13-.41 0-.65-.08-.4-.11-.79-.24-1.17-.38-.54-.21-1.13-.48-1.79-.81-1.64-.83-3.23-1.77-4.78-2.74-4.13-2.59-8.1-5.44-12-8.33-8.88-6.56-17.5-13.46-26.32-20.1-3.36-2.54-6.74-5.08-10.29-7.34-2.06-1.31-4.23-2.41-6.37-3.56l-12-6.45c-12.85-6.89-25.74-13.73-38.38-21-1.23-.71-2.47-1.43-3.69-2.16a1.46 1.46 0 0 0 -1.47 2.51z"/></g></svg>