<svg viewBox="0 0 1000 1000" xmlns="http://www.w3.org/2000/svg"><g fill="#1a1c1c"><path d="m680.37 426.07q28.14-17.31 57.13-33.2c23.19-12.71 47.2-25.05 65.59-44.05 3.27-3.38 6.42-7.09 7.84-11.57 1.17-3.7 1.08-7.66 1-11.53l-.35-12.84a11.53 11.53 0 0 0 -1.09-5.59c-2.52-4.32-8.89-3.61-13.69-2.22a325 325 0 0 0 -87.14 40.1c-22.12 14.49-42.38 31.63-62.14 49.2"/><path d="m681.22 427.54c22.78-14 46-27.06 69.47-39.94a344.88 344.88 0 0 0 31.24-18.86 169.15 169.15 0 0 0 14.24-11 86.45 86.45 0 0 0 12.51-12.74 24.12 24.12 0 0 0 4-7.72 33.19 33.19 0 0 0 .95-9.68c-.06-3.42-.18-6.84-.27-10.25-.08-3 .25-6.48-.76-9.38-1.73-4.95-6.93-6.07-11.61-5.48a47.58 47.58 0 0 0 -7.71 1.86q-4.54 1.37-9 2.87a326.78 326.78 0 0 0 -68.6 32.14c-22.16 13.72-42.43 30.2-62 47.34q-3.69 3.22-7.35 6.49c-1.64 1.45.77 3.85 2.4 2.4 19-16.9 38.46-33.4 59.66-47.52a323 323 0 0 1 65.5-33.57q8.58-3.23 17.32-5.94c2.73-.86 5.48-1.8 8.29-2.39a14.59 14.59 0 0 1 6.27-.22 4.93 4.93 0 0 1 4 4.31c.5 3.09.28 6.42.36 9.55.16 6.15 1.18 13.15-1.49 18.91-2.37 5.11-6.77 9.19-10.81 13a144.65 144.65 0 0 1 -13.35 11.1 281 281 0 0 1 -29.93 18.82c-10.72 6-21.56 11.78-32.26 17.82q-17.36 9.8-34.4 20.1-4.17 2.52-8.3 5.06c-1.86 1.15-.16 4.09 1.71 2.94z"/><path d="m496.21 360.25a824.66 824.66 0 0 1 54.16-93.25c2.34-3.5 4.58-7.18 7.57-10.17a20.07 20.07 0 0 1 10.7-5.38c8.31-1.56 17.32.1 25.61 1.11a506.17 506.17 0 0 1 54.94 9.88c36.27 8.49 71.65 20.4 106.44 33.63 17.47 6.64 34.8 13.62 52.09 20.7 8.5 3.49 17.09 6.82 25.49 10.54a34.87 34.87 0 0 1 10.33 6.34 19.52 19.52 0 0 1 5.4 9.7c1.94 8.13-.52 16.42-4.33 23.61-4.37 8.22-10.11 15.75-15.35 23.41l-33.32 48.63-8.38 12.24c-1.24 1.8 1.71 3.5 2.94 1.71l34.71-50.69c5.62-8.21 11.33-16.38 16.86-24.65 4.83-7.22 9.4-15 10.6-23.77 1-7.52-.41-15.56-5.55-21.38-5.57-6.32-14.31-9-21.86-12.14-17.68-7.29-35.36-14.56-53.16-21.54-35.72-14-72-26.91-109.14-36.48a548.43 548.43 0 0 0 -55.77-11.42c-9.12-1.35-18.32-2.63-27.52-3.23-8-.51-16.48.16-22.84 5.57-3.27 2.78-5.65 6.47-8 10q-3.72 5.55-7.35 11.15-7.55 11.64-14.74 23.51c-9.71 16-19 32.35-27.58 49q-3 5.77-5.85 11.6c-1 2 2 3.68 2.93 1.72z"/></g><path d="m784.9 448.47c-5.68-7.42-15.23-10.51-24.18-13.18l-231.83-69.39c-10.55-3.16-21.27-6.34-32.29-6.51-10.11-.16-20.06 2.24-29.86 4.73a1341.67 1341.67 0 0 0 -235.35 83.88c-5.18 2.41-10.59 5.05-13.87 9.74-3.65 5.23-4 12-4.19 18.38-1.67 51.51-8 111.59-11.79 167.14q-4.17 60.27-12.75 120.1-1.09 7.56-2.17 15.13c-.72 5-1.35 10.39 1.15 14.75 2 3.49 5.68 5.65 9.19 7.63a1458.06 1458.06 0 0 0 296.23 126c6.32 1.9 12.79 3.77 19.37 3.44 6.74-.33 13.14-2.94 19.37-5.54a1903.48 1903.48 0 0 0 198.92-97.21c8.09-4.55 16.44-9.43 21.58-17.16s6.45-17.4 7.57-26.66q18.25-151.63 30.14-303.93c.86-10.81 1.34-22.72-5.24-31.34z" fill="#fff"/><g fill="#1a1c1c"><path d="m786.1 447.27c-8.33-10.46-23.2-13.1-35.31-16.73l-49-14.67-96.88-29-48.44-14.49-24.82-7.38c-7.69-2.3-15.38-4.7-23.3-6.07-16-2.78-31.05.76-46.47 4.73s-30.77 8.23-46 12.76a1343.22 1343.22 0 0 0 -178.09 66.82c-6.2 2.84-13 5.36-18.26 9.87-4.86 4.19-6.8 10.08-7.47 16.29-.77 7-.65 14.23-1 21.3q-.53 11.25-1.24 22.5c-2 31.46-4.75 62.87-7.27 94.3-2.61 32.6-4.68 65.22-8.16 97.75q-2.73 25.34-6.23 50.59c-1.09 7.9-2.32 15.78-3.37 23.69-.86 6.41-.84 13 4.06 17.83s12.1 7.74 18 11q10.3 5.68 20.69 11.21 20.76 11 41.89 21.39 41.94 20.57 85.12 38.43 43.74 18.09 88.57 33.32 22.28 7.56 44.79 14.4c7.13 2.17 14.39 4.7 21.9 5 7.94.29 15.36-2.61 22.56-5.61a1894.36 1894.36 0 0 0 174.1-83.5q10.63-5.79 21.21-11.7c6-3.33 12-6.57 17.42-10.78a37.58 37.58 0 0 0 11.8-14.89c2.69-6.32 3.7-13.14 4.55-19.91 4.13-33.15 7.78-66.37 11.32-99.58q10.68-100 18.59-200.37c1-12.68 3-27.21-5-38.17-1.27-1.74-4.22-.05-2.93 1.72 8.49 11.58 5.21 27.94 4.15 41.23q-2 24.48-4.06 48.94-4.21 48.93-9.1 97.8t-10.42 97.71q-2.78 24.4-5.7 48.78c-.82 6.78-1.69 13.72-4.3 20.09-2.83 6.92-8 12.12-14.08 16.29-5.73 3.91-11.93 7.14-18 10.5q-10.59 5.89-21.25 11.65-20.55 11.1-41.38 21.7-41.91 21.31-84.83 40.55c-14.6 6.54-29.27 12.94-44 19.06-7.51 3.12-15.09 5.8-23.34 4.86-7.5-.85-14.84-3.58-22-5.79q-43.9-13.47-86.9-29.69a1456.24 1456.24 0 0 1 -167.92-75.84q-9.9-5.25-19.71-10.65-4.9-2.7-9.79-5.44c-3.24-1.81-6.84-3.48-9.51-6.12-5.74-5.7-3.16-14.75-2.15-21.8 1.15-8 2.3-16 3.37-24q6.49-48.3 10.13-96.93 3.36-46.22 7.17-92.36c1.21-15.2 2.37-30.41 3.33-45.62.9-14.3 1.06-28.68 2.11-43 .58-7.85 3.24-14.11 10.16-18.31 6-3.67 12.82-6.3 19.24-9.21q21.56-9.72 43.44-18.72 43.14-17.72 87.43-32.42t89.48-26.26c7.74-2 15.53-4 23.49-4.85a74.33 74.33 0 0 1 24.51 1.82c15.52 3.56 30.74 8.83 46 13.4l188.58 56.44c6.85 2.05 13.81 3.87 20.53 6.33 6 2.18 11.57 5.16 15.59 10.21 1.36 1.71 3.75-.67 2.4-2.4z"/><path d="m215.1 469.42c-22.51-29.38-47.61-56.71-72.4-84.16-5.82-6.44-12.49-13-15.67-21.25a18.25 18.25 0 0 1 -.7-12.21 19.17 19.17 0 0 1 6.33-8.69c6.35-5.26 14.66-8.1 22.17-11.22q13.69-5.7 27.52-11a1127.7 1127.7 0 0 1 112.65-36.76c19-5.12 38.21-9.81 57.5-13.87 9.31-2 18.82-3.63 28.37-3a48.06 48.06 0 0 1 25 9c7.07 5 13.09 11.31 19.13 17.45 6.53 6.61 12.94 13.33 19.39 20 13 13.46 26.1 26.85 40.53 38.77q5.26 4.35 10.75 8.41c1.76 1.3 3.46-1.65 1.72-2.94-15.43-11.4-29.27-24.78-42.67-38.47-6.7-6.84-13.29-13.78-20-20.66-6.28-6.49-12.5-13.12-19.24-19.14-6.43-5.75-13.59-10.81-21.86-13.5-9.1-3-18.87-2.85-28.26-1.62-9.73 1.28-19.32 3.59-28.88 5.77q-14.79 3.39-29.5 7.15a1131.8 1131.8 0 0 0 -115.76 36.37q-14.21 5.32-28.27 11c-8.47 3.44-17.23 6.63-25.31 10.92-6.46 3.43-12.74 8.32-14.85 15.63-2.45 8.45 1.59 16.85 6.51 23.55 5.32 7.22 11.75 13.68 17.76 20.33q9.62 10.65 19.15 21.33c12.8 14.38 25.44 28.9 37.5 43.91q4.23 5.26 8.34 10.62c1.31 1.71 4.26 0 2.93-1.72z"/><path d="m760.72 435.29-231.83-69.39c-10.55-3.16-21.27-6.34-32.29-6.51h-1.86q-29.58 270.11-59.15 540.21c-.31 2.8-.61 5.65-.64 8.47q28.92 10 58.24 18.82c6.32 1.9 12.79 3.77 19.37 3.44 6.74-.33 13.14-2.94 19.37-5.54a1903.48 1903.48 0 0 0 198.92-97.21c8.09-4.55 16.44-9.43 21.58-17.16s6.45-17.42 7.57-26.68q18.25-151.63 30.14-303.93c.84-10.81 1.35-22.72-5.23-31.34-5.69-7.42-15.24-10.47-24.19-13.18z"/><path d="m761.17 433.65-210-62.84c-9.67-2.9-19.33-5.9-29-8.66-8.95-2.53-18.08-4.53-27.43-4.46a1.75 1.75 0 0 0 -1.7 1.7q-11.75 107.25-23.48 214.5l-23.49 214.49q-3.3 30.07-6.59 60.15l-3.23 29.47c-1.09 9.94-2.78 20-3 30a1.74 1.74 0 0 0 1.24 1.64q18.15 6.27 36.44 12.09 9 2.87 18.07 5.61c5.94 1.8 11.9 3.75 18.09 4.43 12 1.32 23-4.44 33.73-9q17.32-7.35 34.52-15 68.22-30.52 133.93-66.35c10.46-5.71 21.29-11.15 31.26-17.7 8.77-5.76 15.26-13.14 18.22-23.35 3.27-11.33 3.77-23.64 5.15-35.3q2.28-19.44 4.47-38.91 8.68-77.29 15.71-154.76 3.52-38.73 6.62-77.5c.88-11.07 2.77-22.72.85-33.77-1.71-9.87-7.72-17.24-16.67-21.56a92.5 92.5 0 0 0 -13.72-5c-2.1-.63-3 2.65-.9 3.27 9.43 2.84 20.06 6.17 25.1 15.39 5.16 9.45 3.55 21.2 2.75 31.46q-2.94 37.37-6.26 74.68-6.65 75.01-14.85 149.79-4.11 37.53-8.63 75c-1.32 11-2.9 22.4-10.89 30.7-7.54 7.82-18.1 12.63-27.48 17.84q-63.22 35.1-129 65.3-16.35 7.51-32.86 14.73c-11.25 4.93-22.52 10.27-34.14 14.37a37.44 37.44 0 0 1 -18.62 2.11c-6-1-11.82-3-17.6-4.73q-17.57-5.34-35-11.14-8.7-2.91-17.38-5.91l1.24 1.64c.2-8.88 1.66-17.8 2.62-26.62l3-27.24q2.91-26.67 5.84-53.34 5.83-53.34 11.68-106.68l23.49-214.5 13.17-120.3-1.7 1.7c17.48-.14 34.66 6.74 51.2 11.68l51.39 15.39 103.89 31.09 59 17.67c2.15.63 3.04-2.65.95-3.27z"/></g><path d="m295.72 575.53c-1.18-25 22.21-43.35 43.12-57.1l68.68-45.17c15.88-10.45 32.39-21.57 41.37-38.32 9.14-17.06 9.08-37.38 8.8-56.73q-.69-48.31-1.39-96.62c-.62-42.9-.11-89.42 26-123.48 28.5-37.21 78.8-48.43 124.86-57.11l138.9-26.28c22.81-4.32 47-8.54 68.73-.53 34.9 12.83 51.62 51.72 63.59 86.93 8.14 23.92 15.88 49.95 8.16 74-5.07 15.77-16.27 28.78-27.95 40.53-58.24 58.6-133.49 96.55-201.3 143.75-7.79 5.42-15.59 11.07-21.62 18.4-11.18 13.61-15.2 31.77-16.17 49.34-2 35.6 7.14 71.38 2.69 106.75a142.27 142.27 0 0 1 -56.19 95.69c-20.69 15.21-45.08 24.42-67.47 37" fill="#fff"/><path d="m297.42 575.53c-.9-25.62 23.18-43 42.28-55.63 26.34-17.37 53.19-34.13 79.08-52.16 10.12-7.05 19.92-14.9 27.2-25 7.85-10.88 11.4-23.8 12.72-37 1.46-14.68.66-29.58.45-44.3l-.69-47.66c-.41-28.34-1.86-57 1-85.24 2.63-26.14 9.81-52.61 27.09-73 33.22-39.25 89.44-46.95 137-55.95l94.94-18c15.37-2.91 30.73-6.19 46.22-8.47 14.93-2.2 30.52-3.08 45.18 1.17 23.28 6.79 39.22 25.97 50.11 46.71a253 253 0 0 1 14 32.64c4.83 13.48 9.51 27.19 12.16 41.29 2.84 15.14 2.84 31-3.36 45.37-5.41 12.49-14.45 23-23.88 32.61-19.79 20.2-41.85 38.05-64.79 54.54-45.71 32.85-95.09 60.17-141 92.78-11 7.84-20.85 16.7-26.75 29.1-5.46 11.47-7.76 24.16-8.55 36.76-2 31.43 4.93 62.62 3.73 94.05a141.71 141.71 0 0 1 -24.72 75 139.28 139.28 0 0 1 -25.68 28.19c-11 9.13-23.43 16.21-36.1 22.68-12.48 6.38-25.21 12.24-37.45 19.08-1.91 1.07-.2 4 1.72 2.93 25-14 52.44-24 74.62-42.61a144.68 144.68 0 0 0 43.05-62.41c10-28.21 8.56-57.48 6.09-86.82-2.43-28.75-6.56-62 7.9-88.41 7.26-13.29 19.57-21.75 31.77-30.13 11.79-8.09 23.76-15.92 35.8-23.63 24.09-15.45 48.47-30.46 72.27-46.37 23.6-15.78 46.67-32.48 68-51.22 10.69-9.37 21.22-19.15 30.56-29.89 8.75-10 16.36-21.4 19.72-34.43 7.23-28-3.85-57.79-13.52-83.8-8-21.64-18.17-43.84-35.21-60a73 73 0 0 0 -29.66-17.3c-14.15-4.11-29.12-3.58-43.58-1.65-15.36 2-30.58 5.34-45.8 8.22l-48.34 9.21c-30 5.68-60.18 10.78-90 17.32-24.19 5.31-48.62 12.25-70 25.05s-37.66 31.31-46.79 54.47c-9.78 24.79-11.49 52-11.66 78.42-.2 31.42.75 62.86 1.2 94.27.22 15.14 1 30.42-.05 45.54-1 14.32-4.47 28.37-13.19 40-8.13 10.88-19.39 19-30.57 26.46-13.47 9-27.09 17.84-40.64 26.75-13.22 8.7-26.65 17.15-39.65 26.19-9.81 6.83-19.41 14.41-26.78 23.9-6.87 8.85-11.24 19.12-10.87 30.38.08 2.18 3.47 2.19 3.4 0z" fill="#1a1c1c"/><path d="m531.14 575.25c-6.22 2.61-12.62 5.22-19.36 5.55-6.59.32-13.06-1.55-19.37-3.44-103-30.91-176-46.89-269.72-99.66-3.44-1.94-7-4.05-9.05-7.42-.18 1.94-.25 3.91-.31 5.83-1.67 51.51-8 111.59-11.79 167.14q-4.17 60.27-12.75 120.1-1.09 7.56-2.17 15.13c-.72 5-1.35 10.39 1.15 14.75 2 3.49 5.68 5.65 9.19 7.63a1458.06 1458.06 0 0 0 296.23 126c6.32 1.9 12.79 3.77 19.37 3.44 6.74-.33 13.14-2.94 19.37-5.54a1903.48 1903.48 0 0 0 198.92-97.21c8.09-4.55 16.44-9.43 21.58-17.16s6.45-17.39 7.57-26.65q18.25-151.63 30.14-303.93c.66-8.55 1.11-17.79-2-25.54-87.62 43.73-207.98 100.47-257 120.98z" fill="#ff7f00"/><g fill="#1a1c1c"><path d="m530.69 573.62c-5.87 2.45-11.93 5-18.35 5.44-6.12.42-12.09-1.15-17.9-2.87-11.28-3.33-22.56-6.7-33.86-10-20.72-6-41.47-12-62.14-18.18-39.68-11.95-78.95-25.24-116.75-42.3q-16.83-7.61-33.24-16.06-8.88-4.57-17.63-9.38c-5.28-2.9-12.29-5.63-15.72-10.86a1.71 1.71 0 0 0 -3.16.86c-.81 10.11-.85 20.32-1.4 30.45q-.85 15.57-2 31.11c-1.53 21.25-3.31 42.49-5.05 63.72-3.61 44.32-6.41 88.66-11.78 132.81q-2.06 17-4.48 33.93c-.8 5.58-1.64 11.15-2.4 16.73-.58 4.25-1 8.73.45 12.85 1.42 3.92 4.54 6.63 8 8.78 4.24 2.65 8.72 5 13.1 7.39q14 7.73 28.11 15.14 56 29.35 114.4 53.79 58.64 24.56 119.25 43.93c10.09 3.22 20.2 6.61 30.44 9.29a45.19 45.19 0 0 0 15.1 1.81 51.91 51.91 0 0 0 14.52-3.82c20.12-7.94 39.88-16.95 59.56-25.92q59.57-27.16 117.18-58.39c9.53-5.16 19-10.37 28.44-15.73 7.44-4.23 14.94-8.93 20-16 5.34-7.53 6.89-16.88 8-25.84 1.4-11.13 2.66-22.28 4-33.42q7.83-67.51 14.41-135.18t11.85-135.5c.74-9.47 1.57-19.31-1.86-28.38a1.73 1.73 0 0 0 -2.49-1q-55.35 27.6-111.2 54.14c-34.44 16.41-69 32.64-103.73 48.36-13.83 6.25-27.68 12.45-41.67 18.32-2 .83-1.11 4.12.91 3.27 28.19-11.81 55.94-24.69 83.66-37.57q56.28-26.17 112.11-53.34 30.89-15 61.63-30.29l-2.49-1c3.61 9.54 2.32 19.94 1.54 29.87q-1.29 16.41-2.65 32.83-2.76 33.12-5.82 66.22-6.12 66.2-13.44 132.27-3.71 33.35-7.7 66.64c-1.13 9.37-2.2 19.45-7.74 27.41-5.43 7.8-14.13 12.46-22.22 17q-55.83 31.37-113.68 58.92-28.9 13.77-58.26 26.57c-9.87 4.3-19.74 8.72-29.77 12.62-5.08 2-10.35 3.62-15.85 3.6s-10.59-1.44-15.69-2.94c-39.73-11.72-78.91-25.43-117.44-40.63q-58.14-22.94-114.17-50.82-27.83-13.85-55-28.88c-4.41-2.43-8.9-4.78-13.2-7.41-4.77-2.92-7.66-6.63-7.7-12.4 0-5.32 1.16-10.71 1.91-16s1.52-10.59 2.25-15.89c5.95-43.38 9.52-86.88 12.86-130.52 3.17-41.35 7.12-82.66 9.32-124.08.51-9.6.55-19.27 1.32-28.85l-3.17.86c2.82 4.29 7.24 6.67 11.61 9.12q7.88 4.41 15.86 8.63 15.42 8.16 31.22 15.57c19.35 9.07 39.12 17.23 59.17 24.61 40.54 14.91 82.16 26.6 123.61 38.65q19.15 5.6 38.32 11.32c6.42 1.92 13 3.82 19.82 3.5 7-.33 13.47-3 19.82-5.61 1.94-.83 1.07-4.12-.95-3.27z"/><path d="m516.05 579.33c-1.18 45.55-2 91.1-2.8 136.65-.77 45.33-1.46 90.67-2.34 136q-.75 38.61-1.73 77.21c-.06 2.19 3.34 2.19 3.39 0 1.19-45.54 2-91.1 2.81-136.65.76-45.33 1.45-90.67 2.34-136q.75-38.61 1.73-77.21c.06-2.18-3.34-2.18-3.4 0z"/><path d="m212.78 468.81c-37.5 23.11-74.2 48-105.63 79q-6.12 6-11.94 12.36c-3.09 3.36-6.72 7.24-5.83 12.2.84 4.68 5.06 7.72 8.68 10.29q6.9 4.92 13.81 9.81c18.89 13.39 37.84 26.7 57 39.62 38.28 25.75 77.67 50.06 119.28 70.08q15.41 7.41 31.18 14c10.6 4.4 21.4 9 32.44 12.15 5.31 1.51 10.88 2.43 16.36 1.47 5.29-.92 9.73-3.89 13.62-7.46 8.54-7.83 16.36-16.59 24.41-24.91 33.67-34.76 67-69.87 100.72-104.57q6-6.18 12-12.33c1.53-1.56-.87-4-2.4-2.4-32.82 33.54-65.15 67.55-97.71 101.34q-12.18 12.63-24.4 25.22c-4 4.08-7.93 8.17-11.93 12.22-3.84 3.88-8 7.77-13.4 9.22s-11.37.39-16.76-1.19-10.49-3.56-15.65-5.52q-15.94-6-31.49-13c-40.85-18.41-79.63-41.18-117.14-65.69-18.74-12.25-37.18-24.94-55.51-37.8q-13.88-9.75-27.7-19.58c-3.82-2.72-9.51-5.55-11.58-10-2.42-5.2 3.82-10.13 7-13.48 29.49-31.34 64.4-56.65 100.64-79.58q6.83-4.3 13.68-8.53c1.86-1.15.16-4.09-1.71-2.94z"/><path d="m516.55 580.53c27 24.61 48.17 54.57 69.66 83.87 5.26 7.18 10.55 14.33 16 21.38 5.11 6.65 10.73 13.34 19.62 14.26 4.62.48 9.28-.57 13.69-1.87 4.57-1.34 9.09-2.89 13.61-4.42q12.93-4.37 25.66-9.29a655.78 655.78 0 0 0 99.21-48.22q23.82-14.16 46.38-30.33c6.84-4.9 14.63-9.75 18.74-17.36 4-7.32 4-15.85 2.55-23.86-1.56-8.55-4.88-16.68-8-24.74q-5.11-13.05-10.8-25.86a417.75 417.75 0 0 0 -25.68-49q-3.66-5.92-7.54-11.71c-1.21-1.8-4.16-.11-2.93 1.72a387.69 387.69 0 0 1 27 47.26 478.33 478.33 0 0 1 21.18 50.26c2.7 7.71 4.92 15.94 4.23 24.18a25.36 25.36 0 0 1 -3.64 11.32 35.49 35.49 0 0 1 -8.84 9 530.86 530.86 0 0 1 -44.82 30.37 650.33 650.33 0 0 1 -96.28 49 536.7 536.7 0 0 1 -50.9 18.33c-4.31 1.27-8.94 2.38-13.46 1.65-4.24-.68-7.72-3.1-10.66-6.12a101.55 101.55 0 0 1 -8-9.88q-4-5.31-8-10.67c-21-28.42-41.19-57.8-66.24-82.91q-4.53-4.53-9.25-8.84c-1.61-1.47-4 .93-2.4 2.4z"/></g><g fill="#fff"><path d="m557.79 811.56c4.49-3.46 9.14-7.21 11.8-12.34 1.26-2.43 2.5-5.63 1.71-8.38a5.15 5.15 0 0 0 -5.93-3.44 5.93 5.93 0 0 0 -4.8 5.1 8.75 8.75 0 0 0 2.74 7.53c4.23 4.2 10.79 5.67 16.54 4.74a20 20 0 0 0 14.46-10.88 1.72 1.72 0 0 0 -1.92-2.49c-2.91.42-7.08 2.28-6.37 5.92a4.5 4.5 0 0 0 3.45 3.38c2.08.51 4.12-.4 5.95-1.32 7.33-3.65 13.9-9.06 22.06-10.83 2.13-.47 1.23-3.74-.91-3.28-6.47 1.41-12.08 5-17.71 8.34-1.39.81-2.79 1.62-4.22 2.36-1.2.63-2.85 1.73-4.27 1.45-1-.19-1.33-.92-.52-1.56a7.31 7.31 0 0 1 3.45-1.19l-1.92-2.49c-3.94 8-13.72 11.86-22 7.94a10.91 10.91 0 0 1 -4.87-4c-.85-1.44-1.16-3.81.33-5a2 2 0 0 1 3.22.94c.34 2-.88 4.41-1.82 6-2.42 4.27-6.38 7.5-10.22 10.46a1.75 1.75 0 0 0 -.6 2.32 1.7 1.7 0 0 0 2.32.61z"/><path d="m625.57 785.55a1.7 1.7 0 0 0 0-3.4 1.7 1.7 0 0 0 0 3.4z"/><path d="m637.36 780.78a1.7 1.7 0 0 0 0-3.4 1.7 1.7 0 0 0 0 3.4z"/><path d="m558.57 837.3 2.61-1.08a1.29 1.29 0 0 0 .58-.3 1.25 1.25 0 0 0 .43-.48 1.67 1.67 0 0 0 .17-1.31 1.65 1.65 0 0 0 -.78-1l-.4-.17a1.72 1.72 0 0 0 -.9 0l-2.62 1.04a1.21 1.21 0 0 0 -.57.3 1.27 1.27 0 0 0 -.44.48 1.76 1.76 0 0 0 -.17 1.31 1.72 1.72 0 0 0 .78 1l.4.17a1.76 1.76 0 0 0 .91 0z"/><path d="m572.22 834.55 3.83-.33a1.82 1.82 0 0 0 1.2-.49 1.72 1.72 0 0 0 .5-1.21 1.76 1.76 0 0 0 -.5-1.2 1.65 1.65 0 0 0 -1.2-.49l-3.83.33a1.77 1.77 0 0 0 -1.2.49 1.69 1.69 0 0 0 0 2.4 1.66 1.66 0 0 0 1.2.5z"/><path d="m593 827.56a18.46 18.46 0 0 0 12.15-5.51 17.81 17.81 0 0 0 3.81-5.86c.71-1.81 1.19-5-.88-6.15s-4.24 1.74-4.32 3.58a4.52 4.52 0 0 0 3.63 4.46c2.57.61 4.9-.54 7.06-1.82a39.82 39.82 0 0 1 7.71-3.38c.68-.23 1.37-.49 2.07-.67a6.77 6.77 0 0 1 2.2 0 8.55 8.55 0 0 0 4.25-1.17l9.21-4.31c2-.93.25-3.85-1.72-2.93-3.21 1.5-6.41 3.06-9.64 4.52a4.34 4.34 0 0 1 -1.89.51 14.73 14.73 0 0 0 -2.3-.06 22.77 22.77 0 0 0 -4.6 1.39 43.86 43.86 0 0 0 -4.44 1.8c-1.47.71-2.81 1.66-4.28 2.37-1 .45-2.62 1-3.55.15-.46-.41-.46-1.2.2-1.3l-1.65-.44c.8.95-.64 3.29-1.13 4.12a15 15 0 0 1 -11.89 7.31c-2.17.12-2.19 3.51 0 3.39z"/><path d="m564.88 865.31 16.53-7.14 8-3.47 4.13-1.78c.82-.35 2.65-1.5 3.59-1.06a1.72 1.72 0 0 0 2.55-1.46c.38-2.9-3.24-4.91-5.6-3.4-1.11.71-1.12 2.85.41 3.1a24.55 24.55 0 0 0 14.91-2.1c2-.94.25-3.87-1.72-2.93a20.64 20.64 0 0 1 -12.26 1.76l.41 3.1c.45-.29.51.27.49.47l2.55-1.47c-2.8-1.32-5.59.44-8.16 1.55l-9.18 4-18.36 7.92a1.71 1.71 0 0 0 -.61 2.33 1.75 1.75 0 0 0 2.32.61z"/></g><g fill="#1a1c1c"><path d="m608.89 183.87a54.64 54.64 0 0 0 7.59-4.58 5.08 5.08 0 0 0 2-2.12 5.35 5.35 0 0 0 .15-2.49c-.54-5.2-1.28-10.55-3.93-15.06s-7.68-8-12.87-7.33c-4.94.65-8.82 4.93-10.33 9.68s-1.08 9.88-.31 14.8a114.2 114.2 0 0 0 2.81 13.08c1.41 5 3.21 10 6.29 14.17s7.59 7.53 12.74 8.23a9 9 0 0 0 3.82-.2c4-1.24 5.62-5.92 6.19-10a50 50 0 0 0 .11-12.64 4.57 4.57 0 0 0 -.81-2.46 4.74 4.74 0 0 0 -2.29-1.26l-12.31-4.07"/><path d="m609.75 185.34a49.88 49.88 0 0 0 8.36-5.16 5.4 5.4 0 0 0 2.17-3.36 16.86 16.86 0 0 0 -.28-4.75c-.73-5.85-2.07-11.88-6.14-16.38-3.55-3.92-9.16-6.34-14.39-4.6-5 1.67-8.56 6.3-9.9 11.29-1.67 6.22-.51 12.89.71 19.08s2.86 12.79 5.7 18.61c2.47 5.06 6.27 9.71 11.43 12.19a15.9 15.9 0 0 0 8.22 1.75 8.78 8.78 0 0 0 6.39-3.9 17.81 17.81 0 0 0 2.68-7.64 49.84 49.84 0 0 0 .33-11.64c-.14-1.62-.21-3.41-1.19-4.78s-2.71-1.84-4.26-2.35l-11.36-3.76c-2.08-.69-3 2.59-.9 3.28l8.52 2.81c1.38.46 2.79.87 4.15 1.38s1.4 1.17 1.55 2.44c.58 5.09.65 10.87-1 15.76a7.8 7.8 0 0 1 -3.26 4.46c-2 1.11-4.66.54-6.73-.18-4.5-1.57-8-5.22-10.37-9.25-2.69-4.6-4.18-9.8-5.44-14.94-1.33-5.39-2.54-11-2.54-16.62 0-4.75 1.26-9.52 4.92-12.77 3.36-3 7.87-3 11.57-.63 4.73 3 6.65 8.53 7.58 13.81.25 1.43.43 2.88.59 4.33s.46 2.67-.77 3.69a42.29 42.29 0 0 1 -8 4.89c-1.95 1-.23 3.92 1.72 2.94z"/><path d="m691.46 158a54.64 54.64 0 0 0 7.59-4.58 5.08 5.08 0 0 0 2-2.12 5.35 5.35 0 0 0 .15-2.49c-.54-5.2-1.28-10.55-3.93-15.06s-7.68-8-12.87-7.33c-4.94.65-8.82 4.93-10.33 9.68s-1.08 9.88-.31 14.8a114.2 114.2 0 0 0 2.87 13.08c1.41 5 3.21 10 6.29 14.17s7.59 7.53 12.74 8.23a9 9 0 0 0 3.82-.2c4-1.24 5.62-5.92 6.19-10a50 50 0 0 0 .11-12.64 4.57 4.57 0 0 0 -.81-2.46 4.74 4.74 0 0 0 -2.29-1.26l-12.31-4.07"/><path d="m692.32 159.43a49.88 49.88 0 0 0 8.36-5.16 5.4 5.4 0 0 0 2.17-3.36 16.86 16.86 0 0 0 -.28-4.75c-.73-5.85-2.07-11.88-6.14-16.38-3.55-3.92-9.17-6.34-14.39-4.6-5 1.67-8.56 6.3-9.9 11.29-1.67 6.22-.51 12.89.71 19.08s2.86 12.79 5.7 18.61c2.47 5.06 6.27 9.71 11.43 12.19a15.9 15.9 0 0 0 8.22 1.75 8.78 8.78 0 0 0 6.39-3.9 17.81 17.81 0 0 0 2.68-7.64 49.84 49.84 0 0 0 .33-11.64c-.14-1.62-.21-3.41-1.19-4.78s-2.71-1.84-4.26-2.35l-11.36-3.79c-2.08-.69-3 2.59-.9 3.28l8.52 2.81c1.38.46 2.79.87 4.15 1.38s1.4 1.17 1.55 2.44c.58 5.09.65 10.87-1.05 15.76a7.8 7.8 0 0 1 -3.26 4.46c-2 1.11-4.66.54-6.73-.18-4.5-1.57-8-5.22-10.37-9.25-2.69-4.6-4.18-9.8-5.44-14.94-1.33-5.39-2.54-11-2.54-16.62 0-4.75 1.26-9.52 4.92-12.77 3.36-3 7.87-3 11.57-.63 4.73 3 6.65 8.53 7.58 13.81.25 1.43.43 2.88.59 4.33s.46 2.67-.77 3.69a42.29 42.29 0 0 1 -8 4.89c-2 1-.23 3.92 1.72 2.94z"/><path d="m803.49 145.14a31.28 31.28 0 0 1 16.64 3.39c1.93 1 3.65-1.93 1.71-2.94a34.79 34.79 0 0 0 -18.35-3.85 1.75 1.75 0 0 0 -1.7 1.7 1.72 1.72 0 0 0 1.7 1.7z"/><path d="m843.1 122.33a47.63 47.63 0 0 0 -5.83 18.58 1.7 1.7 0 0 0 1.7 1.7 1.74 1.74 0 0 0 1.69-1.7 43.76 43.76 0 0 1 5.34-16.91c1.07-1.91-1.87-3.62-2.94-1.71z"/><path d="m602.06 219.49q17.63-6.11 35.5-11.48c2.09-.62 1.2-3.9-.9-3.27q-17.88 5.37-35.51 11.47c-2 .71-1.17 4 .91 3.28z"/><path d="m686.92 193.5 25.56-7.24a1.7 1.7 0 0 0 -.91-3.27l-25.57 7.23a1.7 1.7 0 0 0 .91 3.28z"/><path d="m583.94 136a43.2 43.2 0 0 1 19.06-12.63c2.07-.67 1.19-4-.9-3.28a46.61 46.61 0 0 0 -20.58 13.47c-1.44 1.64 1 4.05 2.4 2.41z"/><path d="m668.37 104.61a48.57 48.57 0 0 1 20.12-.62 1.75 1.75 0 0 0 2.09-1.19 1.72 1.72 0 0 0 -1.19-2.09 52.77 52.77 0 0 0 -21.92.62c-2.12.52-1.22 3.79.9 3.28z"/></g><g fill="#ff7f00"><path d="m669.1 267.47c5.2 5.52 11.82 10.06 19.3 11.73a25.86 25.86 0 0 0 19.85-3.36 20.64 20.64 0 0 0 7.47-8.49l-2.66.34a20.16 20.16 0 0 0 35-5.86l-2.84.75a21.43 21.43 0 0 0 34.91-13.3l-3.1.41c3.48 6.31 11.83 8.15 18.31 5.88 7.88-2.77 12.54-10.52 15.3-18l-3.11.41c2.73 5.22 8.9 7.4 14.52 6.73 6.51-.76 11.56-5.14 14.79-10.66a42.89 42.89 0 0 0 4.31-10.87l-2.5 1a19.36 19.36 0 0 0 31.07-14.79l-3.16.86c5 7.29 16.68 7.38 21.91.27 1.29-1.76-1.65-3.46-2.94-1.71-3.66 5-12.54 4.79-16-.28a1.71 1.71 0 0 0 -3.16.86 16 16 0 0 1 -26 11.85 1.72 1.72 0 0 0 -2.5 1c-1.8 6.85-5.05 14.57-11.82 17.85-5.17 2.5-12.72 1.61-15.59-3.87-.73-1.4-2.63-.87-3.1.41-2.28 6.15-6.15 13-12.62 15.47-5.11 1.95-12 .91-14.78-4.21-.65-1.18-2.88-1.08-3.1.41a18.67 18.67 0 0 1 -10.74 14.29 18.43 18.43 0 0 1 -18.5-2.49 1.73 1.73 0 0 0 -2.84.75 16.78 16.78 0 0 1 -29.31 4.36 1.71 1.71 0 0 0 -2.67.34c-2.54 5.52-7.77 9.07-13.6 10.37-6.37 1.42-13-.28-18.51-3.51a41 41 0 0 1 -9.17-7.42c-1.51-1.59-3.9.81-2.41 2.4z"/><path d="m570.55 278.05h.45a1.22 1.22 0 0 0 .65-.15 1.21 1.21 0 0 0 .55-.35 1.3 1.3 0 0 0 .35-.54 1.35 1.35 0 0 0 .14-.66l-.06-.45a1.66 1.66 0 0 0 -.43-.75l-.35-.26a1.61 1.61 0 0 0 -.85-.24h-.43a1.22 1.22 0 0 0 -.65.15 1.5 1.5 0 0 0 -.9.9 1.32 1.32 0 0 0 -.14.65l.06.45a1.66 1.66 0 0 0 .43.75l.35.27a1.69 1.69 0 0 0 .85.23z"/><path d="m585.72 268.78a1.7 1.7 0 0 0 0-3.39 1.7 1.7 0 0 0 0 3.39z"/><path d="m584 284.37a1.7 1.7 0 0 0 0-3.4 1.7 1.7 0 0 0 0 3.4z"/><path d="m601.31 276.37a1.7 1.7 0 0 0 0-3.4 1.7 1.7 0 0 0 0 3.4z"/><path d="m605.1 295.32a1.7 1.7 0 0 0 0-3.39 1.7 1.7 0 0 0 0 3.39z"/><path d="m744.76 210.85a1.7 1.7 0 0 0 0-3.39 1.7 1.7 0 0 0 0 3.39z"/><path d="m752.35 194.42a1.7 1.7 0 0 0 0-3.39 1.7 1.7 0 0 0 0 3.39z"/><path d="m768.08 202.77 1.27-1.26a1.4 1.4 0 0 0 .35-.55 1.32 1.32 0 0 0 .14-.65 1.35 1.35 0 0 0 -.14-.66 1.3 1.3 0 0 0 -.35-.54l-.35-.27a1.7 1.7 0 0 0 -.86-.23l-.45.06a1.8 1.8 0 0 0 -.75.44l-1.26 1.26a1.24 1.24 0 0 0 -.35.55 1.22 1.22 0 0 0 -.15.65 1.26 1.26 0 0 0 .15.66 1.21 1.21 0 0 0 .35.54l.34.27a1.73 1.73 0 0 0 .86.23l.45-.06a1.68 1.68 0 0 0 .75-.44z"/><path d="m783.94 189.37a1.7 1.7 0 0 0 0-3.4 1.7 1.7 0 0 0 0 3.4z"/></g><path d="m473.58 507.35c6.87-8.2 17.13-14.54 28.11-14.38 11.61.16 20.75 8.44 26.4 18 3.72 6.26 6.24 13.1 8.74 19.91l2.5-1.91a31.52 31.52 0 0 0 -13.91-3 1.72 1.72 0 0 0 -1.64 2.15 33 33 0 0 1 1.11 12.88l2.9-1.21-13.19-10.3a1.72 1.72 0 0 0 -2.9 1.2l-.7 19.68 3.17-.86c-3.21-5.07-6.58-10.29-11.62-13.72-4.75-3.24-10.82-4.43-16.2-2.11a1.71 1.71 0 0 0 -.61 2.32 1.75 1.75 0 0 0 2.33.61c4.45-1.92 9.7-.21 13.39 2.55 4.18 3.14 7 7.72 9.78 12.06a1.71 1.71 0 0 0 3.16-.85l.7-19.68-2.9 1.2 13.19 10.31a1.73 1.73 0 0 0 2.9-1.2 35.69 35.69 0 0 0 -1.24-13.75l-1.63 2.15a27.54 27.54 0 0 1 12.19 2.5c1.2.55 3.06-.39 2.5-1.92-4.48-12.19-9.36-25.11-19.88-33.44a31 31 0 0 0 -16.31-6.81 33.92 33.92 0 0 0 -16.92 3.1 44.92 44.92 0 0 0 -15.83 12.17c-1.39 1.67 1 4.08 2.41 2.4z" fill="#1a1c1c"/><path d="m566.44 494.06c5.37-6 14.26-6.91 21.48-4.09 8 3.15 13.79 10.3 17.76 17.69a133.56 133.56 0 0 1 6.58 15.08l2.09-2.09-8.35-2.58-4.17-1.3c-1.31-.4-2.73-.92-4.05-.26-2.4 1.22-1.79 4.2-1.58 6.38l.88 9.17 2.55-1.47-13.08-7.13a1.72 1.72 0 0 0 -2.49 1.92 20.46 20.46 0 0 1 1 8c0 .25-.07.51-.08.76s-.29.68.09.4 0-.12-.19-.39-.41-.42-.6-.66c-.74-.94-1.43-1.91-2.25-2.8a27.56 27.56 0 0 0 -11.94-7.55c-2.08-.67-3 2.61-.9 3.27a24.28 24.28 0 0 1 7.56 4 24.76 24.76 0 0 1 3.15 3 37.53 37.53 0 0 0 2.72 3.3 3.53 3.53 0 0 0 3.88.87 3.81 3.81 0 0 0 1.86-3.28 22.73 22.73 0 0 0 -1-9.79l-2.49 1.91 13.08 7.13a1.71 1.71 0 0 0 2.55-1.46l-.7-7.43c-.11-1.16-.23-2.32-.34-3.47a5.31 5.31 0 0 1 -.07-1.49q.14-.33-.15-.09a2.71 2.71 0 0 1 .58.12c4.6 1.17 9.12 2.82 13.64 4.23 1.16.36 2.57-.87 2.09-2.09-3.67-9.49-7.49-19.25-14.59-26.77-6.18-6.55-14.84-11-24-9.85a20.59 20.59 0 0 0 -12.96 6.41c-1.45 1.62.94 4 2.4 2.4z" fill="#1a1c1c"/><g fill="#ff7f00"><path d="m33 334.66c1.34 19.65 2.78 39.94 11.54 57.93 7.49 15.38 21.2 29.78 39 31.87 8.53 1 17.38-1.79 22.88-8.6 4.86-6 6.94-15.33 1-21.4-2.65-2.7-6.74-3.91-10-1.58s-4.95 7.49-5.9 11.4a39.85 39.85 0 0 0 2.37 25.72c7.14 15.71 23.94 23.22 39.29 28.58 1.92.67 3.84 1.31 5.77 1.95s3-2.58.9-3.27c-13.94-4.64-29.34-9.86-38.73-21.87a35.89 35.89 0 0 1 -5.41-33.61c1-2.76 2.74-7.6 6.52-6.62 3 .78 5.13 4.38 5.41 7.29a15.45 15.45 0 0 1 -2.75 9.8c-4.33 6.55-12 9.46-19.67 9-16.22-1.04-29.17-14.25-36.42-27.78-8.48-15.86-10.6-34.08-11.91-51.75q-.26-3.53-.49-7.06c-.15-2.16-3.55-2.18-3.4 0z"/><path d="m23.53 454.06a144 144 0 0 0 44.8 40.66 121.15 121.15 0 0 0 14.33 7 1.71 1.71 0 0 0 2.09-1.19 1.74 1.74 0 0 0 -1.19-2.09c-17.61-7.24-33.44-19.11-46.35-33a131.22 131.22 0 0 1 -10.74-13.12c-1.27-1.76-4.21-.06-2.94 1.72z"/><path d="m81.47 294.92a118.58 118.58 0 0 0 20.66 36.14c1.4 1.68 3.8-.74 2.4-2.4a113.89 113.89 0 0 1 -19.78-34.66c-.73-2-4-1.17-3.28.9z"/><path d="m127 268.36c5.12 13.24 10.5 26.52 19.56 37.63 1.38 1.7 3.77-.72 2.4-2.4-8.66-10.62-13.8-23.48-18.68-36.13-.78-2-4.07-1.15-3.28.9z"/><path d="m178.58 258.24c.09 5.14 2.68 10.18 5.09 14.59a137.86 137.86 0 0 0 8.48 13.3c1.26 1.77 4.21.07 2.94-1.72a137.76 137.76 0 0 1 -8.09-12.67c-2.24-4-4.89-8.77-5-13.5 0-2.19-3.44-2.19-3.4 0z"/><path d="m902.89 336.55c6.74 2.24 11.46 7.91 14.42 14.15 3.39 7.14 4.59 15.28 4.47 23.12a60.75 60.75 0 0 1 -5.78 25.32c-3.28 6.79-8.62 13.5-16.61 14.45-3.3.4-7.86-.26-10-3.12-2.28-3 3.55-7 5.72-8.3a21.08 21.08 0 0 1 20.77-.59 21.41 21.41 0 0 1 11 17.57c.38 8.61-3.64 16.94-8 24.14a85.34 85.34 0 0 1 -32.83 31.19c-1.72.92-3.47 1.77-5.25 2.57-2 .89-.26 3.82 1.72 2.93a88.63 88.63 0 0 0 38.17-33.16c4.92-7.73 9.43-16.76 9.58-26.1a24.93 24.93 0 0 0 -11.36-21.24 24.35 24.35 0 0 0 -23.44-1.37c-3.56 1.64-7.62 4.47-9.35 8.11-2.24 4.7 1.59 8.29 5.72 9.87 8.43 3.23 17.43-1.42 22.63-8.07 5.67-7.25 8.75-16.74 10-25.77a62.25 62.25 0 0 0 -2-27.6c-2.43-7.47-6.75-14.74-13.54-19a24 24 0 0 0 -5.16-2.4c-2.08-.69-3 2.59-.91 3.28z"/><path d="m973.8 484.56a302.57 302.57 0 0 1 -70 57.61q-11 6.57-22.53 12.2c-2 1-.24 3.89 1.71 2.93a305.21 305.21 0 0 0 39.42-23.06 308.82 308.82 0 0 0 35.71-28.81q9.42-8.85 18.07-18.47c1.46-1.62-.94-4-2.4-2.4z"/><path d="m884.15 603.87a105.68 105.68 0 0 0 43.25-19.48 1.76 1.76 0 0 0 .61-2.32 1.72 1.72 0 0 0 -2.33-.61 103.58 103.58 0 0 1 -42.43 19.14c-2.15.42-1.24 3.7.9 3.27z"/><path d="m870.9 643.46a51.47 51.47 0 0 0 22.38-6.46c1.9-1.07.19-4-1.72-2.93a47.48 47.48 0 0 1 -20.66 6c-2.17.12-2.18 3.52 0 3.4z"/></g></svg>