<svg viewBox="0 0 1000 1000" xmlns="http://www.w3.org/2000/svg"><rect fill="#ff7f00" height="420.28" rx="27.47" width="347.38" x="326.31" y="354.28"/><g fill="#1a1c1c"><path d="m646.22 773.37h-292.35a26.62 26.62 0 0 1 -23.49-14.31c-3-5.87-2.88-11.9-2.88-18.2v-351.86c0-4.85-.32-9.87 1.05-14.58a26.54 26.54 0 0 1 25.23-18.93h3.07 276.9 12.41a26.61 26.61 0 0 1 24.06 15.51 28.53 28.53 0 0 1 2.28 11.84v362.9a31.05 31.05 0 0 1 -1 8.41 26.55 26.55 0 0 1 -25.31 19.2 1.19 1.19 0 0 0 0 2.38 29 29 0 0 0 26.28-17.24 30.81 30.81 0 0 0 2.38-12.43v-363.44a30.24 30.24 0 0 0 -3.08-13.8 29 29 0 0 0 -25.59-15.73c-3.91 0-7.83 0-11.74 0h-278c-1.29 0-2.59 0-3.88 0a28.92 28.92 0 0 0 -25.44 18c-2.25 5.61-2 11.29-2 17.16v353.19c0 6.92.14 13.48 3.73 19.8a29 29 0 0 0 24.95 14.51h292.42a1.19 1.19 0 0 0 0-2.38z"/><path d="m651.85 774.56h-303.7a21.84 21.84 0 0 1 -21.84-21.84v16.64a21.84 21.84 0 0 0 21.84 21.84h303.7a21.84 21.84 0 0 0 21.84-21.84v-16.64a21.84 21.84 0 0 1 -21.84 21.84z"/><path d="m651.85 773.37h-303.17a21.16 21.16 0 0 1 -15.45-6.37 20.9 20.9 0 0 1 -5.73-14.28 1.19 1.19 0 0 0 -2.38 0v9.7a74.54 74.54 0 0 0 .23 10.14 23.26 23.26 0 0 0 22.82 19.83h13 289.68a24.11 24.11 0 0 0 15.6-5.23 23.05 23.05 0 0 0 8.24-14.91 83.9 83.9 0 0 0 .19-10.52v-9a1.19 1.19 0 0 0 -2.38 0 20.89 20.89 0 0 1 -20.65 20.65 1.19 1.19 0 0 0 0 2.38 23.3 23.3 0 0 0 23-23h-2.35v9.36c0 3.38.29 7-.22 10.32a20.89 20.89 0 0 1 -20.56 17.56c-4.67 0-9.34 0-14 0h-288.12a22.75 22.75 0 0 1 -12.6-3.25 20.73 20.73 0 0 1 -9.38-15 88.45 88.45 0 0 1 -.14-10v-9h-2.38a23.29 23.29 0 0 0 17.51 22.37 30 30 0 0 0 7.13.66h288.26c4.42 0 8.84.08 13.25 0h.57a1.19 1.19 0 0 0 .03-2.41z"/><path d="m410 366.74a90 90 0 1 0 180.1 0 91.37 91.37 0 0 0 -.86-12.46h-178.43a91.37 91.37 0 0 0 -.81 12.46z"/><path d="m408.76 366.74a91.24 91.24 0 1 0 182.44-2.91 98.8 98.8 0 0 0 -.86-9.87 1.19 1.19 0 0 0 -1.15-.87h-171.13c-2.31 0-4.64-.07-6.95 0h-.3a1.2 1.2 0 0 0 -1.15.87 97.56 97.56 0 0 0 -.9 12.78 1.19 1.19 0 0 0 2.38 0 93 93 0 0 1 .86-12.14l-1.15.87h171.09a64.45 64.45 0 0 0 6.95 0h.3l-1.19-.87a88.87 88.87 0 1 1 -176.6 19.48c-.2-2.44-.29-4.89-.3-7.34a1.19 1.19 0 0 0 -2.34 0z"/><rect height="318.93" rx="20.85" width="263.61" x="25" y="483.38"/><path d="m267.76 801.12h-221.85a19.86 19.86 0 0 1 -17.57-10.71c-2.28-4.41-2.15-8.94-2.15-13.67v-267c0-3.66-.24-7.45.78-11a19.86 19.86 0 0 1 18.88-14.15h212.45 9.42a19.9 19.9 0 0 1 18 11.65 21.32 21.32 0 0 1 1.69 8.84v275.38a23.49 23.49 0 0 1 -.72 6.3 19.86 19.86 0 0 1 -18.94 14.36 1.2 1.2 0 0 0 0 2.39 22.26 22.26 0 0 0 20.25-13.23 23.83 23.83 0 0 0 1.84-9.58v-275.81a23.37 23.37 0 0 0 -2.37-10.62 22.28 22.28 0 0 0 -19.67-12.08c-3 0-5.94 0-8.91 0h-211c-1 0-2 0-2.94 0a22.24 22.24 0 0 0 -19.58 13.88c-1.72 4.29-1.56 8.62-1.56 13.1v268c0 5.3.12 10.33 2.87 15.17a22.29 22.29 0 0 0 19.18 11.16h221.9a1.2 1.2 0 0 0 0-2.38z"/><path d="m88.47 492.84a68.34 68.34 0 1 0 136.67 0 70.23 70.23 0 0 0 -.65-9.46h-135.37a70.23 70.23 0 0 0 -.65 9.46z"/><path d="m87.28 492.84a69.53 69.53 0 1 0 139-2.4c-.09-2.47-.32-4.92-.65-7.37a1.2 1.2 0 0 0 -1.15-.88h-118.73c-5.45 0-11-.2-16.4 0h-.23a1.21 1.21 0 0 0 -1.15.88 75.89 75.89 0 0 0 -.69 9.77 1.19 1.19 0 0 0 2.38 0 69.81 69.81 0 0 1 .61-9.14l-1.15.88h129.88a39.21 39.21 0 0 0 5.31 0h.23l-1.15-.88a67.15 67.15 0 1 1 -133.5 14.73c-.15-1.86-.22-3.72-.23-5.59a1.19 1.19 0 0 0 -2.38 0z"/><path d="m954.15 801.12h-221.85a19.86 19.86 0 0 1 -17.57-10.71c-2.28-4.41-2.15-8.94-2.15-13.67v-267c0-3.66-.24-7.45.78-11a19.86 19.86 0 0 1 18.88-14.15h212.45 9.42a19.9 19.9 0 0 1 18 11.65 21.32 21.32 0 0 1 1.69 8.84v275.38a23.49 23.49 0 0 1 -.72 6.3 19.86 19.86 0 0 1 -18.94 14.36 1.2 1.2 0 0 0 0 2.39 22.26 22.26 0 0 0 20.2-13.23 23.66 23.66 0 0 0 1.84-9.58v-275.81a23.37 23.37 0 0 0 -2.37-10.62 22.28 22.28 0 0 0 -19.67-12.08c-3 0-5.94 0-8.91 0h-211c-1 0-2 0-2.94 0a22.24 22.24 0 0 0 -19.58 13.88c-1.72 4.29-1.56 8.62-1.56 13.1v268c0 5.3.12 10.33 2.87 15.17a22.3 22.3 0 0 0 19.18 11.16h221.9a1.2 1.2 0 0 0 .05-2.38z"/><path d="m774.86 492.84a68.34 68.34 0 1 0 136.67 0 70.23 70.23 0 0 0 -.65-9.46h-135.37a70.23 70.23 0 0 0 -.65 9.46z"/><path d="m773.67 492.84a69.53 69.53 0 1 0 139-2.4c-.09-2.47-.32-4.92-.65-7.37a1.2 1.2 0 0 0 -1.15-.88h-118.73c-5.45 0-10.95-.2-16.4 0h-.23a1.21 1.21 0 0 0 -1.15.88 75.89 75.89 0 0 0 -.69 9.77 1.19 1.19 0 0 0 2.38 0 71.59 71.59 0 0 1 .61-9.14l-1.15.88h129.83a39.21 39.21 0 0 0 5.31 0h.23l-1.15-.88a67.15 67.15 0 1 1 -133.45 14.73c-.15-1.86-.22-3.72-.23-5.59a1.19 1.19 0 0 0 -2.38 0z"/></g><circle cx="156.8" cy="483.75" fill="#ff7f00" r="68.34"/><path d="m224 483.75a66.75 66.75 0 1 1 -.79-10.4 68.32 68.32 0 0 1 .79 10.4 1.19 1.19 0 0 0 2.38 0 69.4 69.4 0 1 0 -.82 10.69 72.19 72.19 0 0 0 .82-10.69 1.19 1.19 0 0 0 -2.38 0z" fill="#1a1c1c"/><circle cx="500" cy="354.76" fill="#fff" r="90.05"/><path d="m588.86 354.76a88.47 88.47 0 1 1 -1-13.68 90.72 90.72 0 0 1 1 13.68 1.19 1.19 0 0 0 2.38 0 91.17 91.17 0 1 0 -1.1 14.15 93.07 93.07 0 0 0 1.1-14.15 1.19 1.19 0 0 0 -2.38 0z" fill="#1a1c1c"/><path d="m458.1 336.92c-8.06-13.54-14.74-28.08-18-43.51-1-4.83-1.66-9.87-.53-14.68s4.33-9.37 9-10.92 10.2.26 14 3.53 6.39 7.78 8.69 12.27a203.63 203.63 0 0 1 17.75 49.67" fill="#ff7f00"/><path d="m458.1 336.92 31-3.64a202.28 202.28 0 0 0 -7.15-25.1 130.07 130.07 0 0 0 -34.25 8.64 175.16 175.16 0 0 0 10.4 20.1z" fill="#1a1c1c"/><path d="m458.1 338.11 27.15-3.18 3.87-.46a1.21 1.21 0 0 0 1.15-1.51 206.3 206.3 0 0 0 -7.15-25.1 1.2 1.2 0 0 0 -1.12-.86 132.18 132.18 0 0 0 -34.57 8.68 1.22 1.22 0 0 0 -.71 1.75 178.4 178.4 0 0 0 10.38 20.1 1.19 1.19 0 0 0 2.06-1.2 178.54 178.54 0 0 1 -10.38-20.11l-.78 1.78a129.82 129.82 0 0 1 33.93-8.6l-1.15-.87a206.3 206.3 0 0 1 7.22 25.07l1.15-1.51-27.15 3.19-3.86.45c-1.55.18-1.57 2.56-.04 2.38z" fill="#1a1c1c"/><path d="m516.49 327.89c2.88-14.76 5.81-29.66 11.87-43.42 3.84-8.72 12.47-21.68 22.68-23.43 13.31-2.27 15.88 15.21 14.17 24.69-3 16.67-14.1 35.06-24.6 48" fill="#ff7f00"/><g fill="#1a1c1c"><path d="m551.12 319v-.05c-2.61-2.19-6.15-3.22-9.31-4.37a120.09 120.09 0 0 0 -21.33-5.53c-1.48 6.23-2.71 12.53-3.94 18.8l24.12 5.86a151.16 151.16 0 0 0 10.46-14.71z"/><path d="m552 318.2a18.73 18.73 0 0 0 -6.14-3.38c-2.53-1-5.11-1.87-7.69-2.7a124.92 124.92 0 0 0 -17.38-4.18 1.21 1.21 0 0 0 -1.47.83c-1.47 6.23-2.71 12.52-3.94 18.81a1.21 1.21 0 0 0 .83 1.46l21.1 5.13 3 .73a1.19 1.19 0 0 0 1.16-.31 157.37 157.37 0 0 0 10.69-14.95c.82-1.3-1.25-2.5-2.06-1.2a153.13 153.13 0 0 1 -10.32 14.47l1.16-.31-21.1-5.12-3-.74.83 1.47c1.23-6.29 2.47-12.57 3.94-18.81l-1.46.84a124.61 124.61 0 0 1 16.49 3.9c2.44.76 4.85 1.63 7.26 2.49 2.18.78 4.67 1.64 6.4 3.25 1.1 1.04 2.79-.64 1.7-1.68z"/><path d="m459.13 336.32a161.15 161.15 0 0 1 -13.54-28.1 113.43 113.43 0 0 1 -4.24-14.9c-1.1-5.22-1.86-10.85-.08-16 1.34-3.91 4.32-7.53 8.45-8.57 4.64-1.18 9.54 1 12.9 4.14 3.6 3.38 5.94 7.81 8.14 12.16q3.62 7.14 6.66 14.56a203.06 203.06 0 0 1 10.55 34c.33 1.5 2.63.86 2.3-.64a205 205 0 0 0 -9.94-32.51q-3.13-7.81-6.89-15.39c-2.31-4.63-4.73-9.38-8.39-13.13-3.36-3.45-8-6-12.93-5.89a13.68 13.68 0 0 0 -11.1 6.43c-2.9 4.34-3.51 9.7-3 14.79a82.48 82.48 0 0 0 3.6 16.48 157.33 157.33 0 0 0 15.48 33.78 1.19 1.19 0 0 0 2.06-1.2z"/><path d="m517.64 328.21c2.58-13.22 5.19-26.54 10.09-39.13a68.05 68.05 0 0 1 7.18-13.87c2.87-4.17 6.38-8.21 10.76-10.83 3.39-2 7.91-3.33 11.64-1.46 3.14 1.57 4.91 4.87 5.9 8.1 2.7 8.78.65 17.83-2.44 26.21-4.78 12.95-12.36 25-21 35.68-1 1.18.72 2.88 1.69 1.68a137 137 0 0 0 20.2-33.15c3.81-9.16 6.6-19.09 4.39-29-.82-3.7-2.4-7.59-5.36-10.11a12.28 12.28 0 0 0 -11.5-2.09c-5 1.42-9.24 5-12.6 8.92a58.82 58.82 0 0 0 -8.59 13.35c-6.7 14.15-9.63 29.82-12.61 45.07-.29 1.5 2 2.14 2.3.63z"/><path d="m500 444.81a89.77 89.77 0 0 0 34.42-6.81c-5.9-11.43-14.57-21.66-26-27.54-4.76-2.45-10.24-4.13-15.48-3-5.74 1.25-10.24 5.64-14.06 10.11a154.84 154.84 0 0 0 -14.22 20 89.71 89.71 0 0 0 35.34 7.24z"/><path d="m500 446a92 92 0 0 0 34.74-6.86 1.21 1.21 0 0 0 .71-1.75c-5.61-10.81-13.67-20.67-24.32-26.83-5.62-3.25-12.32-5.75-18.87-4.15-6.18 1.5-10.86 6.34-14.8 11a159.67 159.67 0 0 0 -13.81 19.59 1.2 1.2 0 0 0 .43 1.64 92.53 92.53 0 0 0 35.92 7.36 1.19 1.19 0 0 0 0-2.38 89.61 89.61 0 0 1 -34.72-7l.43 1.63a162.55 162.55 0 0 1 11.53-16.75c3.67-4.6 7.79-9.73 13.39-12 6.13-2.52 12.73-.42 18.26 2.6a53.6 53.6 0 0 1 13.36 10.51 71.94 71.94 0 0 1 11.14 16l.71-1.75a90.06 90.06 0 0 1 -34.1 6.78 1.19 1.19 0 0 0 0 2.36z"/><circle cx="843.2" cy="483.75" r="68.34"/><path d="m910.34 483.75a66.75 66.75 0 1 1 -.79-10.4 68.32 68.32 0 0 1 .79 10.4 1.19 1.19 0 0 0 2.38 0 69.4 69.4 0 1 0 -.82 10.69 72.19 72.19 0 0 0 .82-10.69 1.19 1.19 0 0 0 -2.38 0z"/><path d="m910.34 483.75a66.75 66.75 0 1 1 -.79-10.4 68.32 68.32 0 0 1 .79 10.4 1.19 1.19 0 0 0 2.38 0 69.4 69.4 0 1 0 -.82 10.69 72.19 72.19 0 0 0 .82-10.69 1.19 1.19 0 0 0 -2.38 0z"/><path d="m910.34 483.75a66.75 66.75 0 1 1 -.79-10.4 68.32 68.32 0 0 1 .79 10.4 1.19 1.19 0 0 0 2.38 0 69.4 69.4 0 1 0 -.82 10.69 72.19 72.19 0 0 0 .82-10.69 1.19 1.19 0 0 0 -2.38 0z"/><path d="m909.15 483.75a66 66 0 1 1 -111.45-47.75 65.92 65.92 0 0 1 111.4 45.36c0 1.31-.3 3.07.77 4.07a2.5 2.5 0 0 0 2.92.3c1.29-.75 1.14-2.22 1.11-3.51 0-1.8-.16-3.59-.34-5.38a70.62 70.62 0 1 0 -.28 16.29q.38-2.86.53-5.74c.08-1.44.56-3.61-.23-4.9-1.28-2.11-4.24-1-4.43 1.24-.14 1.53 2.24 1.52 2.38 0 0 .08 0 .09 0 0a17.71 17.71 0 0 1 -.08 3.17c-.1 2.08-.28 4.17-.56 6.24a68.44 68.44 0 1 1 .22-16.94c.19 1.79.32 3.58.38 5.37 0 .66.09 1.65.09 2.11h-.12c0 .19.06-.74.06-.89a68.31 68.31 0 0 0 -114.2-49.68 68.33 68.33 0 1 0 111.11 70.89 69.77 69.77 0 0 0 3.1-20.29 1.19 1.19 0 0 0 -2.38.04z"/><path d="m910.34 483.75a66.75 66.75 0 1 1 -.79-10.4 68.32 68.32 0 0 1 .79 10.4 1.19 1.19 0 0 0 2.38 0 69.4 69.4 0 1 0 -.82 10.69 72.19 72.19 0 0 0 .82-10.69 1.19 1.19 0 0 0 -2.38 0z"/></g><path d="m874.93 486.37 6.68-.76a20.77 20.77 0 0 0 -9.51-23.9c-4.24-2.31-9.16-3-14-3.33a99.34 99.34 0 0 0 -49.1 9.51c-3 1.44-6.09 3.16-7.85 6-1.58 2.54-1.89 5.64-2 8.63-1.07 19.77 2.86 39.39 7.22 58.75a68.3 68.3 0 0 0 82.19-6.39c1.08-5.86-.48-11.91-2.23-17.64a286.57 286.57 0 0 0 -11.4-30.87z" fill="#fff"/><path d="m533 318.64a514.27 514.27 0 0 0 -60.86 1.36c-8.58.75-17.95 2.19-23.69 8.62-4.47 5-5.78 12-6.37 18.72-.71 8-.67 16.06-.62 24.1 0 7.81.09 15.63.76 23.41.34 3.93.87 7.94 2.69 11.43 2.45 4.68 7 7.94 11.89 10 9.55 4 20.25 3.66 30.57 3.19 11.36-.53 22.73-1.21 34-2.67 6-.78 12.06-1.8 17.63-4.18s10.69-6.25 13.56-11.59c2-3.67 2.78-7.84 3.44-11.95a200.26 200.26 0 0 0 2.52-35.44c-.17-9.45-1.28-19.57-7.39-26.79a23.37 23.37 0 0 0 -14.7-8" fill="#ff7f00"/><path d="m533 317.44c-14-.42-28.05-.45-42.06.16-6.88.3-13.78.71-20.64 1.4-5.21.53-10.48 1.36-15.29 3.53a21.43 21.43 0 0 0 -11 10.92c-2.34 5.29-2.95 11.13-3.33 16.85-.46 6.88-.43 13.78-.4 20.67s.07 14 .54 21c.4 5.93.86 12.28 4.52 17.23 3.34 4.53 8.41 7.42 13.68 9.18a59.54 59.54 0 0 0 18.43 2.56c6.77 0 13.56-.41 20.31-.81 6.92-.41 13.82-.95 20.7-1.76 6.54-.77 13.19-1.63 19.38-4a31.12 31.12 0 0 0 13.47-9.3c3.84-4.81 5.1-10.7 6-16.65a181.89 181.89 0 0 0 2.19-40c-.75-11.13-4.27-22.76-14.91-28.2a24.54 24.54 0 0 0 -7.84-2.46c-1.5-.21-2.15 2.09-.64 2.3a22.49 22.49 0 0 1 14 7.51c3.57 4.12 5.35 9.44 6.27 14.73a96.11 96.11 0 0 1 .93 17.21q-.12 9.75-1.17 19.45c-.67 6.14-1.26 12.66-3.35 18.52a23.3 23.3 0 0 1 -10.45 12.11c-5.22 3.1-11.22 4.54-17.16 5.49-6.49 1-13.05 1.64-19.59 2.14s-13.07.85-19.62 1.13a100.82 100.82 0 0 1 -18.14-.38c-5.66-.77-11.38-2.44-16.09-5.76a18.88 18.88 0 0 1 -5.37-5.64 22.08 22.08 0 0 1 -2.67-8.49 159 159 0 0 1 -1-19.27c-.09-6.54-.15-13.09 0-19.63.12-6 .27-12.24 1.47-18.19 1.05-5.22 3.16-10.27 7.44-13.66 4-3.15 9.12-4.53 14.07-5.32 5.88-1 11.89-1.25 17.83-1.61 13.17-.79 26.38-1 39.57-.77q5 .07 9.9.23c1.53.05 1.53-2.34 0-2.39z" fill="#1a1c1c"/><path d="m808.81 546.87c-2.8-12.3-5.63-24.62-7.26-37.14a162.6 162.6 0 0 1 -1.42-18.44c0-3.07 0-6.14.19-9.2.17-2.79.51-5.73 2.18-8.08a16 16 0 0 1 6.06-4.58c2.53-1.28 5.15-2.41 7.8-3.44a99.28 99.28 0 0 1 16.46-4.76 97.79 97.79 0 0 1 17.4-1.85c5.67-.09 11.65 0 17.12 1.66a19.09 19.09 0 0 1 11.77 9.7 19.28 19.28 0 0 1 1.35 14.55l1.15-.87-6.68.76a1.21 1.21 0 0 0 -1 1.79q5.67 13.09 10 26.72c2.63 8.24 5.94 17.7 1.71 26-3.46 6.8-10.34 11.19-17.54 13.13-8.92 2.41-18.42 1.7-27.51.91a245.18 245.18 0 0 1 -32.22-5c-1.5-.34-2.14 2-.64 2.3a252.84 252.84 0 0 0 30 4.81c9.58.94 19.56 1.83 29-.24 7.77-1.7 15.2-5.81 19.68-12.54a21.74 21.74 0 0 0 3.63-11.42c.16-4.86-1.09-9.66-2.48-14.27a290.77 290.77 0 0 0 -11.56-31.6l-1 1.79 6.68-.76a1.24 1.24 0 0 0 1.15-.88 22.06 22.06 0 0 0 -8.88-24.53c-5-3.22-11.11-4-16.89-4.26a99.42 99.42 0 0 0 -18.41.74 101.32 101.32 0 0 0 -18 4.08q-4.33 1.43-8.53 3.23a47.14 47.14 0 0 0 -7.61 3.83 13.44 13.44 0 0 0 -5.13 5.79 24 24 0 0 0 -1.48 8.45 139.73 139.73 0 0 0 .55 19.94c1.42 15 4.75 29.67 8.09 44.31.34 1.5 2.64.87 2.3-.63z" fill="#1a1c1c"/><path d="m176.57 486.79c-5.34-9.36-12-18.21-21-24.18s-20.49-8.74-30.76-5.49a17.46 17.46 0 0 0 -7.81 4.58c-5.19 5.67-3.91 15.15.91 21.13s12.23 9.19 19.49 11.71c6.09 2.12 12.54 3.93 18.93 3 9.71-1.37 17.42-8.64 26.41-12.55 4.09-1.78 9.44-2.63 12.52.59a6.38 6.38 0 0 1 -7.18 10.25 2.68 2.68 0 0 1 1.37-2.09 7 7 0 0 1 1.29 8.64 4.89 4.89 0 0 1 -4.41 2.5c-1.77-.19-3.31-2.07-2.74-3.76a10.13 10.13 0 0 1 2 5.56 4.38 4.38 0 0 1 -1.33 3.77 3.64 3.64 0 0 1 -4.43-.43 8.74 8.74 0 0 1 -2.35-4.14 31.88 31.88 0 0 1 -.82-15.93" fill="#fff"/><g fill="#1a1c1c"><path d="m177.6 486.18c-6.76-11.79-15.82-23.07-28.66-28.47a37.32 37.32 0 0 0 -19.62-2.82c-6.19.87-12.89 3.61-15.54 9.7-2.31 5.28-1.31 11.6 1.53 16.49 3.25 5.61 9 9.31 14.81 11.88 6.45 2.87 13.55 5.43 20.63 6s13.48-2.05 19.52-5.54c3.17-1.83 6.25-3.83 9.48-5.56s6.44-3.25 10-3.19c3.43.06 6.5 2.43 6 6.14-.44 3.52-4.26 5.21-7.37 3.94l.84 1.47a1.76 1.76 0 0 1 .82-1.38l-1.45-.19a5.89 5.89 0 0 1 1.43 6.61 4.16 4.16 0 0 1 -2.89 2.48c-1.28.2-2.76-.83-2.4-2.23l-2.18.28c1.31 1.8 2.44 4.49 1.69 6.73a1.9 1.9 0 0 1 -2.55 1.25 4.52 4.52 0 0 1 -2.53-2.76c-2.21-5.1-2.38-11.3-1.32-16.67.3-1.5-2-2.14-2.3-.64a34.16 34.16 0 0 0 -.31 11.63c.48 3.22 1.24 7.52 3.92 9.71 2.29 1.87 5.87 1.64 7.16-1.27s.1-6.72-1.7-9.18a1.21 1.21 0 0 0 -2.18.28 4.27 4.27 0 0 0 2.47 4.9 5.37 5.37 0 0 0 6-1.56 8.14 8.14 0 0 0 -.59-11.25 1.19 1.19 0 0 0 -1.44-.18 4 4 0 0 0 -1.92 2.81 1.23 1.23 0 0 0 .83 1.46 7.82 7.82 0 0 0 7.82-1.26 7.53 7.53 0 0 0 2.41-7.39c-1.34-6.46-8.79-6.87-13.9-5.14-6.17 2.09-11.49 6.21-17.18 9.29a34.87 34.87 0 0 1 -9.32 3.64 27.73 27.73 0 0 1 -11.22-.25 75.79 75.79 0 0 1 -10.91-3.32 56 56 0 0 1 -8.81-4c-5.45-3.16-10-7.76-11.42-14.08a14.93 14.93 0 0 1 .5-8.5 12.4 12.4 0 0 1 6.32-6.51c6.06-3 13.43-3.12 19.9-1.56 15.36 3.71 26 16.32 33.55 29.48a1.2 1.2 0 0 0 2.06-1.21z"/><path d="m480.76 354.71c1.69.48 3.73-.67 3.84-2.17a2.24 2.24 0 0 0 -.36-1.34c-.93-1.38-3.39-1.62-5-.77a5.3 5.3 0 0 0 -2.6 4.07 5.76 5.76 0 0 0 1.19 4.5 5.41 5.41 0 0 0 4.82 1.81 3.07 3.07 0 0 0 1.81-.87 2.14 2.14 0 0 0 -.23-2.88 5.88 5.88 0 0 0 -3.15-1.49"/><path d="m480.45 355.86a4.62 4.62 0 0 0 4.16-1 3.29 3.29 0 0 0 .7-4.19c-1.57-2.58-5.46-2.35-7.56-.65a7.23 7.23 0 0 0 -1.69 8.36 6.43 6.43 0 0 0 7.79 3.34 3.23 3.23 0 0 0 2-4.38c-.74-1.75-2.67-2.56-4.41-2.93a1.23 1.23 0 0 0 -1.47.83 1.2 1.2 0 0 0 .84 1.47 4.45 4.45 0 0 1 2.72 1.3.84.84 0 0 1 -.3 1.4 4 4 0 0 1 -4.74-1.57 5 5 0 0 1 .12-5.24 3.31 3.31 0 0 1 4.07-1.22l.28.16c.27.18-.09-.1.14.12a.76.76 0 0 1 .27.41 1 1 0 0 1 .06.28v.22a1.11 1.11 0 0 1 -.19.35 2.2 2.2 0 0 1 -2.11.63 1.19 1.19 0 0 0 -.63 2.3z"/><path d="m831.35 481a2 2 0 0 0 2.5-1.42 1.37 1.37 0 0 0 -.24-.87 2.65 2.65 0 0 0 -3.24-.5 3.42 3.42 0 0 0 -1.69 2.65 3.72 3.72 0 0 0 .77 2.93 3.52 3.52 0 0 0 3.14 1.19 2.06 2.06 0 0 0 1.18-.57 1.4 1.4 0 0 0 -.15-1.88 3.86 3.86 0 0 0 -2-1"/><path d="m831 482.18a3.48 3.48 0 0 0 3.12-.76 2.54 2.54 0 0 0 .52-3.23 3.34 3.34 0 0 0 -2.65-1.46 4.16 4.16 0 0 0 -2.93.95 5.12 5.12 0 0 0 -1.16 6 4.6 4.6 0 0 0 5.54 2.36 2.68 2.68 0 0 0 1.6-1.42 2.55 2.55 0 0 0 0-2 4.13 4.13 0 0 0 -3.14-2.15 1.19 1.19 0 0 0 -.64 2.3l.55.13.22.07s.35.16.13.05c.15.07.28.17.43.23s-.17-.17 0 0a2.18 2.18 0 0 1 .21.22c-.14-.17 0-.05 0 0 .14.24 0-.21 0 .06v.18s0-.25 0 0c0-.32 0 0 0 0v-.06c0-.09 0-.08 0 0l.07-.09a.57.57 0 0 1 -.11.11l-.13.08c-.14.09.23-.06 0 0l-.21.05c-.05 0-.38.05-.1 0h-.32c-.05 0-.38-.06-.1 0l-.51-.13s-.31-.12-.15-.05l-.14-.07a3.87 3.87 0 0 1 -.43-.27c.19.13-.08-.08-.14-.14a2 2 0 0 1 -.2-.21c.13.15 0-.08-.08-.12l-.11-.19s-.14-.3-.08-.15 0-.16 0-.15l-.06-.21-.06-.31s0 .23 0 0a3.88 3.88 0 0 1 0-.59 2.28 2.28 0 0 1 0-.26c0 .24 0 .08 0 0s.07-.31.12-.47a1.27 1.27 0 0 1 .06-.18c.08-.3-.12.2 0-.08s.15-.29.24-.42.2-.25.08-.12.11-.11.11-.11.1-.09.14-.14c.21-.22-.18.1.08-.07l.35-.2c.24-.14-.24 0 0 0l.26-.08a.86.86 0 0 1 .17 0c-.2-.05-.13 0 0 0h.41c.29 0-.25-.06 0 0h.17l.17.05c.22.05-.18-.13.07 0l.17.11c.21.12-.14-.17 0 0 0 0 .12.1.11.12-.11-.15-.12-.15 0 0 0-.09 0-.09 0 0s.08.29 0 .07q0 .21 0 0c-.16.13.09 0 0-.07s-.25.28-.08.15-.06.05-.08.07c-.18.19.19-.1 0 0a.65.65 0 0 0 -.16.09c-.18.12.2-.06-.09 0l-.22.06c-.26.07.23 0 0 0h-.19.05-.18a1.21 1.21 0 0 0 -1.47.83 1.22 1.22 0 0 0 .83 1.47z"/><path d="m849.76 477.46a2 2 0 0 0 2.5-1.41 1.43 1.43 0 0 0 -.23-.87 2.67 2.67 0 0 0 -3.25-.51 3.47 3.47 0 0 0 -1.69 2.66 3.77 3.77 0 0 0 .77 2.93 3.54 3.54 0 0 0 3.14 1.18 2 2 0 0 0 1.19-.57 1.39 1.39 0 0 0 -.19-1.87 3.9 3.9 0 0 0 -2.06-1"/><path d="m849.45 478.61a3.42 3.42 0 0 0 3.11-.75 2.54 2.54 0 0 0 .53-3.23 3.31 3.31 0 0 0 -2.66-1.46 4.07 4.07 0 0 0 -2.93.95 5.13 5.13 0 0 0 -1.16 5.95 4.6 4.6 0 0 0 5.54 2.37 2.71 2.71 0 0 0 1.6-1.42 2.57 2.57 0 0 0 0-2 4.17 4.17 0 0 0 -3.15-2.15 1.23 1.23 0 0 0 -1.47.84 1.21 1.21 0 0 0 .84 1.46 5.54 5.54 0 0 1 .55.14l.21.07s.36.15.13 0c.15.07.28.17.43.24s-.16-.17 0 0l.22.21c-.15-.17 0-.05 0 0 .15.24 0-.21 0 .07a.7.7 0 0 1 .05.18c-.05 0 0-.25 0-.05.05-.31 0 0 0 0 0-.09 0-.08 0 0l.07-.09-.1.1c-.06.06 0 .05 0 0l-.13.07c-.13.1.24-.06 0 0l-.2.06s-.38 0-.11 0h-.21-.21s-.38 0-.1 0a3.18 3.18 0 0 1 -.51-.13s-.31-.12-.15 0-.14-.07-.14-.07a3.87 3.87 0 0 1 -.43-.27c.19.14-.08-.07-.14-.13l-.2-.22c.13.16 0-.07-.07-.11l-.11-.19s-.15-.31-.08-.15-.06-.17-.05-.16a.89.89 0 0 1 -.06-.2c0-.11-.05-.21-.07-.32 0 .05 0 .24 0 0a5.61 5.61 0 0 1 0-.58c0-.09 0-.18 0-.27 0 .24 0 .09 0 0a3.57 3.57 0 0 1 .11-.47l.06-.19c.08-.29-.12.2 0-.07a3.62 3.62 0 0 1 .24-.43s.19-.25.08-.12.1-.11.1-.1l.15-.14c.2-.22-.19.09.08-.07l.34-.21c.24-.13-.23.06 0 0l.26-.07h.18c-.21-.05-.14 0 0 0h.4c.3 0-.24-.07 0 0h.18l.16.05c.22.05-.18-.12.07 0l.18.1c.21.12-.14-.16 0 0l.11.11c-.11-.14-.12-.15 0 0 0-.09 0-.1 0 0s.08.3 0 .07c0 .14 0 .15 0 0s0-.11 0 0 .1 0 0-.06-.24.28-.08.15l-.08.06c-.17.19.2-.1 0 0l-.15.09c-.19.13.19-.05-.09 0l-.22.06c-.27.08.23 0-.05 0h-.18c-.14 0-.13 0 0 0h-.18a1.19 1.19 0 1 0 -.63 2.3z"/><path d="m131.61 466.68a1.51 1.51 0 0 0 1.92-1.08 1.08 1.08 0 0 0 -.18-.67 2 2 0 0 0 -2.49-.38 2.65 2.65 0 0 0 -1.3 2 2.88 2.88 0 0 0 .6 2.25 2.71 2.71 0 0 0 2.41.91 1.54 1.54 0 0 0 .9-.44 1.07 1.07 0 0 0 -.11-1.44 3 3 0 0 0 -1.58-.75"/><path d="m131.3 467.83a2.9 2.9 0 0 0 2.66-.65 2.22 2.22 0 0 0 .44-2.81 2.83 2.83 0 0 0 -2.27-1.26 3.47 3.47 0 0 0 -2.45.81 4.22 4.22 0 0 0 -.93 4.91 3.81 3.81 0 0 0 4.56 1.94 2.39 2.39 0 0 0 1.41-1.25 2.22 2.22 0 0 0 0-1.75 3.46 3.46 0 0 0 -2.62-1.77 1.23 1.23 0 0 0 -1.47.84 1.2 1.2 0 0 0 .84 1.46l.42.11.16.05h.09c.09 0 .25.14.33.18s-.2-.2 0 0c0 0 .17.16.16.17s-.15-.21-.05-.06 0-.26 0 0a.74.74 0 0 0 0 .14c-.09-.23 0-.22 0-.11v-.18a.5.5 0 0 1 0 .13s.15-.26 0-.09c.16-.24.08-.11 0 0s0 0 .09-.08a.53.53 0 0 1 -.1.06c-.13.09.28-.08 0 0h-.16-.08-.25a2.49 2.49 0 0 1 -.39-.1s-.26-.11-.08 0h-.08a2.75 2.75 0 0 1 -.33-.21s.23.2.06 0l-.11-.1s-.15-.21-.15-.21l.08.1-.08-.1-.08-.14s-.14-.27-.05-.08 0-.07 0-.09a1 1 0 0 1 -.05-.16 1.14 1.14 0 0 1 -.05-.24s0 .31 0 .07a3.34 3.34 0 0 1 0-.45s0-.2 0-.2-.05.27 0 .09 0-.24.08-.36a1.21 1.21 0 0 1 .05-.14c.07-.25-.13.24 0 0s.11-.22.18-.33l.05-.06c.06-.08.06-.08 0 0v.06l.1-.11.11-.11c.18-.19-.22.13 0 0l.26-.15c.21-.13-.27.07 0 0l.2-.05s.1 0 .13 0c-.17.09-.24 0-.07 0h.31c.25 0-.29-.06 0 0h.13.13c.21.05-.25-.15 0 0l.14.08c.18.1-.18-.19-.05 0l.08.09c-.12-.17-.14-.2-.06-.07-.05-.14-.06-.16 0-.08s.06.28 0 0c0 .12 0 .12 0 0s0-.13 0 0 0-.1.05-.12-.16.29 0 .09 0 0 0 0 .23-.12 0 0l-.11.07c-.19.12.27-.09 0 0l-.16.05c-.23.07.27 0 0 0h-.32.11-.14a1.22 1.22 0 0 0 -1.47.84 1.21 1.21 0 0 0 .84 1.46z"/><path d="m516.48 354.71c1.69.48 3.73-.67 3.83-2.17a2.11 2.11 0 0 0 -.36-1.34c-.92-1.38-3.38-1.62-5-.77a5.3 5.3 0 0 0 -2.6 4.07 5.79 5.79 0 0 0 1.18 4.5 5.44 5.44 0 0 0 4.83 1.81 3.09 3.09 0 0 0 1.81-.87 2.14 2.14 0 0 0 -.23-2.88 5.92 5.92 0 0 0 -3.15-1.49"/><path d="m516.16 355.86a4.64 4.64 0 0 0 4.17-1 3.29 3.29 0 0 0 .7-4.19c-1.57-2.58-5.46-2.35-7.56-.65a7.23 7.23 0 0 0 -1.69 8.36 6.43 6.43 0 0 0 7.78 3.34 3.23 3.23 0 0 0 2-4.38c-.75-1.75-2.67-2.56-4.41-2.93a1.23 1.23 0 0 0 -1.47.83 1.21 1.21 0 0 0 .83 1.47 4.45 4.45 0 0 1 2.73 1.3.84.84 0 0 1 -.3 1.4 4 4 0 0 1 -4.74-1.57 5 5 0 0 1 .12-5.24 3.31 3.31 0 0 1 4.07-1.22 2.4 2.4 0 0 1 .27.16c.28.18-.08-.1.15.12a.76.76 0 0 1 .27.41 1.57 1.57 0 0 1 .06.28v.22a1.11 1.11 0 0 1 -.19.35 2.2 2.2 0 0 1 -2.11.63 1.19 1.19 0 0 0 -.64 2.3z"/><path d="m473.73 340.9c4.06-1.2 8.33-.65 12.44-.11a1.19 1.19 0 1 0 0-2.38c-4.34-.57-8.8-1.08-13.07.19a1.19 1.19 0 0 0 .63 2.3z"/><path d="m511.32 341.25a40.07 40.07 0 0 1 6.9-1.24c1.13-.16 2.27-.3 3.41-.42.79-.09 2.16-.41 2.64.44.74 1.34 2.81.14 2.05-1.2-1.43-2.57-5-1.61-7.3-1.31a47.57 47.57 0 0 0 -8.33 1.43c-1.46.46-.84 2.76.63 2.3z"/><path d="m502.15 363.77a27.8 27.8 0 0 0 -7.23.2 1.21 1.21 0 0 0 -.84 1.46c.59 2.2 2.94 2.84 4.95 2.82s4.25-.85 5.07-3a1.2 1.2 0 0 0 -.83-1.46 1.22 1.22 0 0 0 -1.47.83c0-.12 0 0 0 0l-.12.2c0 .06-.1.13 0 0l-.15.17-.17.16c-.05.05-.14.1 0 0a3.26 3.26 0 0 1 -.4.24l-.21.1c.12-.05-.06 0-.09 0a5.44 5.44 0 0 1 -.54.15 5.28 5.28 0 0 1 -1 .08 6.63 6.63 0 0 1 -1.09-.05c-.21 0 .14 0-.08 0l-.26-.06-.42-.12-.32-.18s-.19-.15-.11-.08-.08-.08-.09-.09-.17-.18-.09-.09-.06-.08-.07-.1-.12-.22-.07-.11 0-.17-.05-.17l-.83 1.47a25.55 25.55 0 0 1 6.6-.11 1.2 1.2 0 0 0 1.2-1.19 1.24 1.24 0 0 0 -1.2-1.2z"/><path d="m479.69 374.17c-1.56 7.21 9.85 7.29 14.23 7.18 2.62-.07 5.93-.26 6.67-3.35a21.85 21.85 0 0 0 .32-4.78 51.14 51.14 0 0 0 -.34-5.8 1.2 1.2 0 0 0 -2.39 0c-.09 3.59.09 7.83 1.55 11.18 1.34 3.08 4.51 3.68 7.56 3.31 1.78-.22 3.54-.57 5.31-.88a39.29 39.29 0 0 0 5.28-1c3.36-1.1 3.54-4.23 2.85-7.21-.34-1.5-2.64-.87-2.3.63.24 1.05.63 2.48 0 3.46s-2 1-3 1.21c-2.83.49-5.68 1.13-8.54 1.43a7.58 7.58 0 0 1 -3.18-.17 3.65 3.65 0 0 1 -2.22-2.9 32.27 32.27 0 0 1 -1-9.07h-2.39a47.64 47.64 0 0 1 .29 7.74c0 1 .11 2.53-.75 3.18s-2.33.57-3.32.61a38.63 38.63 0 0 1 -7.82-.46c-1.81-.31-5.13-1.16-4.59-3.68.33-1.5-2-2.14-2.3-.64z"/><path d="m495.05 391.89 6.66.45a1.2 1.2 0 0 0 1.19-1.19 1.22 1.22 0 0 0 -1.19-1.2l-6.66-.45a1.2 1.2 0 0 0 -1.19 1.19 1.23 1.23 0 0 0 1.19 1.2z"/></g><g fill="#ff7f00"><path d="m146 466.12c.64-.3 1.05.79 1.14 1.2a5 5 0 0 1 0 2.17 3.52 3.52 0 0 1 -.36.93c-.15.23-.55.46-.65.66.79.52.88.87.26 1.05a1.38 1.38 0 0 1 .38.34 7.69 7.69 0 0 1 .76 1 4.57 4.57 0 0 1 1 2.35c0 1-.59 1.42-1.3 1.95s-1.58 1.13-2.4 1.66c-.16.11-.75.61-.93.51s-.11-1.09-.1-1.33l-1.5 1.15a1.7 1.7 0 0 1 .7 2.24 2.66 2.66 0 0 1 -2.83 1.3c-1.5-.24-2.15 2.06-.63 2.3 2.3.37 4.93-.54 5.75-2.93a4.07 4.07 0 0 0 -2.41-5.13 1.2 1.2 0 0 0 -1.51 1.15c-.09 1.47.25 3.22 1.89 3.69s3.08-1 4.24-1.83 2.79-1.82 3.22-3.44a5.62 5.62 0 0 0 -.88-4.34c-.71-1.16-1.65-2.72-3.11-3a2.09 2.09 0 0 0 -2.36 2.19c.14 1.49 1.82 1.83 3 1.17a4.88 4.88 0 0 0 2.16-3.28 6.39 6.39 0 0 0 -.61-4.6 3.14 3.14 0 0 0 -4-1.2c-1.39.64-.18 2.7 1.2 2.06z"/><path d="m157.37 482a1.19 1.19 0 0 0 0-2.38 1.19 1.19 0 0 0 0 2.38z"/><path d="m155.6 489.77a1.2 1.2 0 0 0 0-2.39 1.2 1.2 0 0 0 0 2.39z"/><path d="m163.14 484.44a1.19 1.19 0 0 0 0-2.38 1.19 1.19 0 0 0 0 2.38z"/><path d="m183.77 494.65a1.2 1.2 0 0 0 0-2.39 1.2 1.2 0 0 0 0 2.39z"/></g><g fill="#fff"><path d="m123.12 441.32a29.34 29.34 0 0 0 .49 5.2 1.2 1.2 0 0 0 1.46.83 1.23 1.23 0 0 0 .84-1.47c-.08-.4-.15-.8-.2-1.21 0 .31 0 0 0-.06s0-.19 0-.28l-.06-.61c-.07-.8-.1-1.6-.1-2.4a1.2 1.2 0 1 0 -2.39 0z"/><path d="m139.59 437a39.14 39.14 0 0 0 -1.8 7.32 1.21 1.21 0 0 0 .84 1.46 1.2 1.2 0 0 0 1.46-.83 39.33 39.33 0 0 1 1.8-7.32 1.19 1.19 0 0 0 -.83-1.46 1.22 1.22 0 0 0 -1.47.83z"/><path d="m158.17 440.3-4.26 7.08a1.2 1.2 0 0 0 .43 1.63 1.22 1.22 0 0 0 1.63-.43l4.26-7.07a1.19 1.19 0 0 0 -2.06-1.21z"/><path d="m120.65 500.25c1.86 3 5.55 4.19 8.65 5.5a56.71 56.71 0 0 0 11.54 3.79c1.5.28 2.15-2 .64-2.3a53 53 0 0 1 -10.58-3.38c-1.59-.66-3.19-1.32-4.73-2.07a7.79 7.79 0 0 1 -3.46-2.74c-.81-1.3-2.87-.11-2.06 1.2z"/><path d="m128.37 516.68a21.64 21.64 0 0 0 7.26 1.71 1.19 1.19 0 0 0 1.19-1.19 1.21 1.21 0 0 0 -1.19-1.19l-.86-.07h-.36-.25c-.52-.08-1-.17-1.56-.3s-1-.26-1.54-.42l-.81-.28-.35-.13-.22-.09h-.06a1.23 1.23 0 0 0 -1.63.43 1.2 1.2 0 0 0 .43 1.63z"/><path d="m185.66 463.59a8.44 8.44 0 0 0 -.41 1 2.36 2.36 0 0 0 -.1.38 3.47 3.47 0 0 0 -.06.64 2.43 2.43 0 0 0 1.07 1.94 1.84 1.84 0 0 0 1.1.29 2 2 0 0 0 1.09-.37 2.64 2.64 0 0 0 .77-.86 2.68 2.68 0 0 0 .3-1.18 4.71 4.71 0 0 0 -.67-2.18 1.19 1.19 0 0 0 -2.18.28 1.29 1.29 0 0 0 .12.92c.1.19.19.39.28.59l-.12-.29a3.42 3.42 0 0 1 .21.71l-.05-.32a1.55 1.55 0 0 1 0 .48v-.32a1.09 1.09 0 0 1 -.08.31l.12-.28a1.61 1.61 0 0 1 -.17.28l.19-.24a1.58 1.58 0 0 1 -.22.23l.24-.19a1.09 1.09 0 0 1 -.23.14l.29-.12a.9.9 0 0 1 -.22.06h.32-.23.32l-.19-.05.29.12a1.18 1.18 0 0 1 -.19-.11l.24.18a.71.71 0 0 1 -.15-.15l.18.24a1.35 1.35 0 0 1 -.15-.26l.12.28a1 1 0 0 1 -.09-.33v.32a1.28 1.28 0 0 1 0-.39v.32a3 3 0 0 1 .2-.72l-.12.28c.06-.13.13-.27.19-.41a1.27 1.27 0 0 0 .12-.92 1.21 1.21 0 0 0 -.55-.71 1.18 1.18 0 0 0 -.92-.12 1.16 1.16 0 0 0 -.71.55z"/><path d="m176.45 460.48a1.19 1.19 0 0 0 0-2.38 1.19 1.19 0 0 0 0 2.38z"/><path d="m199.78 451a3.78 3.78 0 0 0 -1.06.75 2.63 2.63 0 0 0 -.54.89 1.82 1.82 0 0 0 0 1 2 2 0 0 0 .47.87 1.8 1.8 0 0 0 .82.53 1.54 1.54 0 0 0 .95 0 1.63 1.63 0 0 0 .64-.39 1.52 1.52 0 0 0 .3-.37 3.19 3.19 0 0 0 .2-.46l.06-.21a3.31 3.31 0 0 1 .12-.42l-.12.29a.8.8 0 0 1 .08-.16l-.18.25a.23.23 0 0 1 .07-.07l-.24.18.08-.05-.28.12a1.18 1.18 0 0 0 .71-.55 1.16 1.16 0 0 0 .12-.91 1.18 1.18 0 0 0 -1.46-.84 1.56 1.56 0 0 0 -.73.44 2.2 2.2 0 0 0 -.43.76 6.52 6.52 0 0 1 -.18.63l.12-.28a1.4 1.4 0 0 1 -.1.16l.19-.24-.09.09.24-.19-.09.06.29-.12h-.12l.32-.05h-.09l.31.05h-.13l.29.12-.14-.08.24.18a.54.54 0 0 1 -.15-.15l.18.24a1 1 0 0 1 -.1-.17l.12.28a1.05 1.05 0 0 1 -.05-.19v.32a.49.49 0 0 1 0-.17v.31a1.21 1.21 0 0 1 .05-.18l-.12.28a1.49 1.49 0 0 1 .14-.24l-.19.25a1.64 1.64 0 0 1 .3-.29l-.24.18a4.72 4.72 0 0 1 .61-.37 1.25 1.25 0 0 0 .55-.71 1 1 0 0 0 0-.48 1 1 0 0 0 -.14-.44 1.2 1.2 0 0 0 -.72-.55 1.34 1.34 0 0 0 -.92.12z"/><path d="m198.86 473.35a1.2 1.2 0 0 0 0-2.39 1.2 1.2 0 0 0 0 2.39z"/><path d="m162.22 507.84a2.39 2.39 0 0 0 -2 1.2 2.42 2.42 0 0 0 0 2.4 2.59 2.59 0 0 0 1.75 1.25 2.77 2.77 0 0 0 1.28 0 2.91 2.91 0 0 0 1.1-.61 3 3 0 0 0 1-1.92 2.82 2.82 0 0 0 -.1-1.26 2.3 2.3 0 0 0 -.9-1.16 2.58 2.58 0 0 0 -3.52.95 2.25 2.25 0 0 0 -.23.61 2.64 2.64 0 0 0 0 1 1.83 1.83 0 0 0 .88 1.26 1.73 1.73 0 0 0 2.52-1.46 1.2 1.2 0 0 0 -1.19-1.2 1.22 1.22 0 0 0 -1.19 1.2v.06-.32a.32.32 0 0 1 0 .09l.13-.28-.05.08.19-.25a.38.38 0 0 1 -.09.09l.24-.18-.11.06.29-.12a.67.67 0 0 1 -.19.05h.31-.16.32-.13l.29.12-.12-.06.24.18-.08-.09.19.25a.67.67 0 0 1 -.11-.18l.12.29a1.05 1.05 0 0 1 -.06-.24v.32a1 1 0 0 1 0-.25v.31a1.68 1.68 0 0 1 .09-.32l-.12.28a1.09 1.09 0 0 1 .14-.23l-.19.24a1.88 1.88 0 0 1 .24-.25l-.24.19a1.35 1.35 0 0 1 .33-.19l-.28.12a1.82 1.82 0 0 1 .4-.11h-.32a1.53 1.53 0 0 1 .37 0h-.32l.28.08-.28-.12a1.06 1.06 0 0 1 .2.12l-.25-.19a.87.87 0 0 1 .17.16l-.19-.24a1.4 1.4 0 0 1 .16.26l-.12-.28a1.63 1.63 0 0 1 .07.3v-.32a2 2 0 0 1 0 .49l.05-.31a2.46 2.46 0 0 1 -.15.51l.12-.29a1.76 1.76 0 0 1 -.24.42l.19-.24a1.77 1.77 0 0 1 -.34.33l.24-.18a1.41 1.41 0 0 1 -.38.21l.29-.12a1.61 1.61 0 0 1 -.36.1h.31a1.45 1.45 0 0 1 -.36 0l.31.05a1.62 1.62 0 0 1 -.43-.12l.29.12a2 2 0 0 1 -.35-.21l.24.19a1.2 1.2 0 0 1 -.22-.23l.18.24a1.2 1.2 0 0 1 -.16-.27l.12.29a1.58 1.58 0 0 1 -.09-.31v.32a1.15 1.15 0 0 1 0-.32v.32a1.09 1.09 0 0 1 .08-.31l-.12.29a1.92 1.92 0 0 1 .18-.31l-.19.24a2.39 2.39 0 0 1 .22-.23l-.24.19a1.48 1.48 0 0 1 .27-.16l-.29.12a1.25 1.25 0 0 1 .26-.07h-.31.15a1.2 1.2 0 1 0 0-2.39z"/><path d="m170.68 522.16a1.2 1.2 0 0 0 0-2.39 1.2 1.2 0 0 0 0 2.39z"/><path d="m150.05 521.94a1.2 1.2 0 0 0 0-2.39 1.2 1.2 0 0 0 0 2.39z"/><path d="m106.47 483.51.66.22a1 1 0 0 0 .48 0 .86.86 0 0 0 .44-.15.89.89 0 0 0 .34-.3 1 1 0 0 0 .21-.41v-.32a1.17 1.17 0 0 0 -.16-.6l-.19-.24a1.15 1.15 0 0 0 -.52-.31l-.67-.22a.94.94 0 0 0 -.47 0 1 1 0 0 0 -.45.14.9.9 0 0 0 -.33.31.81.81 0 0 0 -.21.41v.31a1.13 1.13 0 0 0 .17.6l.18.25a1.22 1.22 0 0 0 .53.3z"/><path d="m110.11 500.2h1.11a.9.9 0 0 0 .46-.11 1 1 0 0 0 .63-.63.9.9 0 0 0 .11-.46v-.31a1.17 1.17 0 0 0 -.3-.53l-.25-.19a1.12 1.12 0 0 0 -.6-.16h-1.11a1.21 1.21 0 0 0 -1.19 1.19v.32a1.24 1.24 0 0 0 .31.53l.24.18a1.29 1.29 0 0 0 .6.17z"/><path d="m192.43 516a1.2 1.2 0 0 0 0-2.39 1.2 1.2 0 0 0 0 2.39z"/><path d="m204.88 498.81a6.48 6.48 0 0 0 -.93 4.83 1.17 1.17 0 0 0 .83.84 1.27 1.27 0 0 0 1.16-.31 7.62 7.62 0 0 0 2.61-4 2.36 2.36 0 0 0 -.08-1.77 2 2 0 0 0 -1.23-1 2.92 2.92 0 0 0 -2.74 1 1.21 1.21 0 0 0 0 1.69 1.23 1.23 0 0 0 1.69 0c.11-.1.24-.19.34-.3-.18.2-.09.07 0 0l.2-.11s-.28.12 0 0-.24 0-.1 0-.17-.06-.07 0a.74.74 0 0 0 .14 0c-.18-.09-.23-.1-.12 0l-.14-.12c.14.15-.14-.25 0-.06-.07-.19-.09-.24-.07-.14s0 .05 0-.13a7.88 7.88 0 0 1 -.24.83 1.34 1.34 0 0 1 -.07.18c-.08.24.11-.22 0 0s-.13.28-.2.41-.3.5-.46.74 0 0 0 0-.11.14-.14.17l-.3.34a5.51 5.51 0 0 1 -.68.6l2 .53a1.57 1.57 0 0 0 0-.23c0 .18 0 .21 0 .08v-.08c0-.16 0-.32 0-.47s0-.32 0-.48 0 .25 0 0c0-.09 0-.18.05-.27l.12-.46c0-.07.05-.15.08-.22s.12-.3 0-.12 0-.07.05-.11l.11-.21a3.87 3.87 0 0 1 .27-.43 1.21 1.21 0 0 0 -.43-1.64 1.23 1.23 0 0 0 -1.63.43z"/><path d="m474.86 362.3a38.11 38.11 0 0 1 11.45 1.16 1.19 1.19 0 0 0 .63-2.3 40 40 0 0 0 -12.08-1.24c-1.53.07-1.54 2.46 0 2.38z"/><path d="m515.89 364.16a19.7 19.7 0 0 1 4.37-1.46 17.3 17.3 0 0 1 2.16-.32c.4 0 .8-.07 1.2-.08h.23c.09 0 .08 0 0 0 .14 0 .15 0 0 0 .34.23.26 0-.26-.81a1.21 1.21 0 0 0 .84 1.46 1.2 1.2 0 0 0 1.46-.83c.3-1.25-.73-2.07-1.88-2.17a13.35 13.35 0 0 0 -3.21.26 22.06 22.06 0 0 0 -6.13 1.91 1.19 1.19 0 1 0 1.21 2.06z"/><path d="m448.77 348.14a20.19 20.19 0 0 1 1.46-10.14 19.48 19.48 0 0 1 2.61-4.42c1-1.22 2.47-3.06 4.22-2.49l-.83-1.47-.37 1.72h2.3c-1.27-3.18 4.37-3.62 6.23-3.92 3.52-.57 7.05-1 10.59-1.37a181.88 181.88 0 0 1 20.75-.82 1.19 1.19 0 0 0 0-2.38 180.37 180.37 0 0 0 -24.15 1.15 90.79 90.79 0 0 0 -11.26 1.71c-2.72.68-5.71 3.1-4.46 6.24.39 1 2 1.26 2.3 0l.37-1.72a1.23 1.23 0 0 0 -.83-1.47c-4.11-1.35-7.45 3.83-9 6.88a22.21 22.21 0 0 0 -2.31 12.46c.16 1.51 2.55 1.52 2.38 0z"/><path d="m500.69 325.54.89-.22a1 1 0 0 0 .41-.21.89.89 0 0 0 .3-.34.86.86 0 0 0 .15-.44 1 1 0 0 0 0-.48l-.12-.28a1.15 1.15 0 0 0 -.42-.43l-.29-.12a1.12 1.12 0 0 0 -.63 0l-.89.22a.91.91 0 0 0 -.41.22.8.8 0 0 0 -.3.33.82.82 0 0 0 -.14.45.84.84 0 0 0 0 .47l.12.29a1.21 1.21 0 0 0 .42.42l.29.12a1.13 1.13 0 0 0 .63 0z"/><path d="m505.92 324.48a1.2 1.2 0 0 0 0-2.39 1.2 1.2 0 0 0 0 2.39z"/><path d="m503 330.47a1.2 1.2 0 0 0 0-2.39 1.2 1.2 0 0 0 0 2.39z"/><path d="m513.9 324.77c3.28-.24 6.57-.3 9.86-.25 1.57 0 3.13.06 4.69.12l2.47.08h1.23.37a.93.93 0 0 0 1.18-.44l.59 1c0-.73 3.12-.33 3.51-.27a15.08 15.08 0 0 1 4.39 1.34c1.38.66 2.59-1.39 1.2-2.06a17.87 17.87 0 0 0 -5.4-1.64c-1.48-.2-3.25-.39-4.63.35-1 .54-2.08 2-1.1 3.12a1.88 1.88 0 0 0 3-.74c.56-1.55-.86-2.8-2.26-3a51.18 51.18 0 0 0 -6.07-.26 129.49 129.49 0 0 0 -13.07.18c-1.52.11-1.53 2.5 0 2.39z"/><path d="m552.92 265a36.26 36.26 0 0 0 -16.12 12.4 35.83 35.83 0 0 0 -4.79 9 13.93 13.93 0 0 0 -1.2 5 2.43 2.43 0 0 0 3.18 2.36 1.25 1.25 0 0 0 .87-1.15 2 2 0 0 0 -2.12-2.06c-1.43.1-2.33 1.54-2.89 2.69a10.41 10.41 0 0 0 -.36 8.31l.12-.92a7.89 7.89 0 0 0 -1.56 4.84 1.2 1.2 0 0 0 2.39 0 5.83 5.83 0 0 1 1-3.31c.68-1.06.08-1.77-.13-2.92a7.91 7.91 0 0 1 .09-3.25 7.28 7.28 0 0 1 .53-1.55c.11-.23.24-.46.37-.68.35-.58.17-.35.2-1.15l.87-1.15c-.32.13.2-2 .23-2.16.17-.59.35-1.17.55-1.75a29.93 29.93 0 0 1 1.57-3.79 34 34 0 0 1 17.85-16.49c1.42-.55.8-2.86-.63-2.3z"/><path d="m447.9 272.36c-3.6 4.36-4.57 10-4.31 15.53.1 2.1 0 5.44 2.13 6.64a2.48 2.48 0 0 0 3.55-3 1.18 1.18 0 0 0 -1.35-.55c-3.43 1.37-2.34 5.11-1.48 7.84a109 109 0 0 0 3.89 10.34c.61 1.41 2.66.19 2.06-1.2-1.07-2.46-2-5-2.9-7.51-.41-1.2-.8-2.42-1.17-3.64-.26-.89-1-3 .24-3.53l-1.35-.55c.1-.36.05-.44-.16-.25s-.19 0-.25-.08a2.61 2.61 0 0 1 -.48-1 15.39 15.39 0 0 1 -.27-2.24 35.39 35.39 0 0 1 0-5.35 17.25 17.25 0 0 1 3.56-9.69c1-1.17-.71-2.87-1.69-1.68z"/><path d="m458.07 369a1.2 1.2 0 0 0 0-2.39 1.2 1.2 0 0 0 0 2.39z"/><path d="m464.57 365.73v.3a.92.92 0 0 0 .11.46.8.8 0 0 0 .24.38.9.9 0 0 0 .39.25.89.89 0 0 0 .46.1h.31a1.24 1.24 0 0 0 .53-.31l.19-.24a1.22 1.22 0 0 0 .16-.6v-.3a1 1 0 0 0 -.1-.45 1.08 1.08 0 0 0 -.64-.64 1 1 0 0 0 -.45-.1h-.32a1.24 1.24 0 0 0 -.53.31l-.18.24a1.19 1.19 0 0 0 -.17.6z"/><path d="m465.77 376.69a1.2 1.2 0 0 0 0-2.39 1.2 1.2 0 0 0 0 2.39z"/><path d="m532.58 368.35.59-.59a1 1 0 0 0 .25-.38 1 1 0 0 0 .1-.46 1.32 1.32 0 0 0 -.35-.85l-.24-.18a1.17 1.17 0 0 0 -.6-.16h-.32a1.22 1.22 0 0 0 -.53.3l-.59.6a.82.82 0 0 0 -.25.38 1.11 1.11 0 0 0 0 .92.87.87 0 0 0 .25.38l.24.19a1.17 1.17 0 0 0 .6.16h.32a1.24 1.24 0 0 0 .53-.31z"/><path d="m536.05 362.48.89 1.18a.8.8 0 0 0 .3.33.91.91 0 0 0 .41.22.94.94 0 0 0 .47 0 1 1 0 0 0 .45-.14l.24-.19a1.18 1.18 0 0 0 .31-.53v-.31a1.22 1.22 0 0 0 -.16-.6l-.89-1.19a.9.9 0 0 0 -.31-.33.81.81 0 0 0 -.41-.21 1.23 1.23 0 0 0 -.92.12l-.24.18a1.22 1.22 0 0 0 -.3.53v.32a1.19 1.19 0 0 0 .17.6z"/><path d="m539.13 373.14a1.2 1.2 0 0 0 0-2.39 1.2 1.2 0 0 0 0 2.39z"/></g><g fill="#ff7f00"><path d="m839.52 489.58a8.48 8.48 0 0 0 10.48 2.67 1.19 1.19 0 0 0 -1.21-2.06s-.29.13-.18.09l-.2.07-.51.16-.53.12s-.32 0-.19 0-.18 0-.2 0a7.23 7.23 0 0 1 -1.14 0h-.3s-.4-.07-.59-.12l-.52-.16-.28-.1c-.06 0-.17-.06-.05 0a7.46 7.46 0 0 1 -1-.53l-.25-.17-.17-.12c.08.06-.16-.14-.16-.13l-.18-.16-.42-.43-.15-.18c-.25-.29.11.17-.11-.14a1.23 1.23 0 0 0 -1.66-.39 1.2 1.2 0 0 0 -.43 1.63z"/><path d="m808.32 529.22a8.11 8.11 0 0 0 11.4-4.78l-2.18.28a8.64 8.64 0 0 0 16-4.6l-2.23.6a9 9 0 0 0 17.1-4.56l-2 .85c2.64 2.57 6.12 5.37 10 3.8s5.24-5.82 5.33-9.7l-2.34.31a6.35 6.35 0 0 0 12.6-1.64l-1.8 1c2.14 1.13 3.32 3.62 6.14 2.84a4.44 4.44 0 0 0 3.17-5.2c-.34-1.5-2.65-.86-2.3.63a2 2 0 0 1 -2.41 2.25c-1.3-.43-2.17-1.93-3.39-2.58a1.21 1.21 0 0 0 -1.8 1 4 4 0 0 1 -7.87 1 1.2 1.2 0 0 0 -2.35.32c-.06 2.87-.85 6.37-3.86 7.51s-5.52-1.46-7.41-3.3a1.21 1.21 0 0 0 -2 .84 6.64 6.64 0 0 1 -12.65 3.36 1.2 1.2 0 0 0 -2.22.6 6.25 6.25 0 0 1 -11.57 3.4 1.21 1.21 0 0 0 -2.18.28 5.69 5.69 0 0 1 -7.9 3.36c-1.35-.72-2.55 1.33-1.2 2.06z"/><path d="m814.83 539.4a6.44 6.44 0 0 0 11.42-1.81l-2.18.28a6 6 0 0 0 6.61 2.9c2.83-.64 4.77-3.14 5.54-5.82h-2.3a7.19 7.19 0 0 0 13.84-1.2l-2.18.29a7.05 7.05 0 0 0 8 2.62 9.15 9.15 0 0 0 5.77-7.3l-2.18.29a7.14 7.14 0 0 0 13.47-3.43l-2.22.6a6 6 0 0 0 6.92 2.92 6.56 6.56 0 0 0 4.37-6.57l-2.23.6a4.07 4.07 0 0 0 7.19-1 1.19 1.19 0 0 0 -2.3-.64 1.68 1.68 0 0 1 -2.83.42 1.2 1.2 0 0 0 -2.22.6 4.19 4.19 0 0 1 -2.62 4.27 3.55 3.55 0 0 1 -4.22-1.82 1.21 1.21 0 0 0 -2.23.6 4.75 4.75 0 0 1 -9 2.22 1.21 1.21 0 0 0 -2.18.29 7.09 7.09 0 0 1 -3.77 5.5 4.68 4.68 0 0 1 -5.66-1.4c-.53-.77-2-.8-2.18.29a5.05 5.05 0 0 1 -4 4.12 5 5 0 0 1 -5.27-2.92 1.2 1.2 0 0 0 -2.3 0 5.66 5.66 0 0 1 -3.56 4.08 3.61 3.61 0 0 1 -4.23-1.73 1.21 1.21 0 0 0 -2.1.35 4 4 0 0 1 -7.06 1.24c-.91-1.21-3 0-2.06 1.21z"/><path d="m838 551.64c1.49 1.14 3.45.48 4.8-.54.74-.56 1.54-1.45 2.54-1.49s2.16.76 3.17 1.07a6.56 6.56 0 0 0 8.11-4.84l-2 .52a7.54 7.54 0 0 0 12.2-1.29 13 13 0 0 1 .7-1.51c.49-.64 1-.13 1.57.18a4.88 4.88 0 0 0 3.38.61c2.76-.57 4.21-3.06 5.32-5.4l-2.18-.29a3 3 0 0 0 2.83 2.22c1.53.1 1.53-2.28 0-2.39a.51.51 0 0 1 -.53-.46 1.21 1.21 0 0 0 -2.18-.29c-.82 1.72-2.23 4.85-4.68 4.28-1-.24-1.8-1.11-2.92-1.22a2.57 2.57 0 0 0 -2.34 1.05c-.53.7-.73 1.58-1.22 2.32a5.48 5.48 0 0 1 -2.42 2 5 5 0 0 1 -5.84-1.51 1.2 1.2 0 0 0 -2 .52 4.2 4.2 0 0 1 -2.73 3.12c-1.56.57-2.83-.11-4.28-.67a4.62 4.62 0 0 0 -4.26.29c-1 .62-2.59 2.61-3.84 1.64s-2.41 1.13-1.21 2.06z"/><path d="m883.1 537.69h.22a.91.91 0 0 0 .46-.1 1.13 1.13 0 0 0 .63-.63.91.91 0 0 0 .1-.46v-.32a1.24 1.24 0 0 0 -.31-.53l-.24-.18a1.17 1.17 0 0 0 -.6-.16h-.22a.8.8 0 0 0 -.46.1 1 1 0 0 0 -.39.24.88.88 0 0 0 -.24.39.9.9 0 0 0 -.11.46l.05.32a1.19 1.19 0 0 0 .3.52l.24.19a1.18 1.18 0 0 0 .61.16z"/><path d="m816.09 519.5h.22a.9.9 0 0 0 .46-.11 1 1 0 0 0 .63-.63.9.9 0 0 0 .11-.46v-.31a1.13 1.13 0 0 0 -.3-.53l-.24-.18a1.19 1.19 0 0 0 -.61-.17h-.22a1 1 0 0 0 -.46.11 1.05 1.05 0 0 0 -.63.63.87.87 0 0 0 -.1.45v.32a1.24 1.24 0 0 0 .31.53l.24.18a1.19 1.19 0 0 0 .6.17z"/><path d="m816.31 513.29a1.2 1.2 0 0 0 0-2.39 1.2 1.2 0 0 0 0 2.39z"/><path d="m823.15 514.49.22-.22a.9.9 0 0 0 .25-.39.89.89 0 0 0 .1-.46 1.27 1.27 0 0 0 -.35-.84l-.24-.19a1.28 1.28 0 0 0 -.6-.16h-.32a1.24 1.24 0 0 0 -.53.31l-.22.22a.88.88 0 0 0 -.24.39.9.9 0 0 0 -.11.46 1 1 0 0 0 .11.46.91.91 0 0 0 .24.38l.24.19a1.29 1.29 0 0 0 .61.16h.31a1.24 1.24 0 0 0 .53-.31z"/><path d="m868.23 495.09h.22a.89.89 0 0 0 .46-.1.9.9 0 0 0 .39-.25.85.85 0 0 0 .24-.38.92.92 0 0 0 .11-.46v-.32a1.19 1.19 0 0 0 -.3-.52l-.24-.19a1.18 1.18 0 0 0 -.61-.16h-.22a.91.91 0 0 0 -.46.1.87.87 0 0 0 -.38.25.82.82 0 0 0 -.25.38.91.91 0 0 0 -.1.46v.32a1.21 1.21 0 0 0 .31.52l.24.19a1.17 1.17 0 0 0 .6.16z"/><path d="m869.78 501.53a1.2 1.2 0 0 0 0-2.39 1.2 1.2 0 0 0 0 2.39z"/><path d="m820.53 440.59a32.48 32.48 0 0 0 2.93 7.74 1.19 1.19 0 1 0 2.06-1.2 28.69 28.69 0 0 1 -1.55-3.42 30.58 30.58 0 0 1 -1.14-3.75 1.21 1.21 0 0 0 -1.47-.84 1.23 1.23 0 0 0 -.83 1.47z"/><path d="m843.83 437.32-.66 8.58a1.2 1.2 0 0 0 1.19 1.19 1.21 1.21 0 0 0 1.19-1.19l.67-8.58a1.2 1.2 0 0 0 -2.39 0z"/><path d="m867.07 438.39a27.49 27.49 0 0 0 -5.44 9.28 1.19 1.19 0 0 0 2.3.63 24.81 24.81 0 0 1 4.82-8.22 1.22 1.22 0 0 0 0-1.69 1.2 1.2 0 0 0 -1.68 0z"/><path d="m360.76 240.5c-5.06 7.05-6.43 16.62-5.7 25.11.66 7.63 3.42 15.49 9.92 20.06 3.43 2.42 8.24 3.72 12.11 1.51 3.16-1.81 5.25-6 3.11-9.37-1.88-3-6.18-4.14-8.76-1.33a9.09 9.09 0 0 0 -2 5 60.88 60.88 0 0 0 -.52 7c-.12 5 .56 10.2 3.71 14.21 2.79 3.56 7.17 5.82 11.73 4.87 1.5-.32.86-2.62-.64-2.3-3.32.69-6.51-1-8.7-3.42-2.54-2.8-3.47-6.59-3.68-10.27a47.4 47.4 0 0 1 .11-6 28 28 0 0 1 .59-5.08c.34-1.39 1.1-3.07 2.71-3.28a3.76 3.76 0 0 1 3.39 1.78c1.93 2.95-1.35 6.27-4.16 6.8-3.59.69-7.22-1.39-9.72-3.79-4.58-4.42-6.46-11-6.88-17.14-.54-7.92.72-16.61 5.43-23.18.9-1.25-1.17-2.44-2.06-1.2z"/><path d="m431.78 217.55 1.77 8.87a1.19 1.19 0 1 0 2.3-.63l-1.77-8.88a1.19 1.19 0 1 0 -2.3.64z"/><path d="m489.36 197.37a100.37 100.37 0 0 0 -2.57 22.52 1.2 1.2 0 0 0 2.39 0 97.2 97.2 0 0 1 2.48-21.89c.35-1.49-2-2.13-2.3-.63z"/><path d="m550.7 200.05-8.87 24.85c-.52 1.45 1.78 2.07 2.29.64l8.88-24.85c.52-1.45-1.79-2.07-2.3-.64z"/><path d="m622.9 233.26a86 86 0 0 0 -18.84 26.85c-.62 1.39 1.43 2.61 2.06 1.21a84.48 84.48 0 0 1 18.46-26.38c1.11-1.06-.58-2.75-1.68-1.68z"/><path d="m634.16 279.37c1.58-2.49 4.84-3.26 7.58-2.5 3.21.88 5.18 3.91 5.82 7 1.45 7.08-4.06 14.49-9.88 17.93-3.23 1.91-7.24 2.93-10.59.75l.54 1.35c1.25-3 5.62-2.53 7.35-.33 2.29 2.93 1.45 6.93-.38 9.85-4.31 6.9-12.55 10.83-19.53 14.43-1.37.7-.16 2.76 1.2 2.06 7-3.59 14.4-7.38 19.28-13.71 2.14-2.77 3.6-6.16 3.09-9.72-.43-3-2.32-6-5.39-6.86a6.59 6.59 0 0 0 -7.92 3.64 1.22 1.22 0 0 0 .55 1.35c7.72 5 17-2.44 21.15-8.77a17 17 0 0 0 2.86-12.43c-.73-3.85-3.25-7.46-7.07-8.74a9.25 9.25 0 0 0 -10.72 3.46c-.83 1.3 1.23 2.5 2.06 1.2z"/><path d="m97.16 605.28a129 129 0 0 0 19.39 2.58q4.8.27 9.62.17c2.64-.06 5.39-.15 7.83-1.24a6.93 6.93 0 0 0 4.1-4.51 5.88 5.88 0 0 0 -1-5.3 4.56 4.56 0 0 0 -5.74-.79 7.54 7.54 0 0 0 -3.55 5.82c-.35 4.11 2.52 7.9 6.09 9.64a10.46 10.46 0 0 0 5.94 1.05c2.31-.31 4.07-1.63 5.9-3s4.34-3.34 6.27-1.15c1.57 1.77 2.33 4 4.93 4.53s5.43-.72 8-1.33a68.92 68.92 0 0 1 9.78-1.47c7.43-.65 14.89-1 22.33-1.43l22.88-1.42c1.52-.09 1.53-2.48 0-2.38l-35.81 2.21a152.07 152.07 0 0 0 -16.79 1.57c-2.66.47-5.21 1.42-7.86 1.88a3.9 3.9 0 0 1 -3.29-.58 12 12 0 0 1 -1.79-2.39 5.29 5.29 0 0 0 -4.85-2.56c-2.16.22-4 1.69-5.63 2.93s-3.19 2.27-5.26 2.28a8.72 8.72 0 0 1 -5-1.66c-3-2.09-4.92-6.47-2.2-9.58 1.23-1.41 3.58-1.93 4.3.23a4.16 4.16 0 0 1 -1.52 4.52c-2.08 1.54-4.89 1.64-7.37 1.71-3.2.09-6.42 0-9.62-.11a125.3 125.3 0 0 1 -19.45-2.5c-1.5-.32-2.14 2-.63 2.3z"/><path d="m100.15 653.05 55-2.5a1.2 1.2 0 0 0 .31-2.35 8.56 8.56 0 0 0 -7.29 1 1.21 1.21 0 0 0 -.24 1.87 9.68 9.68 0 0 0 8.49 3.25c3.41-.42 5.58-2.86 8.22-4.77 1.17-.84 2.58-1.68 4.06-1.19 1.69.56 3.05 2.16 4.63 3a21.53 21.53 0 0 0 10.17 2.22 60.2 60.2 0 0 0 12.52-1.72c1.5-.33.86-2.63-.64-2.3-6.51 1.41-14.23 3-20.51-.09-2.82-1.4-5-4.32-8.46-3.46-3 .73-4.94 3.38-7.43 4.93a7.29 7.29 0 0 1 -9.36-1.54l-.25 1.87a6.23 6.23 0 0 1 5.46-.81l.32-2.34-55 2.51c-1.53.07-1.54 2.45 0 2.38z"/><path d="m122.12 688.79q29.41-3 59-4.2 8.44-.35 16.89-.54a1.19 1.19 0 0 0 0-2.38q-29.56.69-59 3.16-8.41.72-16.82 1.57c-1.52.16-1.53 2.54 0 2.39z"/><path d="m223.27 685.23a1.19 1.19 0 0 0 0-2.38 1.19 1.19 0 0 0 0 2.38z"/><path d="m144.36 710.43a145.44 145.44 0 0 1 46.95-1.86c1.52.19 1.51-2.2 0-2.39a147.34 147.34 0 0 0 -47.58 2c-1.5.31-.87 2.61.63 2.3z"/></g><g fill="#fff"><path d="m405.76 522.54c12.23 5.75 27.65 1.66 36.35-8.44a28 28 0 0 0 5.52-9.85 1.21 1.21 0 0 0 -1.15-1.51c-6.8-.41-10.52 8.2-7.85 13.73 3.43 7.1 13.06 7.77 19.51 5.11 4.71-1.94 8.65-5.25 12.5-8.52l-2-.85c.12 3.1 2.62 5.23 5.48 5.95 3.7.94 7.19-.79 10.62-1.95 4.28-1.45 8.61-1.06 13-.42l13.92 2.05c4.48.66 9 1.26 13.44 2a55.14 55.14 0 0 1 6.34 1.39 42.13 42.13 0 0 0 6.13 1.68c4.36.59 9-.4 13.34-.87l13.83-1.49 31.36-3.39c1.51-.16 1.53-2.55 0-2.38-17.67 1.9-35.33 4-53 5.72a19.57 19.57 0 0 1 -6.39-.16c-2-.48-3.95-1.27-6-1.78a127.23 127.23 0 0 0 -12.56-2.16l-13.21-1.95c-4.14-.61-8.31-1.42-12.49-1.64a22 22 0 0 0 -6.94.65c-2.08.57-4 1.48-6.11 2.08a8.51 8.51 0 0 1 -5.46.07 4 4 0 0 1 -2.94-3.41 1.21 1.21 0 0 0 -2-.84c-5.31 4.51-11.4 9.68-18.81 9.32-5.68-.28-11.58-4.51-9.63-10.78.83-2.67 3-5 6-4.78l-1.15-1.51c-3.72 11.8-16.15 19.47-28.26 19.19a25.17 25.17 0 0 1 -10.1-2.33c-1.38-.65-2.59 1.4-1.21 2.06z"/><path d="m409 575.8 59.24 1.56 14.68.38c4.31.12 8.87.59 13.09-.53a10.62 10.62 0 0 0 7.54-6.48 7 7 0 0 0 -2.45-8.4c-2.72-1.79-6.15-.89-8.8.55a23.27 23.27 0 0 0 -7.92 7.2 5.59 5.59 0 0 0 -.95 5.16 7.15 7.15 0 0 0 3.71 3.63 17.49 17.49 0 0 0 9.38 1.5c6.95-.71 13.27-4 20-5.56a20.49 20.49 0 0 1 10.2-.12c3.89 1.09 7.31 3.48 11.38 4 4.46.53 8.53-1.73 12.75-2.76a62.43 62.43 0 0 1 14.15-1.42c9.7-.13 19.4-.16 29.11-.24l7.43-.06a1.19 1.19 0 0 0 0-2.38l-27.26.22c-8.48.07-17.38-.47-25.61 2-4 1.18-7.78 3.08-12 2-3.57-1-6.71-3.07-10.34-3.84-6.32-1.33-12.65.86-18.57 2.88-5.64 1.92-12 4.34-18 2.38-1.53-.5-3.44-1.34-4.1-2.92s.93-3.52 2-4.72c2.13-2.44 4.9-4.84 8.08-5.74 2.86-.82 6 .59 5.95 3.9s-2.71 5.88-5.72 6.84c-3.84 1.21-8.1.75-12 .64l-13.75-.47-54.51-1.44-6.72-.17a1.19 1.19 0 0 0 0 2.38z"/><path d="m410.74 627.53q30.76-1.89 61.59-1.87 8.7 0 17.4.16a1.2 1.2 0 0 0 0-2.39q-30.81-.54-61.62.8-8.69.38-17.37.91c-1.52.09-1.53 2.48 0 2.39z"/><path d="m517.8 626.65a45.28 45.28 0 0 0 24.6-.06 1.19 1.19 0 0 0 -.64-2.3 43 43 0 0 1 -23.33.06 1.19 1.19 0 0 0 -.63 2.3z"/><path d="m588.24 626.66h.88a.89.89 0 0 0 .46-.1.9.9 0 0 0 .39-.25 1 1 0 0 0 .24-.38 1 1 0 0 0 .11-.46l-.05-.32a1.22 1.22 0 0 0 -.3-.53l-.24-.18a1.19 1.19 0 0 0 -.61-.17h-.88a.9.9 0 0 0 -.46.11 1 1 0 0 0 -.63.63.9.9 0 0 0 -.11.46l.05.31a1.08 1.08 0 0 0 .3.53l.24.19a1.29 1.29 0 0 0 .61.16z"/><path d="m586.16 628.13v1.77a1.19 1.19 0 1 0 2.38 0v-1.77a1.19 1.19 0 0 0 -.35-.84 1.16 1.16 0 0 0 -.84-.35 1.15 1.15 0 0 0 -.84.35 1.21 1.21 0 0 0 -.35.84z"/><path d="m426.8 684.82 87.77 5.78 24.93 1.64a1.2 1.2 0 0 0 1.15-1.51c-2.94-9.93-14.9-15-24.48-12.11a16.57 16.57 0 0 0 -7.25 4.4 1.21 1.21 0 0 0 .85 2 466.37 466.37 0 0 0 71.7-.65q10-.87 20-2.17c1.5-.19 1.52-2.58 0-2.38a468.24 468.24 0 0 1 -71.6 3.75q-10.08-.24-20.13-.93l.84 2c8-8.36 24.45-4.45 27.74 6.66l1.15-1.51-87.76-5.78-24.94-1.64c-1.53-.1-1.52 2.28 0 2.38z"/><path d="m609.67 414.13 23.67 27.76c1 1.17 2.67-.52 1.68-1.68l-23.67-27.77c-1-1.17-2.67.53-1.68 1.69z"/><path d="m612.89 390 23.11 32c.89 1.23 3 0 2.06-1.21l-23.06-31.96c-.89-1.23-3 0-2.06 1.21z"/><path d="m628.06 382a377.5 377.5 0 0 0 33 49.09c1 1.2 2.63-.5 1.68-1.69a374.69 374.69 0 0 1 -32.59-48.6 1.19 1.19 0 0 0 -2.06 1.2z"/><path d="m607 437a449.92 449.92 0 0 1 36.27-45.85c1-1.14-.66-2.83-1.69-1.69a454.39 454.39 0 0 0 -36.64 46.34c-.87 1.27 1.19 2.46 2.06 1.2z"/><path d="m627.17 437.23 24.83-31.07c1-1.18-.73-2.88-1.68-1.68l-24.85 31.06c-1 1.19.72 2.89 1.68 1.69z"/><path d="m641.63 455.67 16-21.29c.92-1.23-1.15-2.42-2.06-1.21l-16 21.3c-.92 1.23 1.15 2.42 2.06 1.2z"/><path d="m655.1 381.41v-1.77a1.19 1.19 0 0 0 -.35-.84 1.16 1.16 0 0 0 -.84-.35 1.15 1.15 0 0 0 -.84.35 1.21 1.21 0 0 0 -.35.84v1.77a1.19 1.19 0 1 0 2.38 0z"/><path d="m628.17 368.41a1.2 1.2 0 0 0 0-2.39 1.2 1.2 0 0 0 0 2.39z"/><path d="m645 434.62 3.55-4.44a1.32 1.32 0 0 0 .35-.84 1.2 1.2 0 0 0 -2-.85l-3.55 4.44a1.32 1.32 0 0 0 -.35.84 1.2 1.2 0 0 0 2 .85z"/></g><g fill="#ff7f00"><path d="m778.49 615.26a32.06 32.06 0 0 0 16.7-7.58c2.21-1.91 4.5-4.3 5.06-7.28a6.24 6.24 0 0 0 -2.61-6.53c-2.39-1.4-5.35-.34-7.13 1.55a8.9 8.9 0 0 0 -2.31 6.58c.26 4.76 3.69 9.32 8.52 10.13 5.8 1 11.58-3 13.37-8.43l-2.34-.32a5.54 5.54 0 0 0 3.88 5.07c2.7 1 5.52.1 8.12-.76 6.37-2.12 12.83-1.41 19.4-1a304.62 304.62 0 0 0 40.76.15q11.43-.72 22.8-2.3c1.51-.21.87-2.51-.63-2.3a306.06 306.06 0 0 1 -38.38 2.81q-9.59.09-19.16-.41c-6.11-.33-12.34-1.29-18.46-.77a28.56 28.56 0 0 0 -4.85.81c-1.56.42-3.05 1-4.61 1.44-2.23.58-6.5.48-6.49-2.79a1.2 1.2 0 0 0 -2.34-.31 10.11 10.11 0 0 1 -8.95 6.83 8.06 8.06 0 0 1 -8-6.26 7.35 7.35 0 0 1 .38-5.14c.86-1.74 3.17-3.74 5.2-2.57s1.8 3.82.95 5.54a16.84 16.84 0 0 1 -4.66 5.18 30.06 30.06 0 0 1 -14.85 6.4c-1.51.21-.87 2.5.63 2.3z"/><path d="m787.92 651.53 50.34-1.1 14.45-.31a1.2 1.2 0 0 0 0-2.39l-50.34 1.1-14.45.31a1.2 1.2 0 0 0 0 2.39z"/><path d="m879.25 653a2.9 2.9 0 0 1 3.34-1.33c1.87.48 2.06 2.42 1.95 4.07-.15 2.09-.64 4.27.16 6.29a7 7 0 0 0 9.68 3.4 1.19 1.19 0 0 0 -1.2-2.06 4.48 4.48 0 0 1 -6.53-4.55c.09-2.22.71-4.51-.19-6.65a4.93 4.93 0 0 0 -4.32-3 5.18 5.18 0 0 0 -4.95 2.6c-.7 1.36 1.35 2.57 2.06 1.2z"/><path d="m790.57 684.34c9.78 1.13 19.57 2.27 29.4 2.85 4.87.28 9.74.43 14.62.36 3.88 0 8.26 0 11.59-2.3 2.54-1.77 4.12-5.28 3.06-8.33a5.31 5.31 0 0 0 -7.32-2.91 5.21 5.21 0 0 0 -2 7.7 5.36 5.36 0 0 0 4.19 2.35 58.78 58.78 0 0 0 7-.12c10.74-.31 21.5-.88 32.09-2.85 1.51-.28.87-2.58-.63-2.3a173.85 173.85 0 0 1 -24.2 2.51c-4 .18-8.07.29-12.1.39-1.54 0-3.29.21-4.31-1.18a2.92 2.92 0 1 1 5.16-1.49c-.07 3.09-2.68 4.9-5.43 5.58-3.55.87-7.49.61-11.12.57-4.13 0-8.26-.21-12.38-.48-9.25-.6-18.46-1.67-27.67-2.74-1.52-.18-1.51 2.21 0 2.39z"/><path d="m817.2 715.54 36.38 1.74c1.54.08 1.53-2.31 0-2.38l-36.38-1.75c-1.54-.07-1.53 2.31 0 2.39z"/><path d="m834.4 741.2 4.44-.88a1.2 1.2 0 0 0 .83-1.47 1.22 1.22 0 0 0 -1.46-.83l-4.44.88a1.19 1.19 0 0 0 -.84 1.46 1.22 1.22 0 0 0 1.47.84z"/></g></svg>